<?xml version="1.0" encoding="utf-8"?>
<!-- Generator: Adobe Illustrator 19.1.0, SVG Export Plug-In . SVG Version: 6.00 Build 0)  -->
<svg version="1.1" id="Layer_1" xmlns="http://www.w3.org/2000/svg" xmlns:xlink="http://www.w3.org/1999/xlink" x="0px" y="0px"
	 viewBox="0 0 1440 700" enable-background="new 0 0 1440 700" xml:space="preserve">
<g>
	<g>
		<path fill="#D6534D" d="M326.1,508.7h78.7c0,0,1.3,36.2-38.6,36.2S326.1,508.7,326.1,508.7z"/>
		<g>
			<g>
				<path fill="#452845" d="M365.5,549.8c-24.4,0-44.3-19.9-44.3-44.3c0-19.2,12.3-36.1,30.3-42l0-16.1l-3.1-2.7v-17.9h17
					c1.9,0,3.5,1.6,3.5,3.5s-1.6,3.5-3.5,3.5h-10v7.7l3.1,2.7l0,24.6l-2.6,0.7c-16.3,4.3-27.7,19.1-27.7,36
					c0,20.5,16.7,37.3,37.3,37.3c1.9,0,3.5,1.6,3.5,3.5S367.4,549.8,365.5,549.8z"/>
			</g>
			<g>
				<path fill="#452845" d="M365.5,549.8c-1.9,0-3.5-1.6-3.5-3.5s1.6-3.5,3.5-3.5c20.5,0,37.3-16.7,37.3-37.3
					c0-16.9-11.4-31.7-27.7-36l-2.6-0.7l0-24.6l3.1-2.7v-7.7h-10c-1.9,0-3.5-1.6-3.5-3.5s1.6-3.5,3.5-3.5h17v17.9l-3.1,2.7l0,16.1
					c18,6,30.3,22.9,30.3,42C409.8,530,389.9,549.8,365.5,549.8z"/>
			</g>
		</g>
		<g>
			<path fill="#452845" d="M373.6,536.5c-19.8,0-35.9-16.1-35.9-35.9c0-1.8,1.5-3.3,3.3-3.3s3.3,1.5,3.3,3.3
				c0,16.2,13.2,29.4,29.4,29.4c1.8,0,3.3,1.5,3.3,3.3S375.5,536.5,373.6,536.5z"/>
		</g>
	</g>
	<g>
		<path fill="#FC7B4D" d="M440.4,516.5h42.5c0,0,17.1,26,15.2,26.5c-1.9,0.5-72.9,0-72.9,0L440.4,516.5z"/>
		<g>
			<path fill="#452845" d="M498.3,549.2H425c-1.6,0-3-0.8-3.7-2c-0.7-1.3-0.7-2.8,0.1-4.2l26.7-46.4c0.1-0.2,0.3-0.9,0.3-1.2v-29.2
				c-1.4-0.8-2.4-2.4-2.4-4.2v-11.3c0-2.6,2.2-4.8,4.8-4.8h21.7c2.6,0,4.8,2.2,4.8,4.8V462c0,1.8-1,3.4-2.4,4.2v29.2
				c0,0.3,0.2,0.9,0.3,1.2l26.7,46.4c0.8,1.4,0.8,2.9,0.1,4.2C501.2,548.5,499.9,549.2,498.3,549.2z M429.1,542.6h65l-24.6-42.8
				c-0.7-1.2-1.2-3.1-1.2-4.5V465c0-1.8,1-3.4,2.4-4.2v-8.3h-18.1v8.3c1.4,0.8,2.4,2.4,2.4,4.2v30.4c0,1.4-0.5,3.2-1.2,4.5
				L429.1,542.6z"/>
		</g>
		<g>
			<path fill="#452845" d="M477,531.4c-1.1,0-2.2-0.6-2.9-1.6l-13.4-23.2c-0.9-1.6-0.4-3.6,1.2-4.5c1.6-0.9,3.6-0.4,4.5,1.2
				l13.4,23.2c0.9,1.6,0.4,3.6-1.2,4.5C478.1,531.2,477.6,531.4,477,531.4z"/>
		</g>
	</g>
	<g>
		<polygon fill="#927776" points="302.1,537.6 302.1,555.9 175.3,555.9 195.9,537.6 		"/>
		<path fill="#927776" d="M183.3,591.7v14.9c0,2.8,2.3,5.2,5.2,5.2c2.8,0,5.2-2.3,5.2-5.2c0,0,0-48,0-48H173c0,0,0,33.1,0,33.1
			c0,2.8,2.3,5.2,5.2,5.2S183.3,594.6,183.3,591.7L183.3,591.7z"/>
		<g>
			<g>
				<path fill="#452845" d="M294.3,558H191.3c-1.9,0-3.5-1.6-3.5-3.5s1.6-3.5,3.5-3.5h102.9c3.1,0,5.6-2.5,5.6-5.6s-2.5-5.6-5.6-5.6
					H191.3c-1.9,0-3.5-1.6-3.5-3.5s1.6-3.5,3.5-3.5h102.9c7,0,12.6,5.7,12.6,12.6S301.2,558,294.3,558z"/>
			</g>
			<g>
				<path fill="#452845" d="M189.8,563.3h-13c-2.8,0-5-2.2-5-5v-25.3c0-2.8,2.2-5,5-5h13c2.8,0,5,2.2,5,5v3.1c0,1.9-1.6,3.5-3.5,3.5
					s-3.5-1.6-3.5-3.5v-1.2h-9.1v21.3h9.1v-1.8c0-1.9,1.6-3.5,3.5-3.5s3.5,1.6,3.5,3.5v3.8C194.8,561.1,192.6,563.3,189.8,563.3z"/>
			</g>
		</g>
	</g>
	<g>
		<path fill="#452845" d="M325.2,448.7c-1.9,0-3.5-1.6-3.5-3.5v-58c0-11.3,9.2-20.5,20.5-20.5s20.5,9.2,20.5,20.5v27.4
			c0,1.9-1.6,3.5-3.5,3.5s-3.5-1.6-3.5-3.5v-27.4c0-7.4-6-13.5-13.5-13.5s-13.5,6-13.5,13.5v58C328.7,447.1,327.1,448.7,325.2,448.7
			z"/>
	</g>
	<g>
		<path fill="#452845" d="M401.5,259.1h-20.3c-1.9,0-3.5-1.6-3.5-3.5s1.6-3.5,3.5-3.5h20.3c1.9,0,3.5,1.6,3.5,3.5
			S403.4,259.1,401.5,259.1z"/>
	</g>
	<g>
		<path fill="#452845" d="M193.5,504.7h-20.3c-1.9,0-3.5-1.6-3.5-3.5s1.6-3.5,3.5-3.5h20.3c1.9,0,3.5,1.6,3.5,3.5
			S195.4,504.7,193.5,504.7z"/>
	</g>
	<g>
		<path fill="#452845" d="M444.6,354.6c-0.9,0-1.8-0.3-2.5-1l-11.5-11.5c-1.4-1.4-1.4-3.6,0-5c1.4-1.4,3.6-1.4,4.9,0l11.5,11.5
			c1.4,1.4,1.4,3.6,0,5C446.4,354.3,445.5,354.6,444.6,354.6z"/>
	</g>
	<g>
		<path fill="#452845" d="M433.1,354.6c-0.9,0-1.8-0.3-2.5-1c-1.4-1.4-1.4-3.6,0-5l11.5-11.5c1.4-1.4,3.6-1.4,4.9,0
			c1.4,1.4,1.4,3.6,0,5l-11.5,11.5C434.9,354.3,434,354.6,433.1,354.6z"/>
	</g>
	<g>
		<path fill="#452845" d="M532.6,327.9c-0.9,0-1.8-0.3-2.5-1l-11.5-11.5c-1.4-1.4-1.4-3.6,0-5c1.4-1.4,3.6-1.4,4.9,0L535,322
			c1.4,1.4,1.4,3.6,0,5C534.4,327.6,533.5,327.9,532.6,327.9z"/>
	</g>
	<g>
		<path fill="#452845" d="M521.1,327.9c-0.9,0-1.8-0.3-2.5-1c-1.4-1.4-1.4-3.6,0-5l11.5-11.5c1.4-1.4,3.6-1.4,4.9,0
			c1.4,1.4,1.4,3.6,0,5l-11.5,11.5C522.9,327.6,522,327.9,521.1,327.9z"/>
	</g>
	<g>
		<path fill="#452845" d="M348.2,353.3c-0.9,0-1.8-0.3-2.5-1l-11.5-11.5c-1.4-1.4-1.4-3.6,0-5c1.4-1.4,3.6-1.4,4.9,0l11.5,11.5
			c1.4,1.4,1.4,3.6,0,5C350,353,349.1,353.3,348.2,353.3z"/>
	</g>
	<g>
		<path fill="#452845" d="M336.7,353.3c-0.9,0-1.8-0.3-2.5-1c-1.4-1.4-1.4-3.6,0-5l11.5-11.5c1.4-1.4,3.6-1.4,4.9,0
			c1.4,1.4,1.4,3.6,0,5l-11.5,11.5C338.5,353,337.6,353.3,336.7,353.3z"/>
	</g>
	<g>
		<path fill="#452845" d="M270,511.4c-5.8,0-10.6-4.8-10.6-10.6v-66.7c0-2-1.6-3.6-3.6-3.6c-2,0-3.6,1.6-3.6,3.6
			c0,1.9-1.6,3.5-3.5,3.5s-3.5-1.6-3.5-3.5c0-5.8,4.8-10.6,10.6-10.6c5.8,0,10.6,4.8,10.6,10.6v66.7c0,2,1.6,3.6,3.6,3.6
			s3.6-1.6,3.6-3.6V361.6c0-11.3,9.2-20.5,20.5-20.5s20.5,9.2,20.5,20.5v83.6c0,1.9-1.6,3.5-3.5,3.5s-3.5-1.6-3.5-3.5v-83.6
			c0-7.4-6-13.5-13.5-13.5s-13.5,6-13.5,13.5l0,139.6C280.4,506.9,275.7,511.4,270,511.4z"/>
	</g>
	<g>
		<path fill="#452845" d="M543.1,529.7h-16.3c-1.9,0-3.5-1.6-3.5-3.5s1.6-3.5,3.5-3.5h16.3c1.9,0,3.5,1.6,3.5,3.5
			S545.1,529.7,543.1,529.7z"/>
	</g>
	<g>
		<path fill="#452845" d="M543.1,539.1h-16.3c-1.9,0-3.5-1.6-3.5-3.5s1.6-3.5,3.5-3.5h16.3c1.9,0,3.5,1.6,3.5,3.5
			S545.1,539.1,543.1,539.1z"/>
	</g>
	<g>
		<rect x="526.8" y="488.8" fill="#466579" width="55.7" height="56.9"/>
		<g>
			<path fill="#452845" d="M543.1,492.3h-16.3c-1.9,0-3.5-1.6-3.5-3.5s1.6-3.5,3.5-3.5h16.3c1.9,0,3.5,1.6,3.5,3.5
				S545.1,492.3,543.1,492.3z"/>
		</g>
		<g>
			<path fill="#452845" d="M543.1,501.6h-16.3c-1.9,0-3.5-1.6-3.5-3.5s1.6-3.5,3.5-3.5h16.3c1.9,0,3.5,1.6,3.5,3.5
				S545.1,501.6,543.1,501.6z"/>
		</g>
		<g>
			<path fill="#452845" d="M543.1,511h-16.3c-1.9,0-3.5-1.6-3.5-3.5s1.6-3.5,3.5-3.5h16.3c1.9,0,3.5,1.6,3.5,3.5
				S545.1,511,543.1,511z"/>
		</g>
		<g>
			<path fill="#452845" d="M543.1,520.3h-16.3c-1.9,0-3.5-1.6-3.5-3.5s1.6-3.5,3.5-3.5h16.3c1.9,0,3.5,1.6,3.5,3.5
				S545.1,520.3,543.1,520.3z"/>
		</g>
		<g>
			<path fill="#452845" d="M581.3,549.2H528c-2.6,0-4.7-2.1-4.7-4.7v-78.1c0-1.9,1.6-3.5,3.5-3.5s3.5,1.6,3.5,3.5v75.9h48.7v-75.9
				c0-1.9,1.6-3.5,3.5-3.5s3.5,1.6,3.5,3.5v78.1C586.1,547.1,583.9,549.2,581.3,549.2z"/>
		</g>
	</g>
	<g>
		<path fill="#452845" d="M588.2,468.6h-5.7c-1.9,0-3.5-1.6-3.5-3.5s1.6-3.5,3.5-3.5h3.4v-1.5h-62.5v1.5h3.4c1.9,0,3.5,1.6,3.5,3.5
			s-1.6,3.5-3.5,3.5h-5.7c-2.6,0-4.7-2.1-4.7-4.7v-6.1c0-2.6,2.1-4.7,4.7-4.7h67.1c2.6,0,4.7,2.1,4.7,4.7v6.1
			C592.9,466.5,590.8,468.6,588.2,468.6z"/>
	</g>
	<g>
		<g>
			<path fill="#452845" d="M1172.5,526.6c-0.7,0-1.5-0.2-2.1-0.7c-1.6-1.2-1.9-3.3-0.7-4.9l44.7-60.2c1.2-1.6,3.3-1.9,4.9-0.7
				c1.6,1.2,1.9,3.3,0.7,4.9l-44.7,60.2C1174.6,526.1,1173.6,526.6,1172.5,526.6z"/>
		</g>
		<rect x="1156.2" y="495" fill="#9D6E80" width="55.7" height="56.9"/>
		<g>
			<path fill="#452845" d="M1172.5,507.9h-16.3c-1.9,0-3.5-1.6-3.5-3.5s1.6-3.5,3.5-3.5h16.3c1.9,0,3.5,1.6,3.5,3.5
				S1174.4,507.9,1172.5,507.9z"/>
		</g>
		<g>
			<path fill="#452845" d="M1172.5,517.2h-16.3c-1.9,0-3.5-1.6-3.5-3.5s1.6-3.5,3.5-3.5h16.3c1.9,0,3.5,1.6,3.5,3.5
				S1174.4,517.2,1172.5,517.2z"/>
		</g>
		<g>
			<path fill="#452845" d="M1172.5,526.6h-16.3c-1.9,0-3.5-1.6-3.5-3.5s1.6-3.5,3.5-3.5h16.3c1.9,0,3.5,1.6,3.5,3.5
				S1174.4,526.6,1172.5,526.6z"/>
		</g>
		<g>
			<path fill="#452845" d="M1172.5,535.9h-16.3c-1.9,0-3.5-1.6-3.5-3.5s1.6-3.5,3.5-3.5h16.3c1.9,0,3.5,1.6,3.5,3.5
				S1174.4,535.9,1172.5,535.9z"/>
		</g>
		<g>
			<path fill="#452845" d="M1172.5,545.3h-16.3c-1.9,0-3.5-1.6-3.5-3.5s1.6-3.5,3.5-3.5h16.3c1.9,0,3.5,1.6,3.5,3.5
				S1174.4,545.3,1172.5,545.3z"/>
		</g>
		<g>
			<path fill="#452845" d="M1210.7,555.4h-53.3c-2.6,0-4.7-2.1-4.7-4.7v-58.1c0-1.9,1.6-3.5,3.5-3.5s3.5,1.6,3.5,3.5v55.8h48.7
				v-55.8c0-1.9,1.6-3.5,3.5-3.5s3.5,1.6,3.5,3.5v58.1C1215.4,553.3,1213.3,555.4,1210.7,555.4z"/>
		</g>
		<g>
			<path fill="#452845" d="M1217.6,494.9h-5.7c-1.9,0-3.5-1.6-3.5-3.5s1.6-3.5,3.5-3.5h3.4v-1.5h-62.5v1.5h3.4
				c1.9,0,3.5,1.6,3.5,3.5s-1.6,3.5-3.5,3.5h-5.7c-2.6,0-4.7-2.1-4.7-4.7v-6.1c0-2.6,2.1-4.7,4.7-4.7h67.1c2.6,0,4.7,2.1,4.7,4.7
				v6.1C1222.3,492.8,1220.2,494.9,1217.6,494.9z"/>
		</g>
	</g>
	<g>
		<path fill="#452845" d="M707.5,211.7c-2.5,0-4.9-1-6.6-2.8c-1.8-1.8-2.8-4.1-2.8-6.6s1-4.9,2.8-6.6c1.8-1.8,4.1-2.8,6.6-2.8
			c2.5,0,4.9,1,6.6,2.8s2.8,4.1,2.8,6.6c0,2.5-1,4.9-2.8,6.6l0,0l0,0C712.4,210.7,710,211.7,707.5,211.7z M707.5,199.9
			c-0.6,0-1.2,0.2-1.7,0.7c-0.5,0.5-0.7,1.1-0.7,1.7s0.2,1.2,0.7,1.7c0.9,0.9,2.5,0.9,3.4,0l0,0c0.5-0.5,0.7-1.1,0.7-1.7
			s-0.2-1.2-0.7-1.7C708.8,200.2,708.2,199.9,707.5,199.9z"/>
	</g>
	<g>
		<path fill="#452845" d="M634.2,110.8c-0.9,0-1.8-0.3-2.5-1l-11.5-11.5c-1.4-1.4-1.4-3.6,0-5c1.4-1.4,3.6-1.4,4.9,0l11.5,11.5
			c1.4,1.4,1.4,3.6,0,5C636,110.5,635.1,110.8,634.2,110.8z"/>
	</g>
	<g>
		<path fill="#452845" d="M622.7,110.8c-0.9,0-1.8-0.3-2.5-1c-1.4-1.4-1.4-3.6,0-5l11.5-11.5c1.4-1.4,3.6-1.4,4.9,0
			c1.4,1.4,1.4,3.6,0,5l-11.5,11.5C624.5,110.5,623.6,110.8,622.7,110.8z"/>
	</g>
	<g>
		<path fill="#452845" d="M1024.7,258.7c-0.9,0-1.8-0.3-2.5-1l-11.5-11.5c-1.4-1.4-1.4-3.6,0-5c1.4-1.4,3.6-1.4,4.9,0l11.5,11.5
			c1.4,1.4,1.4,3.6,0,5C1026.5,258.3,1025.6,258.7,1024.7,258.7z"/>
	</g>
	<g>
		<path fill="#452845" d="M1013.2,258.7c-0.9,0-1.8-0.3-2.5-1c-1.4-1.4-1.4-3.6,0-5l11.5-11.5c1.4-1.4,3.6-1.4,4.9,0
			c1.4,1.4,1.4,3.6,0,5l-11.5,11.5C1015,258.3,1014.1,258.7,1013.2,258.7z"/>
	</g>
	<g>
		<path fill="#452845" d="M1211.6,342.1c-0.9,0-1.8-0.3-2.5-1l-11.5-11.5c-1.4-1.4-1.4-3.6,0-5c1.4-1.4,3.6-1.4,4.9,0l11.5,11.5
			c1.4,1.4,1.4,3.6,0,5C1213.4,341.7,1212.5,342.1,1211.6,342.1z"/>
	</g>
	<g>
		<path fill="#452845" d="M1200.1,342.1c-0.9,0-1.8-0.3-2.5-1c-1.4-1.4-1.4-3.6,0-5l11.5-11.5c1.4-1.4,3.6-1.4,4.9,0
			c1.4,1.4,1.4,3.6,0,5l-11.5,11.5C1201.9,341.7,1201,342.1,1200.1,342.1z"/>
	</g>
	<g>
		<path fill="#452845" d="M562.5,250.9c-2.5,0-4.9-1-6.6-2.8c-1.8-1.8-2.8-4.1-2.8-6.6s1-4.9,2.8-6.6c1.8-1.8,4.1-2.8,6.6-2.8
			c2.5,0,4.9,1,6.6,2.8s2.8,4.1,2.8,6.6s-1,4.9-2.8,6.6l0,0C567.4,249.9,565,250.9,562.5,250.9z M562.5,239.1
			c-0.6,0-1.2,0.2-1.7,0.7c-0.5,0.5-0.7,1.1-0.7,1.7s0.2,1.2,0.7,1.7c0.9,0.9,2.5,0.9,3.4,0c0.5-0.5,0.7-1.1,0.7-1.7
			s-0.2-1.2-0.7-1.7C563.8,239.3,563.2,239.1,562.5,239.1z"/>
	</g>
	<g>
		<path fill="#452845" d="M222.6,482.5c-2.5,0-4.9-1-6.6-2.8c-1.8-1.8-2.8-4.1-2.8-6.6s1-4.9,2.8-6.6c1.8-1.8,4.1-2.8,6.6-2.8
			c2.5,0,4.9,1,6.6,2.8s2.8,4.1,2.8,6.6s-1,4.9-2.8,6.6l0,0C227.5,481.6,225.1,482.5,222.6,482.5z M222.6,470.7
			c-0.6,0-1.2,0.2-1.7,0.7c-0.5,0.5-0.7,1.1-0.7,1.7s0.2,1.2,0.7,1.7c0.9,0.9,2.5,0.9,3.4,0c0.5-0.5,0.7-1.1,0.7-1.7
			s-0.2-1.2-0.7-1.7C223.9,471,223.3,470.7,222.6,470.7z"/>
	</g>
	<g>
		<path fill="#452845" d="M1276.9,482.5c-2.4,0-4.8-0.9-6.6-2.7c-3.7-3.7-3.7-9.6,0-13.3c3.7-3.7,9.6-3.7,13.3,0
			c1.8,1.8,2.8,4.1,2.8,6.6s-1,4.9-2.8,6.6l0,0C1281.7,481.6,1279.3,482.5,1276.9,482.5z M1276.9,470.7c-0.6,0-1.2,0.2-1.7,0.7
			c-0.9,0.9-0.9,2.5,0,3.4c0.9,0.9,2.5,0.9,3.4,0c0.5-0.5,0.7-1.1,0.7-1.7s-0.2-1.2-0.7-1.7C1278.1,471,1277.5,470.7,1276.9,470.7z"
			/>
	</g>
	<g>
		<path fill="#452845" d="M604.4,317.9c-2.4,0-4.8-0.9-6.6-2.7c-3.7-3.7-3.7-9.6,0-13.3c3.7-3.7,9.6-3.7,13.3,0
			c3.7,3.7,3.7,9.6,0,13.3l0,0C609.2,317,606.8,317.9,604.4,317.9z M604.4,306.1c-0.6,0-1.2,0.2-1.7,0.7c-0.9,0.9-0.9,2.5,0,3.4
			c0.9,0.9,2.5,0.9,3.4,0l0,0c0.9-0.9,0.9-2.5,0-3.4C605.6,306.3,605,306.1,604.4,306.1z"/>
	</g>
	<g>
		<path fill="#452845" d="M553.5,420.3c-1.9,0-3.5-1.6-3.5-3.5V283.2c0-11.3,9.2-20.5,20.5-20.5s20.5,9.2,20.5,20.5v28.5
			c0,7.4,6,13.5,13.5,13.5s13.5-6,13.5-13.5l0-176.2c0.2-5.7,4.8-10.3,10.6-10.3c5.8,0,10.6,4.8,10.6,10.6v134.7
			c0,2,1.6,3.6,3.6,3.6s3.6-1.6,3.6-3.6v-58.5c0-11.3,9.2-20.5,20.5-20.5s20.5,9.2,20.5,20.5v53.5c0,2,1.6,3.6,3.6,3.6
			s3.6-1.6,3.6-3.6l0-21.5c0.1-5.8,4.8-10.4,10.6-10.4c5.8,0,10.6,4.8,10.6,10.6v38.6c0,2,1.6,3.6,3.6,3.6s3.6-1.6,3.6-3.6V213
			c0-5.8,4.8-10.6,10.6-10.6c5.8,0,10.6,4.8,10.6,10.6v26.2c0,1.9-1.6,3.5-3.5,3.5s-3.5-1.6-3.5-3.5V213c0-2-1.6-3.6-3.6-3.6
			s-3.6,1.6-3.6,3.6v69.8c0,5.8-4.8,10.6-10.6,10.6s-10.6-4.8-10.6-10.6v-38.6c0-2-1.6-3.6-3.6-3.6s-3.6,1.6-3.6,3.6v21.3
			c0,5.8-4.8,10.6-10.6,10.6s-10.6-4.8-10.6-10.6v-53.5c0-7.4-6-13.5-13.5-13.5s-13.5,6-13.5,13.5v58.5c0,5.8-4.8,10.6-10.6,10.6
			s-10.6-4.8-10.6-10.6V135.9c0-2-1.6-3.6-3.6-3.6s-3.6,1.6-3.6,3.6v175.9c0,11.3-9.2,20.5-20.5,20.5c-11.3,0-20.5-9.2-20.5-20.5
			v-28.5c0-7.4-6-13.5-13.5-13.5s-13.5,6-13.5,13.5v133.6C557,418.8,555.4,420.3,553.5,420.3z"/>
	</g>
	<g>
		<path fill="#452845" d="M897.2,264.7c-2.4,0-4.8-0.9-6.6-2.7c-3.7-3.7-3.7-9.6,0-13.3c3.7-3.7,9.6-3.7,13.3,0
			c3.7,3.7,3.7,9.6,0,13.3l0,0C902,263.8,899.6,264.7,897.2,264.7z M897.2,252.9c-0.6,0-1.2,0.2-1.7,0.7c-0.9,0.9-0.9,2.5,0,3.4
			c0.9,0.9,2.5,0.9,3.4,0l0,0c0.9-0.9,0.9-2.5,0-3.4C898.5,253.2,897.8,252.9,897.2,252.9z"/>
	</g>
	<g>
		<path fill="#452845" d="M908.8,415.1c-5.8,0-10.6-4.8-10.6-10.6V297.2c0-2-1.6-3.6-3.6-3.6s-3.6,1.6-3.6,3.6v21.3
			c0,5.8-4.8,10.6-10.6,10.6s-10.6-4.8-10.6-10.6c0-1.9,1.6-3.5,3.5-3.5s3.5,1.6,3.5,3.5c0,2,1.6,3.6,3.6,3.6s3.6-1.6,3.6-3.6
			l0-21.5c0.1-5.8,4.8-10.4,10.6-10.4c5.8,0,10.6,4.8,10.6,10.6v107.3c0,2,1.6,3.6,3.6,3.6s3.6-1.6,3.6-3.6V266.6h0.1
			c0.7-5.1,5.2-9.1,10.5-9.1s9.8,4,10.5,9.1h0.1v25.5c0,1.9-1.6,3.5-3.5,3.5s-3.5-1.6-3.5-3.5v-24c0-2-1.6-3.6-3.6-3.6
			s-3.6,1.6-3.6,3.6v136.4C919.4,410.3,914.6,415.1,908.8,415.1z"/>
	</g>
	<g>
		<path fill="#452845" d="M1181.8,452.9c-5.8,0-10.6-4.8-10.6-10.6V317.6c0-7.4-6-13.5-13.5-13.5s-13.5,6-13.5,13.5v100.7
			c0,1.9-1.6,3.5-3.5,3.5s-3.5-1.6-3.5-3.5V317.6c0-11.3,9.2-20.5,20.5-20.5s20.5,9.2,20.5,20.5v124.6c0,2,1.6,3.6,3.6,3.6
			s3.6-1.6,3.6-3.6v-68c0-11.3,9.2-20.5,20.5-20.5s20.5,9.2,20.5,20.5v46.4c0,1.9-1.6,3.5-3.5,3.5s-3.5-1.6-3.5-3.5v-46.4
			c0-7.4-6-13.5-13.5-13.5s-13.5,6-13.5,13.5v68C1192.4,448.1,1187.7,452.9,1181.8,452.9z"/>
	</g>
	<g>
		<path fill="#452845" d="M832.6,374c-11.3,0-20.5-9.2-20.5-20.5V218.9c0-2-1.6-3.6-3.6-3.6s-3.6,1.6-3.6,3.6V327
			c0,11.3-9.2,20.5-20.5,20.5s-20.5-9.2-20.5-20.5v-66.4c0-1.9,1.6-3.5,3.5-3.5s3.5,1.6,3.5,3.5V327c0,7.4,6,13.5,13.5,13.5
			s13.5-6,13.5-13.5V218.9c0-5.8,4.8-10.6,10.6-10.6s10.6,4.8,10.6,10.6v134.6c0,7.4,6,13.5,13.5,13.5s13.5-6,13.5-13.5V252.8
			c0-1.9,1.6-3.5,3.5-3.5s3.5,1.6,3.5,3.5v100.7C853.1,364.8,843.9,374,832.6,374z"/>
	</g>
	<g>
		<g>
			<path fill="#452845" d="M996.1,404.8c-5.8,0-10.6-4.8-10.6-10.6V269.6c0-7.4-6-13.5-13.5-13.5s-13.5,6-13.5,13.5v98.3
				c0,1.9-1.6,3.5-3.5,3.5s-3.5-1.6-3.5-3.5v-98.3c0-11.3,9.2-20.5,20.5-20.5s20.5,9.2,20.5,20.5v124.6c0,2,1.6,3.6,3.6,3.6
				s3.6-1.6,3.6-3.6v-98.1c0-11.3,9.2-20.5,20.5-20.5c11.3,0,20.5,9.2,20.5,20.5v76.4c0,7.4,6,13.5,13.5,13.5s13.5-6,13.5-13.5
				l0-50.5c0.1-5.8,4.8-10.4,10.6-10.4c5.8,0,10.6,4.8,10.6,10.6v28.6c0,2,1.6,3.6,3.6,3.6s3.6-1.6,3.6-3.6c0-1.9,1.6-3.5,3.5-3.5
				s3.5,1.6,3.5,3.5c0,5.8-4.8,10.6-10.6,10.6s-10.6-4.8-10.6-10.6v-28.6c0-2-1.6-3.6-3.6-3.6s-3.6,1.6-3.6,3.6v50.3
				c0,11.3-9.2,20.5-20.5,20.5s-20.5-9.2-20.5-20.5v-76.4c0-7.4-6-13.5-13.5-13.5c-7.4,0-13.5,6-13.5,13.5v98.1
				C1006.7,400.1,1001.9,404.8,996.1,404.8z"/>
		</g>
	</g>
	<g>
		<g>
			<rect x="645.4" y="314.3" fill="#E95F6A" width="48.6" height="26.6"/>
			<path fill="#452845" d="M697.4,344.4h-55.6v-33.6h55.6V344.4z M648.9,337.4h41.6v-19.6h-41.6V337.4z"/>
		</g>
		<g>
			<rect x="645.4" y="401.2" fill="#E95F6A" width="48.1" height="26.6"/>
			<path fill="#452845" d="M697,431.3h-55.1v-33.6H697V431.3z M648.9,424.3H690v-19.6h-41.1V424.3z"/>
		</g>
		<g>
			<path fill="#452845" d="M687.8,362.1h-40.7v-24.7h40.7V362.1z M654.2,355.1h26.7v-10.7h-26.7V355.1z"/>
		</g>
		<g>
			<path fill="#452845" d="M687.8,404.7h-40.7v-21.8h40.7V404.7z M654.2,397.7h26.7v-7.8h-26.7V397.7z"/>
		</g>
		<g>
			<path fill="#452845" d="M747.6,408.4h-24.2v-69.8h24.2V408.4z M730.4,401.4h10.2v-55.8h-10.2V401.4z"/>
		</g>
		<g>
			<path fill="#452845" d="M698.2,551.6h-26.6c-1.9,0-3.5-1.6-3.5-3.5s1.6-3.5,3.5-3.5H691l-0.5-25h-43.3v-29.8h63.4v-35.6
				c0-1.9,1.6-3.5,3.5-3.5s3.5,1.6,3.5,3.5v42.6h-63.4v15.8h43.2L698.2,551.6z"/>
		</g>
		<g>
			<path fill="#452845" d="M744.1,551.6h-24.5l-0.8-39.8l21.8-20.1v-55l-25.5-22.2v-54.7c0-1.9,1.6-3.5,3.5-3.5s3.5,1.6,3.5,3.5
				v51.5l25.5,22.2v61.3l-21.7,20.1l0.6,29.7h17.7c1.9,0,3.5,1.6,3.5,3.5S746.1,551.6,744.1,551.6z"/>
		</g>
		<g>
			<path fill="#452845" d="M703.6,489.8h-68.4c-1.9,0-3.5-1.6-3.5-3.5s1.6-3.5,3.5-3.5h68.4c1.9,0,3.5,1.6,3.5,3.5
				S705.6,489.8,703.6,489.8z"/>
		</g>
		<g>
			<path fill="#452845" d="M692.8,456.7h-50.4l-11.7-15l14.8-17.4h47.8l12.6,15.9L692.8,456.7z M645.8,449.7h43.6l7.6-9.5l-7-8.9
				h-41.2l-9,10.6L645.8,449.7z"/>
		</g>
		<g>
			<rect x="658.5" y="453.2" fill="#E95F6A" width="18.9" height="19.6"/>
			<path fill="#452845" d="M681,476.3H655v-26.6H681V476.3z M662,469.3H674v-12.6H662V469.3z"/>
		</g>
		<rect x="653" y="464.1" fill="#452845" width="29.8" height="12.2"/>
		<g>
			<g>
				
					<rect x="624.9" y="446.1" transform="matrix(0.688 0.7257 -0.7257 0.688 528.7289 -318.0937)" fill="#E95F6A" width="18.9" height="19.6"/>
				<path fill="#452845" d="M633.6,474.5l-17.8-18.8l19.3-18.3l17.8,18.8L633.6,474.5z M625.6,455.9l8.2,8.6l9.2-8.7l-8.2-8.6
					L625.6,455.9z"/>
			</g>
			<g>
				
					<rect x="614.1" y="454.7" transform="matrix(0.688 0.7257 -0.7257 0.688 530.6699 -312.7263)" fill="#452845" width="29.8" height="12.2"/>
			</g>
		</g>
		<g>
			<g>
				
					<rect x="692.5" y="444.5" transform="matrix(-0.688 0.7257 -0.7257 -0.688 1514.6144 257.466)" fill="#E95F6A" width="18.9" height="19.6"/>
				<path fill="#452845" d="M702.7,472.9l-19.3-18.3l17.8-18.8l19.3,18.3L702.7,472.9z M693.3,454.3l9.2,8.7l8.2-8.6l-9.2-8.7
					L693.3,454.3z"/>
			</g>
			<g>
				
					<rect x="692.3" y="453.2" transform="matrix(-0.688 0.7257 -0.7257 -0.688 1527.0996 261.9807)" fill="#452845" width="29.8" height="12.2"/>
			</g>
		</g>
		<g>
			<g>
				<path fill="#452845" d="M774.4,556.1h-175c-1.9,0-3.5-1.6-3.5-3.5s1.6-3.5,3.5-3.5h175c1.9,0,3.5,1.6,3.5,3.5
					S776.3,556.1,774.4,556.1z"/>
			</g>
		</g>
		<g>
			<rect x="645.4" y="359.7" fill="#E95F6A" width="81.5" height="26.6"/>
			<path fill="#452845" d="M730.4,389.9h-88.5v-33.6h88.5V389.9z M648.9,382.9h74.5v-19.6h-74.5V382.9z"/>
		</g>
		<g>
			<path fill="#452845" d="M693.5,404.7c-1.9,0-3.5-1.6-3.5-3.5v-14.8c0-1.9,1.6-3.5,3.5-3.5s3.5,1.6,3.5,3.5v14.8
				C697,403.1,695.4,404.7,693.5,404.7z"/>
		</g>
	</g>
	<g>
		<path fill="#FC7B4D" d="M864.8,485.6c4.3,6.2,6.7,13.8,6.7,21.9c0,21.5-17.4,38.9-38.9,38.9c-21.5,0-38.9-17.4-38.9-38.9
			c0-8.1,2.5-15.5,6.6-21.8L864.8,485.6z"/>
		<g>
			<path fill="none" stroke="#452845" stroke-width="7" stroke-linecap="round" stroke-miterlimit="10" d="M832.6,388.1h-13.5v12.8
				l3.1,2.7l0,62.7c-17.4,4.6-30.3,20.5-30.3,39.4c0,22.5,18.2,40.8,40.8,40.8"/>
			<path fill="none" stroke="#452845" stroke-width="7" stroke-linecap="round" stroke-miterlimit="10" d="M832.6,388.1h13.5v12.8
				l-3.1,2.7l0,62.7c17.4,4.6,30.3,20.5,30.3,39.4c0,22.5-18.2,40.8-40.8,40.8"/>
		</g>
		<path fill="none" stroke="#452845" stroke-width="6.5752" stroke-linecap="round" stroke-miterlimit="10" d="M862.2,500.7
			c0,18-14.6,32.7-32.7,32.7"/>
		<path fill="#E95F6A" d="M864.8,485.6c4.3,6.2,6.7,13.8,6.7,21.9c0,21.5-17.4,38.9-38.9,38.9c-21.5,0-38.9-17.4-38.9-38.9
			c0-8.1,2.5-15.5,6.6-21.8L864.8,485.6z"/>
		<g>
			<g>
				<path fill="#452845" d="M832.6,549.9c-24.4,0-44.3-19.9-44.3-44.3c0-19.2,12.3-36.1,30.3-42l0-58.5l-3.1-2.7v-17.9h17
					c1.9,0,3.5,1.6,3.5,3.5s-1.6,3.5-3.5,3.5h-10v7.7l3.1,2.7l0,67l-2.6,0.7c-16.3,4.3-27.7,19.1-27.7,36
					c0,20.5,16.7,37.3,37.3,37.3c1.9,0,3.5,1.6,3.5,3.5S834.5,549.9,832.6,549.9z"/>
			</g>
			<g>
				<path fill="#452845" d="M832.6,549.9c-1.9,0-3.5-1.6-3.5-3.5s1.6-3.5,3.5-3.5c20.5,0,37.3-16.7,37.3-37.3
					c0-16.9-11.4-31.7-27.7-36l-2.6-0.7l0-67l3.1-2.7v-7.7h-10c-1.9,0-3.5-1.6-3.5-3.5s1.6-3.5,3.5-3.5h17v17.9l-3.1,2.7l0,58.5
					c18,6,30.3,22.9,30.3,42C876.8,530.1,857,549.9,832.6,549.9z"/>
			</g>
		</g>
		<g>
			<path fill="#452845" d="M829.6,536.6c-1.8,0-3.3-1.5-3.3-3.3s1.5-3.3,3.3-3.3c16.2,0,29.4-13.2,29.4-29.4c0-1.8,1.5-3.3,3.3-3.3
				s3.3,1.5,3.3,3.3C865.5,520.5,849.4,536.6,829.6,536.6z"/>
		</g>
		<g>
			<path fill="#452845" d="M901.7,556.1H796.8c-1.9,0-3.5-1.6-3.5-3.5s1.6-3.5,3.5-3.5h104.9c1.9,0,3.5,1.6,3.5,3.5
				S903.6,556.1,901.7,556.1z"/>
		</g>
	</g>
	<g>
		<g>
			<path fill="#452845" d="M1007.5,429.7c-0.9,0-1.8-0.3-2.5-1l-11.5-11.5c-1.4-1.4-1.4-3.6,0-5c1.4-1.4,3.6-1.4,4.9,0l11.5,11.5
				c1.4,1.4,1.4,3.6,0,5C1009.3,429.3,1008.4,429.7,1007.5,429.7z"/>
		</g>
		<g>
			<path fill="#452845" d="M996,429.7c-0.9,0-1.8-0.3-2.5-1c-1.4-1.4-1.4-3.6,0-5l11.5-11.5c1.4-1.4,3.6-1.4,4.9,0
				c1.4,1.4,1.4,3.6,0,5l-11.5,11.5C997.8,429.3,996.9,429.7,996,429.7z"/>
		</g>
		<g>
			<path fill="#452845" d="M1098.1,429.7c-0.9,0-1.8-0.3-2.5-1l-11.5-11.5c-1.4-1.4-1.4-3.6,0-5c1.4-1.4,3.6-1.4,4.9,0l11.5,11.5
				c1.4,1.4,1.4,3.6,0,5C1099.9,429.3,1099,429.7,1098.1,429.7z"/>
		</g>
		<g>
			<path fill="#452845" d="M1086.6,429.7c-0.9,0-1.8-0.3-2.5-1c-1.4-1.4-1.4-3.6,0-5l11.5-11.5c1.4-1.4,3.6-1.4,4.9,0
				c1.4,1.4,1.4,3.6,0,5l-11.5,11.5C1088.4,429.3,1087.5,429.7,1086.6,429.7z"/>
		</g>
		<g>
			<path fill="#452845" d="M955.1,429.8c-2.4,0-4.8-0.9-6.6-2.7c-1.8-1.8-2.8-4.1-2.8-6.6s1-4.9,2.8-6.6c3.7-3.7,9.6-3.7,13.3,0
				c3.7,3.7,3.7,9.6,0,13.3l0,0C959.9,428.9,957.5,429.8,955.1,429.8z M955.1,418c-0.6,0-1.2,0.2-1.7,0.7c-0.5,0.5-0.7,1.1-0.7,1.7
				s0.2,1.2,0.7,1.7c0.9,0.9,2.5,0.9,3.4,0c0.9-0.9,0.9-2.5,0-3.4C956.3,418.3,955.7,418,955.1,418z"/>
		</g>
		<g>
			<path fill="#452845" d="M1048.9,429.8c-2.4,0-4.8-0.9-6.6-2.7c-1.8-1.8-2.8-4.1-2.8-6.6s1-4.9,2.8-6.6c3.7-3.7,9.6-3.7,13.3,0
				c3.7,3.7,3.7,9.6,0,13.3l0,0C1053.7,428.9,1051.3,429.8,1048.9,429.8z M1048.9,418c-0.6,0-1.2,0.2-1.7,0.7
				c-0.5,0.5-0.7,1.1-0.7,1.7s0.2,1.2,0.7,1.7c0.9,0.9,2.5,0.9,3.4,0c0.9-0.9,0.9-2.5,0-3.4C1050.1,418.3,1049.5,418,1048.9,418z"/>
		</g>
		<g>
			<g>
				<path fill="#452845" d="M1125.4,556.8c-1.9,0-3.5-1.6-3.5-3.5v-60.7c0-3.1-3.1-5.7-6.9-5.7H934.3c-3.8,0-6.9,2.6-6.9,5.7v60.7
					c0,1.9-1.6,3.5-3.5,3.5s-3.5-1.6-3.5-3.5v-60.7c0-7,6.2-12.7,13.9-12.7H1115c7.7,0,13.9,5.7,13.9,12.7v60.7
					C1128.9,555.2,1127.3,556.8,1125.4,556.8z"/>
			</g>
			<g>
				<path fill="#452845" d="M1132.2,556.8h-13.7c-1.9,0-3.5-1.6-3.5-3.5s1.6-3.5,3.5-3.5h13.7c1.9,0,3.5,1.6,3.5,3.5
					S1134.2,556.8,1132.2,556.8z"/>
			</g>
			<g>
				<path fill="#452845" d="M930.7,556.8H917c-1.9,0-3.5-1.6-3.5-3.5s1.6-3.5,3.5-3.5h13.7c1.9,0,3.5,1.6,3.5,3.5
					S932.6,556.8,930.7,556.8z"/>
			</g>
		</g>
		<g>
			<g>
				<g>
					<rect x="949.1" y="465.6" fill="#E95F6A" width="14.2" height="70"/>
				</g>
				<g>
					<g>
						<path fill="#452845" d="M956.2,540.1c-5.8,0-10.6-4.8-10.6-10.6v-79.9c0-1.9,1.6-3.5,3.5-3.5s3.5,1.6,3.5,3.5v79.9
							c0,2,1.6,3.6,3.6,3.6s3.6-1.6,3.6-3.6v-79.9c0-1.9,1.6-3.5,3.5-3.5s3.5,1.6,3.5,3.5v79.9C966.8,535.4,962,540.1,956.2,540.1z"
							/>
					</g>
					<g>
						<path fill="#452845" d="M965.7,453.2h-2.4c-1.9,0-3.5-1.6-3.5-3.5s1.6-3.5,3.5-3.5h0.1v-5.5h-14.9v5.5h0.6
							c1.9,0,3.5,1.6,3.5,3.5s-1.6,3.5-3.5,3.5h-3c-2.6,0-4.7-2.1-4.7-4.7v-10.1c0-2.6,2.1-4.7,4.7-4.7h19.6c2.6,0,4.7,2.1,4.7,4.7
							v10.1C970.4,451.1,968.3,453.2,965.7,453.2z"/>
					</g>
				</g>
			</g>
			<g>
				<g>
					<rect x="994.9" y="473.1" fill="#8E4E80" width="14.2" height="62.5"/>
				</g>
				<g>
					<g>
						<path fill="#452845" d="M1002,540.1c-5.8,0-10.6-4.8-10.6-10.6v-79.9c0-1.9,1.6-3.5,3.5-3.5s3.5,1.6,3.5,3.5v79.9
							c0,2,1.6,3.6,3.6,3.6s3.6-1.6,3.6-3.6v-79.9c0-1.9,1.6-3.5,3.5-3.5s3.5,1.6,3.5,3.5v79.9
							C1012.6,535.4,1007.8,540.1,1002,540.1z"/>
					</g>
					<g>
						<path fill="#452845" d="M1011.5,453.2h-2.4c-1.9,0-3.5-1.6-3.5-3.5s1.6-3.5,3.5-3.5h0.1v-5.5h-14.9v5.5h0.6
							c1.9,0,3.5,1.6,3.5,3.5s-1.6,3.5-3.5,3.5h-3c-2.6,0-4.7-2.1-4.7-4.7v-10.1c0-2.6,2.1-4.7,4.7-4.7h19.6c2.6,0,4.7,2.1,4.7,4.7
							v10.1C1016.2,451.1,1014.1,453.2,1011.5,453.2z"/>
					</g>
				</g>
			</g>
			<g>
				<g>
					<rect x="1040.7" y="466.5" fill="#466579" width="14.2" height="69.2"/>
				</g>
				<g>
					<g>
						<path fill="#452845" d="M1047.8,540.1c-5.8,0-10.6-4.8-10.6-10.6v-79.9c0-1.9,1.6-3.5,3.5-3.5s3.5,1.6,3.5,3.5v79.9
							c0,2,1.6,3.6,3.6,3.6s3.6-1.6,3.6-3.6v-79.9c0-1.9,1.6-3.5,3.5-3.5s3.5,1.6,3.5,3.5v79.9
							C1058.4,535.4,1053.7,540.1,1047.8,540.1z"/>
					</g>
					<g>
						<path fill="#452845" d="M1057.3,453.2h-2.4c-1.9,0-3.5-1.6-3.5-3.5s1.6-3.5,3.5-3.5h0.1v-5.5h-14.9v5.5h0.6
							c1.9,0,3.5,1.6,3.5,3.5s-1.6,3.5-3.5,3.5h-3c-2.6,0-4.7-2.1-4.7-4.7v-10.1c0-2.6,2.1-4.7,4.7-4.7h19.6c2.6,0,4.7,2.1,4.7,4.7
							v10.1C1062,451.1,1059.9,453.2,1057.3,453.2z"/>
					</g>
				</g>
			</g>
			<g>
				<g>
					<rect x="1086.5" y="456.6" fill="#FC7B4D" width="14.2" height="79"/>
				</g>
				<g>
					<g>
						<path fill="#452845" d="M1093.6,540.1c-5.8,0-10.6-4.8-10.6-10.6v-79.9c0-1.9,1.6-3.5,3.5-3.5s3.5,1.6,3.5,3.5v79.9
							c0,2,1.6,3.6,3.6,3.6s3.6-1.6,3.6-3.6v-79.9c0-1.9,1.6-3.5,3.5-3.5s3.5,1.6,3.5,3.5v79.9
							C1104.2,535.4,1099.5,540.1,1093.6,540.1z"/>
					</g>
					<g>
						<path fill="#452845" d="M1103.2,453.2h-2.4c-1.9,0-3.5-1.6-3.5-3.5s1.6-3.5,3.5-3.5h0.1v-5.5h-14.9v5.5h0.6
							c1.9,0,3.5,1.6,3.5,3.5s-1.6,3.5-3.5,3.5h-3c-2.6,0-4.7-2.1-4.7-4.7v-10.1c0-2.6,2.1-4.7,4.7-4.7h19.6c2.6,0,4.7,2.1,4.7,4.7
							v10.1C1107.8,451.1,1105.7,453.2,1103.2,453.2z"/>
					</g>
				</g>
			</g>
		</g>
		<g>
			<path fill="#452845" d="M1098.1,556.1h-145c-1.9,0-3.5-1.6-3.5-3.5s1.6-3.5,3.5-3.5h145c1.9,0,3.5,1.6,3.5,3.5
				S1100,556.1,1098.1,556.1z"/>
		</g>
	</g>
	<g>
		<path fill="#452845" d="M1319,556.1h-84.9c-1.9,0-3.5-1.6-3.5-3.5s1.6-3.5,3.5-3.5h84.9c1.9,0,3.5,1.6,3.5,3.5
			S1320.9,556.1,1319,556.1z"/>
	</g>
	<g>
		<path fill="#452845" d="M563.1,556.1h-125c-1.9,0-3.5-1.6-3.5-3.5s1.6-3.5,3.5-3.5h125c1.9,0,3.5,1.6,3.5,3.5
			S565.1,556.1,563.1,556.1z"/>
	</g>
	<g>
		<path fill="#452845" d="M404.9,556.1H330c-1.9,0-3.5-1.6-3.5-3.5s1.6-3.5,3.5-3.5h74.9c1.9,0,3.5,1.6,3.5,3.5
			S406.8,556.1,404.9,556.1z"/>
	</g>
	<g>
		<path fill="#452845" d="M463.7,433.5c-5.8,0-10.6-4.8-10.6-10.6v-37.7c0-7.4-6-13.5-13.5-13.5s-13.5,6-13.5,13.5v29.2
			c0,5.8-4.8,10.6-10.6,10.6s-10.6-4.8-10.6-10.6v-128c0-7.4-6-13.5-13.5-13.5s-13.5,6-13.5,13.5v128.2c0,1.9-1.6,3.5-3.5,3.5
			s-3.5-1.6-3.5-3.5V286.3c0-11.3,9.2-20.5,20.5-20.5s20.5,9.2,20.5,20.5v128c0,2,1.6,3.6,3.6,3.6s3.6-1.6,3.6-3.6v-29.2
			c0-11.3,9.2-20.5,20.5-20.5s20.5,9.2,20.5,20.5v37.7c0,2,1.6,3.6,3.6,3.6s3.6-1.6,3.6-3.6V296.2c0-11.3,9.2-20.5,20.5-20.5
			s20.5,9.2,20.5,20.5v77.9c0,2,1.6,3.6,3.6,3.6s3.6-1.6,3.6-3.6v-29.2c0-1.9,1.6-3.5,3.5-3.5s3.5,1.6,3.5,3.5v29.2
			c0,5.8-4.8,10.6-10.6,10.6s-10.6-4.8-10.6-10.6v-77.9c0-7.4-6-13.5-13.5-13.5s-13.5,6-13.5,13.5v128.2h-0.1
			C473.4,429.5,469,433.5,463.7,433.5z"/>
	</g>
	<g>
		<path fill="#452845" d="M155.9,559.1H121c-1.9,0-3.5-1.6-3.5-3.5s1.6-3.5,3.5-3.5h34.9c1.9,0,3.5,1.6,3.5,3.5
			S157.8,559.1,155.9,559.1z"/>
	</g>
	<path fill="#452845" d="M141.3,99.3H121c-1.9,0-3.5-1.6-3.5-3.5s1.6-3.5,3.5-3.5h20.3c1.9,0,3.5,1.6,3.5,3.5S143.3,99.3,141.3,99.3
		z"/>
</g>
</svg>
