<?xml version="1.0" encoding="utf-8"?>
<!-- Generator: Adobe Illustrator 19.1.0, SVG Export Plug-In . SVG Version: 6.00 Build 0)  -->
<svg version="1.1" id="Layer_1" xmlns="http://www.w3.org/2000/svg" xmlns:xlink="http://www.w3.org/1999/xlink" x="0px" y="0px"
	 viewBox="0 0 1222.4 537" enable-background="new 0 0 1222.4 537" xml:space="preserve">
<g>
	<g>
		<path fill="#D6534D" d="M218.2,423.9H297c0,0,1.3,36.2-38.6,36.2S218.2,423.9,218.2,423.9z"/>
		<g>
			<g>
				<path fill="#452845" d="M257.6,465.1c-24.4,0-44.3-19.9-44.3-44.3c0-19.2,12.3-36.1,30.3-42l0-16.1l-3.1-2.7v-17.9h17
					c1.9,0,3.5,1.6,3.5,3.5s-1.6,3.5-3.5,3.5h-10v7.7l3.1,2.7l0,24.6l-2.6,0.7c-16.3,4.3-27.7,19.1-27.7,36
					c0,20.5,16.7,37.3,37.3,37.3c1.9,0,3.5,1.6,3.5,3.5S259.5,465.1,257.6,465.1z"/>
			</g>
			<g>
				<path fill="#452845" d="M257.6,465.1c-1.9,0-3.5-1.6-3.5-3.5s1.6-3.5,3.5-3.5c20.5,0,37.3-16.7,37.3-37.3
					c0-16.9-11.4-31.7-27.7-36l-2.6-0.7l0-24.6l3.1-2.7v-7.7h-10c-1.9,0-3.5-1.6-3.5-3.5s1.6-3.5,3.5-3.5h17V360l-3.1,2.7l0,16.1
					c18,6,30.3,22.9,30.3,42C301.9,445.3,282,465.1,257.6,465.1z"/>
			</g>
		</g>
		<g>
			<path fill="#452845" d="M265.7,451.8c-19.8,0-35.9-16.1-35.9-35.9c0-1.8,1.5-3.3,3.3-3.3s3.3,1.5,3.3,3.3
				c0,16.2,13.2,29.4,29.4,29.4c1.8,0,3.3,1.5,3.3,3.3S267.6,451.8,265.7,451.8z"/>
		</g>
	</g>
	<g>
		<path fill="#FC7B4D" d="M332.5,431.8H375c0,0,17.1,26,15.2,26.5c-1.9,0.5-72.9,0-72.9,0L332.5,431.8z"/>
		<g>
			<path fill="#452845" d="M390.4,464.5h-73.3c-1.6,0-3-0.8-3.7-2c-0.7-1.3-0.7-2.8,0.1-4.2l26.7-46.4c0.1-0.2,0.3-0.9,0.3-1.2
				v-29.2c-1.4-0.8-2.4-2.4-2.4-4.2V366c0-2.6,2.2-4.8,4.8-4.8h21.7c2.6,0,4.8,2.2,4.8,4.8v11.3c0,1.8-1,3.4-2.4,4.2v29.2
				c0,0.3,0.2,0.9,0.3,1.2l26.7,46.4c0.8,1.4,0.8,2.9,0.1,4.2C393.3,463.7,392,464.5,390.4,464.5z M321.2,457.9h65l-24.6-42.8
				c-0.7-1.2-1.2-3.1-1.2-4.5v-30.4c0-1.8,1-3.4,2.4-4.2v-8.3h-18.1v8.3c1.4,0.8,2.4,2.4,2.4,4.2v30.4c0,1.4-0.5,3.2-1.2,4.5
				L321.2,457.9z"/>
		</g>
		<g>
			<path fill="#452845" d="M369.1,446.6c-1.1,0-2.2-0.6-2.9-1.6l-13.4-23.2c-0.9-1.6-0.4-3.6,1.2-4.5c1.6-0.9,3.6-0.4,4.5,1.2
				l13.4,23.2c0.9,1.6,0.4,3.6-1.2,4.5C370.2,446.5,369.7,446.6,369.1,446.6z"/>
		</g>
	</g>
	<g>
		<polygon fill="#927776" points="194.2,452.9 194.2,471.2 67.4,471.2 88,452.9 		"/>
		<path fill="#927776" d="M75.4,507v14.9c0,2.8,2.3,5.2,5.2,5.2c2.8,0,5.2-2.3,5.2-5.2l0-48H65.1l0,33.1c0,2.8,2.3,5.2,5.2,5.2
			C73.1,512.2,75.4,509.9,75.4,507L75.4,507z"/>
		<g>
			<g>
				<path fill="#452845" d="M186.4,473.3H83.4c-1.9,0-3.5-1.6-3.5-3.5s1.6-3.5,3.5-3.5h102.9c3.1,0,5.6-2.5,5.6-5.6
					s-2.5-5.6-5.6-5.6H83.4c-1.9,0-3.5-1.6-3.5-3.5s1.6-3.5,3.5-3.5h102.9c7,0,12.6,5.7,12.6,12.6S193.3,473.3,186.4,473.3z"/>
			</g>
			<g>
				<path fill="#452845" d="M81.9,478.6h-13c-2.8,0-5-2.2-5-5v-25.3c0-2.8,2.2-5,5-5h13c2.8,0,5,2.2,5,5v3.1c0,1.9-1.6,3.5-3.5,3.5
					s-3.5-1.6-3.5-3.5v-1.2h-9.1v21.3h9.1v-1.8c0-1.9,1.6-3.5,3.5-3.5s3.5,1.6,3.5,3.5v3.8C86.9,476.4,84.7,478.6,81.9,478.6z"/>
			</g>
		</g>
	</g>
	<g>
		<path fill="#452845" d="M217.3,363.9c-1.9,0-3.5-1.6-3.5-3.5v-58c0-11.3,9.2-20.5,20.5-20.5s20.5,9.2,20.5,20.5v27.4
			c0,1.9-1.6,3.5-3.5,3.5s-3.5-1.6-3.5-3.5v-27.4c0-7.4-6-13.5-13.5-13.5s-13.5,6-13.5,13.5v58C220.8,362.4,219.2,363.9,217.3,363.9
			z"/>
	</g>
	<g>
		<path fill="#452845" d="M293.6,174.4h-20.3c-1.9,0-3.5-1.6-3.5-3.5s1.6-3.5,3.5-3.5h20.3c1.9,0,3.5,1.6,3.5,3.5
			S295.5,174.4,293.6,174.4z"/>
	</g>
	<g>
		<path fill="#452845" d="M85.6,419.9H65.3c-1.9,0-3.5-1.6-3.5-3.5s1.6-3.5,3.5-3.5h20.3c1.9,0,3.5,1.6,3.5,3.5
			S87.5,419.9,85.6,419.9z"/>
	</g>
	<g>
		<path fill="#452845" d="M336.7,269.9c-0.9,0-1.8-0.3-2.5-1l-11.5-11.5c-1.4-1.4-1.4-3.6,0-5c1.4-1.4,3.6-1.4,4.9,0l11.5,11.5
			c1.4,1.4,1.4,3.6,0,5C338.5,269.6,337.6,269.9,336.7,269.9z"/>
	</g>
	<g>
		<path fill="#452845" d="M325.2,269.9c-0.9,0-1.8-0.3-2.5-1c-1.4-1.4-1.4-3.6,0-5l11.5-11.5c1.4-1.4,3.6-1.4,4.9,0
			c1.4,1.4,1.4,3.6,0,5l-11.5,11.5C327,269.6,326.1,269.9,325.2,269.9z"/>
	</g>
	<g>
		<path fill="#452845" d="M424.7,243.2c-0.9,0-1.8-0.3-2.5-1l-11.5-11.5c-1.4-1.4-1.4-3.6,0-5c1.4-1.4,3.6-1.4,4.9,0l11.5,11.5
			c1.4,1.4,1.4,3.6,0,5C426.5,242.9,425.6,243.2,424.7,243.2z"/>
	</g>
	<g>
		<path fill="#452845" d="M413.2,243.2c-0.9,0-1.8-0.3-2.5-1c-1.4-1.4-1.4-3.6,0-5l11.5-11.5c1.4-1.4,3.6-1.4,4.9,0
			c1.4,1.4,1.4,3.6,0,5l-11.5,11.5C415,242.9,414.1,243.2,413.2,243.2z"/>
	</g>
	<g>
		<path fill="#452845" d="M240.3,268.6c-0.9,0-1.8-0.3-2.5-1l-11.5-11.5c-1.4-1.4-1.4-3.6,0-5c1.4-1.4,3.6-1.4,4.9,0l11.5,11.5
			c1.4,1.4,1.4,3.6,0,5C242.1,268.3,241.2,268.6,240.3,268.6z"/>
	</g>
	<g>
		<path fill="#452845" d="M228.8,268.6c-0.9,0-1.8-0.3-2.5-1c-1.4-1.4-1.4-3.6,0-5l11.5-11.5c1.4-1.4,3.6-1.4,4.9,0
			c1.4,1.4,1.4,3.6,0,5l-11.5,11.5C230.6,268.3,229.7,268.6,228.8,268.6z"/>
	</g>
	<g>
		<path fill="#452845" d="M162.1,426.7c-5.8,0-10.6-4.8-10.6-10.6v-66.7c0-2-1.6-3.6-3.6-3.6s-3.6,1.6-3.6,3.6
			c0,1.9-1.6,3.5-3.5,3.5s-3.5-1.6-3.5-3.5c0-5.8,4.8-10.6,10.6-10.6s10.6,4.8,10.6,10.6v66.7c0,2,1.6,3.6,3.6,3.6s3.6-1.6,3.6-3.6
			V276.8c0-11.3,9.2-20.5,20.5-20.5s20.5,9.2,20.5,20.5v83.6c0,1.9-1.6,3.5-3.5,3.5s-3.5-1.6-3.5-3.5v-83.6c0-7.4-6-13.5-13.5-13.5
			s-13.5,6-13.5,13.5l0,139.6C172.5,422.1,167.8,426.7,162.1,426.7z"/>
	</g>
	<g>
		<path fill="#452845" d="M435.2,445h-16.3c-1.9,0-3.5-1.6-3.5-3.5s1.6-3.5,3.5-3.5h16.3c1.9,0,3.5,1.6,3.5,3.5S437.2,445,435.2,445
			z"/>
	</g>
	<g>
		<path fill="#452845" d="M435.2,454.3h-16.3c-1.9,0-3.5-1.6-3.5-3.5s1.6-3.5,3.5-3.5h16.3c1.9,0,3.5,1.6,3.5,3.5
			S437.2,454.3,435.2,454.3z"/>
	</g>
	<g>
		<rect x="418.9" y="404" fill="#466579" width="55.7" height="56.9"/>
		<g>
			<path fill="#452845" d="M435.2,407.5h-16.3c-1.9,0-3.5-1.6-3.5-3.5s1.6-3.5,3.5-3.5h16.3c1.9,0,3.5,1.6,3.5,3.5
				S437.2,407.5,435.2,407.5z"/>
		</g>
		<g>
			<path fill="#452845" d="M435.2,416.9h-16.3c-1.9,0-3.5-1.6-3.5-3.5s1.6-3.5,3.5-3.5h16.3c1.9,0,3.5,1.6,3.5,3.5
				S437.2,416.9,435.2,416.9z"/>
		</g>
		<g>
			<path fill="#452845" d="M435.2,426.3h-16.3c-1.9,0-3.5-1.6-3.5-3.5s1.6-3.5,3.5-3.5h16.3c1.9,0,3.5,1.6,3.5,3.5
				S437.2,426.3,435.2,426.3z"/>
		</g>
		<g>
			<path fill="#452845" d="M435.2,435.6h-16.3c-1.9,0-3.5-1.6-3.5-3.5s1.6-3.5,3.5-3.5h16.3c1.9,0,3.5,1.6,3.5,3.5
				S437.2,435.6,435.2,435.6z"/>
		</g>
		<g>
			<path fill="#452845" d="M473.4,464.5h-53.3c-2.6,0-4.7-2.1-4.7-4.7v-78.1c0-1.9,1.6-3.5,3.5-3.5s3.5,1.6,3.5,3.5v75.9h48.7v-75.9
				c0-1.9,1.6-3.5,3.5-3.5s3.5,1.6,3.5,3.5v78.1C478.2,462.4,476,464.5,473.4,464.5z"/>
		</g>
	</g>
	<g>
		<path fill="#452845" d="M480.3,383.9h-5.7c-1.9,0-3.5-1.6-3.5-3.5s1.6-3.5,3.5-3.5h3.4v-1.5h-62.5v1.5h3.4c1.9,0,3.5,1.6,3.5,3.5
			s-1.6,3.5-3.5,3.5h-5.7c-2.6,0-4.7-2.1-4.7-4.7v-6.1c0-2.6,2.1-4.7,4.7-4.7h67.1c2.6,0,4.7,2.1,4.7,4.7v6.1
			C485,381.8,482.9,383.9,480.3,383.9z"/>
	</g>
	<g>
		<g>
			<path fill="#452845" d="M1064.6,441.9c-0.7,0-1.5-0.2-2.1-0.7c-1.6-1.2-1.9-3.3-0.7-4.9l44.7-60.2c1.2-1.6,3.3-1.9,4.9-0.7
				c1.6,1.2,1.9,3.3,0.7,4.9l-44.7,60.2C1066.7,441.4,1065.7,441.9,1064.6,441.9z"/>
		</g>
		<rect x="1048.3" y="410.3" fill="#9D6E80" width="55.7" height="56.9"/>
		<g>
			<path fill="#452845" d="M1064.6,423.1h-16.3c-1.9,0-3.5-1.6-3.5-3.5s1.6-3.5,3.5-3.5h16.3c1.9,0,3.5,1.6,3.5,3.5
				S1066.5,423.1,1064.6,423.1z"/>
		</g>
		<g>
			<path fill="#452845" d="M1064.6,432.5h-16.3c-1.9,0-3.5-1.6-3.5-3.5s1.6-3.5,3.5-3.5h16.3c1.9,0,3.5,1.6,3.5,3.5
				S1066.5,432.5,1064.6,432.5z"/>
		</g>
		<g>
			<path fill="#452845" d="M1064.6,441.9h-16.3c-1.9,0-3.5-1.6-3.5-3.5s1.6-3.5,3.5-3.5h16.3c1.9,0,3.5,1.6,3.5,3.5
				S1066.5,441.9,1064.6,441.9z"/>
		</g>
		<g>
			<path fill="#452845" d="M1064.6,451.2h-16.3c-1.9,0-3.5-1.6-3.5-3.5s1.6-3.5,3.5-3.5h16.3c1.9,0,3.5,1.6,3.5,3.5
				S1066.5,451.2,1064.6,451.2z"/>
		</g>
		<g>
			<path fill="#452845" d="M1064.6,460.6h-16.3c-1.9,0-3.5-1.6-3.5-3.5s1.6-3.5,3.5-3.5h16.3c1.9,0,3.5,1.6,3.5,3.5
				S1066.5,460.6,1064.6,460.6z"/>
		</g>
		<g>
			<path fill="#452845" d="M1102.8,470.7h-53.3c-2.6,0-4.7-2.1-4.7-4.7v-58.1c0-1.9,1.6-3.5,3.5-3.5s3.5,1.6,3.5,3.5v55.8h48.7
				v-55.8c0-1.9,1.6-3.5,3.5-3.5s3.5,1.6,3.5,3.5V466C1107.5,468.6,1105.4,470.7,1102.8,470.7z"/>
		</g>
		<g>
			<path fill="#452845" d="M1109.7,410.2h-5.7c-1.9,0-3.5-1.6-3.5-3.5s1.6-3.5,3.5-3.5h3.4v-1.5h-62.5v1.5h3.4
				c1.9,0,3.5,1.6,3.5,3.5s-1.6,3.5-3.5,3.5h-5.7c-2.6,0-4.7-2.1-4.7-4.7v-6.1c0-2.6,2.1-4.7,4.7-4.7h67.1c2.6,0,4.7,2.1,4.7,4.7
				v6.1C1114.4,408.1,1112.3,410.2,1109.7,410.2z"/>
		</g>
	</g>
	<g>
		<path fill="#452845" d="M599.6,127c-2.5,0-4.9-1-6.6-2.8c-1.8-1.8-2.8-4.1-2.8-6.6s1-4.9,2.8-6.6c1.8-1.8,4.1-2.8,6.6-2.8
			c2.5,0,4.9,1,6.6,2.8s2.8,4.1,2.8,6.6c0,2.5-1,4.9-2.8,6.6l0,0l0,0C604.5,126,602.2,127,599.6,127z M599.6,115.2
			c-0.6,0-1.2,0.2-1.7,0.7c-0.5,0.5-0.7,1.1-0.7,1.7s0.2,1.2,0.7,1.7c0.9,0.9,2.5,0.9,3.4,0l0,0c0.5-0.5,0.7-1.1,0.7-1.7
			s-0.2-1.2-0.7-1.7C600.9,115.5,600.3,115.2,599.6,115.2z"/>
	</g>
	<g>
		<path fill="#452845" d="M526.3,26.1c-0.9,0-1.8-0.3-2.5-1l-11.5-11.5c-1.4-1.4-1.4-3.6,0-5c1.4-1.4,3.6-1.4,4.9,0l11.5,11.5
			c1.4,1.4,1.4,3.6,0,5C528.1,25.8,527.2,26.1,526.3,26.1z"/>
	</g>
	<g>
		<path fill="#452845" d="M514.8,26.1c-0.9,0-1.8-0.3-2.5-1c-1.4-1.4-1.4-3.6,0-5l11.5-11.5c1.4-1.4,3.6-1.4,4.9,0
			c1.4,1.4,1.4,3.6,0,5l-11.5,11.5C516.6,25.8,515.7,26.1,514.8,26.1z"/>
	</g>
	<g>
		<path fill="#452845" d="M916.8,174c-0.9,0-1.8-0.3-2.5-1l-11.5-11.5c-1.4-1.4-1.4-3.6,0-5c1.4-1.4,3.6-1.4,4.9,0l11.5,11.5
			c1.4,1.4,1.4,3.6,0,5C918.6,173.6,917.7,174,916.8,174z"/>
	</g>
	<g>
		<path fill="#452845" d="M905.3,174c-0.9,0-1.8-0.3-2.5-1c-1.4-1.4-1.4-3.6,0-5l11.5-11.5c1.4-1.4,3.6-1.4,4.9,0
			c1.4,1.4,1.4,3.6,0,5l-11.5,11.5C907.1,173.6,906.2,174,905.3,174z"/>
	</g>
	<g>
		<path fill="#452845" d="M1103.7,257.4c-0.9,0-1.8-0.3-2.5-1l-11.5-11.5c-1.4-1.4-1.4-3.6,0-5c1.4-1.4,3.6-1.4,4.9,0l11.5,11.5
			c1.4,1.4,1.4,3.6,0,5C1105.5,257,1104.6,257.4,1103.7,257.4z"/>
	</g>
	<g>
		<path fill="#452845" d="M1092.2,257.4c-0.9,0-1.8-0.3-2.5-1c-1.4-1.4-1.4-3.6,0-5l11.5-11.5c1.4-1.4,3.6-1.4,4.9,0
			c1.4,1.4,1.4,3.6,0,5l-11.5,11.5C1094,257,1093.1,257.4,1092.2,257.4z"/>
	</g>
	<g>
		<path fill="#452845" d="M454.6,166.1c-2.5,0-4.9-1-6.6-2.8c-1.8-1.8-2.8-4.1-2.8-6.6s1-4.9,2.8-6.6c1.8-1.8,4.1-2.8,6.6-2.8
			c2.5,0,4.9,1,6.6,2.8s2.8,4.1,2.8,6.6s-1,4.9-2.8,6.6l0,0C459.5,165.2,457.1,166.1,454.6,166.1z M454.6,154.4
			c-0.6,0-1.2,0.2-1.7,0.7c-0.5,0.5-0.7,1.1-0.7,1.7s0.2,1.2,0.7,1.7c0.9,0.9,2.5,0.9,3.4,0c0.5-0.5,0.7-1.1,0.7-1.7
			s-0.2-1.2-0.7-1.7C455.9,154.6,455.3,154.4,454.6,154.4z"/>
	</g>
	<g>
		<path fill="#452845" d="M114.7,397.8c-2.5,0-4.9-1-6.6-2.8c-1.8-1.8-2.8-4.1-2.8-6.6s1-4.9,2.8-6.6c1.8-1.8,4.1-2.8,6.6-2.8
			c2.5,0,4.9,1,6.6,2.8s2.8,4.1,2.8,6.6s-1,4.9-2.8,6.6l0,0C119.6,396.8,117.2,397.8,114.7,397.8z M114.7,386
			c-0.6,0-1.2,0.2-1.7,0.7c-0.5,0.5-0.7,1.1-0.7,1.7s0.2,1.2,0.7,1.7c0.9,0.9,2.5,0.9,3.4,0c0.5-0.5,0.7-1.1,0.7-1.7
			s-0.2-1.2-0.7-1.7C116,386.3,115.4,386,114.7,386z"/>
	</g>
	<g>
		<path fill="#452845" d="M1169,397.8c-2.4,0-4.8-0.9-6.6-2.7c-3.7-3.7-3.7-9.6,0-13.3c3.7-3.7,9.6-3.7,13.3,0
			c1.8,1.8,2.8,4.1,2.8,6.6s-1,4.9-2.8,6.6l0,0C1173.8,396.9,1171.4,397.8,1169,397.8z M1169,386c-0.6,0-1.2,0.2-1.7,0.7
			c-0.9,0.9-0.9,2.5,0,3.4c0.9,0.9,2.5,0.9,3.4,0c0.5-0.5,0.7-1.1,0.7-1.7s-0.2-1.2-0.7-1.7C1170.2,386.3,1169.6,386,1169,386z"/>
	</g>
	<g>
		<path fill="#452845" d="M496.5,233.1c-2.4,0-4.8-0.9-6.6-2.7c-3.7-3.7-3.7-9.6,0-13.3c3.7-3.7,9.6-3.7,13.3,0
			c3.7,3.7,3.7,9.6,0,13.3l0,0C501.3,232.2,498.9,233.1,496.5,233.1z M496.5,221.4c-0.6,0-1.2,0.2-1.7,0.7c-0.9,0.9-0.9,2.5,0,3.4
			c0.9,0.9,2.5,0.9,3.4,0l0,0c0.9-0.9,0.9-2.5,0-3.4C497.7,221.6,497.1,221.4,496.5,221.4z"/>
	</g>
	<g>
		<path fill="#452845" d="M445.6,335.6c-1.9,0-3.5-1.6-3.5-3.5V198.5c0-11.3,9.2-20.5,20.5-20.5s20.5,9.2,20.5,20.5V227
			c0,7.4,6,13.5,13.5,13.5s13.5-6,13.5-13.5l0-176.2c0.2-5.7,4.8-10.3,10.6-10.3c5.8,0,10.6,4.8,10.6,10.6v134.7
			c0,2,1.6,3.6,3.6,3.6s3.6-1.6,3.6-3.6v-58.5c0-11.3,9.2-20.5,20.5-20.5s20.5,9.2,20.5,20.5v53.5c0,2,1.6,3.6,3.6,3.6
			s3.6-1.6,3.6-3.6l0-21.5c0.1-5.8,4.8-10.4,10.6-10.4c5.8,0,10.6,4.8,10.6,10.6v38.6c0,2,1.6,3.6,3.6,3.6s3.6-1.6,3.6-3.6v-69.8
			c0-5.8,4.8-10.6,10.6-10.6c5.8,0,10.6,4.8,10.6,10.6v26.2c0,1.9-1.6,3.5-3.5,3.5s-3.5-1.6-3.5-3.5v-26.2c0-2-1.6-3.6-3.6-3.6
			s-3.6,1.6-3.6,3.6v69.8c0,5.8-4.8,10.6-10.6,10.6s-10.6-4.8-10.6-10.6v-38.6c0-2-1.6-3.6-3.6-3.6s-3.6,1.6-3.6,3.6v21.3
			c0,5.8-4.8,10.6-10.6,10.6s-10.6-4.8-10.6-10.6v-53.5c0-7.4-6-13.5-13.5-13.5s-13.5,6-13.5,13.5v58.5c0,5.8-4.8,10.6-10.6,10.6
			s-10.6-4.8-10.6-10.6V51.2c0-2-1.6-3.6-3.6-3.6s-3.6,1.6-3.6,3.6V227c0,11.3-9.2,20.5-20.5,20.5c-11.3,0-20.5-9.2-20.5-20.5v-28.5
			c0-7.4-6-13.5-13.5-13.5s-13.5,6-13.5,13.5v133.6C449.1,334,447.5,335.6,445.6,335.6z"/>
	</g>
	<g>
		<path fill="#452845" d="M789.3,180c-2.4,0-4.8-0.9-6.6-2.7c-3.7-3.7-3.7-9.6,0-13.3c3.7-3.7,9.6-3.7,13.3,0
			c3.7,3.7,3.7,9.6,0,13.3l0,0C794.1,179.1,791.7,180,789.3,180z M789.3,168.2c-0.6,0-1.2,0.2-1.7,0.7c-0.9,0.9-0.9,2.5,0,3.4
			c0.9,0.9,2.5,0.9,3.4,0l0,0c0.9-0.9,0.9-2.5,0-3.4C790.6,168.4,789.9,168.2,789.3,168.2z"/>
	</g>
	<g>
		<path fill="#452845" d="M800.9,330.4c-5.8,0-10.6-4.8-10.6-10.6V212.5c0-2-1.6-3.6-3.6-3.6s-3.6,1.6-3.6,3.6v21.3
			c0,5.8-4.8,10.6-10.6,10.6s-10.6-4.8-10.6-10.6c0-1.9,1.6-3.5,3.5-3.5s3.5,1.6,3.5,3.5c0,2,1.6,3.6,3.6,3.6s3.6-1.6,3.6-3.6
			l0-21.5c0.1-5.8,4.8-10.4,10.6-10.4c5.8,0,10.6,4.8,10.6,10.6v107.3c0,2,1.6,3.6,3.6,3.6s3.6-1.6,3.6-3.6V181.9h0.1
			c0.7-5.1,5.2-9.1,10.5-9.1s9.8,4,10.5,9.1h0.1v25.5c0,1.9-1.6,3.5-3.5,3.5s-3.5-1.6-3.5-3.5v-24c0-2-1.6-3.6-3.6-3.6
			s-3.6,1.6-3.6,3.6v136.4C811.5,325.6,806.7,330.4,800.9,330.4z"/>
	</g>
	<g>
		<path fill="#452845" d="M1073.9,368.1c-5.8,0-10.6-4.8-10.6-10.6V232.9c0-7.4-6-13.5-13.5-13.5s-13.5,6-13.5,13.5v100.7
			c0,1.9-1.6,3.5-3.5,3.5s-3.5-1.6-3.5-3.5V232.9c0-11.3,9.2-20.5,20.5-20.5s20.5,9.2,20.5,20.5v124.6c0,2,1.6,3.6,3.6,3.6
			s3.6-1.6,3.6-3.6v-68c0-11.3,9.2-20.5,20.5-20.5s20.5,9.2,20.5,20.5v46.4c0,1.9-1.6,3.5-3.5,3.5s-3.5-1.6-3.5-3.5v-46.4
			c0-7.4-6-13.5-13.5-13.5s-13.5,6-13.5,13.5v68C1084.5,363.4,1079.8,368.1,1073.9,368.1z"/>
	</g>
	<g>
		<path fill="#452845" d="M724.8,289.3c-11.3,0-20.5-9.2-20.5-20.5V134.2c0-2-1.6-3.6-3.6-3.6s-3.6,1.6-3.6,3.6v108.1
			c0,11.3-9.2,20.5-20.5,20.5s-20.5-9.2-20.5-20.5v-66.4c0-1.9,1.6-3.5,3.5-3.5s3.5,1.6,3.5,3.5v66.4c0,7.4,6,13.5,13.5,13.5
			s13.5-6,13.5-13.5V134.2c0-5.8,4.8-10.6,10.6-10.6s10.6,4.8,10.6,10.6v134.6c0,7.4,6,13.5,13.5,13.5s13.5-6,13.5-13.5V168.1
			c0-1.9,1.6-3.5,3.5-3.5s3.5,1.6,3.5,3.5v100.7C745.2,280.1,736,289.3,724.8,289.3z"/>
	</g>
	<g>
		<g>
			<path fill="#452845" d="M888.2,320.1c-5.8,0-10.6-4.8-10.6-10.6V184.9c0-7.4-6-13.5-13.5-13.5s-13.5,6-13.5,13.5v98.3
				c0,1.9-1.6,3.5-3.5,3.5s-3.5-1.6-3.5-3.5v-98.3c0-11.3,9.2-20.5,20.5-20.5s20.5,9.2,20.5,20.5v124.6c0,2,1.6,3.6,3.6,3.6
				s3.6-1.6,3.6-3.6v-98.1c0-11.3,9.2-20.5,20.5-20.5c11.3,0,20.5,9.2,20.5,20.5v76.4c0,7.4,6,13.5,13.5,13.5s13.5-6,13.5-13.5
				l0-50.5c0.1-5.8,4.8-10.4,10.6-10.4c5.8,0,10.6,4.8,10.6,10.6v28.6c0,2,1.6,3.6,3.6,3.6s3.6-1.6,3.6-3.6c0-1.9,1.6-3.5,3.5-3.5
				s3.5,1.6,3.5,3.5c0,5.8-4.8,10.6-10.6,10.6s-10.6-4.8-10.6-10.6v-28.6c0-2-1.6-3.6-3.6-3.6s-3.6,1.6-3.6,3.6v50.3
				c0,11.3-9.2,20.5-20.5,20.5s-20.5-9.2-20.5-20.5v-76.4c0-7.4-6-13.5-13.5-13.5s-13.5,6-13.5,13.5v98.1
				C898.8,315.4,894.1,320.1,888.2,320.1z"/>
		</g>
	</g>
	<g>
		<g>
			<rect x="537.5" y="229.6" fill="#E95F6A" width="48.6" height="26.6"/>
			<path fill="#452845" d="M589.5,259.7H534v-33.6h55.6V259.7z M541,252.7h41.6v-19.6H541V252.7z"/>
		</g>
		<g>
			<rect x="537.5" y="316.5" fill="#E95F6A" width="48.1" height="26.6"/>
			<path fill="#452845" d="M589.1,346.6H534V313h55.1V346.6z M541,339.6h41.1V320H541V339.6z"/>
		</g>
		<g>
			<path fill="#452845" d="M579.9,277.4h-40.7v-24.7h40.7V277.4z M546.3,270.4h26.7v-10.7h-26.7V270.4z"/>
		</g>
		<g>
			<path fill="#452845" d="M579.9,320h-40.7v-21.8h40.7V320z M546.3,313h26.7v-7.8h-26.7V313z"/>
		</g>
		<g>
			<path fill="#452845" d="M639.7,323.6h-24.2v-69.8h24.2V323.6z M622.5,316.6h10.2v-55.8h-10.2V316.6z"/>
		</g>
		<g>
			<path fill="#452845" d="M590.3,466.9h-26.6c-1.9,0-3.5-1.6-3.5-3.5s1.6-3.5,3.5-3.5h19.4l-0.5-25h-43.3v-29.8h63.4v-35.6
				c0-1.9,1.6-3.5,3.5-3.5s3.5,1.6,3.5,3.5v42.6h-63.4v15.8h43.2L590.3,466.9z"/>
		</g>
		<g>
			<path fill="#452845" d="M636.2,466.9h-24.5l-0.8-39.8l21.8-20.1v-55l-25.5-22.2V275c0-1.9,1.6-3.5,3.5-3.5s3.5,1.6,3.5,3.5v51.5
				l25.5,22.2v61.3L618,430.1l0.6,29.7h17.7c1.9,0,3.5,1.6,3.5,3.5S638.2,466.9,636.2,466.9z"/>
		</g>
		<g>
			<path fill="#452845" d="M595.7,405.1h-68.4c-1.9,0-3.5-1.6-3.5-3.5s1.6-3.5,3.5-3.5h68.4c1.9,0,3.5,1.6,3.5,3.5
				S597.7,405.1,595.7,405.1z"/>
		</g>
		<g>
			<path fill="#452845" d="M584.9,371.9h-50.4l-11.7-15l14.8-17.4h47.8l12.6,15.9L584.9,371.9z M537.9,364.9h43.6l7.6-9.5l-7-8.9
				h-41.2l-9,10.6L537.9,364.9z"/>
		</g>
		<g>
			<rect x="550.6" y="368.4" fill="#E95F6A" width="18.9" height="19.6"/>
			<path fill="#452845" d="M573.1,391.6h-25.9v-26.6h25.9V391.6z M554.1,384.6h11.9v-12.6h-11.9V384.6z"/>
		</g>
		<rect x="545.1" y="379.4" fill="#452845" width="29.8" height="12.2"/>
		<g>
			<g>
				
					<rect x="517" y="361.4" transform="matrix(0.688 0.7257 -0.7257 0.688 433.588 -266.2228)" fill="#E95F6A" width="18.9" height="19.6"/>
				<path fill="#452845" d="M525.7,389.7l-17.8-18.8l19.3-18.3l17.8,18.8L525.7,389.7z M517.7,371.2l8.2,8.6l9.2-8.7l-8.2-8.6
					L517.7,371.2z"/>
			</g>
			<g>
				
					<rect x="506.2" y="370" transform="matrix(0.688 0.7257 -0.7257 0.688 435.5288 -260.8554)" fill="#452845" width="29.8" height="12.2"/>
			</g>
		</g>
		<g>
			<g>
				
					<rect x="584.6" y="359.8" transform="matrix(-0.688 0.7257 -0.7257 -0.688 1270.9993 192.7602)" fill="#E95F6A" width="18.9" height="19.6"/>
				<path fill="#452845" d="M594.8,388.1l-19.3-18.3l17.8-18.8l19.3,18.3L594.8,388.1z M585.4,369.6l9.2,8.7l8.2-8.6l-9.2-8.7
					L585.4,369.6z"/>
			</g>
			<g>
				
					<rect x="584.4" y="368.4" transform="matrix(-0.688 0.7257 -0.7257 -0.688 1283.4844 197.2749)" fill="#452845" width="29.8" height="12.2"/>
			</g>
		</g>
		<g>
			<g>
				<path fill="#452845" d="M666.5,471.4h-175c-1.9,0-3.5-1.6-3.5-3.5s1.6-3.5,3.5-3.5h175c1.9,0,3.5,1.6,3.5,3.5
					S668.4,471.4,666.5,471.4z"/>
			</g>
		</g>
		<g>
			<rect x="537.5" y="275" fill="#E95F6A" width="81.5" height="26.6"/>
			<path fill="#452845" d="M622.5,305.2H534v-33.6h88.5V305.2z M541,298.2h74.5v-19.6H541V298.2z"/>
		</g>
		<g>
			<path fill="#452845" d="M585.6,320c-1.9,0-3.5-1.6-3.5-3.5v-14.8c0-1.9,1.6-3.5,3.5-3.5s3.5,1.6,3.5,3.5v14.8
				C589.1,318.4,587.5,320,585.6,320z"/>
		</g>
	</g>
	<g>
		<path fill="#FC7B4D" d="M756.9,400.9c4.3,6.2,6.7,13.8,6.7,21.9c0,21.5-17.4,38.9-38.9,38.9c-21.5,0-38.9-17.4-38.9-38.9
			c0-8.1,2.5-15.5,6.6-21.8L756.9,400.9z"/>
		<g>
			<path fill="none" stroke="#452845" stroke-width="7" stroke-linecap="round" stroke-miterlimit="10" d="M724.7,303.4h-13.5v12.8
				l3.1,2.7l0,62.7c-17.4,4.6-30.3,20.5-30.3,39.4c0,22.5,18.2,40.8,40.8,40.8"/>
			<path fill="none" stroke="#452845" stroke-width="7" stroke-linecap="round" stroke-miterlimit="10" d="M724.7,303.4h13.5v12.8
				l-3.1,2.7l0,62.7c17.4,4.6,30.3,20.5,30.3,39.4c0,22.5-18.2,40.8-40.8,40.8"/>
		</g>
		<path fill="none" stroke="#452845" stroke-width="6.5752" stroke-linecap="round" stroke-miterlimit="10" d="M754.3,415.9
			c0,18-14.6,32.7-32.7,32.7"/>
		<path fill="#E95F6A" d="M756.9,400.9c4.3,6.2,6.7,13.8,6.7,21.9c0,21.5-17.4,38.9-38.9,38.9c-21.5,0-38.9-17.4-38.9-38.9
			c0-8.1,2.5-15.5,6.6-21.8L756.9,400.9z"/>
		<g>
			<g>
				<path fill="#452845" d="M724.7,465.2c-24.4,0-44.3-19.9-44.3-44.3c0-19.2,12.3-36.1,30.3-42l0-58.5l-3.1-2.7v-17.9h17
					c1.9,0,3.5,1.6,3.5,3.5s-1.6,3.5-3.5,3.5h-10v7.7l3.1,2.7l0,67l-2.6,0.7c-16.3,4.3-27.7,19.1-27.7,36
					c0,20.5,16.7,37.3,37.3,37.3c1.9,0,3.5,1.6,3.5,3.5S726.6,465.2,724.7,465.2z"/>
			</g>
			<g>
				<path fill="#452845" d="M724.7,465.2c-1.9,0-3.5-1.6-3.5-3.5s1.6-3.5,3.5-3.5c20.5,0,37.3-16.7,37.3-37.3
					c0-16.9-11.4-31.7-27.7-36l-2.6-0.7l0-67l3.1-2.7v-7.7h-10c-1.9,0-3.5-1.6-3.5-3.5s1.6-3.5,3.5-3.5h17v17.9l-3.1,2.7l0,58.5
					c18,6,30.3,22.9,30.3,42C768.9,445.4,749.1,465.2,724.7,465.2z"/>
			</g>
		</g>
		<g>
			<path fill="#452845" d="M721.7,451.9c-1.8,0-3.3-1.5-3.3-3.3s1.5-3.3,3.3-3.3c16.2,0,29.4-13.2,29.4-29.4c0-1.8,1.5-3.3,3.3-3.3
				s3.3,1.5,3.3,3.3C757.6,435.8,741.5,451.9,721.7,451.9z"/>
		</g>
		<g>
			<path fill="#452845" d="M793.8,471.4H688.9c-1.9,0-3.5-1.6-3.5-3.5s1.6-3.5,3.5-3.5h104.9c1.9,0,3.5,1.6,3.5,3.5
				S795.7,471.4,793.8,471.4z"/>
		</g>
	</g>
	<g>
		<g>
			<path fill="#452845" d="M899.6,344.9c-0.9,0-1.8-0.3-2.5-1l-11.5-11.5c-1.4-1.4-1.4-3.6,0-5c1.4-1.4,3.6-1.4,4.9,0l11.5,11.5
				c1.4,1.4,1.4,3.6,0,5C901.4,344.6,900.5,344.9,899.6,344.9z"/>
		</g>
		<g>
			<path fill="#452845" d="M888.1,344.9c-0.9,0-1.8-0.3-2.5-1c-1.4-1.4-1.4-3.6,0-5l11.5-11.5c1.4-1.4,3.6-1.4,4.9,0
				c1.4,1.4,1.4,3.6,0,5l-11.5,11.5C889.9,344.6,889,344.9,888.1,344.9z"/>
		</g>
		<g>
			<path fill="#452845" d="M990.2,344.9c-0.9,0-1.8-0.3-2.5-1l-11.5-11.5c-1.4-1.4-1.4-3.6,0-5c1.4-1.4,3.6-1.4,4.9,0l11.5,11.5
				c1.4,1.4,1.4,3.6,0,5C992,344.6,991.1,344.9,990.2,344.9z"/>
		</g>
		<g>
			<path fill="#452845" d="M978.7,344.9c-0.9,0-1.8-0.3-2.5-1c-1.4-1.4-1.4-3.6,0-5l11.5-11.5c1.4-1.4,3.6-1.4,4.9,0
				c1.4,1.4,1.4,3.6,0,5l-11.5,11.5C980.5,344.6,979.6,344.9,978.7,344.9z"/>
		</g>
		<g>
			<path fill="#452845" d="M847.2,345.1c-2.4,0-4.8-0.9-6.6-2.7c-1.8-1.8-2.8-4.1-2.8-6.6s1-4.9,2.8-6.6c3.7-3.7,9.6-3.7,13.3,0
				c3.7,3.7,3.7,9.6,0,13.3l0,0C852,344.2,849.6,345.1,847.2,345.1z M847.2,333.3c-0.6,0-1.2,0.2-1.7,0.7c-0.5,0.5-0.7,1.1-0.7,1.7
				s0.2,1.2,0.7,1.7c0.9,0.9,2.5,0.9,3.4,0c0.9-0.9,0.9-2.5,0-3.4C848.4,333.5,847.8,333.3,847.2,333.3z"/>
		</g>
		<g>
			<path fill="#452845" d="M941,345.1c-2.4,0-4.8-0.9-6.6-2.7c-1.8-1.8-2.8-4.1-2.8-6.6s1-4.9,2.8-6.6c3.7-3.7,9.6-3.7,13.3,0
				c3.7,3.7,3.7,9.6,0,13.3l0,0C945.8,344.2,943.4,345.1,941,345.1z M941,333.3c-0.6,0-1.2,0.2-1.7,0.7c-0.5,0.5-0.7,1.1-0.7,1.7
				s0.2,1.2,0.7,1.7c0.9,0.9,2.5,0.9,3.4,0c0.9-0.9,0.9-2.5,0-3.4C942.2,333.5,941.6,333.3,941,333.3z"/>
		</g>
		<g>
			<g>
				<path fill="#452845" d="M1017.5,472.1c-1.9,0-3.5-1.6-3.5-3.5v-60.7c0-3.1-3.1-5.7-6.9-5.7H826.4c-3.8,0-6.9,2.6-6.9,5.7v60.7
					c0,1.9-1.6,3.5-3.5,3.5s-3.5-1.6-3.5-3.5v-60.7c0-7,6.2-12.7,13.9-12.7h180.7c7.7,0,13.9,5.7,13.9,12.7v60.7
					C1021,470.5,1019.4,472.1,1017.5,472.1z"/>
			</g>
			<g>
				<path fill="#452845" d="M1024.3,472.1h-13.7c-1.9,0-3.5-1.6-3.5-3.5s1.6-3.5,3.5-3.5h13.7c1.9,0,3.5,1.6,3.5,3.5
					S1026.3,472.1,1024.3,472.1z"/>
			</g>
			<g>
				<path fill="#452845" d="M822.8,472.1h-13.7c-1.9,0-3.5-1.6-3.5-3.5s1.6-3.5,3.5-3.5h13.7c1.9,0,3.5,1.6,3.5,3.5
					S824.7,472.1,822.8,472.1z"/>
			</g>
		</g>
		<g>
			<g>
				<g>
					<rect x="841.2" y="380.9" fill="#E95F6A" width="14.2" height="70"/>
				</g>
				<g>
					<g>
						<path fill="#452845" d="M848.3,455.4c-5.8,0-10.6-4.8-10.6-10.6V365c0-1.9,1.6-3.5,3.5-3.5s3.5,1.6,3.5,3.5v79.9
							c0,2,1.6,3.6,3.6,3.6s3.6-1.6,3.6-3.6V365c0-1.9,1.6-3.5,3.5-3.5s3.5,1.6,3.5,3.5v79.9C858.9,450.7,854.1,455.4,848.3,455.4z"
							/>
					</g>
					<g>
						<path fill="#452845" d="M857.8,368.5h-2.4c-1.9,0-3.5-1.6-3.5-3.5s1.6-3.5,3.5-3.5h0.1V356h-14.9v5.5h0.6
							c1.9,0,3.5,1.6,3.5,3.5s-1.6,3.5-3.5,3.5h-3c-2.6,0-4.7-2.1-4.7-4.7v-10.1c0-2.6,2.1-4.7,4.7-4.7h19.6c2.6,0,4.7,2.1,4.7,4.7
							v10.1C862.5,366.4,860.4,368.5,857.8,368.5z"/>
					</g>
				</g>
			</g>
			<g>
				<g>
					<rect x="887" y="388.4" fill="#8E4E80" width="14.2" height="62.5"/>
				</g>
				<g>
					<g>
						<path fill="#452845" d="M894.1,455.4c-5.8,0-10.6-4.8-10.6-10.6V365c0-1.9,1.6-3.5,3.5-3.5s3.5,1.6,3.5,3.5v79.9
							c0,2,1.6,3.6,3.6,3.6s3.6-1.6,3.6-3.6V365c0-1.9,1.6-3.5,3.5-3.5s3.5,1.6,3.5,3.5v79.9C904.7,450.7,899.9,455.4,894.1,455.4z"
							/>
					</g>
					<g>
						<path fill="#452845" d="M903.6,368.5h-2.4c-1.9,0-3.5-1.6-3.5-3.5s1.6-3.5,3.5-3.5h0.1V356h-14.9v5.5h0.6
							c1.9,0,3.5,1.6,3.5,3.5s-1.6,3.5-3.5,3.5h-3c-2.6,0-4.7-2.1-4.7-4.7v-10.1c0-2.6,2.1-4.7,4.7-4.7h19.6c2.6,0,4.7,2.1,4.7,4.7
							v10.1C908.3,366.4,906.2,368.5,903.6,368.5z"/>
					</g>
				</g>
			</g>
			<g>
				<g>
					<rect x="932.8" y="381.8" fill="#466579" width="14.2" height="69.2"/>
				</g>
				<g>
					<g>
						<path fill="#452845" d="M939.9,455.4c-5.8,0-10.6-4.8-10.6-10.6V365c0-1.9,1.6-3.5,3.5-3.5s3.5,1.6,3.5,3.5v79.9
							c0,2,1.6,3.6,3.6,3.6s3.6-1.6,3.6-3.6V365c0-1.9,1.6-3.5,3.5-3.5s3.5,1.6,3.5,3.5v79.9C950.5,450.7,945.8,455.4,939.9,455.4z"
							/>
					</g>
					<g>
						<path fill="#452845" d="M949.4,368.5H947c-1.9,0-3.5-1.6-3.5-3.5s1.6-3.5,3.5-3.5h0.1V356h-14.9v5.5h0.6
							c1.9,0,3.5,1.6,3.5,3.5s-1.6,3.5-3.5,3.5h-3c-2.6,0-4.7-2.1-4.7-4.7v-10.1c0-2.6,2.1-4.7,4.7-4.7h19.6c2.6,0,4.7,2.1,4.7,4.7
							v10.1C954.1,366.4,952,368.5,949.4,368.5z"/>
					</g>
				</g>
			</g>
			<g>
				<g>
					<rect x="978.6" y="371.9" fill="#FC7B4D" width="14.2" height="79"/>
				</g>
				<g>
					<g>
						<path fill="#452845" d="M985.7,455.4c-5.8,0-10.6-4.8-10.6-10.6V365c0-1.9,1.6-3.5,3.5-3.5s3.5,1.6,3.5,3.5v79.9
							c0,2,1.6,3.6,3.6,3.6s3.6-1.6,3.6-3.6V365c0-1.9,1.6-3.5,3.5-3.5s3.5,1.6,3.5,3.5v79.9C996.3,450.7,991.6,455.4,985.7,455.4z"
							/>
					</g>
					<g>
						<path fill="#452845" d="M995.3,368.5h-2.4c-1.9,0-3.5-1.6-3.5-3.5s1.6-3.5,3.5-3.5h0.1V356H978v5.5h0.6c1.9,0,3.5,1.6,3.5,3.5
							s-1.6,3.5-3.5,3.5h-3c-2.6,0-4.7-2.1-4.7-4.7v-10.1c0-2.6,2.1-4.7,4.7-4.7h19.6c2.6,0,4.7,2.1,4.7,4.7v10.1
							C999.9,366.4,997.8,368.5,995.3,368.5z"/>
					</g>
				</g>
			</g>
		</g>
		<g>
			<path fill="#452845" d="M990.2,471.4h-145c-1.9,0-3.5-1.6-3.5-3.5s1.6-3.5,3.5-3.5h145c1.9,0,3.5,1.6,3.5,3.5
				S992.1,471.4,990.2,471.4z"/>
		</g>
	</g>
	<g>
		<path fill="#452845" d="M1211.1,471.4h-84.9c-1.9,0-3.5-1.6-3.5-3.5s1.6-3.5,3.5-3.5h84.9c1.9,0,3.5,1.6,3.5,3.5
			S1213,471.4,1211.1,471.4z"/>
	</g>
	<g>
		<path fill="#452845" d="M455.2,471.4h-125c-1.9,0-3.5-1.6-3.5-3.5s1.6-3.5,3.5-3.5h125c1.9,0,3.5,1.6,3.5,3.5
			S457.2,471.4,455.2,471.4z"/>
	</g>
	<g>
		<path fill="#452845" d="M297,471.4h-74.9c-1.9,0-3.5-1.6-3.5-3.5s1.6-3.5,3.5-3.5H297c1.9,0,3.5,1.6,3.5,3.5
			S298.9,471.4,297,471.4z"/>
	</g>
	<g>
		<path fill="#452845" d="M355.8,348.7c-5.8,0-10.6-4.8-10.6-10.6v-37.7c0-7.4-6-13.5-13.5-13.5s-13.5,6-13.5,13.5v29.2
			c0,5.8-4.8,10.6-10.6,10.6s-10.6-4.8-10.6-10.6v-128c0-7.4-6-13.5-13.5-13.5s-13.5,6-13.5,13.5v128.2c0,1.9-1.6,3.5-3.5,3.5
			s-3.5-1.6-3.5-3.5V201.6c0-11.3,9.2-20.5,20.5-20.5s20.5,9.2,20.5,20.5v128c0,2,1.6,3.6,3.6,3.6s3.6-1.6,3.6-3.6v-29.2
			c0-11.3,9.2-20.5,20.5-20.5s20.5,9.2,20.5,20.5v37.7c0,2,1.6,3.6,3.6,3.6s3.6-1.6,3.6-3.6V211.4c0-11.3,9.2-20.5,20.5-20.5
			s20.5,9.2,20.5,20.5v77.9c0,2,1.6,3.6,3.6,3.6s3.6-1.6,3.6-3.6v-29.2c0-1.9,1.6-3.5,3.5-3.5s3.5,1.6,3.5,3.5v29.2
			c0,5.8-4.8,10.6-10.6,10.6s-10.6-4.8-10.6-10.6v-77.9c0-7.4-6-13.5-13.5-13.5s-13.5,6-13.5,13.5v128.2h-0.1
			C365.5,344.8,361.1,348.7,355.8,348.7z"/>
	</g>
	<g>
		<path fill="#452845" d="M48,474.4H13.1c-1.9,0-3.5-1.6-3.5-3.5s1.6-3.5,3.5-3.5H48c1.9,0,3.5,1.6,3.5,3.5S49.9,474.4,48,474.4z"/>
	</g>
</g>
<g>
	<path fill="#452845" d="M33.4,14.6H13.1c-1.9,0-3.5-1.6-3.5-3.5s1.6-3.5,3.5-3.5h20.3c1.9,0,3.5,1.6,3.5,3.5S35.4,14.6,33.4,14.6z"
		/>
</g>
</svg>
