<svg id="Layer_1" data-name="Layer 1" xmlns="http://www.w3.org/2000/svg" viewBox="0 0 673.84 452.84"><defs><style>.cls-1,.cls-3,.cls-4,.cls-9{fill:#fff;}.cls-2{fill:#ededed;}.cls-3{stroke:#452845;}.cls-3,.cls-6{stroke-miterlimit:10;}.cls-4{font-size:20px;}.cls-10,.cls-11,.cls-4,.cls-5,.cls-7,.cls-9{font-family:Montserrat,Helvetica;}.cls-4,.cls-5{font-weight:700;}.cls-5{font-size:15.45px;}.cls-11,.cls-5,.cls-7{fill:#444;}.cls-6{fill:none;stroke:#9d6e80;stroke-width:2px;}.cls-7{font-size:13.9px;}.cls-8{fill:#9d6e80;}.cls-9{font-size:7.11px;}.cls-10{font-size:7.72px;}.cls-11{font-size:18px;}.cls-12{fill:#452845;}</style></defs><title>Diagram 1</title><rect class="cls-1" x="49.86" y="254.52" width="623.98" height="198.33" rx="23.19" ry="23.19"/><rect class="cls-1" x="0.1" y="38.51" width="673.06" height="149.8" rx="20.39" ry="20.39"/><path class="cls-2" d="M559.26,456.48H137.7c-7.18,0-13-6.57-13-14.67V313.75c0-8.1,5.82-14.67,13-14.67H559.26c7.18,0,13,6.57,13,14.67V441.81C572.26,449.91,566.44,456.48,559.26,456.48Z" transform="translate(-59.64 -26.28)"/><path class="cls-2" d="M559.26,456.86H137.7c-7.36,0-13.34-6.75-13.34-15.05V313.75c0-8.3,6-15.05,13.34-15.05H559.26c7.36,0,13.34,6.75,13.34,15.05V441.81C572.6,450.11,566.61,456.86,559.26,456.86ZM137.7,299.47c-7,0-12.66,6.41-12.66,14.28V441.81c0,7.87,5.68,14.28,12.66,14.28H559.26c7,0,12.66-6.4,12.66-14.28V313.75c0-7.87-5.68-14.28-12.66-14.28H137.7Z" transform="translate(-59.64 -26.28)"/><path class="cls-3" d="M292.87,433.59H272.71a10.44,10.44,0,0,1-10.43-10.43V403a10.44,10.44,0,0,1,10.43-10.43h20.16A10.44,10.44,0,0,1,303.3,403v20.16A10.44,10.44,0,0,1,292.87,433.59Z" transform="translate(-59.64 -26.28)"/><path class="cls-3" d="M292.87,361H272.71a10.44,10.44,0,0,1-10.43-10.43V330.45A10.44,10.44,0,0,1,272.71,320h20.16a10.44,10.44,0,0,1,10.43,10.43v20.16A10.44,10.44,0,0,1,292.87,361Z" transform="translate(-59.64 -26.28)"/><text class="cls-4" transform="translate(269.7 16.99)">C<tspan x="14.22" y="0">o</tspan><tspan x="27.2" y="0">n</tspan><tspan x="39.82" y="0">t</tspan><tspan x="48.62" y="0">r</tspan><tspan x="56.68" y="0">ol Plane</tspan></text><text class="cls-4" transform="translate(269.37 215.99)">Tena<tspan x="49.18" y="0">n</tspan><tspan x="61.8" y="0">t Space</tspan></text><text class="cls-5" transform="translate(82.67 298.76)">Tena<tspan x="37.99" y="0">n</tspan><tspan x="47.74" y="0">t </tspan><tspan x="58.61" y="0">O</tspan><tspan x="71.28" y="0">ne</tspan></text><rect class="cls-6" x="69.59" y="107.25" width="544.05" height="50" rx="12" ry="12"/><rect class="cls-6" x="143.56" y="57.25" width="404.1" height="50" rx="12" ry="12"/><text class="cls-7" transform="translate(218 318.97)">A<tspan x="9.58" y="0">’</tspan></text><text class="cls-7" transform="translate(218 392.68)">A</text><rect class="cls-8" y="365.55" width="117.58" height="1.42"/><path class="cls-8" d="M169.93,387.43a0.53,0.53,0,0,0,.16.74l6.88,4.38-6.88,4.38a0.53,0.53,0,0,0,.57.9l7.59-4.83a0.53,0.53,0,0,0,0-.9l-7.59-4.83A0.53,0.53,0,0,0,169.93,387.43Z" transform="translate(-59.64 -26.28)"/><rect class="cls-8" y="348.97" width="117.58" height="1.42"/><path class="cls-8" d="M169.93,370.84a0.53,0.53,0,0,0,.16.74L177,376l-6.88,4.38a0.53,0.53,0,0,0,.57.9l7.59-4.83a0.53,0.53,0,0,0,0-.9l-7.59-4.83A0.53,0.53,0,0,0,169.93,370.84Z" transform="translate(-59.64 -26.28)"/><rect class="cls-8" y="332.39" width="117.58" height="1.42"/><path class="cls-8" d="M169.93,354.26a0.53,0.53,0,0,0,.16.74l6.88,4.38-6.88,4.38a0.53,0.53,0,0,0,.57.9l7.59-4.83a0.53,0.53,0,0,0,0-.9l-7.59-4.83A0.53,0.53,0,0,0,169.93,354.26Z" transform="translate(-59.64 -26.28)"/><polygon class="cls-8" points="297.08 379.17 259.99 313.27 297.12 313.39 297.11 314.93 262.64 314.83 298.43 378.41 297.08 379.17"/><polygon class="cls-8" points="300 373.12 298.88 372.85 297.54 378.4 292.1 376.67 291.75 377.77 298.37 379.89 300 373.12"/><polygon class="cls-8" points="293.26 318.89 292.48 318.04 296.67 314.16 292.5 310.26 293.29 309.41 298.37 314.17 293.26 318.89"/><text class="cls-9" transform="translate(1.11 385.1)">Requests</text><text class="cls-10" transform="translate(237.3 417.93)">Side<tspan x="16.95" y="0">c</tspan><tspan x="21.37" y="0">ar</tspan></text><text class="cls-11" transform="translate(269.98 88.09)">Amalgam8 API</text><text class="cls-11" transform="translate(204.98 138.09)">Amalgam8 <tspan x="104.07" y="0">C</tspan><tspan x="117.05" y="0">o</tspan><tspan x="128.79" y="0">n</tspan><tspan x="140.29" y="0">t</tspan><tspan x="147.81" y="0">r</tspan><tspan x="154.78" y="0">oller, Registry</tspan></text><polygon class="cls-8" points="197.33 384.07 141.98 347.55 197.32 318.52 198.04 319.88 145.02 347.7 198.18 382.78 197.33 384.07"/><path class="cls-8" d="M253.85,400.7a0.58,0.58,0,0,0-.29.77l3.62,8.09-8.86-.14a0.58,0.58,0,0,0,0,1.16l9.77,0.16a0.58,0.58,0,0,0,.54-0.82l-4-8.92A0.58,0.58,0,0,0,253.85,400.7Z" transform="translate(-59.64 -26.28)"/><path class="cls-8" d="M252.89,354.08a0.58,0.58,0,0,1-.21-0.79l4.41-7.69-8.83-.74a0.58,0.58,0,0,1,.1-1.15l9.74,0.82a0.58,0.58,0,0,1,.45.87l-4.86,8.48A0.58,0.58,0,0,1,252.89,354.08Z" transform="translate(-59.64 -26.28)"/><rect class="cls-12" x="128.1" y="322.65" width="10.14" height="49.15"/><rect class="cls-12" x="246.35" y="366.68" width="10.14" height="40.24"/><rect class="cls-12" x="246.35" y="294.13" width="10.14" height="40.24"/><path class="cls-3" d="M392.83,433.59H372.67a10.44,10.44,0,0,1-10.43-10.43V403a10.44,10.44,0,0,1,10.43-10.43h20.16A10.44,10.44,0,0,1,403.26,403v20.16A10.44,10.44,0,0,1,392.83,433.59Z" transform="translate(-59.64 -26.28)"/><path class="cls-3" d="M392.83,361H372.67a10.44,10.44,0,0,1-10.43-10.43V330.45A10.44,10.44,0,0,1,372.67,320h20.16a10.44,10.44,0,0,1,10.43,10.43v20.16A10.44,10.44,0,0,1,392.83,361Z" transform="translate(-59.64 -26.28)"/><text class="cls-7" transform="translate(317.97 318.97)">B’</text><text class="cls-7" transform="translate(317.97 392.68)">B</text><rect class="cls-12" x="346.32" y="366.68" width="10.14" height="40.24"/><rect class="cls-12" x="346.32" y="294.13" width="10.14" height="40.24"/><path class="cls-3" d="M492.66,361.68H472.5a10.44,10.44,0,0,1-10.43-10.43V331.09a10.44,10.44,0,0,1,10.43-10.43h20.16a10.44,10.44,0,0,1,10.43,10.43v20.16A10.44,10.44,0,0,1,492.66,361.68Z" transform="translate(-59.64 -26.28)"/><text class="cls-7" transform="translate(417.79 318.97)">C</text><rect class="cls-12" x="446.15" y="294.77" width="10.14" height="40.24"/><polygon class="cls-8" points="259.99 390.92 297.08 325.03 298.43 325.79 262.64 389.37 297.11 389.26 297.12 390.81 259.99 390.92"/><polygon class="cls-8" points="291.74 326.43 292.1 327.53 297.54 325.79 298.88 331.35 300 331.08 298.37 324.31 291.74 326.43"/><polygon class="cls-8" points="293.29 394.79 292.5 393.94 296.67 390.04 292.48 386.16 293.26 385.31 298.37 390.03 293.29 394.79"/><polygon class="cls-8" points="395.83 379.17 358.74 313.27 395.86 313.39 395.86 314.93 361.38 314.83 397.18 378.41 395.83 379.17"/><polygon class="cls-8" points="398.75 373.12 397.62 372.85 396.29 378.4 390.84 376.67 390.49 377.77 397.12 379.89 398.75 373.12"/><polygon class="cls-8" points="392.01 318.89 391.22 318.04 395.42 314.16 391.24 310.26 392.04 309.41 397.12 314.17 392.01 318.89"/><polygon class="cls-8" points="358.74 390.92 395.83 325.03 397.18 325.79 361.38 389.37 395.86 389.26 395.86 390.81 358.74 390.92"/><polygon class="cls-8" points="390.49 326.43 390.84 327.53 396.28 325.79 397.62 331.35 398.75 331.08 397.12 324.31 390.49 326.43"/><polygon class="cls-8" points="392.04 394.79 391.24 393.94 395.42 390.04 391.22 386.16 392.01 385.31 397.12 390.03 392.04 394.79"/><path class="cls-8" d="M305.16,314.07a60.18,60.18,0,0,1-6.33-29.26,59.46,59.46,0,0,1,5.79-23.17l1.4,0.66a57.92,57.92,0,0,0-5.64,22.57,58.65,58.65,0,0,0,6.18,28.52Z" transform="translate(-59.64 -26.28)"/><polygon class="cls-8" points="248.88 281.94 247.78 281.59 246.05 287.03 240.75 284.91 240.31 285.99 246.78 288.57 248.88 281.94"/><path class="cls-8" d="M316.17,315.56l-1.39-.67a58,58,0,0,0,5.75-22.78,58.65,58.65,0,0,0-6.18-28.52l1.39-.68a60.17,60.17,0,0,1,6.33,29.26A59.49,59.49,0,0,1,316.17,315.56Z" transform="translate(-59.64 -26.28)"/><polygon class="cls-8" points="261.29 238.43 260.86 239.51 255.56 237.39 253.83 242.83 252.72 242.48 254.83 235.85 261.29 238.43"/><path class="cls-8" d="M407.34,314.45A60.17,60.17,0,0,1,401,285.19,59.44,59.44,0,0,1,406.8,262l1.4,0.66a57.91,57.91,0,0,0-5.64,22.57,58.65,58.65,0,0,0,6.18,28.52Z" transform="translate(-59.64 -26.28)"/><polygon class="cls-8" points="351.07 282.32 349.96 281.97 348.23 287.42 342.93 285.29 342.5 286.37 348.96 288.95 351.07 282.32"/><path class="cls-8" d="M418.35,315.94l-1.39-.67a57.94,57.94,0,0,0,5.75-22.78A58.65,58.65,0,0,0,416.53,264l1.39-.68a60.17,60.17,0,0,1,6.33,29.26A59.48,59.48,0,0,1,418.35,315.94Z" transform="translate(-59.64 -26.28)"/><polygon class="cls-8" points="363.48 238.82 363.05 239.89 357.74 237.77 356.01 243.22 354.9 242.86 357.01 236.23 363.48 238.82"/><path class="cls-8" d="M506.44,314.83a60.18,60.18,0,0,1-6.33-29.26,59.46,59.46,0,0,1,5.79-23.17l1.4,0.66a57.92,57.92,0,0,0-5.64,22.57,58.66,58.66,0,0,0,6.18,28.52Z" transform="translate(-59.64 -26.28)"/><polygon class="cls-8" points="450.16 282.69 449.06 282.34 447.33 287.79 442.02 285.66 441.59 286.74 448.06 289.33 450.16 282.69"/><path class="cls-8" d="M517.44,316.32l-1.39-.67a58,58,0,0,0,5.75-22.78,58.65,58.65,0,0,0-6.18-28.52l1.39-.68a60.17,60.17,0,0,1,6.33,29.26A59.5,59.5,0,0,1,517.44,316.32Z" transform="translate(-59.64 -26.28)"/><polygon class="cls-8" points="462.57 239.19 462.14 240.26 456.84 238.14 455.11 243.59 454 243.23 456.11 236.6 462.57 239.19"/><rect class="cls-12" x="397.31" y="-70.44" width="13.13" height="538.83" transform="translate(145.26 576.56) rotate(-90)"/><path class="cls-12" d="M478.28,418c-5.78,0-10.3-1.83-10.3-4.16s4.52-4.17,10.3-4.17,10.3,1.83,10.3,4.17S484.05,418,478.28,418Zm0-7.56c-5.7,0-9.53,1.75-9.53,3.39s3.83,3.39,9.53,3.39,9.53-1.75,9.53-3.39S484,410.45,478.28,410.45Z" transform="translate(-59.64 -26.28)"/><path class="cls-12" d="M478.28,433.39c-5.78,0-10.3-1.83-10.3-4.17h0.77c0,1.64,3.83,3.39,9.53,3.39s9.53-1.75,9.53-3.39h0.77C488.58,431.56,484.05,433.39,478.28,433.39Z" transform="translate(-59.64 -26.28)"/><path class="cls-12" d="M499.71,433.39c-5.78,0-10.3-1.83-10.3-4.17h0.77c0,1.64,3.83,3.39,9.53,3.39s9.53-1.75,9.53-3.39H510C510,431.56,505.48,433.39,499.71,433.39Z" transform="translate(-59.64 -26.28)"/><path class="cls-12" d="M521.14,433.39c-5.78,0-10.3-1.83-10.3-4.17h0.77c0,1.64,3.83,3.39,9.53,3.39s9.53-1.75,9.53-3.39h0.77C531.44,431.56,526.92,433.39,521.14,433.39Z" transform="translate(-59.64 -26.28)"/><path class="cls-12" d="M499.71,418c-5.78,0-10.3-1.83-10.3-4.16s4.52-4.17,10.3-4.17,10.3,1.83,10.3,4.17S505.48,418,499.71,418Zm0-7.56c-5.7,0-9.53,1.75-9.53,3.39s3.83,3.39,9.53,3.39,9.53-1.75,9.53-3.39S505.41,410.45,499.71,410.45Z" transform="translate(-59.64 -26.28)"/><path class="cls-12" d="M521.14,418c-5.78,0-10.3-1.83-10.3-4.16s4.52-4.17,10.3-4.17,10.3,1.83,10.3,4.17S526.92,418,521.14,418Zm0-7.56c-5.7,0-9.53,1.75-9.53,3.39s3.83,3.39,9.53,3.39,9.53-1.75,9.53-3.39S526.84,410.45,521.14,410.45Z" transform="translate(-59.64 -26.28)"/><rect class="cls-12" x="408.33" y="387.56" width="0.77" height="15.38"/><rect class="cls-12" x="428.16" y="387.56" width="0.77" height="15.38"/><rect class="cls-12" x="449.59" y="387.56" width="0.77" height="15.38"/><rect class="cls-12" x="471.03" y="387.56" width="0.77" height="15.38"/><rect class="cls-12" x="429.77" y="387.56" width="0.77" height="15.38"/><rect class="cls-12" x="451.2" y="387.56" width="0.77" height="15.38"/><path class="cls-12" d="M528.56,440.57V439.8h4.73l0,0.54,0,0.24h-4.74Zm-4.73,0h-4.73V439.8h4.73v0.77Zm-9.45,0h-4.73V439.8h4.73v0.77Zm-9.45,0H500.2V439.8h4.73v0.77Zm-9.45,0h-4.73V439.8h4.73v0.77Zm-9.45,0h-4.73V439.8H486v0.77Zm-9.45,0h-4.73V439.8h4.73v0.77Zm-9.45,0h-0.2a5.8,5.8,0,0,1-4.3-1.92l0.57-.52a5,5,0,0,0,3.73,1.67h0.2v0.77Zm70.67-2.13-0.6-.49a5,5,0,0,0,1.14-3.17v-1h0.77v1A5.79,5.79,0,0,1,537.77,438.44ZM461.89,434h-0.77v-4.73h0.77V434Zm77.19-5h-0.77V424.3h0.77V429Zm-77.19-4.47h-0.77v-4.73h0.77v4.73Zm77.19-5h-0.77v-4.73h0.77v4.73Zm-77.19-4.47h-0.77v-4.73h0.77v4.73Zm77.19-5h-0.77v-0.74A5,5,0,0,0,537,406l0.57-.52a5.77,5.77,0,0,1,1.51,3.9v0.74Zm-76-3.93-0.6-.49a5.78,5.78,0,0,1,4.43-2.11v0.77A5,5,0,0,0,463,406.19Zm70-1.83h-4.73v-0.77h4.73v0.77Zm-9.45,0h-4.73v-0.77h4.73v0.77Zm-9.45,0h-4.73v-0.77h4.73v0.77Zm-9.45,0H500v-0.77h4.73v0.77Zm-9.45,0h-4.73v-0.77h4.73v0.77Zm-9.45,0h-4.73v-0.77h4.73v0.77Zm-9.45,0h-4.73v-0.77h4.73v0.77Z" transform="translate(-59.64 -26.28)"/><rect class="cls-2" x="527.44" y="273.13" width="135.2" height="71.13" rx="11.62" ry="11.62"/><text class="cls-5" transform="translate(549.61 313.33)">Tena<tspan x="37.99" y="0">n</tspan><tspan x="47.74" y="0">t </tspan><tspan x="58.61" y="0">T</tspan><tspan x="67.06" y="0">w</tspan><tspan x="80.84" y="0">o</tspan></text><rect class="cls-2" x="527.44" y="359.68" width="135.2" height="71.13" rx="11.62" ry="11.62"/><text class="cls-5" transform="translate(543.42 399.87)">Tena<tspan x="37.99" y="0">n</tspan><tspan x="47.74" y="0">t </tspan><tspan x="58.61" y="0">T</tspan><tspan x="67.93" y="0">hree</tspan></text></svg>
