<svg id="Layer_1" data-name="Layer 1" xmlns="http://www.w3.org/2000/svg" viewBox="0 0 693.16 385.34"><defs><style>.cls-1,.cls-11,.cls-3,.cls-8{fill:#fff;}.cls-2,.cls-3{font-size:20px;font-weight:700;}.cls-2,.cls-4,.cls-6,.cls-7{fill:#444;}.cls-10,.cls-11,.cls-2,.cls-3,.cls-4,.cls-6,.cls-7,.cls-9{font-family:Montserrat;}.cls-11,.cls-4{font-size:10px;}.cls-5{fill:#ededed;}.cls-6,.cls-9{font-size:18px;}.cls-10,.cls-7{font-size:12px;}.cls-8{stroke:#452845;}.cls-12,.cls-8{stroke-miterlimit:10;}.cls-12{fill:none;stroke:#9d6e80;stroke-width:2px;}.cls-13{fill:#9d6e80;}</style></defs><title>Diagram 2</title><rect class="cls-1" width="693.16" height="201.31" rx="13.78" ry="13.78"/><text class="cls-2" transform="translate(23.56 72.1)">C<tspan x="14.22" y="0">o</tspan><tspan x="27.2" y="0">n</tspan><tspan x="39.82" y="0">t</tspan><tspan x="48.62" y="0">r</tspan><tspan x="56.68" y="0">ol Plane</tspan></text><text class="cls-3" transform="translate(23.56 268.84)">Tena<tspan x="49.18" y="0">n</tspan><tspan x="61.8" y="0">t Space</tspan></text><text class="cls-4" transform="translate(360.09 118.6)">Endpoi<tspan x="35.7" y="0">n</tspan><tspan x="42.09" y="0">ts</tspan></text><rect class="cls-5" x="502.54" y="160.79" width="165.6" height="50" rx="12" ry="12" transform="translate(1120.62 312.22) rotate(-180)"/><rect class="cls-5" x="240.69" y="160.79" width="128.55" height="50" rx="12" ry="12" transform="translate(559.87 312.22) rotate(-180)"/><text class="cls-6" transform="translate(478.64 133.87)">A8 <tspan x="29.74" y="0">C</tspan><tspan x="42.71" y="0">o</tspan><tspan x="54.45" y="0">n</tspan><tspan x="65.95" y="0">t</tspan><tspan x="73.48" y="0">r</tspan><tspan x="80.44" y="0">oller</tspan></text><text class="cls-6" transform="translate(202.87 133.87)">A8 Registry</text><rect class="cls-5" x="190.09" y="47.1" width="427.45" height="50" rx="12" ry="12"/><text class="cls-6" transform="translate(324.89 77.75)">Amalgam8 API</text><text class="cls-7" transform="translate(212.86 68.75)">Version <tspan x="0" y="14.4">R</tspan><tspan x="8.56" y="14.4">outing</tspan></text><text class="cls-7" transform="translate(513.06 68.75)">Resiliency <tspan x="0" y="14.4">Testing</tspan></text><text class="cls-4" transform="translate(526.32 22.37)">2. <tspan x="11.43" y="0">R</tspan><tspan x="18.56" y="0">outing </tspan><tspan x="54.2" y="0">R</tspan><tspan x="61.39" y="0">ules</tspan><tspan x="0" y="12">and Filters</tspan></text><rect class="cls-8" x="604.14" y="247.77" width="52.1" height="52.1" rx="13" ry="13"/><rect class="cls-8" x="595.16" y="238.78" width="52.1" height="52.1" rx="13" ry="13"/><rect class="cls-8" x="287.21" y="247.77" width="52.1" height="52.1" rx="13" ry="13"/><rect class="cls-8" x="278.22" y="238.78" width="52.1" height="52.1" rx="13" ry="13"/><rect class="cls-8" x="287.21" y="332.74" width="52.1" height="52.1" rx="13" ry="13"/><rect class="cls-8" x="278.22" y="323.75" width="52.1" height="52.1" rx="13" ry="13"/><text class="cls-4" transform="translate(424.65 183.47)">3. P<tspan x="18.16" y="0">r</tspan><tspan x="22.03" y="0">o</tspan><tspan x="28.36" y="0">xy </tspan><tspan x="42.42" y="0">C</tspan><tspan x="49.63" y="0">o</tspan><tspan x="56.15" y="0">n</tspan><tspan x="62.54" y="0">t</tspan><tspan x="66.72" y="0">r</tspan><tspan x="70.59" y="0">ol</tspan></text><text class="cls-9" transform="translate(298.61 271.94)">B</text><text class="cls-9" transform="translate(615.55 271.94)">A</text><text class="cls-9" transform="translate(298.61 355.8)">C</text><rect class="cls-8" x="437.65" y="253.81" width="62.64" height="48.06"/><rect class="cls-8" x="425.86" y="240.78" width="62.64" height="48.06"/><text class="cls-10" transform="translate(437.65 261.11)">A8<tspan x="0" y="14.4">P</tspan><tspan x="8.21" y="14.4">r</tspan><tspan x="12.85" y="14.4">o</tspan><tspan x="20.45" y="14.4">xy</tspan></text><text class="cls-4" transform="translate(175.7 187.51)">1. Register</text><text class="cls-11" transform="translate(363.88 257.35)">5. <tspan x="11.33" y="0">R</tspan><tspan x="18.46" y="0">oute</tspan></text><text class="cls-11" transform="translate(524.28 256.35)">4. Request</text><text class="cls-11" transform="translate(591.22 232.54)">Mic<tspan x="18.33" y="0">r</tspan><tspan x="22.2" y="0">oservice</tspan></text><text class="cls-11" transform="translate(436.86 232.92)">Side<tspan x="21.94" y="0">c</tspan><tspan x="27.66" y="0">ar</tspan></text><line class="cls-12" x1="441.54" y1="126.43" x2="330.36" y2="126.43"/><polygon class="cls-13" points="436.57 120.29 435.54 121.39 440.96 126.42 435.54 131.46 436.57 132.56 443.16 126.42 436.57 120.29"/><line class="cls-12" x1="514.96" y1="36.92" x2="514.96" y2="13.37"/><polygon class="cls-13" points="521.1 31.95 520 30.92 514.97 36.34 509.93 30.92 508.83 31.95 514.97 38.54 521.1 31.95"/><line class="cls-12" x1="511.8" y1="264.83" x2="583.81" y2="264.83"/><polygon class="cls-13" points="516.77 270.97 517.79 269.87 512.37 264.83 517.79 259.8 516.77 258.7 510.17 264.83 516.77 270.97"/><line class="cls-12" x1="504.94" y1="229.94" x2="531.54" y2="159.2"/><polygon class="cls-13" points="512.43 227.44 511.76 226.1 505.14 229.4 502.33 222.55 500.94 223.12 504.36 231.46 512.43 227.44"/><path class="cls-12" d="M405.53,392.94L466,328.36a2.61,2.61,0,0,0-1.92-4.4l-64.32.23" transform="translate(-50.06 -59.37)"/><polygon class="cls-13" points="363.35 334.13 363.25 332.63 355.87 333.15 355.89 325.75 354.39 325.75 354.36 334.76 363.35 334.13"/><polygon class="cls-13" points="354.65 258.67 355.68 259.77 350.28 264.82 355.72 269.84 354.7 270.94 348.08 264.83 354.65 258.67"/><polyline class="cls-12" points="237.29 163.1 237.29 347.97 278.08 347.97"/><polygon class="cls-13" points="231.16 168.07 232.26 169.09 237.29 163.67 242.33 169.09 243.43 168.07 237.29 161.47 231.16 168.07"/><line class="cls-12" x1="278.94" y1="265.63" x2="237.94" y2="265.63"/><path class="cls-13" d="M489.3,25.39h5.78a6.86,6.86,0,0,1,6.86,6.86V37a1.46,1.46,0,0,1-1.46,1.46H483.89A1.46,1.46,0,0,1,482.43,37V32.25A6.86,6.86,0,0,1,489.3,25.39Z"/><circle class="cls-13" cx="492.18" cy="18.54" r="5.96"/></svg>