<?xml version="1.0" encoding="utf-8"?>
<!-- Generator: Adobe Illustrator 19.1.0, SVG Export Plug-In . SVG Version: 6.00 Build 0)  -->
<svg version="1.1" id="Layer_1" xmlns="http://www.w3.org/2000/svg" xmlns:xlink="http://www.w3.org/1999/xlink" x="0px" y="0px"
	 viewBox="0 0 32 32" enable-background="new 0 0 32 32" xml:space="preserve">
<g>
	<g>
		<path fill="#FC7B4D" d="M1.5,20.8h21.8c0,0,0.4,10-10.7,10S1.5,20.8,1.5,20.8z"/>
	</g>
	<g>
		<g>
			<path fill="#452845" d="M4.9,28.3c-0.3,0-0.6-0.1-0.9-0.4c-4.8-4.8-4.8-12.6,0-17.4c3.7-3.7,9.4-4.7,14.1-2.4L21,5.3l-0.1-1.1
				l3.7-3.7l3.5,3.5c0.5,0.5,0.5,1.3,0,1.7c-0.5,0.5-1.3,0.5-1.7,0l-1.7-1.7l-1.2,1.2l0.1,1.1l-5,5l-0.8-0.5
				c-3.9-2.2-8.8-1.6-11.9,1.6c-3.9,3.9-3.9,10.1,0,14c0.5,0.5,0.5,1.3,0,1.7C5.5,28.2,5.2,28.3,4.9,28.3z"/>
		</g>
		<g>
			<path fill="#452845" d="M12.7,31.6c-3.3,0-6.4-1.3-8.7-3.6c-0.5-0.5-0.5-1.3,0-1.7c0.5-0.5,1.3-0.5,1.7,0c3.9,3.9,10.1,3.9,14,0
				c3.2-3.2,3.8-8.1,1.6-11.9l-0.5-0.8l5-5l1.1,0.1l1.2-1.2l-1.7-1.7c-0.5-0.5-0.5-1.3,0-1.7c0.5-0.5,1.3-0.5,1.7,0l3.5,3.5
				l-3.7,3.7L26.7,11l-2.9,2.9c2.3,4.7,1.3,10.3-2.4,14.1C19.1,30.3,16,31.6,12.7,31.6z"/>
		</g>
	</g>
	<g>
		<path fill="#452845" d="M8.4,26.8c-0.3,0-0.6-0.1-0.9-0.4c-1.9-1.9-3-4.5-3-7.2s1.1-5.2,3-7.2c0.5-0.5,1.3-0.5,1.7,0
			c0.5,0.5,0.5,1.3,0,1.7c-1.4,1.4-2.2,3.4-2.2,5.4s0.8,4,2.2,5.4c0.5,0.5,0.5,1.3,0,1.7C9.1,26.7,8.8,26.8,8.4,26.8z"/>
	</g>
</g>
</svg>
