<?xml version="1.0" encoding="utf-8"?>
<!-- Generator: Adobe Illustrator 19.1.0, SVG Export Plug-In . SVG Version: 6.00 Build 0)  -->
<svg version="1.1" id="Layer_1" xmlns="http://www.w3.org/2000/svg" xmlns:xlink="http://www.w3.org/1999/xlink" x="0px" y="0px"
	 viewBox="0 0 16 16" enable-background="new 0 0 16 16" xml:space="preserve">
<g>
	<g>
		<path fill="#FC7B4D" d="M2.1,6.1l7.8,7.8c0,0-3.5,3.7-7.4-0.2S2.1,6.1,2.1,6.1z"/>
	</g>
	<g>
		<g>
			<path fill="#452845" d="M2.3,14.3c-0.2,0-0.3-0.1-0.4-0.2c-2.5-2.5-2.5-6.5,0-9C3.8,3.3,6.7,2.8,9.1,4l1.5-1.5l0-0.6L12.4,0
				l1.8,1.8c0.2,0.2,0.2,0.6,0,0.9c-0.2,0.2-0.6,0.2-0.9,0l-0.9-0.9l-0.6,0.6l0,0.6L9.3,5.5L8.9,5.3c-2-1.2-4.5-0.8-6.1,0.8
				c-2,2-2,5.2,0,7.2c0.2,0.2,0.2,0.6,0,0.9C2.6,14.3,2.5,14.3,2.3,14.3z"/>
		</g>
		<g>
			<path fill="#452845" d="M6.3,16c-1.7,0-3.3-0.7-4.5-1.9c-0.2-0.2-0.2-0.6,0-0.9c0.2-0.2,0.6-0.2,0.9,0c2,2,5.2,2,7.2,0
				c1.6-1.6,2-4.1,0.8-6.1l-0.2-0.4L13,4.1l0.6,0l0.6-0.6l-0.9-0.9c-0.2-0.2-0.2-0.6,0-0.9c0.2-0.2,0.6-0.2,0.9,0L16,3.6l-1.9,1.9
				l-0.6,0L12,6.9c1.2,2.4,0.7,5.3-1.2,7.2C9.6,15.3,8,16,6.3,16z"/>
		</g>
	</g>
	<g>
		<path fill="#452845" d="M4.1,13.6c-0.2,0-0.3-0.1-0.4-0.2c-1-1-1.5-2.3-1.5-3.7S2.7,7,3.7,6c0.2-0.2,0.6-0.2,0.9,0
			c0.2,0.2,0.2,0.6,0,0.9C3.8,7.7,3.4,8.6,3.4,9.7s0.4,2,1.2,2.8c0.2,0.2,0.2,0.6,0,0.9C4.4,13.5,4.3,13.6,4.1,13.6z"/>
	</g>
</g>
</svg>
