<?xml version="1.0" encoding="utf-8"?>
<!-- Generator: Adobe Illustrator 19.1.0, SVG Export Plug-In . SVG Version: 6.00 Build 0)  -->
<svg version="1.1" id="Layer_1" xmlns="http://www.w3.org/2000/svg" xmlns:xlink="http://www.w3.org/1999/xlink" x="0px" y="0px"
	 viewBox="0 0 170.3 150" enable-background="new 0 0 170.3 150" xml:space="preserve">
<g>
	<circle fill="#FFF4EA" cx="82.6" cy="74.4" r="37"/>
	<polygon fill="#E95F6A" points="67.6,63.6 82.4,53.1 98.4,64 82.8,75 	"/>
	<polygon fill="#FC7B4D" points="81.5,93.1 66,85.9 65.8,66.2 80.8,76.7 	"/>
	<g>
		<g>
			<path fill="#452845" d="M82.2,98.3c-0.5,0-1-0.2-1.4-0.5L64.2,86c-0.8-0.6-1.3-1.6-1.3-2.6V64.2c0-0.9,0.5-1.7,1.2-2.1
				c0.8-0.4,1.7-0.3,2.4,0.2l16.6,11.8c0.8,0.6,1.3,1.6,1.3,2.6v19.1c0,0.9-0.5,1.7-1.2,2.1C82.9,98.2,82.5,98.3,82.2,98.3z
				 M66.8,83l13.6,9.7V77.2l-13.6-9.7V83z"/>
		</g>
		<g>
			<path fill="#452845" d="M83.1,98.3c-0.3,0-0.7-0.1-1-0.2c-0.8-0.4-1.2-1.2-1.2-2.1V76.8c0-1,0.5-2,1.3-2.6l16.6-11.8
				c0.8-0.5,1.7-0.6,2.4-0.2c0.8,0.4,1.2,1.2,1.2,2.1v19.1c0,1-0.5,2-1.3,2.6L84.5,97.8C84.1,98.1,83.6,98.3,83.1,98.3z M84.8,77.2
				v15.5L98.4,83V67.5L84.8,77.2z"/>
		</g>
		<g>
			<path fill="#452845" d="M99.1,65.5L81.7,54L66.3,65.4L64,62.2l16-11.9c1-0.7,2.3-0.8,3.3-0.1l18,12L99.1,65.5z"/>
		</g>
	</g>
</g>
<g>
	<g>
		<g>
			<path fill="#FFF4EA" d="M129.9,46.1c-1.2,0-2.1-1-2.1-2.1V29.7h-14.3c-1.2,0-2.1-1-2.1-2.1s1-2.1,2.1-2.1H132V44
				C132,45.1,131.1,46.1,129.9,46.1z"/>
		</g>
		<g>
			<path fill="#FFF4EA" d="M114.5,45c-0.5,0-1.1-0.2-1.5-0.6c-0.8-0.8-0.8-2.2,0-3L128.4,26c0.8-0.8,2.2-0.8,3,0
				c0.8,0.8,0.8,2.2,0,3L116,44.4C115.6,44.8,115.1,45,114.5,45z"/>
		</g>
	</g>
	<g>
		<g>
			<path fill="#FFF4EA" d="M51.4,124.6H32.8V106c0-1.2,1-2.1,2.1-2.1s2.1,1,2.1,2.1v14.3h14.3c1.2,0,2.1,1,2.1,2.1
				S52.6,124.6,51.4,124.6z"/>
		</g>
		<g>
			<path fill="#FFF4EA" d="M34.9,124.6c-0.5,0-1.1-0.2-1.5-0.6c-0.8-0.8-0.8-2.2,0-3l15.4-15.4c0.8-0.8,2.2-0.8,3,0
				c0.8,0.8,0.8,2.2,0,3L36.5,124C36,124.4,35.5,124.6,34.9,124.6z"/>
		</g>
	</g>
	<g>
		<g>
			<path fill="#FFF4EA" d="M94,21.6c-0.5,0-1.1-0.2-1.5-0.6L82.4,10.9L72.3,21c-0.8,0.8-2.2,0.8-3,0c-0.8-0.8-0.8-2.2,0-3L82.4,4.8
				L95.6,18c0.8,0.8,0.8,2.2,0,3C95.1,21.4,94.6,21.6,94,21.6z"/>
		</g>
		<g>
			<path fill="#FFF4EA" d="M82.4,31.7c-1.2,0-2.1-1-2.1-2.1V7.8c0-1.2,1-2.1,2.1-2.1s2.1,1,2.1,2.1v21.7
				C84.6,30.8,83.6,31.7,82.4,31.7z"/>
		</g>
	</g>
	<g>
		<g>
			<path fill="#FFF4EA" d="M82.4,145.2L69.3,132c-0.8-0.8-0.8-2.2,0-3c0.8-0.8,2.2-0.8,3,0l10.1,10.1L92.5,129c0.8-0.8,2.2-0.8,3,0
				c0.8,0.8,0.8,2.2,0,3L82.4,145.2z"/>
		</g>
		<g>
			<path fill="#FFF4EA" d="M82.4,144.3c-1.2,0-2.1-1-2.1-2.1v-21.7c0-1.2,1-2.1,2.1-2.1s2.1,1,2.1,2.1v21.7
				C84.6,143.3,83.6,144.3,82.4,144.3z"/>
		</g>
	</g>
	<g>
		<g>
			<path fill="#FFF4EA" d="M34.9,46.1c-1.2,0-2.1-1-2.1-2.1V25.4h18.6c1.2,0,2.1,1,2.1,2.1s-1,2.1-2.1,2.1H37.1V44
				C37.1,45.1,36.1,46.1,34.9,46.1z"/>
		</g>
		<g>
			<path fill="#FFF4EA" d="M50.3,45c-0.5,0-1.1-0.2-1.5-0.6L33.4,29c-0.8-0.8-0.8-2.2,0-3c0.8-0.8,2.2-0.8,3,0l15.4,15.4
				c0.8,0.8,0.8,2.2,0,3C51.4,44.8,50.9,45,50.3,45z"/>
		</g>
	</g>
	<g>
		<g>
			<path fill="#FFF4EA" d="M132,124.6h-18.6c-1.2,0-2.1-1-2.1-2.1s1-2.1,2.1-2.1h14.3V106c0-1.2,1-2.1,2.1-2.1s2.1,1,2.1,2.1V124.6z
				"/>
		</g>
		<g>
			<path fill="#FFF4EA" d="M129.9,124.6c-0.5,0-1.1-0.2-1.5-0.6L113,108.6c-0.8-0.8-0.8-2.2,0-3c0.8-0.8,2.2-0.8,3,0l15.4,15.4
				c0.8,0.8,0.8,2.2,0,3C131,124.4,130.5,124.6,129.9,124.6z"/>
		</g>
	</g>
	<g>
		<g>
			<path fill="#FFF4EA" d="M26.9,88.8c-0.5,0-1.1-0.2-1.5-0.6L12.2,75l13.1-13.1c0.8-0.8,2.2-0.8,3,0s0.8,2.2,0,3L18.3,75l10.1,10.1
				c0.8,0.8,0.8,2.2,0,3C28,88.6,27.4,88.8,26.9,88.8z"/>
		</g>
		<g>
			<path fill="#FFF4EA" d="M37,77.1H15.3c-1.2,0-2.1-1-2.1-2.1s1-2.1,2.1-2.1H37c1.2,0,2.1,1,2.1,2.1S38.2,77.1,37,77.1z"/>
		</g>
	</g>
	<g>
		<g>
			<path fill="#FFF4EA" d="M137.9,88.8c-0.5,0-1.1-0.2-1.5-0.6c-0.8-0.8-0.8-2.2,0-3L146.5,75l-10.1-10.1c-0.8-0.8-0.8-2.2,0-3
				c0.8-0.8,2.2-0.8,3,0L152.6,75l-13.1,13.1C139,88.6,138.5,88.8,137.9,88.8z"/>
		</g>
		<g>
			<path fill="#FFF4EA" d="M149.6,77.1h-21.7c-1.2,0-2.1-1-2.1-2.1s1-2.1,2.1-2.1h21.7c1.2,0,2.1,1,2.1,2.1S150.8,77.1,149.6,77.1z"
				/>
		</g>
	</g>
</g>
</svg>
