<?xml version="1.0" encoding="utf-8"?>
<!-- Generator: Adobe Illustrator 19.1.0, SVG Export Plug-In . SVG Version: 6.00 Build 0)  -->
<svg version="1.1" id="Layer_1" xmlns="http://www.w3.org/2000/svg" xmlns:xlink="http://www.w3.org/1999/xlink" x="0px" y="0px"
	 viewBox="0 0 399.3 249" enable-background="new 0 0 399.3 249" xml:space="preserve">
<g>
	<path fill="#9D6E80" d="M218.6,243.1h-18.8c-0.4,0-0.6-0.3-0.6-0.6v-6.4c0-3.6,2.9-6.4,6.4-6.4h7.2c3.6,0,6.4,2.9,6.4,6.4v6.4
		C219.2,242.9,218.9,243.1,218.6,243.1z"/>
	<circle fill="#9D6E80" cx="209.2" cy="221.9" r="6.1"/>
</g>
<g>
	<g>
		<path fill="#FFFFFF" d="M335.3,69.5H292c-2,0-3.6-1.6-3.6-3.6V22.5c0-2,1.6-3.6,3.6-3.6h43.3c2,0,3.6,1.6,3.6,3.6v43.3
			C339,67.9,337.3,69.5,335.3,69.5z"/>
	</g>
	<g>
		<path fill="#452845" d="M315.7,56.4c-0.4,0-0.8,0-1.2-0.1c-6.6-0.7-11.1-5.6-11.1-12.1c0-6.7,5.4-12.1,12.1-12.1
			c5.4,0,7.2,2.8,7.4,3.1c0.4,0.7,0.2,1.7-0.5,2.1c-0.7,0.4-1.6,0.2-2.1-0.5c-0.1-0.1-1.2-1.6-4.8-1.6c-5,0-9.1,4.1-9.1,9.1
			c0,5,3.3,8.5,8.3,9.1c0.9,0.1,4.2,0.2,6.6-2.2c0.6-0.6,1.6-0.6,2.2,0c0.6,0.6,0.6,1.6,0,2.2C321.5,55.2,318.6,56.4,315.7,56.4z"/>
	</g>
</g>
<g>
	<g>
		<path fill="#FFFFFF" d="M227.6,69.5h-43.3c-2,0-3.6-1.6-3.6-3.6V22.5c0-2,1.6-3.6,3.6-3.6h43.3c2,0,3.6,1.6,3.6,3.6v43.3
			C231.3,67.9,229.6,69.5,227.6,69.5z"/>
	</g>
	<g>
		<path fill="#452845" d="M205.7,56.9c-1,0-2,0.1-3,0.1c-1.3,0-2.7,0-4.2,0H197V40.4c0-4.9,4-9,9-9c5.2,0,7.6,3.4,7.6,6.5
			c0,2.5-0.7,4.3-2.2,5.5c0.8,0.4,1.4,1,1.9,1.6c1.3,1.7,1.6,4.1,0.9,6.9C213.2,56.2,209.9,56.9,205.7,56.9z M200,53.8
			c1,0,2,0.1,2.9,0.1c6.2,0.2,7.9,0,8.5-2.6c0.3-1.3,0.5-3.1-0.4-4.3c-1.1-1.4-3.4-1.6-5.2-1.6c-0.3,0-0.6-0.1-0.9-0.3h-5V53.8z
			 M200,42h5.9c4.3,0,4.7-2,4.7-4c0-2.2-1.8-3.5-4.6-3.5c-3.3,0-6,2.7-6,6V42z"/>
	</g>
</g>
<path fill="#FFFFFF" d="M335.3,164.9H292c-2,0-3.6-1.6-3.6-3.6v-43.3c0-2,1.6-3.6,3.6-3.6h43.3c2,0,3.6,1.6,3.6,3.6v43.3
	C339,163.3,337.3,164.9,335.3,164.9z"/>
<g>
	<g>
		<path fill="#FFFFFF" d="M227.6,164.9h-43.3c-2,0-3.6-1.6-3.6-3.6v-43.3c0-2,1.6-3.6,3.6-3.6h43.3c2,0,3.6,1.6,3.6,3.6v43.3
			C231.3,163.3,229.6,164.9,227.6,164.9z"/>
	</g>
	<g>
		<path fill="#452845" d="M206.1,152.4c-1,0-2.1-0.1-3.1-0.2c-1.4-0.1-2.9-0.2-4.5-0.2H197v-16.2c0-4.9,4-9,9-9c5,0,7.6,3.4,7.6,6.8
			c0,2.4-0.7,4.3-2,5.5c0.7,0.4,1.3,0.9,1.8,1.5c1.3,1.7,1.6,4,0.9,6.8C213.2,151.7,210.1,152.4,206.1,152.4z M200,149.2
			c1.1,0,2.2,0.1,3.1,0.1c6,0.3,7.6,0.1,8.2-2.5c0.5-1.9,0.3-3.3-0.4-4.2c-0.9-1.2-2.8-1.5-4.5-1.6c-0.2,0-0.4,0-0.6,0H200V149.2z
			 M200,138h5.5c0.3-0.1,0.7,0,1,0c3.3-0.2,4-1.9,4-4.3c0-1.9-1.4-3.8-4.6-3.8c-3.3,0-6,2.7-6,6V138z"/>
	</g>
</g>
<g>
	<g>
		<path fill="#FFFFFF" d="M119.9,69.5H76.6c-2,0-3.6-1.6-3.6-3.6V22.5c0-2,1.6-3.6,3.6-3.6h43.3c2,0,3.6,1.6,3.6,3.6v43.3
			C123.6,67.9,121.9,69.5,119.9,69.5z"/>
	</g>
	<g>
		<g>
			<path fill="#452845" d="M105.7,57.2c-0.8,0-1.5-0.7-1.5-1.5V41c0-3.3-2.7-5.9-5.9-5.9c-3.3,0-5.9,2.7-5.9,5.9v14.7
				c0,0.8-0.7,1.5-1.5,1.5s-1.5-0.7-1.5-1.5V41c0-5,4-9,9-9s9,4,9,9v14.7C107.2,56.5,106.6,57.2,105.7,57.2z"/>
		</g>
		<g>
			<path fill="#452845" d="M106,46H93c-0.8,0-1.5-0.7-1.5-1.5S92.2,43,93,43h13c0.8,0,1.5,0.7,1.5,1.5S106.8,46,106,46z"/>
		</g>
	</g>
</g>
<g>
	<path fill="#E95F6A" d="M170,51.9c-0.4,0-0.9-0.2-1.2-0.5c-0.6-0.6-0.5-1.6,0.2-2.2l3.9-3.4l-3.9-3.4c-0.6-0.6-0.7-1.5-0.1-2.2
		c0.6-0.6,1.5-0.7,2.2-0.1l6.6,5.7l-6.6,5.7C170.7,51.8,170.3,51.9,170,51.9z"/>
</g>
<g>
	<path fill="#E95F6A" d="M314.1,73.4l5.7,6.6c0.6,0.6,0.5,1.6-0.2,2.2c-0.6,0.6-1.6,0.5-2.2-0.2l-3.4-3.9l-3.4,3.9
		c-0.6,0.6-1.5,0.7-2.2,0.1c-0.6-0.6-0.7-1.5-0.1-2.2L314.1,73.4z"/>
</g>
<g>
	<path fill="#E95F6A" d="M276.4,159.2c-0.4,0-0.9-0.2-1.2-0.5c-0.6-0.6-0.5-1.6,0.2-2.2l3.9-3.4l-3.9-3.4c-0.6-0.6-0.7-1.5-0.1-2.2
		c0.6-0.6,1.5-0.7,2.2-0.1l6.6,5.7l-6.6,5.7C277.1,159,276.7,159.2,276.4,159.2z"/>
</g>
<g>
	<path fill="#E95F6A" d="M145.5,62.8h-17.4c-0.8,0-1.5-0.7-1.5-1.5s0.7-1.5,1.5-1.5h17.4c4.5,0,8.1-3.6,8.1-8.1v-7.3h21.1
		c0.8,0,1.5,0.7,1.5,1.5s-0.7,1.5-1.5,1.5h-18v4.2C156.7,57.7,151.7,62.8,145.5,62.8z"/>
</g>
<g>
	<path fill="#E95F6A" d="M220.1,108.9c-0.8,0-1.5-0.7-1.5-1.5v-5.7c0-6.2,5-11.2,11.2-11.2h82.4v-11c0-0.8,0.7-1.5,1.5-1.5
		s1.5,0.7,1.5,1.5v14.1h-85.5c-4.5,0-8.1,3.6-8.1,8.1v5.7C221.6,108.2,220.9,108.9,220.1,108.9z"/>
</g>
<g>
	<path fill="#E95F6A" d="M276.8,51.9c-0.4,0-0.9-0.2-1.2-0.5c-0.6-0.6-0.5-1.6,0.2-2.2l3.9-3.4l-3.9-3.4c-0.6-0.6-0.7-1.5-0.1-2.2
		c0.6-0.6,1.5-0.7,2.2-0.1l6.6,5.7l-6.6,5.7C277.5,51.8,277.2,51.9,276.8,51.9z"/>
</g>
<g>
	<path fill="#E95F6A" d="M281.5,47.4H238c-0.8,0-1.5-0.7-1.5-1.5s0.7-1.5,1.5-1.5h43.5c0.8,0,1.5,0.7,1.5,1.5S282.4,47.4,281.5,47.4
		z"/>
</g>
<g>
	<path fill="#452845" d="M311.6,151.8h-7.1v-24.3l8.1,0c6.6,0.7,11.1,5.6,11.1,12.1C323.7,146.3,318.3,151.8,311.6,151.8z
		 M307.6,148.7h4c5,0,9.1-4.1,9.1-9.1c0-4.9-3.2-8.5-8.3-9.1h-4.8V148.7z"/>
</g>
<g>
	<path fill="#452845" d="M218.9,132c-0.8,0-1.5-0.7-1.5-1.5c0-0.9-0.6-2.5-1.1-3c-0.6-0.6-0.6-1.6,0-2.2c0.6-0.6,1.6-0.6,2.2,0
		c1.2,1.2,2,3.6,2,5.2C220.4,131.3,219.7,132,218.9,132z"/>
</g>
<g>
	<g>
		<path fill="#E95F6A" d="M98.5,81.5c-0.8,0-1.5-0.7-1.5-1.5v-4c0-0.8,0.7-1.5,1.5-1.5s1.5,0.7,1.5,1.5v4
			C100,80.8,99.3,81.5,98.5,81.5z"/>
	</g>
	<g>
		<path fill="#E95F6A" d="M98.5,129.5c-0.8,0-1.5-0.7-1.5-1.5v-8c0-0.8,0.7-1.5,1.5-1.5s1.5,0.7,1.5,1.5v8
			C100,128.8,99.3,129.5,98.5,129.5z M98.5,113.5c-0.8,0-1.5-0.7-1.5-1.5v-8c0-0.8,0.7-1.5,1.5-1.5s1.5,0.7,1.5,1.5v8
			C100,112.8,99.3,113.5,98.5,113.5z M98.5,97.5c-0.8,0-1.5-0.7-1.5-1.5v-8c0-0.8,0.7-1.5,1.5-1.5s1.5,0.7,1.5,1.5v8
			C100,96.8,99.3,97.5,98.5,97.5z"/>
	</g>
	<g>
		<path fill="#E95F6A" d="M102,141h-5v-5c0-0.8,0.7-1.5,1.5-1.5s1.5,0.7,1.5,1.5v2h2c0.8,0,1.5,0.7,1.5,1.5S102.8,141,102,141z"/>
	</g>
	<g>
		<path fill="#E95F6A" d="M166,141h-8c-0.8,0-1.5-0.7-1.5-1.5s0.7-1.5,1.5-1.5h8c0.8,0,1.5,0.7,1.5,1.5S166.8,141,166,141z M150,141
			h-8c-0.8,0-1.5-0.7-1.5-1.5s0.7-1.5,1.5-1.5h8c0.8,0,1.5,0.7,1.5,1.5S150.8,141,150,141z M134,141h-8c-0.8,0-1.5-0.7-1.5-1.5
			s0.7-1.5,1.5-1.5h8c0.8,0,1.5,0.7,1.5,1.5S134.8,141,134,141z M118,141h-8c-0.8,0-1.5-0.7-1.5-1.5s0.7-1.5,1.5-1.5h8
			c0.8,0,1.5,0.7,1.5,1.5S118.8,141,118,141z"/>
	</g>
	<g>
		<path fill="#E95F6A" d="M174,141h-4c-0.8,0-1.5-0.7-1.5-1.5s0.7-1.5,1.5-1.5h4c0.8,0,1.5,0.7,1.5,1.5S174.8,141,174,141z"/>
	</g>
</g>
<g>
	<path fill="#E95F6A" d="M279,141h-6c-0.8,0-1.5-0.7-1.5-1.5s0.7-1.5,1.5-1.5h6c0.8,0,1.5,0.7,1.5,1.5S279.8,141,279,141z M267,141
		h-6c-0.8,0-1.5-0.7-1.5-1.5s0.7-1.5,1.5-1.5h6c0.8,0,1.5,0.7,1.5,1.5S267.8,141,267,141z M255,141h-6c-0.8,0-1.5-0.7-1.5-1.5
		s0.7-1.5,1.5-1.5h6c0.8,0,1.5,0.7,1.5,1.5S255.8,141,255,141z M243,141h-6c-0.8,0-1.5-0.7-1.5-1.5s0.7-1.5,1.5-1.5h6
		c0.8,0,1.5,0.7,1.5,1.5S243.8,141,243,141z"/>
</g>
<g>
	<path fill="#E95F6A" d="M281,154h-44c-0.8,0-1.5-0.7-1.5-1.5s0.7-1.5,1.5-1.5h44c0.8,0,1.5,0.7,1.5,1.5S281.8,154,281,154z"/>
</g>
<g>
	<g>
		<g>
			<path fill="#E95F6A" d="M51.7,30.8c-0.4,0-0.9-0.2-1.2-0.5c-0.6-0.6-0.5-1.6,0.2-2.2l3.9-3.4l-3.9-3.4c-0.6-0.6-0.7-1.5-0.1-2.2
				c0.6-0.6,1.5-0.7,2.2-0.1l6.6,5.7l-6.6,5.7C52.4,30.7,52.1,30.8,51.7,30.8z"/>
		</g>
		<g>
			<path fill="#E95F6A" d="M56,26H13c-0.8,0-1.5-0.7-1.5-1.5S12.2,23,13,23h43c0.8,0,1.5,0.7,1.5,1.5S56.8,26,56,26z"/>
		</g>
	</g>
	<g>
		<g>
			<path fill="#E95F6A" d="M51.7,50.1c-0.4,0-0.9-0.2-1.2-0.5C50,49,50.1,48,50.7,47.4l3.9-3.4l-3.9-3.4c-0.6-0.6-0.7-1.5-0.1-2.2
				c0.6-0.6,1.5-0.7,2.2-0.1l6.6,5.7l-6.6,5.7C52.4,50,52.1,50.1,51.7,50.1z"/>
		</g>
		<g>
			<path fill="#E95F6A" d="M56,45H13c-0.8,0-1.5-0.7-1.5-1.5S12.2,42,13,42h43c0.8,0,1.5,0.7,1.5,1.5S56.8,45,56,45z"/>
		</g>
	</g>
	<g>
		<g>
			<path fill="#E95F6A" d="M51.7,69.9c-0.4,0-0.9-0.2-1.2-0.5c-0.6-0.6-0.5-1.6,0.2-2.2l3.9-3.4l-3.9-3.4c-0.6-0.6-0.7-1.5-0.1-2.2
				c0.6-0.6,1.5-0.7,2.2-0.1l6.6,5.7l-6.6,5.7C52.4,69.8,52.1,69.9,51.7,69.9z"/>
		</g>
		<g>
			<path fill="#E95F6A" d="M56,65H13c-0.8,0-1.5-0.7-1.5-1.5S12.2,62,13,62h43c0.8,0,1.5,0.7,1.5,1.5S56.8,65,56,65z"/>
		</g>
	</g>
</g>
<g>
	<path fill="#FFFFFF" d="M18.6,80.1c0,0.9-0.4,1.5-1.1,1.7l1.4,2h-1.5l-1.2-1.8h-0.9v1.8H14v-5.6h2.1c0.9,0,1.5,0.1,1.9,0.4
		C18.4,79,18.6,79.5,18.6,80.1z M17.1,80.8c0.2-0.1,0.2-0.4,0.2-0.7c0-0.3-0.1-0.5-0.2-0.6c-0.2-0.1-0.4-0.2-0.8-0.2h-0.9V81h0.9
		C16.6,81,16.9,80.9,17.1,80.8z"/>
	<path fill="#FFFFFF" d="M23.5,83.2c-0.5,0.5-1.1,0.7-1.7,0.7s-1.2-0.2-1.6-0.6s-0.6-0.9-0.6-1.6c0-0.7,0.2-1.2,0.7-1.6
		c0.4-0.4,0.9-0.6,1.5-0.6c0.6,0,1.1,0.2,1.5,0.5c0.4,0.4,0.6,0.8,0.6,1.5v0.6h-3.1c0,0.2,0.2,0.4,0.4,0.6c0.2,0.1,0.4,0.2,0.7,0.2
		c0.4,0,0.8-0.1,1-0.4L23.5,83.2z M22.3,80.7c-0.2-0.1-0.4-0.2-0.6-0.2s-0.5,0.1-0.7,0.2s-0.3,0.3-0.3,0.6h1.9
		C22.6,81,22.5,80.8,22.3,80.7z"/>
	<path fill="#FFFFFF" d="M25.1,83.3c-0.4-0.4-0.6-0.9-0.6-1.6c0-0.6,0.2-1.2,0.6-1.6c0.4-0.4,0.8-0.6,1.3-0.6c0.5,0,0.9,0.2,1.3,0.6
		v-0.5h1.2v5.9h-1.2v-1.9c-0.3,0.3-0.7,0.4-1.2,0.4C26,83.9,25.5,83.7,25.1,83.3z M25.7,81.7c0,0.3,0.1,0.6,0.3,0.9s0.5,0.3,0.7,0.3
		s0.5-0.1,0.7-0.3c0.2-0.2,0.3-0.5,0.3-0.9c0-0.3-0.1-0.6-0.3-0.9c-0.2-0.2-0.4-0.3-0.7-0.3c-0.3,0-0.5,0.1-0.7,0.3
		C25.8,81.1,25.7,81.4,25.7,81.7z"/>
	<path fill="#FFFFFF" d="M32.8,81.9v-2.3H34v4.3h-1.2v-0.6c-0.3,0.4-0.7,0.6-1.2,0.6c-0.5,0-0.9-0.1-1.2-0.4S30,82.8,30,82.2v-2.6
		h1.2v2.3c0,0.7,0.2,1,0.7,1c0.2,0,0.4-0.1,0.6-0.3C32.7,82.5,32.8,82.2,32.8,81.9z"/>
	<path fill="#FFFFFF" d="M38.9,83.2c-0.5,0.5-1.1,0.7-1.7,0.7s-1.2-0.2-1.6-0.6s-0.6-0.9-0.6-1.6c0-0.7,0.2-1.2,0.7-1.6
		c0.4-0.4,0.9-0.6,1.5-0.6c0.6,0,1.1,0.2,1.5,0.5c0.4,0.4,0.6,0.8,0.6,1.5v0.6h-3.1c0,0.2,0.2,0.4,0.4,0.6c0.2,0.1,0.4,0.2,0.7,0.2
		c0.4,0,0.8-0.1,1-0.4L38.9,83.2z M37.7,80.7c-0.2-0.1-0.4-0.2-0.6-0.2s-0.5,0.1-0.7,0.2s-0.3,0.3-0.3,0.6H38
		C38,81,37.9,80.8,37.7,80.7z"/>
	<path fill="#FFFFFF" d="M43.3,82.5c0,0.4-0.2,0.8-0.5,1c-0.3,0.3-0.7,0.4-1.2,0.4c-0.3,0-0.7-0.1-1-0.2c-0.3-0.1-0.7-0.3-0.9-0.5
		l0.5-0.8c0.4,0.3,0.9,0.5,1.4,0.5c0.2,0,0.3,0,0.4-0.1c0.1-0.1,0.1-0.1,0.1-0.2c0-0.1-0.1-0.2-0.2-0.3c-0.1-0.1-0.3-0.2-0.5-0.2
		C41.2,82.1,41,82,40.9,82c-0.1-0.1-0.3-0.1-0.4-0.2c-0.3-0.2-0.5-0.5-0.5-0.9c0-0.4,0.2-0.7,0.5-1c0.3-0.3,0.7-0.4,1.2-0.4
		s1,0.2,1.5,0.5l-0.4,0.8c-0.4-0.3-0.7-0.4-1.1-0.4c-0.4,0-0.6,0.1-0.6,0.3c0,0.1,0.1,0.2,0.2,0.3c0.1,0.1,0.3,0.1,0.6,0.2
		c0.3,0.1,0.5,0.2,0.6,0.2c0.1,0,0.3,0.1,0.4,0.2C43.2,81.8,43.3,82.1,43.3,82.5z"/>
	<path fill="#FFFFFF" d="M45.6,80.4v1.9c0,0.2,0,0.3,0.1,0.4c0.1,0.1,0.2,0.1,0.3,0.1c0.2,0,0.4-0.1,0.6-0.3l0.4,0.8
		c-0.4,0.3-0.8,0.5-1.2,0.5c-0.4,0-0.8-0.1-1-0.4c-0.3-0.3-0.4-0.6-0.4-1.1v-2h-0.5v-0.9h0.5v-1.3h1.2v1.3h1v0.9H45.6z"/>
	<path fill="#FFFFFF" d="M51,82.5c0,0.4-0.2,0.8-0.5,1c-0.3,0.3-0.7,0.4-1.2,0.4c-0.3,0-0.7-0.1-1-0.2c-0.3-0.1-0.7-0.3-0.9-0.5
		l0.5-0.8c0.4,0.3,0.9,0.5,1.4,0.5c0.2,0,0.3,0,0.4-0.1c0.1-0.1,0.1-0.1,0.1-0.2c0-0.1-0.1-0.2-0.2-0.3c-0.1-0.1-0.3-0.2-0.5-0.2
		c-0.2-0.1-0.4-0.1-0.5-0.2c-0.1-0.1-0.3-0.1-0.4-0.2c-0.3-0.2-0.5-0.5-0.5-0.9c0-0.4,0.2-0.7,0.5-1c0.3-0.3,0.7-0.4,1.2-0.4
		s1,0.2,1.5,0.5l-0.4,0.8c-0.4-0.3-0.7-0.4-1.1-0.4c-0.4,0-0.6,0.1-0.6,0.3c0,0.1,0.1,0.2,0.2,0.3c0.1,0.1,0.3,0.1,0.6,0.2
		c0.3,0.1,0.5,0.2,0.6,0.2c0.1,0,0.3,0.1,0.4,0.2C50.8,81.8,51,82.1,51,82.5z"/>
</g>
<g>
	<path fill="#FFFFFF" d="M131.6,51.2v-1.8h4v0.9l-2.3,4.6H132l2.2-4.5h-1.4v0.7H131.6z"/>
	<path fill="#FFFFFF" d="M138.6,55.1c-0.8,0-1.4-0.3-1.7-0.8c-0.4-0.5-0.6-1.2-0.6-2.1c0-0.9,0.2-1.6,0.6-2.1c0.4-0.5,1-0.8,1.7-0.8
		s1.4,0.3,1.7,0.8s0.6,1.2,0.6,2.1c0,0.9-0.2,1.6-0.6,2.1S139.4,55.1,138.6,55.1z M137.8,50.9c-0.2,0.3-0.3,0.8-0.3,1.4
		c0,0.6,0.1,1,0.3,1.4c0.2,0.3,0.5,0.5,0.8,0.5s0.6-0.2,0.8-0.5c0.2-0.3,0.3-0.8,0.3-1.4c0-0.6-0.1-1-0.3-1.4
		c-0.2-0.3-0.5-0.5-0.8-0.5S138,50.5,137.8,50.9z"/>
	<path fill="#FFFFFF" d="M144.3,50.7c0,0.3-0.1,0.6-0.3,0.8c-0.2,0.2-0.5,0.3-0.8,0.3c-0.3,0-0.6-0.1-0.8-0.3
		c-0.2-0.2-0.3-0.5-0.3-0.8c0-0.3,0.1-0.6,0.3-0.8c0.2-0.2,0.5-0.3,0.8-0.3c0.3,0,0.6,0.1,0.8,0.3C144.2,50.1,144.3,50.4,144.3,50.7
		z M147.4,49.4l-4,5.6H142l4-5.6H147.4z M142.9,51c0.1,0.1,0.1,0.1,0.2,0.1c0.1,0,0.2,0,0.2-0.1c0.1-0.1,0.1-0.2,0.1-0.3
		s0-0.2-0.1-0.3c-0.1-0.1-0.1-0.1-0.2-0.1c-0.1,0-0.2,0-0.2,0.1c-0.1,0.1-0.1,0.2-0.1,0.3S142.8,50.9,142.9,51z M147.4,54
		c0,0.3-0.1,0.6-0.3,0.8c-0.2,0.2-0.5,0.3-0.8,0.3s-0.6-0.1-0.8-0.3s-0.3-0.5-0.3-0.8c0-0.3,0.1-0.6,0.3-0.8
		c0.2-0.2,0.5-0.3,0.8-0.3s0.6,0.1,0.8,0.3C147.3,53.4,147.4,53.7,147.4,54z M146,54.3c0.1,0.1,0.1,0.1,0.2,0.1s0.2,0,0.2-0.1
		c0.1-0.1,0.1-0.2,0.1-0.3s0-0.2-0.1-0.3c-0.1-0.1-0.1-0.1-0.2-0.1c-0.1,0-0.2,0-0.2,0.1c-0.1,0.1-0.1,0.2-0.1,0.3
		S145.9,54.2,146,54.3z"/>
</g>
<g>
	<path fill="#FFFFFF" d="M131.9,125.2v-1.1h3.4v0.9l-1.1,1.3c0.4,0.1,0.8,0.3,1,0.6c0.2,0.3,0.4,0.6,0.4,1c0,0.6-0.2,1-0.6,1.4
		c-0.4,0.3-0.9,0.5-1.5,0.5s-1.2-0.2-1.9-0.7l0.5-1c0.5,0.4,1,0.6,1.4,0.6c0.3,0,0.5-0.1,0.6-0.2s0.2-0.3,0.2-0.5
		c0-0.2-0.1-0.4-0.3-0.6s-0.4-0.2-0.8-0.2c-0.2,0-0.4,0.1-0.7,0.2v-0.9l1.1-1.3H131.9z"/>
	<path fill="#FFFFFF" d="M138.7,129.8c-0.8,0-1.4-0.3-1.7-0.8c-0.4-0.5-0.6-1.2-0.6-2.1c0-0.9,0.2-1.6,0.6-2.1
		c0.4-0.5,1-0.8,1.7-0.8s1.4,0.3,1.7,0.8s0.6,1.2,0.6,2.1c0,0.9-0.2,1.6-0.6,2.1S139.5,129.8,138.7,129.8z M137.9,125.5
		c-0.2,0.3-0.3,0.8-0.3,1.4c0,0.6,0.1,1,0.3,1.4c0.2,0.3,0.5,0.5,0.8,0.5s0.6-0.2,0.8-0.5c0.2-0.3,0.3-0.8,0.3-1.4
		c0-0.6-0.1-1-0.3-1.4c-0.2-0.3-0.5-0.5-0.8-0.5S138.1,125.2,137.9,125.5z"/>
	<path fill="#FFFFFF" d="M144.4,125.4c0,0.3-0.1,0.6-0.3,0.8c-0.2,0.2-0.5,0.3-0.8,0.3c-0.3,0-0.6-0.1-0.8-0.3
		c-0.2-0.2-0.3-0.5-0.3-0.8c0-0.3,0.1-0.6,0.3-0.8c0.2-0.2,0.5-0.3,0.8-0.3c0.3,0,0.6,0.1,0.8,0.3
		C144.3,124.8,144.4,125,144.4,125.4z M147.4,124.1l-4,5.6h-1.4l4-5.6H147.4z M143,125.6c0.1,0.1,0.1,0.1,0.2,0.1
		c0.1,0,0.2,0,0.2-0.1c0.1-0.1,0.1-0.2,0.1-0.3s0-0.2-0.1-0.3c-0.1-0.1-0.1-0.1-0.2-0.1c-0.1,0-0.2,0-0.2,0.1
		c-0.1,0.1-0.1,0.2-0.1,0.3S142.9,125.6,143,125.6z M147.5,128.6c0,0.3-0.1,0.6-0.3,0.8c-0.2,0.2-0.5,0.3-0.8,0.3s-0.6-0.1-0.8-0.3
		s-0.3-0.5-0.3-0.8c0-0.3,0.1-0.6,0.3-0.8c0.2-0.2,0.5-0.3,0.8-0.3s0.6,0.1,0.8,0.3C147.4,128,147.5,128.3,147.5,128.6z
		 M146.1,128.9c0.1,0.1,0.1,0.1,0.2,0.1s0.2,0,0.2-0.1c0.1-0.1,0.1-0.2,0.1-0.3s0-0.2-0.1-0.3c-0.1-0.1-0.1-0.1-0.2-0.1
		c-0.1,0-0.2,0-0.2,0.1c-0.1,0.1-0.1,0.2-0.1,0.3S146,128.8,146.1,128.9z"/>
</g>
<rect x="73" y="177.9" fill="#FFFFFF" width="266" height="28.1"/>
<g>
	<path fill="#452845" d="M176.8,194.9l-0.7-1.6H173l-0.7,1.6h-1.8l3.2-7.4h1.6l3.2,7.4H176.8z M174.6,189.7l-0.9,2.1h1.8
		L174.6,189.7z"/>
	<path fill="#452845" d="M180,187.9c0.5-0.4,1.1-0.6,1.8-0.6s1.3,0.2,1.8,0.6s0.7,0.9,0.7,1.4s-0.2,1.1-0.7,1.5
		c0.6,0.5,0.9,1.1,0.9,1.9c0,0.6-0.3,1.2-0.8,1.6c-0.5,0.4-1.2,0.7-2,0.7s-1.5-0.2-2-0.7s-0.8-1-0.8-1.6c0-0.8,0.3-1.4,0.9-1.9
		c-0.4-0.4-0.7-0.9-0.7-1.5C179.3,188.8,179.5,188.3,180,187.9z M181.1,193.3c0.2,0.2,0.5,0.2,0.8,0.2c0.3,0,0.6-0.1,0.8-0.2
		s0.4-0.4,0.4-0.7s-0.1-0.6-0.4-0.7s-0.5-0.3-0.8-0.3s-0.6,0.1-0.8,0.3s-0.4,0.4-0.4,0.7S180.8,193.2,181.1,193.3z M181.2,190.1
		c0.2,0.2,0.4,0.3,0.7,0.3s0.5-0.1,0.7-0.3c0.2-0.2,0.3-0.4,0.3-0.6c0-0.2-0.1-0.5-0.3-0.6s-0.4-0.3-0.7-0.3s-0.5,0.1-0.7,0.3
		c-0.2,0.2-0.3,0.4-0.3,0.6C180.9,189.7,181,189.9,181.2,190.1z"/>
	<path fill="#452845" d="M192.3,193.4c0.8,0,1.5-0.3,2-1l1.1,1.1c-0.8,0.9-1.8,1.4-3,1.4c-1.1,0-2.1-0.4-2.8-1.1
		c-0.7-0.7-1.1-1.6-1.1-2.7s0.4-2,1.1-2.7c0.7-0.7,1.7-1.1,2.7-1.1c1.2,0,2.2,0.5,3,1.4l-1,1.2c-0.5-0.6-1.2-1-1.9-1
		c-0.6,0-1.1,0.2-1.6,0.6s-0.7,0.9-0.7,1.6c0,0.7,0.2,1.2,0.6,1.7C191.2,193.2,191.7,193.4,192.3,193.4z"/>
	<path fill="#452845" d="M202,192c0,0.8-0.3,1.5-0.9,2.1c-0.6,0.6-1.3,0.8-2.1,0.8s-1.6-0.3-2.1-0.8c-0.6-0.6-0.9-1.3-0.9-2.1
		c0-0.8,0.3-1.5,0.9-2.1c0.6-0.6,1.3-0.8,2.1-0.8s1.6,0.3,2.1,0.8C201.7,190.5,202,191.2,202,192z M197.6,192c0,0.5,0.1,0.8,0.4,1.1
		s0.6,0.4,1,0.4s0.7-0.1,1-0.4s0.4-0.7,0.4-1.1c0-0.5-0.1-0.8-0.4-1.1c-0.3-0.3-0.6-0.4-1-0.4s-0.7,0.1-1,0.4
		C197.7,191.2,197.6,191.6,197.6,192z"/>
	<path fill="#452845" d="M204.7,191.7v3.2h-1.6v-5.7h1.6v0.6c0.5-0.5,1-0.7,1.6-0.7s1.1,0.2,1.5,0.6c0.4,0.4,0.6,1,0.6,1.7v3.5h-1.6
		v-3.2c0-0.9-0.3-1.3-1-1.3c-0.3,0-0.6,0.1-0.8,0.3C204.8,190.9,204.7,191.3,204.7,191.7z"/>
	<path fill="#452845" d="M211.7,190.3v2.5c0,0.2,0.1,0.4,0.2,0.5s0.2,0.2,0.4,0.2c0.3,0,0.5-0.1,0.7-0.4l0.6,1.1
		c-0.5,0.5-1,0.7-1.6,0.7s-1-0.2-1.4-0.5c-0.4-0.4-0.6-0.8-0.6-1.5v-2.6h-0.7v-1.1h0.7v-1.7h1.6v1.7h1.4v1.1H211.7z"/>
	<path fill="#452845" d="M217.4,190.6c-0.5,0-0.8,0.2-1.1,0.5c-0.2,0.3-0.3,0.8-0.3,1.3v2.5h-1.6v-5.7h1.6v0.7
		c0.2-0.2,0.5-0.4,0.8-0.6c0.3-0.2,0.6-0.2,0.9-0.3l0,1.5H217.4z"/>
	<path fill="#452845" d="M224.4,192c0,0.8-0.3,1.5-0.9,2.1c-0.6,0.6-1.3,0.8-2.1,0.8s-1.6-0.3-2.1-0.8c-0.6-0.6-0.9-1.3-0.9-2.1
		c0-0.8,0.3-1.5,0.9-2.1c0.6-0.6,1.3-0.8,2.1-0.8s1.6,0.3,2.1,0.8C224.1,190.5,224.4,191.2,224.4,192z M220,192
		c0,0.5,0.1,0.8,0.4,1.1s0.6,0.4,1,0.4s0.7-0.1,1-0.4s0.4-0.7,0.4-1.1c0-0.5-0.1-0.8-0.4-1.1c-0.3-0.3-0.6-0.4-1-0.4s-0.7,0.1-1,0.4
		C220.1,191.2,220,191.6,220,192z"/>
	<path fill="#452845" d="M227.1,194.9h-1.6V187h1.6V194.9z"/>
	<path fill="#452845" d="M230.2,194.9h-1.6V187h1.6V194.9z"/>
	<path fill="#452845" d="M236.6,194c-0.6,0.6-1.4,0.9-2.3,0.9c-0.9,0-1.6-0.3-2.1-0.8c-0.6-0.5-0.8-1.2-0.8-2.1s0.3-1.6,0.9-2.1
		c0.6-0.5,1.2-0.8,2-0.8c0.8,0,1.4,0.2,2,0.7c0.5,0.5,0.8,1.1,0.8,1.9v0.8h-4.1c0,0.3,0.2,0.6,0.5,0.8c0.3,0.2,0.6,0.3,0.9,0.3
		c0.6,0,1-0.2,1.4-0.6L236.6,194z M235.1,190.7c-0.2-0.2-0.5-0.3-0.8-0.3c-0.3,0-0.6,0.1-0.9,0.3c-0.3,0.2-0.4,0.4-0.5,0.8h2.5
		C235.4,191.1,235.3,190.9,235.1,190.7z"/>
	<path fill="#452845" d="M241.2,190.6c-0.5,0-0.8,0.2-1.1,0.5c-0.2,0.3-0.3,0.8-0.3,1.3v2.5h-1.6v-5.7h1.6v0.7
		c0.2-0.2,0.5-0.4,0.8-0.6c0.3-0.2,0.6-0.2,0.9-0.3l0,1.5H241.2z"/>
</g>
</svg>
