<?xml version="1.0" encoding="utf-8"?>
<!-- Generator: Adobe Illustrator 19.1.0, SVG Export Plug-In . SVG Version: 6.00 Build 0)  -->
<svg version="1.1" id="Layer_1" xmlns="http://www.w3.org/2000/svg" xmlns:xlink="http://www.w3.org/1999/xlink" x="0px" y="0px"
	 viewBox="0 0 242 214.5" enable-background="new 0 0 242 214.5" xml:space="preserve">
<g>
	<path fill="#452845" d="M209.1,192.6H23.2c-2.7,0-4.9-2.2-4.9-4.9V20.1c0-2.7,2.2-4.9,4.9-4.9h185.9c2.7,0,4.9,2.2,4.9,4.9v167.6
		C214,190.4,211.8,192.6,209.1,192.6z M25.3,185.6H207V22.2H25.3V185.6z"/>
</g>
<g>
	<path fill="#452845" d="M210.5,44.7H21.8c-1.9,0-3.5-1.6-3.5-3.5s1.6-3.5,3.5-3.5h188.7c1.9,0,3.5,1.6,3.5,3.5
		S212.4,44.7,210.5,44.7z"/>
</g>
<g>
	<path fill="#FC7B4D" d="M73.7,61.6h-17c-1.9,0-3.5-1.6-3.5-3.5s1.6-3.5,3.5-3.5h17c1.9,0,3.5,1.6,3.5,3.5S75.6,61.6,73.7,61.6z"/>
</g>
<g>
	<path fill="#FC7B4D" d="M130.2,95.1h-23.5c-1.9,0-3.5-1.6-3.5-3.5s1.6-3.5,3.5-3.5h23.5c1.9,0,3.5,1.6,3.5,3.5
		S132.1,95.1,130.2,95.1z"/>
</g>
<g>
	<path fill="#FC7B4D" d="M151.5,144.1H57.3c-1.9,0-3.5-1.6-3.5-3.5s1.6-3.5,3.5-3.5h94.2c1.9,0,3.5,1.6,3.5,3.5
		S153.4,144.1,151.5,144.1z"/>
</g>
<g>
	<path fill="#452845" d="M131.5,61.6H101c-1.9,0-3.5-1.6-3.5-3.5s1.6-3.5,3.5-3.5h30.5c1.9,0,3.5,1.6,3.5,3.5S133.4,61.6,131.5,61.6
		z"/>
</g>
<g>
	<path fill="#452845" d="M79.2,95.1H65.6c-1.9,0-3.5-1.6-3.5-3.5s1.6-3.5,3.5-3.5h13.6c1.9,0,3.5,1.6,3.5,3.5S81.1,95.1,79.2,95.1z"
		/>
</g>
<g>
	<path fill="#452845" d="M124.5,111.4H90.6c-1.9,0-3.5-1.6-3.5-3.5s1.6-3.5,3.5-3.5h33.9c1.9,0,3.5,1.6,3.5,3.5
		S126.4,111.4,124.5,111.4z"/>
</g>
<g>
	<path fill="#452845" d="M101,177.6H56.7c-1.9,0-3.5-1.6-3.5-3.5s1.6-3.5,3.5-3.5H101c1.9,0,3.5,1.6,3.5,3.5S102.9,177.6,101,177.6z
		"/>
</g>
<g>
	<path fill="#452845" d="M124.5,127.7H90.6c-1.9,0-3.5-1.6-3.5-3.5s1.6-3.5,3.5-3.5h33.9c1.9,0,3.5,1.6,3.5,3.5
		S126.4,127.7,124.5,127.7z"/>
</g>
<g>
	<path fill="#452845" d="M185,127.7h-51.3c-1.9,0-3.5-1.6-3.5-3.5s1.6-3.5,3.5-3.5H185c1.9,0,3.5,1.6,3.5,3.5S186.9,127.7,185,127.7
		z"/>
</g>
<g>
	<path fill="#452845" d="M165.5,160.4H56.7c-1.9,0-3.5-1.6-3.5-3.5s1.6-3.5,3.5-3.5h108.8c1.9,0,3.5,1.6,3.5,3.5
		S167.4,160.4,165.5,160.4z"/>
</g>
<g>
	<path fill="#452845" d="M190.5,95.1H160c-1.9,0-3.5-1.6-3.5-3.5s1.6-3.5,3.5-3.5h30.5c1.9,0,3.5,1.6,3.5,3.5S192.4,95.1,190.5,95.1
		z"/>
</g>
<g>
	<path fill="#452845" d="M97.4,95.1h-6.8c-1.9,0-3.5-1.6-3.5-3.5s1.6-3.5,3.5-3.5h6.8c1.9,0,3.5,1.6,3.5,3.5S99.3,95.1,97.4,95.1z"
		/>
</g>
<g>
	<path fill="#452845" d="M149.8,95.1h-11.8c-1.9,0-3.5-1.6-3.5-3.5s1.6-3.5,3.5-3.5h11.8c1.9,0,3.5,1.6,3.5,3.5
		S151.8,95.1,149.8,95.1z"/>
</g>
<g>
	<path fill="#452845" d="M124.5,78.7H56.6c-1.9,0-3.5-1.6-3.5-3.5s1.6-3.5,3.5-3.5h67.9c1.9,0,3.5,1.6,3.5,3.5
		S126.4,78.7,124.5,78.7z"/>
</g>
<g>
	<path fill="#452845" d="M190.5,61.6H160c-1.9,0-3.5-1.6-3.5-3.5s1.6-3.5,3.5-3.5h30.5c1.9,0,3.5,1.6,3.5,3.5S192.4,61.6,190.5,61.6
		z"/>
</g>
<g>
	<circle fill="#452845" cx="34.7" cy="29.7" r="3.5"/>
</g>
<g>
	<circle fill="#452845" cx="40.2" cy="58.9" r="3.5"/>
</g>
<g>
	<circle fill="#452845" cx="40.2" cy="75.2" r="3.5"/>
</g>
<g>
	<circle fill="#452845" cx="40.2" cy="91.6" r="3.5"/>
</g>
<g>
	<circle fill="#452845" cx="40.2" cy="107.9" r="3.5"/>
</g>
<g>
	<circle fill="#452845" cx="40.2" cy="124.2" r="3.5"/>
</g>
<g>
	<circle fill="#452845" cx="40.2" cy="140.6" r="3.5"/>
</g>
<g>
	<circle fill="#452845" cx="40.2" cy="156.9" r="3.5"/>
</g>
<g>
	<circle fill="#452845" cx="40.2" cy="173.2" r="3.5"/>
</g>
<g>
	<circle fill="#452845" cx="47.2" cy="29.7" r="3.5"/>
</g>
<g>
	<circle fill="#452845" cx="59.8" cy="29.7" r="3.5"/>
</g>
<g>
	<circle fill="#452845" cx="83.5" cy="58.1" r="3.8"/>
</g>
<g>
	<circle fill="#452845" cx="77.2" cy="107.9" r="3.8"/>
</g>
<g>
	<circle fill="#452845" cx="143.2" cy="58.1" r="3.8"/>
</g>
</svg>
