<svg width="792" height="504.00000000000006" xmlns="http://www.w3.org/2000/svg">

 <g>
  <title>background</title>
  <rect fill="none" id="canvas_background" height="387.34" width="635.16" y="-1" x="-1"/>
 </g>
 <g>
  <title>Layer 1</title>
  <g stroke="null" id="svg_333">
   <g stroke="null" id="svg_3">
    <path stroke="null" id="svg_4" d="m714.824503,262.266667l-577.815678,0c-10.326296,0 -18.642163,-7.885047 -18.642163,-17.676368l0,-94.447263c0,-9.791322 8.315867,-17.676368 18.642163,-17.676368l577.815678,0c10.326296,0 18.642163,7.885047 18.642163,17.676368l0,94.447263c0,9.791322 -8.315867,17.676368 -18.642163,17.676368z" fill="#FFFFFF"/>
   </g>
   <g stroke="null" id="svg_53">
    <path stroke="null" id="svg_54" d="m668.127712,235.374941l-475.28378,0c-6.579587,0 -11.87981,-4.248973 -11.87981,-9.52356l0,-19.04712c0,-5.274587 5.300223,-9.52356 11.87981,-9.52356l475.28378,0c6.579587,0 11.87981,4.248973 11.87981,9.52356l0,19.04712c0,5.274587 -5.300223,9.52356 -11.87981,9.52356zm-475.28378,-36.629077c-5.574372,0 -10.052147,3.58965 -10.052147,8.058397l0,19.04712c0,4.468747 4.477775,8.058397 10.052147,8.058397l475.28378,0c5.574372,0 10.052147,-3.58965 10.052147,-8.058397l0,-19.04712c0,-4.468747 -4.477775,-8.058397 -10.052147,-8.058397l-475.28378,0z" fill="#9D6E80"/>
   </g>
   <g stroke="null" id="svg_55">
    <path stroke="null" id="svg_56" d="m647.276779,198.489456l-422.615921,0c-8.005353,0 -14.454109,-4.695126 -14.454109,-10.523559l0,-21.047118c0,-5.828433 6.448756,-10.523559 14.454109,-10.523559l422.615921,0c8.005353,0 14.454109,4.695126 14.454109,10.523559l0,21.047118c0,5.828433 -6.448756,10.523559 -14.454109,10.523559zm-422.615921,-40.475226c-6.782313,0 -12.2304,3.966572 -12.2304,8.90455l0,21.047118c0,4.937978 5.448087,8.90455 12.2304,8.90455l422.615921,0c6.782313,0 12.2304,-3.966572 12.2304,-8.90455l0,-21.047118c0,-4.937978 -5.448087,-8.90455 -12.2304,-8.90455l-422.615921,0z" fill="#9D6E80"/>
   </g>
   <g stroke="null" id="svg_106">
    <path stroke="null" id="svg_107" d="m368.299586,179.588801l-1.187981,2.719358l-2.101813,0l5.026073,-11.815141l2.101813,0l5.026073,11.815141l-2.101813,0l-1.187981,-2.719358l-5.574372,0zm4.93469,-1.875419l-2.101813,-4.87609l-2.101813,4.87609l4.203625,0z" fill="#444444"/>
    <path stroke="null" id="svg_108" d="m380.453546,177.432069l0,4.87609l-1.827663,0l0,-9.002012l1.827663,0l0,1.594106c0.274149,-0.562626 0.639682,-0.93771 1.187981,-1.312793s1.096598,-0.468855 1.73628,-0.468855c1.370747,0 2.284579,0.562626 2.832878,1.781648c0.822448,-1.125252 1.919046,-1.781648 3.19841,-1.781648c1.005215,0 1.827663,0.281313 2.375962,0.93771c0.639682,0.656397 0.913832,1.500335 0.913832,2.719358l0,5.532487l-1.827663,0l0,-4.969861c0,-1.687877 -0.639682,-2.438045 -2.010429,-2.438045c-0.639682,0 -1.187981,0.187542 -1.644897,0.656397c-0.456916,0.375084 -0.731065,1.031481 -0.731065,1.781648l0,4.969861l-1.827663,0l0,-4.969861c0,-0.843939 -0.182766,-1.500335 -0.456916,-1.875419s-0.731065,-0.562626 -1.370747,-0.562626s-1.187981,0.187542 -1.644897,0.656397c-0.548299,0.375084 -0.731065,1.031481 -0.731065,1.875419z" fill="#444444"/>
    <path stroke="null" id="svg_109" d="m402.294119,182.308159l-1.644897,0l0,-1.219023c-0.731065,0.843939 -1.73628,1.312793 -2.924261,1.312793c-0.913832,0 -1.644897,-0.281313 -2.284579,-0.750168c-0.639682,-0.562626 -0.913832,-1.219023 -0.913832,-2.156732s0.274149,-1.500335 0.913832,-1.96919s1.46213,-0.656397 2.558728,-0.656397l2.375962,0l0,-0.375084c0,-1.219023 -0.639682,-1.781648 -1.919046,-1.781648c-0.822448,0 -1.644897,0.281313 -2.558728,0.93771l-0.822448,-1.219023c1.096598,-0.843939 2.284579,-1.312793 3.655326,-1.312793c1.005215,0 1.827663,0.281313 2.558728,0.843939c0.639682,0.562626 1.005215,1.406564 1.005215,2.531816l0,5.8138zm-1.827663,-3.375755l0,-0.750168l-2.101813,0c-1.370747,0 -2.010429,0.468855 -2.010429,1.312793c0,0.468855 0.182766,0.750168 0.456916,1.031481c0.365533,0.187542 0.822448,0.375084 1.370747,0.375084s1.096598,-0.187542 1.553514,-0.468855c0.548299,-0.468855 0.731065,-0.93771 0.731065,-1.500335z" fill="#444444"/>
    <path stroke="null" id="svg_110" d="m406.771894,182.308159l-1.827663,0l0,-12.565309l1.827663,0l0,12.565309z" fill="#444444"/>
    <path stroke="null" id="svg_111" d="m417.463723,173.306147l0,7.876761c0,1.594106 -0.456916,2.813129 -1.279364,3.563297c-0.822448,0.750168 -1.919046,1.219023 -3.19841,1.219023s-2.467345,-0.468855 -3.563943,-1.312793l0.913832,-1.406564c0.822448,0.656397 1.73628,1.031481 2.558728,1.031481s1.553514,-0.187542 2.101813,-0.656397c0.548299,-0.468855 0.731065,-1.219023 0.731065,-2.250503l0,-1.125252c-0.274149,0.562626 -0.639682,0.93771 -1.187981,1.312793c-0.548299,0.281313 -1.096598,0.468855 -1.73628,0.468855c-1.187981,0 -2.101813,-0.375084 -2.832878,-1.219023c-0.731065,-0.843939 -1.096598,-1.875419 -1.096598,-3.094442c0,-1.219023 0.365533,-2.250503 1.096598,-3.094442c0.731065,-0.843939 1.73628,-1.219023 2.832878,-1.219023c1.187981,0 2.101813,0.468855 2.832878,1.500335l0,-1.312793l1.827663,0l0,-0.281313zm-6.762353,4.125922c0,0.750168 0.182766,1.406564 0.639682,1.875419c0.456916,0.562626 1.005215,0.843939 1.827663,0.843939s1.370747,-0.281313 1.827663,-0.750168c0.456916,-0.562626 0.731065,-1.125252 0.731065,-1.96919c0,-0.750168 -0.274149,-1.406564 -0.731065,-1.96919c-0.456916,-0.562626 -1.096598,-0.843939 -1.827663,-0.843939s-1.370747,0.281313 -1.827663,0.843939c-0.456916,0.562626 -0.639682,1.219023 -0.639682,1.96919z" fill="#444444"/>
    <path stroke="null" id="svg_112" d="m427.24172,182.308159l-1.644897,0l0,-1.219023c-0.731065,0.843939 -1.73628,1.312793 -2.924261,1.312793c-0.913832,0 -1.644897,-0.281313 -2.284579,-0.750168c-0.639682,-0.562626 -0.913832,-1.219023 -0.913832,-2.156732s0.274149,-1.500335 0.913832,-1.96919s1.46213,-0.656397 2.558728,-0.656397l2.375962,0l0,-0.375084c0,-1.219023 -0.639682,-1.781648 -1.919046,-1.781648c-0.822448,0 -1.644897,0.281313 -2.558728,0.93771l-0.822448,-1.219023c1.096598,-0.843939 2.284579,-1.312793 3.655326,-1.312793c1.005215,0 1.827663,0.281313 2.558728,0.843939c0.639682,0.562626 1.005215,1.406564 1.005215,2.531816l0,5.8138zm-1.827663,-3.375755l0,-0.750168l-2.101813,0c-1.370747,0 -2.010429,0.468855 -2.010429,1.312793c0,0.468855 0.182766,0.750168 0.456916,1.031481c0.365533,0.187542 0.822448,0.375084 1.370747,0.375084s1.096598,-0.187542 1.553514,-0.468855c0.548299,-0.468855 0.731065,-0.93771 0.731065,-1.500335z" fill="#444444"/>
    <path stroke="null" id="svg_113" d="m431.628111,177.432069l0,4.87609l-1.827663,0l0,-9.002012l1.827663,0l0,1.594106c0.274149,-0.562626 0.639682,-0.93771 1.187981,-1.312793s1.096598,-0.468855 1.73628,-0.468855c1.370747,0 2.284579,0.562626 2.832878,1.781648c0.822448,-1.125252 1.919046,-1.781648 3.19841,-1.781648c1.005215,0 1.827663,0.281313 2.375962,0.93771c0.639682,0.656397 0.913832,1.500335 0.913832,2.719358l0,5.532487l-1.827663,0l0,-4.969861c0,-1.687877 -0.639682,-2.438045 -2.010429,-2.438045c-0.639682,0 -1.187981,0.187542 -1.644897,0.656397c-0.456916,0.375084 -0.731065,1.031481 -0.731065,1.781648l0,4.969861l-1.827663,0l0,-4.969861c0,-0.843939 -0.182766,-1.500335 -0.456916,-1.875419s-0.731065,-0.562626 -1.370747,-0.562626s-1.187981,0.187542 -1.644897,0.656397c-0.456916,0.375084 -0.731065,1.031481 -0.731065,1.875419z" fill="#444444"/>
    <path stroke="null" id="svg_114" d="m447.620163,171.149415c0.731065,-0.562626 1.644897,-0.93771 2.741495,-0.93771s2.010429,0.281313 2.741495,0.93771c0.731065,0.562626 1.096598,1.312793 1.096598,2.250503s-0.456916,1.687877 -1.279364,2.438045c1.096598,0.750168 1.644897,1.687877 1.644897,3.000671c0,1.031481 -0.365533,1.875419 -1.187981,2.531816s-1.827663,1.031481 -3.107027,1.031481s-2.284579,-0.375084 -3.107027,-1.031481s-1.187981,-1.500335 -1.187981,-2.531816c0,-1.312793 0.548299,-2.344274 1.644897,-3.000671c-0.822448,-0.656397 -1.187981,-1.500335 -1.187981,-2.438045c0.091383,-0.93771 0.456916,-1.687877 1.187981,-2.250503zm1.187981,9.002012c0.548299,0.375084 1.005215,0.468855 1.644897,0.468855s1.096598,-0.187542 1.644897,-0.468855c0.548299,-0.375084 0.731065,-0.843939 0.731065,-1.406564c0,-0.656397 -0.274149,-1.125252 -0.731065,-1.406564c-0.456916,-0.281313 -1.005215,-0.468855 -1.644897,-0.468855s-1.187981,0.187542 -1.644897,0.468855c-0.456916,0.281313 -0.731065,0.843939 -0.731065,1.406564c0,0.656397 0.182766,1.125252 0.731065,1.406564zm0.182766,-5.344945c0.456916,0.375084 0.913832,0.468855 1.46213,0.468855s1.005215,-0.187542 1.46213,-0.468855c0.456916,-0.375084 0.639682,-0.750168 0.639682,-1.312793s-0.182766,-0.93771 -0.639682,-1.219023c-0.365533,-0.375084 -0.913832,-0.468855 -1.46213,-0.468855s-1.005215,0.187542 -1.46213,0.468855c-0.456916,0.375084 -0.639682,0.750168 -0.639682,1.219023s0.182766,1.031481 0.639682,1.312793z" fill="#444444"/>
    <path stroke="null" id="svg_115" d="m463.338066,179.588801l-1.187981,2.719358l-2.101813,0l5.026073,-11.815141l2.101813,0l5.026073,11.815141l-2.101813,0l-1.187981,-2.719358l-5.574372,0zm5.026073,-1.875419l-2.101813,-4.87609l-2.101813,4.87609l4.203625,0z" fill="#444444"/>
    <path stroke="null" id="svg_116" d="m481.706079,171.524499c0.822448,0.656397 1.187981,1.781648 1.187981,3.188213s-0.365533,2.438045 -1.187981,3.094442c-0.822448,0.656397 -2.101813,1.031481 -3.746709,1.031481l-2.010429,0l0,3.469526l-1.919046,0l0,-11.815141l3.929476,0c1.644897,0 2.924261,0.375084 3.746709,1.031481zm-1.370747,4.87609c0.365533,-0.468855 0.548299,-1.031481 0.548299,-1.875419c0,-0.843939 -0.274149,-1.406564 -0.731065,-1.687877c-0.456916,-0.375084 -1.279364,-0.468855 -2.284579,-0.468855l-2.010429,0l0,4.688548l2.284579,0c1.096598,0 1.827663,-0.281313 2.193196,-0.656397z" fill="#444444"/>
    <path stroke="null" id="svg_117" d="m485.178639,170.493018l1.919046,0l0,11.815141l-1.919046,0l0,-11.815141z" fill="#444444"/>
   </g>
   <g stroke="null" id="svg_118">
    <path stroke="null" id="svg_119" d="m308.900537,219.140951l-1.187981,2.719358l-2.101813,0l5.026073,-11.815141l2.101813,0l5.026073,11.815141l-2.101813,0l-1.187981,-2.719358l-5.574372,0zm4.93469,-1.875419l-2.101813,-4.87609l-2.101813,4.87609l4.203625,0z" fill="#444444"/>
    <path stroke="null" id="svg_120" d="m321.054496,216.984219l0,4.87609l-1.827663,0l0,-9.002012l1.827663,0l0,1.594106c0.274149,-0.562626 0.639682,-0.93771 1.187981,-1.312793c0.548299,-0.375084 1.096598,-0.468855 1.73628,-0.468855c1.370747,0 2.284579,0.562626 2.832878,1.781648c0.822448,-1.125252 1.919046,-1.781648 3.19841,-1.781648c1.005215,0 1.827663,0.281313 2.375962,0.93771c0.639682,0.656397 0.913832,1.500335 0.913832,2.719358l0,5.532487l-1.827663,0l0,-4.969861c0,-1.687877 -0.639682,-2.438045 -2.010429,-2.438045c-0.639682,0 -1.187981,0.187542 -1.644897,0.656397c-0.456916,0.375084 -0.731065,1.031481 -0.731065,1.781648l0,4.969861l-1.827663,0l0,-4.969861c0,-0.843939 -0.182766,-1.500335 -0.456916,-1.875419c-0.274149,-0.375084 -0.731065,-0.562626 -1.370747,-0.562626s-1.187981,0.187542 -1.644897,0.656397c-0.548299,0.375084 -0.731065,1.031481 -0.731065,1.875419z" fill="#444444"/>
    <path stroke="null" id="svg_121" d="m342.89507,221.860309l-1.644897,0l0,-1.219023c-0.731065,0.843939 -1.73628,1.312793 -2.924261,1.312793c-0.913832,0 -1.644897,-0.281313 -2.284579,-0.750168c-0.639682,-0.562626 -0.913832,-1.219023 -0.913832,-2.156732s0.274149,-1.500335 0.913832,-1.96919s1.46213,-0.656397 2.558728,-0.656397l2.375962,0l0,-0.375084c0,-1.219023 -0.639682,-1.781648 -1.919046,-1.781648c-0.822448,0 -1.644897,0.281313 -2.558728,0.93771l-0.822448,-1.219023c1.096598,-0.843939 2.284579,-1.312793 3.655326,-1.312793c1.005215,0 1.827663,0.281313 2.558728,0.843939c0.639682,0.562626 1.005215,1.406564 1.005215,2.531816l0,5.8138zm-1.827663,-3.375755l0,-0.750168l-2.101813,0c-1.370747,0 -2.010429,0.468855 -2.010429,1.312793c0,0.468855 0.182766,0.750168 0.456916,1.031481c0.365533,0.187542 0.822448,0.375084 1.370747,0.375084s1.096598,-0.187542 1.553514,-0.468855c0.548299,-0.468855 0.731065,-0.93771 0.731065,-1.500335z" fill="#444444"/>
    <path stroke="null" id="svg_122" d="m347.372844,221.860309l-1.827663,0l0,-12.565309l1.827663,0l0,12.565309z" fill="#444444"/>
    <path stroke="null" id="svg_123" d="m358.064673,212.858296l0,7.876761c0,1.594106 -0.456916,2.813129 -1.279364,3.563297s-1.919046,1.219023 -3.19841,1.219023s-2.467345,-0.468855 -3.563943,-1.312793l0.913832,-1.406564c0.822448,0.656397 1.73628,1.031481 2.558728,1.031481s1.553514,-0.187542 2.101813,-0.656397c0.548299,-0.468855 0.731065,-1.219023 0.731065,-2.250503l0,-1.125252c-0.274149,0.562626 -0.639682,0.93771 -1.187981,1.312793c-0.548299,0.281313 -1.096598,0.468855 -1.73628,0.468855c-1.187981,0 -2.101813,-0.375084 -2.832878,-1.219023c-0.731065,-0.843939 -1.096598,-1.875419 -1.096598,-3.094442c0,-1.219023 0.365533,-2.250503 1.096598,-3.094442c0.731065,-0.843939 1.73628,-1.219023 2.832878,-1.219023c1.187981,0 2.101813,0.468855 2.832878,1.500335l0,-1.312793l1.827663,0l0,-0.281313zm-6.762353,4.125922c0,0.750168 0.182766,1.406564 0.639682,1.875419c0.456916,0.562626 1.005215,0.843939 1.827663,0.843939s1.370747,-0.281313 1.827663,-0.750168c0.456916,-0.562626 0.731065,-1.125252 0.731065,-1.96919c0,-0.750168 -0.274149,-1.406564 -0.731065,-1.96919s-1.096598,-0.843939 -1.827663,-0.843939s-1.370747,0.281313 -1.827663,0.843939s-0.639682,1.219023 -0.639682,1.96919z" fill="#444444"/>
    <path stroke="null" id="svg_124" d="m367.84267,221.860309l-1.644897,0l0,-1.219023c-0.731065,0.843939 -1.73628,1.312793 -2.924261,1.312793c-0.913832,0 -1.644897,-0.281313 -2.284579,-0.750168c-0.639682,-0.562626 -0.913832,-1.219023 -0.913832,-2.156732s0.274149,-1.500335 0.913832,-1.96919s1.46213,-0.656397 2.558728,-0.656397l2.375962,0l0,-0.375084c0,-1.219023 -0.639682,-1.781648 -1.919046,-1.781648c-0.822448,0 -1.644897,0.281313 -2.558728,0.93771l-0.822448,-1.219023c1.096598,-0.843939 2.284579,-1.312793 3.655326,-1.312793c1.005215,0 1.827663,0.281313 2.558728,0.843939c0.639682,0.562626 1.005215,1.406564 1.005215,2.531816l0,5.8138zm-1.827663,-3.375755l0,-0.750168l-2.101813,0c-1.370747,0 -2.010429,0.468855 -2.010429,1.312793c0,0.468855 0.182766,0.750168 0.456916,1.031481c0.365533,0.187542 0.822448,0.375084 1.370747,0.375084s1.096598,-0.187542 1.553514,-0.468855c0.548299,-0.468855 0.731065,-0.93771 0.731065,-1.500335z" fill="#444444"/>
    <path stroke="null" id="svg_125" d="m372.229062,216.984219l0,4.87609l-1.827663,0l0,-9.002012l1.827663,0l0,1.594106c0.274149,-0.562626 0.639682,-0.93771 1.187981,-1.312793c0.548299,-0.375084 1.096598,-0.468855 1.73628,-0.468855c1.370747,0 2.284579,0.562626 2.832878,1.781648c0.822448,-1.125252 1.919046,-1.781648 3.19841,-1.781648c1.005215,0 1.827663,0.281313 2.375962,0.93771c0.639682,0.656397 0.913832,1.500335 0.913832,2.719358l0,5.532487l-1.827663,0l0,-4.969861c0,-1.687877 -0.639682,-2.438045 -2.010429,-2.438045c-0.639682,0 -1.187981,0.187542 -1.644897,0.656397c-0.456916,0.375084 -0.731065,1.031481 -0.731065,1.781648l0,4.969861l-1.827663,0l0,-4.969861c0,-0.843939 -0.182766,-1.500335 -0.456916,-1.875419c-0.274149,-0.375084 -0.731065,-0.562626 -1.370747,-0.562626s-1.187981,0.187542 -1.644897,0.656397c-0.456916,0.375084 -0.731065,1.031481 -0.731065,1.875419z" fill="#444444"/>
    <path stroke="null" id="svg_126" d="m388.221114,210.701564c0.731065,-0.562626 1.644897,-0.93771 2.741495,-0.93771s2.010429,0.281313 2.741495,0.93771c0.731065,0.562626 1.096598,1.312793 1.096598,2.250503s-0.456916,1.687877 -1.279364,2.438045c1.096598,0.750168 1.644897,1.687877 1.644897,3.000671c0,1.031481 -0.365533,1.875419 -1.187981,2.531816s-1.827663,1.031481 -3.107027,1.031481s-2.284579,-0.375084 -3.107027,-1.031481c-0.822448,-0.656397 -1.187981,-1.500335 -1.187981,-2.531816c0,-1.312793 0.548299,-2.344274 1.644897,-3.000671c-0.822448,-0.656397 -1.187981,-1.500335 -1.187981,-2.438045c0.091383,-0.93771 0.456916,-1.687877 1.187981,-2.250503zm1.187981,9.002012c0.548299,0.375084 1.005215,0.468855 1.644897,0.468855s1.096598,-0.187542 1.644897,-0.468855c0.548299,-0.375084 0.731065,-0.843939 0.731065,-1.406564c0,-0.656397 -0.274149,-1.125252 -0.731065,-1.406564s-1.005215,-0.468855 -1.644897,-0.468855s-1.187981,0.187542 -1.644897,0.468855s-0.731065,0.843939 -0.731065,1.406564c0,0.656397 0.182766,1.125252 0.731065,1.406564zm0.182766,-5.344945c0.456916,0.375084 0.913832,0.468855 1.46213,0.468855s1.005215,-0.187542 1.46213,-0.468855c0.456916,-0.375084 0.639682,-0.750168 0.639682,-1.312793s-0.182766,-0.93771 -0.639682,-1.219023c-0.365533,-0.375084 -0.913832,-0.468855 -1.46213,-0.468855s-1.005215,0.187542 -1.46213,0.468855c-0.456916,0.375084 -0.639682,0.750168 -0.639682,1.219023s0.182766,1.031481 0.639682,1.312793z" fill="#444444"/>
    <path stroke="null" id="svg_127" d="m407.594342,219.984889c0.639682,0 1.279364,-0.093771 1.73628,-0.375084s1.005215,-0.562626 1.553514,-1.125252l1.279364,1.312793c-1.187981,1.406564 -2.650111,2.062961 -4.477775,2.062961c-1.73628,0 -3.19841,-0.562626 -4.295008,-1.687877c-1.096598,-1.125252 -1.73628,-2.625587 -1.73628,-4.313464c0,-1.687877 0.548299,-3.188213 1.73628,-4.407235c1.187981,-1.125252 2.650111,-1.781648 4.386391,-1.781648s3.289794,0.656397 4.477775,2.062961l-1.187981,1.406564c-0.548299,-0.562626 -1.096598,-0.93771 -1.553514,-1.125252s-1.096598,-0.281313 -1.73628,-0.281313c-1.187981,0 -2.101813,0.375084 -2.924261,1.125252s-1.187981,1.781648 -1.187981,2.9069s0.365533,2.156732 1.187981,3.000671c0.731065,0.843939 1.644897,1.219023 2.741495,1.219023z" fill="#444444"/>
    <path stroke="null" id="svg_128" d="m421.210432,220.641286c-0.913832,0.93771 -2.010429,1.312793 -3.289794,1.312793s-2.375962,-0.468855 -3.289794,-1.312793s-1.279364,-1.96919 -1.279364,-3.281984s0.456916,-2.344274 1.279364,-3.281984s2.010429,-1.312793 3.289794,-1.312793s2.375962,0.468855 3.289794,1.312793s1.279364,1.96919 1.279364,3.281984c0.091383,1.312793 -0.365533,2.344274 -1.279364,3.281984zm-5.20884,-1.219023c0.548299,0.562626 1.187981,0.843939 2.010429,0.843939c0.822448,0 1.46213,-0.281313 2.010429,-0.843939c0.548299,-0.562626 0.822448,-1.219023 0.822448,-2.156732c0,-0.843939 -0.274149,-1.594106 -0.822448,-2.156732c-0.548299,-0.562626 -1.187981,-0.843939 -2.010429,-0.843939c-0.822448,0 -1.46213,0.281313 -2.010429,0.843939c-0.548299,0.562626 -0.822448,1.219023 -0.822448,2.156732s0.274149,1.687877 0.822448,2.156732z" fill="#444444"/>
    <path stroke="null" id="svg_129" d="m426.510655,216.984219l0,4.87609l-1.827663,0l0,-9.002012l1.827663,0l0,1.594106c0.274149,-0.562626 0.731065,-0.93771 1.187981,-1.312793c0.548299,-0.281313 1.096598,-0.468855 1.644897,-0.468855c1.005215,0 1.827663,0.281313 2.375962,0.93771c0.639682,0.656397 0.913832,1.500335 0.913832,2.719358l0,5.532487l-1.827663,0l0,-4.969861c0,-1.687877 -0.639682,-2.438045 -2.010429,-2.438045c-0.639682,0 -1.187981,0.187542 -1.644897,0.656397s-0.639682,1.031481 -0.639682,1.875419z" fill="#444444"/>
    <path stroke="null" id="svg_130" d="m437.476633,214.358632l0,4.594777c0,0.468855 0.091383,0.750168 0.365533,1.031481c0.182766,0.281313 0.548299,0.375084 0.913832,0.375084s0.731065,-0.187542 1.096598,-0.562626l0.731065,1.312793c-0.639682,0.562626 -1.370747,0.93771 -2.101813,0.93771c-0.822448,0 -1.46213,-0.281313 -2.010429,-0.843939s-0.822448,-1.312793 -0.822448,-2.250503l0,-4.501006l-1.096598,0l0,-1.500335l1.096598,0l0,-2.813129l1.827663,0l0,2.813129l2.284579,0l0,1.500335l-2.284579,0l0,-0.093771z" fill="#444444"/>
    <path stroke="null" id="svg_131" d="m446.614949,214.639944c-0.913832,0 -1.553514,0.281313 -2.010429,0.93771c-0.456916,0.656397 -0.731065,1.406564 -0.731065,2.438045l0,3.844609l-1.827663,0l0,-9.002012l1.827663,0l0,1.781648c0.274149,-0.562626 0.731065,-1.031481 1.187981,-1.406564c0.548299,-0.375084 1.005215,-0.562626 1.644897,-0.562626l0,1.875419c0,0.093771 0,0.093771 -0.091383,0.093771z" fill="#444444"/>
    <path stroke="null" id="svg_132" d="m455.753264,220.641286c-0.913832,0.93771 -2.010429,1.312793 -3.289794,1.312793s-2.375962,-0.468855 -3.289794,-1.312793c-0.913832,-0.93771 -1.279364,-1.96919 -1.279364,-3.281984s0.456916,-2.344274 1.279364,-3.281984c0.913832,-0.93771 2.010429,-1.312793 3.289794,-1.312793s2.375962,0.468855 3.289794,1.312793s1.279364,1.96919 1.279364,3.281984s-0.456916,2.344274 -1.279364,3.281984zm-5.300223,-1.219023c0.548299,0.562626 1.187981,0.843939 2.010429,0.843939s1.46213,-0.281313 2.010429,-0.843939c0.548299,-0.562626 0.822448,-1.219023 0.822448,-2.156732c0,-0.843939 -0.274149,-1.594106 -0.822448,-2.156732c-0.548299,-0.562626 -1.187981,-0.843939 -2.010429,-0.843939s-1.46213,0.281313 -2.010429,0.843939c-0.548299,0.562626 -0.822448,1.219023 -0.822448,2.156732s0.274149,1.687877 0.822448,2.156732z" fill="#444444"/>
    <path stroke="null" id="svg_133" d="m460.962104,221.860309l-1.827663,0l0,-12.565309l1.827663,0l0,12.565309z" fill="#444444"/>
    <path stroke="null" id="svg_134" d="m465.439878,221.860309l-1.827663,0l0,-12.565309l1.827663,0l0,12.565309z" fill="#444444"/>
    <path stroke="null" id="svg_135" d="m476.314473,218.203241l-6.853736,0c0,0.656397 0.365533,1.219023 0.913832,1.594106c0.548299,0.375084 1.187981,0.562626 1.827663,0.562626c1.096598,0 1.919046,-0.375084 2.467345,-1.031481l1.096598,1.219023c-0.913832,1.031481 -2.193196,1.500335 -3.655326,1.500335c-1.187981,0 -2.284579,-0.375084 -3.107027,-1.219023c-0.822448,-0.843939 -1.279364,-1.96919 -1.279364,-3.375755s0.456916,-2.531816 1.279364,-3.375755c0.913832,-0.843939 1.919046,-1.219023 3.107027,-1.219023c1.187981,0 2.193196,0.375084 3.015644,1.125252c0.822448,0.750168 1.279364,1.781648 1.279364,3.000671l-0.091383,1.219023l0,0zm-6.853736,-1.500335l5.026073,0c0,-0.750168 -0.274149,-1.312793 -0.731065,-1.781648c-0.456916,-0.375084 -1.005215,-0.562626 -1.73628,-0.562626c-0.639682,0 -1.279364,0.187542 -1.827663,0.656397c-0.456916,0.375084 -0.731065,0.93771 -0.731065,1.687877z" fill="#444444"/>
    <path stroke="null" id="svg_136" d="m482.89406,214.639944c-0.913832,0 -1.553514,0.281313 -2.010429,0.93771c-0.456916,0.656397 -0.731065,1.406564 -0.731065,2.438045l0,3.844609l-1.827663,0l0,-9.002012l1.827663,0l0,1.781648c0.274149,-0.562626 0.731065,-1.031481 1.187981,-1.406564c0.548299,-0.375084 1.005215,-0.562626 1.644897,-0.562626l0,1.875419c0,0.093771 -0.091383,0.093771 -0.091383,0.093771z" fill="#444444"/>
    <path stroke="null" id="svg_137" d="m484.63034,220.735057c0,-0.375084 0.091383,-0.656397 0.365533,-0.93771c0.274149,-0.281313 0.548299,-0.375084 0.822448,-0.375084c0.365533,0 0.639682,0.093771 0.822448,0.375084c0.274149,0.281313 0.365533,0.562626 0.365533,0.843939s-0.182766,0.750168 -0.456916,1.219023l-1.005215,1.687877l-0.913832,0l0.639682,-1.781648c-0.456916,-0.093771 -0.639682,-0.468855 -0.639682,-1.031481z" fill="#444444"/>
    <path stroke="null" id="svg_138" d="m503.45527,213.889777c0,1.96919 -0.822448,3.188213 -2.467345,3.657068l3.015644,4.313464l-2.467345,0l-2.741495,-3.93838l-2.558728,0l0,3.93838l-2.010429,0l0,-11.815141l4.295008,0c1.73628,0 3.015644,0.281313 3.746709,0.93771c0.731065,0.562626 1.187981,1.500335 1.187981,2.9069zm-2.650111,1.687877c0.365533,-0.375084 0.548299,-0.93771 0.548299,-1.687877s-0.182766,-1.312793 -0.639682,-1.594106c-0.365533,-0.281313 -1.096598,-0.468855 -2.193196,-0.468855l-2.467345,0l0,4.219693l2.375962,0c1.279364,0 2.010429,-0.187542 2.375962,-0.468855z" fill="#444444"/>
    <path stroke="null" id="svg_139" d="m514.055716,218.203241l-6.853736,0c0,0.656397 0.365533,1.219023 0.913832,1.594106c0.548299,0.375084 1.187981,0.562626 1.827663,0.562626c1.096598,0 1.919046,-0.375084 2.467345,-1.031481l1.096598,1.219023c-0.913832,1.031481 -2.193196,1.500335 -3.655326,1.500335c-1.187981,0 -2.284579,-0.375084 -3.107027,-1.219023c-0.822448,-0.843939 -1.279364,-1.96919 -1.279364,-3.375755s0.456916,-2.531816 1.279364,-3.375755c0.913832,-0.843939 1.919046,-1.219023 3.107027,-1.219023s2.193196,0.375084 3.015644,1.125252c0.822448,0.750168 1.279364,1.781648 1.279364,3.000671l0,1.219023l-0.091383,0zm-6.853736,-1.500335l5.026073,0c0,-0.750168 -0.274149,-1.312793 -0.731065,-1.781648c-0.456916,-0.375084 -1.005215,-0.562626 -1.73628,-0.562626c-0.639682,0 -1.279364,0.187542 -1.827663,0.656397c-0.456916,0.375084 -0.731065,0.93771 -0.731065,1.687877z" fill="#444444"/>
    <path stroke="null" id="svg_140" d="m524.199246,212.858296l0,7.876761c0,1.594106 -0.456916,2.813129 -1.279364,3.563297c-0.822448,0.750168 -1.919046,1.219023 -3.19841,1.219023c-1.279364,0 -2.467345,-0.468855 -3.563943,-1.312793l0.913832,-1.406564c0.822448,0.656397 1.73628,1.031481 2.558728,1.031481c0.913832,0 1.553514,-0.187542 2.101813,-0.656397s0.731065,-1.219023 0.731065,-2.250503l0,-1.125252c-0.274149,0.562626 -0.639682,0.93771 -1.187981,1.312793c-0.548299,0.281313 -1.096598,0.468855 -1.73628,0.468855c-1.187981,0 -2.101813,-0.375084 -2.832878,-1.219023c-0.731065,-0.843939 -1.096598,-1.875419 -1.096598,-3.094442c0,-1.219023 0.365533,-2.250503 1.096598,-3.094442c0.731065,-0.843939 1.73628,-1.219023 2.832878,-1.219023c1.187981,0 2.101813,0.468855 2.832878,1.500335l0,-1.312793l1.827663,0l0,-0.281313zm-6.853736,4.125922c0,0.750168 0.182766,1.406564 0.639682,1.875419c0.456916,0.562626 1.005215,0.843939 1.827663,0.843939c0.731065,0 1.370747,-0.281313 1.827663,-0.750168c0.456916,-0.562626 0.731065,-1.125252 0.731065,-1.96919c0,-0.750168 -0.274149,-1.406564 -0.731065,-1.96919s-1.096598,-0.843939 -1.827663,-0.843939s-1.370747,0.281313 -1.827663,0.843939c-0.365533,0.562626 -0.639682,1.219023 -0.639682,1.96919z" fill="#444444"/>
    <path stroke="null" id="svg_141" d="m526.94074,211.076648c-0.274149,-0.281313 -0.365533,-0.562626 -0.365533,-0.843939s0.091383,-0.562626 0.365533,-0.843939s0.548299,-0.375084 0.822448,-0.375084c0.274149,0 0.548299,0.093771 0.822448,0.375084c0.274149,0.281313 0.365533,0.562626 0.365533,0.843939s-0.091383,0.562626 -0.365533,0.843939c-0.274149,0.281313 -0.548299,0.375084 -0.822448,0.375084c-0.274149,0 -0.548299,-0.187542 -0.822448,-0.375084zm1.73628,10.783661l-1.827663,0l0,-9.002012l1.827663,0l0,9.002012z" fill="#444444"/>
    <path stroke="null" id="svg_142" d="m537.632569,219.140951c0,0.843939 -0.274149,1.500335 -0.913832,2.062961c-0.639682,0.562626 -1.370747,0.750168 -2.284579,0.750168c-0.639682,0 -1.279364,-0.093771 -2.010429,-0.375084s-1.279364,-0.562626 -1.827663,-1.031481l0.913832,-1.500335c1.005215,0.750168 2.010429,1.219023 2.924261,1.219023c0.456916,0 0.731065,-0.093771 1.005215,-0.281313c0.274149,-0.187542 0.365533,-0.468855 0.365533,-0.750168c0,-0.468855 -0.548299,-0.843939 -1.73628,-1.219023c-0.091383,0 -0.182766,-0.093771 -0.182766,-0.093771c-1.827663,-0.468855 -2.741495,-1.312793 -2.741495,-2.531816c0,-0.843939 0.274149,-1.500335 0.913832,-1.96919c0.639682,-0.468855 1.46213,-0.750168 2.467345,-0.750168c1.005215,0 1.919046,0.281313 2.832878,0.93771l-0.731065,1.406564c-0.731065,-0.468855 -1.46213,-0.750168 -2.284579,-0.750168c-0.456916,0 -0.822448,0.093771 -1.096598,0.281313s-0.456916,0.375084 -0.456916,0.750168c0,0.281313 0.182766,0.468855 0.456916,0.656397c0.182766,0.093771 0.456916,0.187542 0.822448,0.281313c0.365533,0.093771 0.639682,0.187542 0.913832,0.281313c0.274149,0.093771 0.548299,0.187542 0.822448,0.281313c0.274149,0.093771 0.548299,0.281313 0.822448,0.468855c0.731065,0.375084 1.005215,1.031481 1.005215,1.875419z" fill="#444444"/>
    <path stroke="null" id="svg_143" d="m541.927577,214.358632l0,4.594777c0,0.468855 0.091383,0.750168 0.365533,1.031481c0.274149,0.281313 0.548299,0.375084 0.913832,0.375084c0.365533,0 0.731065,-0.187542 1.096598,-0.562626l0.731065,1.312793c-0.639682,0.562626 -1.370747,0.93771 -2.101813,0.93771c-0.822448,0 -1.46213,-0.281313 -2.010429,-0.843939c-0.548299,-0.562626 -0.822448,-1.312793 -0.822448,-2.250503l0,-4.501006l-1.096598,0l0,-1.500335l1.096598,0l0,-2.813129l1.827663,0l0,2.813129l2.284579,0l0,1.500335l-2.284579,0l0,-0.093771z" fill="#444444"/>
    <path stroke="null" id="svg_144" d="m551.157276,214.639944c-0.913832,0 -1.553514,0.281313 -2.010429,0.93771c-0.456916,0.656397 -0.731065,1.406564 -0.731065,2.438045l0,3.844609l-1.827663,0l0,-9.002012l1.827663,0l0,1.781648c0.274149,-0.562626 0.731065,-1.031481 1.187981,-1.406564c0.548299,-0.375084 1.005215,-0.562626 1.644897,-0.562626l0,1.875419c0,0.093771 -0.091383,0.093771 -0.091383,0.093771z" fill="#444444"/>
    <path stroke="null" id="svg_145" d="m554.17292,225.423605c-0.822448,0 -1.553514,-0.281313 -2.193196,-0.93771l0.822448,-1.500335c0.365533,0.375084 0.822448,0.562626 1.187981,0.562626s0.731065,-0.187542 1.005215,-0.468855c0.274149,-0.281313 0.365533,-0.656397 0.365533,-1.031481c0,-0.187542 -1.187981,-3.188213 -3.563943,-9.189554l2.010429,0l2.650111,6.657738l2.650111,-6.657738l2.010429,0l-4.203625,10.68989c-0.274149,0.562626 -0.639682,1.031481 -1.096598,1.406564c-0.548299,0.281313 -1.005215,0.468855 -1.644897,0.468855z" fill="#444444"/>
   </g>
   <g stroke="null" id="svg_249">
    <rect stroke="null" id="svg_250" height="12.283996" width="492.372429" fill="#452845" y="241.449513" x="186.721261"/>
   </g>
   <rect stroke="#9D6E80" rx="5" id="svg_306" height="29.383803" width="72.58951" y="163.083771" x="233.004677" stroke-width="2" fill="#e5e5e5"/>
   <text stroke="#9D6E80" transform="matrix(0.9138315320014953,0,0,1.0013911259534394,62.99459653810844,-0.008608268486682391) " xml:space="preserve" text-anchor="start" font-family="Helvetica, Arial, sans-serif" font-size="11" id="svg_307" y="175.998293" x="191.5" fill-opacity="null" stroke-opacity="null" stroke-width="0" fill="#191919">Version-aware</text>
   <text stroke="#9D6E80" transform="matrix(0.9138315320014953,0,0,1.0013911259534394,62.99459653810844,-0.008608268486682391) " xml:space="preserve" text-anchor="start" font-family="Helvetica, Arial, sans-serif" font-size="11" id="svg_308" y="187.021628" x="207.311413" fill-opacity="null" stroke-opacity="null" stroke-width="0" fill="#191919">Routing</text>
   <rect stroke="#9D6E80" rx="5" id="svg_309" height="29.95543" width="47.324219" y="163" x="587.324146" stroke-width="2" fill="#e5e5e5"/>
   <text stroke="#9D6E80" transform="matrix(0.9138315320014953,0,0,1.0013911259534394,62.99459653810844,-0.008608268486682391) " xml:space="preserve" text-anchor="start" font-family="Helvetica, Arial, sans-serif" font-size="11" id="svg_310" y="174.709245" x="586.393297" fill-opacity="null" stroke-opacity="null" stroke-width="0" fill="#191919">Fault</text>
   <text stroke="#9D6E80" transform="matrix(0.9138315320014953,0,0,1.0013911259534394,62.99459653810844,-0.008608268486682391) " xml:space="preserve" text-anchor="start" font-family="Helvetica, Arial, sans-serif" font-size="11" id="svg_311" y="185.73258" x="579.393297" fill-opacity="null" stroke-opacity="null" stroke-width="0" fill="#191919">Injection</text>
  </g>
  <g id="svg_1">
   <path id="svg_2" d="m716.3,499.1l-577.6,0c-12.8,0 -23.2,-10.4 -23.2,-23.2l0,-151.9c0,-12.8 10.4,-23.2 23.2,-23.2l577.6,0c12.8,0 23.2,10.4 23.2,23.2l0,152c0,12.7 -10.4,23.1 -23.2,23.1z" fill="#FFFFFF"/>
  </g>
  <g id="svg_5">
   <g id="svg_6">
    <path id="svg_7" d="m565.3,476.5l-421.6,0c-7.2,0 -13,-6.6 -13,-14.7l0,-128.1c0,-8.1 5.8,-14.7 13,-14.7l421.6,0c7.2,0 13,6.6 13,14.7l0,128.1c0,8.1 -5.9,14.7 -13,14.7z" fill="#EDEDED"/>
   </g>
   <g id="svg_8">
    <path id="svg_9" d="m565.3,476.9l-421.6,0c-7.4,0 -13.3,-6.8 -13.3,-15.1l0,-128.1c0,-8.3 6,-15.1 13.3,-15.1l421.6,0c7.4,0 13.3,6.8 13.3,15.1l0,128.1c0,8.3 -6,15.1 -13.3,15.1zm-421.6,-157.4c-7,0 -12.7,6.4 -12.7,14.3l0,128.1c0,7.9 5.7,14.3 12.7,14.3l421.6,0c7,0 12.7,-6.4 12.7,-14.3l0,-128.2c0,-7.9 -5.7,-14.3 -12.7,-14.3l-421.6,0.1l0,0z" fill="#EDEDED"/>
   </g>
  </g>
  <g id="svg_10">
   <g id="svg_11">
    <path id="svg_12" d="m298.9,453.6l-20.2,0c-5.7,0 -10.4,-4.7 -10.4,-10.4l0,-20.2c0,-5.8 4.7,-10.4 10.4,-10.4l20.2,0c5.7,0 10.4,4.7 10.4,10.4l0,20.2c0,5.7 -4.7,10.4 -10.4,10.4z" fill="#FFFFFF"/>
    <path id="svg_13" d="m298.9,454.1l-20.2,0c-6,0 -10.9,-4.9 -10.9,-10.9l0,-20.2c0,-6 4.9,-10.9 10.9,-10.9l20.2,0c6,0 10.9,4.9 10.9,10.9l0,20.2c0,6 -4.9,10.9 -10.9,10.9zm-20.2,-41c-5.5,0 -9.9,4.5 -9.9,9.9l0,20.2c0,5.5 4.5,9.9 9.9,9.9l20.2,0c5.5,0 9.9,-4.5 9.9,-9.9l0,-20.2c0,-5.5 -4.5,-9.9 -9.9,-9.9l-20.2,0z" fill="#452845"/>
   </g>
  </g>
  <g id="svg_14">
   <g id="svg_15">
    <path id="svg_16" d="m298.9,381l-20.2,0c-5.7,0 -10.4,-4.7 -10.4,-10.4l0,-20.2c0,-5.8 4.7,-10.4 10.4,-10.4l20.2,0c5.7,0 10.4,4.7 10.4,10.4l0,20.2c0,5.8 -4.7,10.4 -10.4,10.4z" fill="#FFFFFF"/>
    <path id="svg_17" d="m298.9,381.5l-20.2,0c-6,0 -10.9,-4.9 -10.9,-10.9l0,-20.2c0,-6 4.9,-10.9 10.9,-10.9l20.2,0c6,0 10.9,4.9 10.9,10.9l0,20.2c0,6 -4.9,10.9 -10.9,10.9zm-20.2,-41c-5.5,0 -9.9,4.5 -9.9,9.9l0,20.2c0,5.5 4.5,9.9 9.9,9.9l20.2,0c5.5,0 9.9,-4.5 9.9,-9.9l0,-20.2c0,-5.5 -4.5,-9.9 -9.9,-9.9l-20.2,0z" fill="#452845"/>
   </g>
  </g>
  <g fill="#452845" id="svg_18">
   <path id="svg_19" d="m370.166662,121.833329c1.5,0 2.8,-0.6 3.8,-1.8l2,2.1c-1.6,1.8 -3.5,2.7 -5.6,2.7s-3.9,-0.7 -5.3,-2c-1.4,-1.4 -2.1,-3.1 -2.1,-5.1s0.7,-3.8 2.1,-5.2c1.4,-1.4 3.2,-2.1 5.2,-2.1c2.3,0 4.2,0.9 5.8,2.6l-1.9,2.2c-1,-1.2 -2.2,-1.8 -3.7,-1.8c-1.2,0 -2.2,0.4 -3,1.1c-0.8,0.8 -1.2,1.8 -1.2,3.1s0.4,2.3 1.2,3.1c0.8,0.8 1.6,1.1 2.7,1.1z" fill="#452845"/>
   <path id="svg_20" d="m388.366662,119.233329c0,1.6 -0.5,2.9 -1.6,3.9c-1.1,1.1 -2.4,1.6 -4.1,1.6c-1.6,0 -3,-0.5 -4.1,-1.6s-1.6,-2.4 -1.6,-3.9s0.5,-2.9 1.6,-4c1.1,-1.1 2.4,-1.6 4.1,-1.6c1.6,0 3,0.5 4.1,1.6c1.1,1.1 1.6,2.4 1.6,4zm-8.3,0c0,0.9 0.2,1.6 0.8,2.1s1.1,0.8 1.9,0.8s1.4,-0.3 1.9,-0.8s0.8,-1.3 0.8,-2.1c0,-0.8 -0.2,-1.6 -0.8,-2.2c-0.6,-0.6 -1.1,-0.8 -1.9,-0.8s-1.4,0.3 -1.9,0.8s-0.8,1.3 -0.8,2.2z" fill="#452845"/>
   <path id="svg_21" d="m393.666662,118.633329l0,6l-3,0l0,-10.8l3,0l0,1.2c0.9,-0.9 1.9,-1.4 3.1,-1.4s2.1,0.4 2.9,1.2s1.1,1.9 1.1,3.2l0,6.5l-3,0l0,-6.1c0,-1.7 -0.6,-2.5 -1.8,-2.5c-0.6,0 -1.1,0.2 -1.6,0.6c-0.5,0.6 -0.7,1.2 -0.7,2.1z" fill="#452845"/>
   <path id="svg_22" d="m406.866662,116.033329l0,4.8c0,0.4 0.1,0.7 0.3,1c0.2,0.2 0.5,0.4 0.8,0.4c0.6,0 1,-0.3 1.4,-0.8l1.1,2.1c-0.9,0.9 -1.9,1.3 -3,1.3s-1.9,-0.3 -2.6,-1s-1.1,-1.6 -1.1,-2.8l0,-5l-1.3,0l0,-2.2l1.3,0l0,-3.2l3,0l0,3.2l2.6,0l0,2.2l-2.5,0z" fill="#452845"/>
   <path id="svg_23" d="m417.666662,116.533329c-0.9,0 -1.6,0.3 -2,1s-0.7,1.5 -0.7,2.5l0,4.7l-3,0l0,-10.9l3,0l0,1.4c0.4,-0.4 0.9,-0.8 1.5,-1.1s1.2,-0.5 1.8,-0.5l0,2.8l-0.6,0.1l0,0z" fill="#452845"/>
   <path id="svg_24" d="m430.866662,119.233329c0,1.6 -0.5,2.9 -1.6,3.9c-1.1,1.1 -2.4,1.6 -4.1,1.6c-1.6,0 -3,-0.5 -4.1,-1.6s-1.6,-2.4 -1.6,-3.9s0.5,-2.9 1.6,-4c1.1,-1.1 2.4,-1.6 4.1,-1.6c1.6,0 3,0.5 4.1,1.6c1.1,1.1 1.6,2.4 1.6,4zm-8.4,0c0,0.9 0.2,1.6 0.8,2.1s1.1,0.8 1.9,0.8s1.4,-0.3 1.9,-0.8s0.8,-1.3 0.8,-2.1c0,-0.8 -0.2,-1.6 -0.8,-2.2c-0.6,-0.6 -1.1,-0.8 -1.9,-0.8s-1.4,0.3 -1.9,0.8s-0.8,1.3 -0.8,2.2z" fill="#452845"/>
   <path id="svg_25" d="m436.066662,124.633329l-3,0l0,-14.9l3,0l0,14.9z" fill="#452845"/>
   <path id="svg_26" d="m454.166662,111.833329c1,0.8 1.5,2.1 1.5,3.8s-0.5,3 -1.5,3.8c-1,0.8 -2.5,1.2 -4.6,1.2l-1.9,0l0,3.9l-3.1,0l0,-14l4.9,0c2.1,0.1 3.7,0.5 4.7,1.3zm-2.3,5.5c0.4,-0.4 0.6,-1 0.6,-1.8s-0.2,-1.4 -0.7,-1.7s-1.2,-0.5 -2.3,-0.5l-1.8,0l0,4.7l2.1,0c1,0 1.7,-0.2 2.1,-0.7z" fill="#452845"/>
   <path id="svg_27" d="m460.766662,124.633329l-3,0l0,-14.9l3,0l0,14.9z" fill="#452845"/>
   <path id="svg_28" d="m472.766662,124.633329l-2.8,0l0,-1.3c-0.8,1 -1.7,1.5 -2.9,1.5s-2.1,-0.3 -2.9,-1s-1.2,-1.5 -1.2,-2.6c0,-1.1 0.4,-1.9 1.2,-2.5c0.8,-0.5 1.9,-0.8 3.3,-0.8l2.2,0l0,-0.1c0,-1.1 -0.6,-1.7 -1.8,-1.7c-0.5,0 -1.1,0.1 -1.7,0.3c-0.6,0.2 -1.1,0.5 -1.5,0.8l-1.3,-1.9c1.4,-1 3,-1.5 4.8,-1.5c1.3,0 2.4,0.3 3.2,1c0.8,0.7 1.2,1.7 1.2,3.1l0,6.7l0.2,0zm-3.1,-4.1l0,-0.5l-1.9,0c-1.2,0 -1.8,0.4 -1.8,1.1c0,0.4 0.1,0.7 0.4,0.9s0.7,0.3 1.2,0.3s1,-0.2 1.4,-0.5c0.5,-0.3 0.7,-0.8 0.7,-1.3z" fill="#452845"/>
   <path id="svg_29" d="m478.466662,118.633329l0,6l-3,0l0,-10.8l3,0l0,1.2c0.9,-0.9 1.9,-1.4 3.1,-1.4c1.1,0 2.1,0.4 2.8,1.2c0.8,0.8 1.2,1.9 1.2,3.2l0,6.5l-3,0l0,-6.1c0,-1.7 -0.6,-2.5 -1.8,-2.5c-0.6,0 -1.1,0.2 -1.6,0.6c-0.5,0.6 -0.7,1.2 -0.7,2.1z" fill="#452845"/>
   <path id="svg_30" d="m497.566662,123.033329c-1.2,1.1 -2.6,1.7 -4.3,1.7c-1.6,0 -3,-0.5 -4,-1.5c-1.1,-1 -1.6,-2.4 -1.6,-4c0,-1.6 0.5,-3 1.6,-4c1.1,-1 2.4,-1.5 3.8,-1.5c1.5,0 2.7,0.4 3.8,1.3c1,0.9 1.6,2.1 1.6,3.7l0,1.6l-7.8,0c0.1,0.6 0.4,1.1 0.9,1.4c0.5,0.4 1.1,0.6 1.8,0.6c1.1,0 1.9,-0.4 2.6,-1.1l1.6,1.8zm-2.9,-6.4c-0.4,-0.3 -0.9,-0.5 -1.5,-0.5s-1.1,0.2 -1.6,0.5s-0.8,0.8 -0.9,1.5l4.7,0c0,-0.6 -0.3,-1.1 -0.7,-1.5z" fill="#452845"/>
  </g>
  <g id="svg_31">
   <path id="svg_32" d="m367.366662,266.999999l0,11.3l-3.1,0l0,-11.3l-4,0l0,-2.7l11,0l0,2.7l-3.9,0z" fill="#452845"/>
   <path id="svg_33" d="m382.566662,276.699999c-1.2,1.1 -2.6,1.7 -4.3,1.7c-1.6,0 -3,-0.5 -4.1,-1.5s-1.6,-2.4 -1.6,-4s0.5,-3 1.6,-4s2.4,-1.5 3.8,-1.5s2.7,0.4 3.8,1.3c1,0.9 1.6,2.1 1.6,3.7l0,1.6l-7.8,0c0.1,0.6 0.4,1.1 0.9,1.4c0.5,0.4 1.1,0.6 1.8,0.6c1.1,0 1.9,-0.4 2.6,-1.1l1.7,1.8zm-2.9,-6.4c-0.4,-0.3 -0.9,-0.5 -1.5,-0.5s-1.1,0.2 -1.6,0.5c-0.5,0.4 -0.8,0.8 -0.9,1.5l4.7,0c0,-0.6 -0.3,-1.1 -0.7,-1.5z" fill="#452845"/>
   <path id="svg_34" d="m388.566662,272.299999l0,6l-3,0l0,-10.8l3,0l0,1.2c0.9,-0.9 1.9,-1.4 3.1,-1.4s2.1,0.4 2.9,1.2s1.1,1.9 1.1,3.2l0,6.5l-3,0l0,-6.1c0,-1.7 -0.6,-2.5 -1.8,-2.5c-0.6,0 -1.1,0.2 -1.6,0.6c-0.4,0.6 -0.7,1.2 -0.7,2.1z" fill="#452845"/>
   <path id="svg_35" d="m407.566662,278.299999l-2.9,0l0,-1.3c-0.8,1 -1.7,1.5 -2.9,1.5c-1.1,0 -2.1,-0.3 -2.9,-1s-1.2,-1.5 -1.2,-2.6s0.4,-1.9 1.2,-2.5c0.8,-0.5 1.9,-0.8 3.3,-0.8l2.2,0l0,-0.1c0,-1.1 -0.6,-1.7 -1.8,-1.7c-0.5,0 -1.1,0.1 -1.7,0.3c-0.6,0.2 -1.1,0.5 -1.5,0.8l-1.3,-1.9c1.4,-1 3,-1.5 4.8,-1.5c1.3,0 2.4,0.3 3.2,1s1.2,1.7 1.2,3.1l0,6.7l0.3,0zm-3.1,-4.1l0,-0.5l-1.8,0c-1.2,0 -1.8,0.4 -1.8,1.1c0,0.4 0.1,0.7 0.4,0.9c0.3,0.2 0.7,0.3 1.2,0.3s1,-0.2 1.4,-0.5s0.6,-0.8 0.6,-1.3z" fill="#452845"/>
   <path id="svg_36" d="m413.266662,272.299999l0,6l-3,0l0,-10.8l3,0l0,1.2c0.9,-0.9 1.9,-1.4 3.1,-1.4s2.1,0.4 2.9,1.2s1.1,1.9 1.1,3.2l0,6.5l-3,0l0,-6.1c0,-1.7 -0.6,-2.5 -1.8,-2.5c-0.6,0 -1.1,0.2 -1.6,0.6c-0.5,0.6 -0.7,1.2 -0.7,2.1z" fill="#452845"/>
   <path id="svg_37" d="m426.466662,269.699999l0,4.8c0,0.4 0.1,0.7 0.3,1c0.2,0.2 0.5,0.4 0.8,0.4c0.6,0 1,-0.3 1.4,-0.8l1.1,2.1c-0.9,0.9 -1.9,1.3 -3,1.3s-1.9,-0.3 -2.6,-1s-1.1,-1.6 -1.1,-2.8l0,-5l-1.3,0l0,-2.2l1.3,0l0,-3.2l3,0l0,3.2l2.6,0l0,2.2l-2.5,0z" fill="#452845"/>
   <path id="svg_38" d="m440.566662,267.099999c-0.3,0.2 -0.5,0.6 -0.5,1s0.2,0.7 0.5,1c0.4,0.2 1.2,0.5 2.5,0.9c1.3,0.3 2.4,0.8 3.1,1.5s1.1,1.6 1.1,2.9c0,1.3 -0.5,2.3 -1.4,3.1s-2.2,1.2 -3.7,1.2c-2.2,0 -4.2,-0.8 -6,-2.5l1.9,-2.3c1.5,1.3 2.9,2 4.2,2c0.6,0 1,-0.1 1.4,-0.4c0.3,-0.2 0.5,-0.6 0.5,-1s-0.2,-0.8 -0.5,-1s-1,-0.5 -2.1,-0.8c-1.6,-0.4 -2.8,-0.9 -3.6,-1.5c-0.8,-0.6 -1.1,-1.6 -1.1,-2.9s0.5,-2.4 1.4,-3.1c1,-0.7 2.1,-1.1 3.6,-1.1c0.9,0 1.9,0.2 2.8,0.5c0.9,0.3 1.7,0.8 2.4,1.4l-1.6,2.3c-1.2,-0.9 -2.5,-1.4 -3.8,-1.4c-0.4,-0.2 -0.8,-0.1 -1.1,0.2z" fill="#452845"/>
   <path id="svg_39" d="m455.966662,267.299999c1.3,0 2.4,0.5 3.3,1.6c1,1 1.5,2.4 1.5,4c0,1.6 -0.5,2.9 -1.5,4c-1,1.1 -2.1,1.6 -3.4,1.6s-2.4,-0.5 -3.2,-1.6l0,5.3l-3,0l0,-14.6l3,0l0,1.2c1,-1 2.1,-1.5 3.3,-1.5zm-3.3,5.6c0,0.9 0.2,1.6 0.7,2.1c0.5,0.6 1.1,0.8 1.8,0.8s1.3,-0.3 1.8,-0.8c0.5,-0.6 0.8,-1.3 0.8,-2.1s-0.3,-1.6 -0.8,-2.2c-0.5,-0.6 -1.1,-0.9 -1.8,-0.9c-0.7,0 -1.3,0.3 -1.8,0.9c-0.4,0.6 -0.7,1.3 -0.7,2.2z" fill="#452845"/>
   <path id="svg_40" d="m472.166662,278.299999l-2.8,0l0,-1.3c-0.8,1 -1.7,1.5 -2.9,1.5c-1.1,0 -2.1,-0.3 -2.9,-1s-1.2,-1.5 -1.2,-2.6s0.4,-1.9 1.2,-2.5c0.8,-0.5 1.9,-0.8 3.3,-0.8l2.2,0l0,-0.1c0,-1.1 -0.6,-1.7 -1.8,-1.7c-0.5,0 -1.1,0.1 -1.7,0.3c-0.6,0.2 -1.1,0.5 -1.5,0.8l-1.3,-1.9c1.4,-1 3,-1.5 4.8,-1.5c1.3,0 2.4,0.3 3.2,1s1.2,1.7 1.2,3.1l0,6.7l0.2,0zm-3,-4.1l0,-0.5l-1.9,0c-1.2,0 -1.8,0.4 -1.8,1.1c0,0.4 0.1,0.7 0.4,0.9c0.3,0.2 0.7,0.3 1.2,0.3s1,-0.2 1.4,-0.5c0.5,-0.3 0.7,-0.8 0.7,-1.3z" fill="#452845"/>
   <path id="svg_41" d="m480.066662,275.799999c1,0 1.9,-0.5 2.7,-1.5l1.8,2c-1.4,1.4 -2.9,2.2 -4.5,2.2c-1.6,0 -3,-0.5 -4.1,-1.5s-1.7,-2.4 -1.7,-4s0.6,-3 1.7,-4s2.5,-1.5 4,-1.5c0.8,0 1.6,0.2 2.3,0.5s1.5,0.8 2.1,1.4l-1.6,2c-0.3,-0.4 -0.8,-0.7 -1.3,-1c-0.5,-0.2 -1,-0.3 -1.5,-0.3c-0.8,0 -1.5,0.3 -2,0.8c-0.6,0.5 -0.8,1.2 -0.8,2.1c0,0.9 0.3,1.6 0.8,2.1c0.7,0.4 1.4,0.7 2.1,0.7z" fill="#452845"/>
   <path id="svg_42" d="m495.866662,276.699999c-1.2,1.1 -2.6,1.7 -4.3,1.7c-1.6,0 -3,-0.5 -4,-1.5c-1.1,-1 -1.6,-2.4 -1.6,-4s0.5,-3 1.6,-4s2.4,-1.5 3.8,-1.5c1.5,0 2.7,0.4 3.8,1.3c1,0.9 1.6,2.1 1.6,3.7l0,1.6l-7.8,0c0.1,0.6 0.4,1.1 0.9,1.4c0.5,0.4 1.1,0.6 1.8,0.6c1.1,0 1.9,-0.4 2.6,-1.1l1.6,1.8zm-2.9,-6.4c-0.4,-0.3 -0.9,-0.5 -1.5,-0.5s-1.1,0.2 -1.6,0.5c-0.5,0.3 -0.8,0.8 -0.9,1.5l4.7,0c0,-0.6 -0.2,-1.1 -0.7,-1.5z" fill="#452845"/>
  </g>
  <g id="svg_43">
   <path id="svg_44" d="m154.2,336.3l0,8.7l-2.4,0l0,-8.7l-3.1,0l0,-2.1l8.5,0l0,2.1l-3,0z" fill="#444444"/>
   <path id="svg_45" d="m166,343.8c-0.9,0.9 -2,1.3 -3.3,1.3s-2.3,-0.4 -3.1,-1.2c-0.8,-0.8 -1.2,-1.8 -1.2,-3.1s0.4,-2.3 1.3,-3.1c0.8,-0.8 1.8,-1.2 3,-1.2s2.1,0.3 2.9,1c0.8,0.7 1.2,1.6 1.2,2.8l0,1.2l-6.1,0c0.1,0.5 0.3,0.8 0.7,1.1c0.4,0.3 0.9,0.4 1.4,0.4c0.8,0 1.5,-0.3 2,-0.8l1.2,1.6zm-2.2,-4.9c-0.3,-0.3 -0.7,-0.4 -1.2,-0.4s-0.9,0.1 -1.3,0.4c-0.4,0.3 -0.6,0.7 -0.7,1.1l3.6,0c0.1,-0.4 -0.1,-0.8 -0.4,-1.1z" fill="#444444"/>
   <path id="svg_46" d="m170.7,340.4l0,4.6l-2.3,0l0,-8.3l2.3,0l0,0.9c0.7,-0.7 1.5,-1.1 2.4,-1.1s1.6,0.3 2.2,0.9s0.9,1.4 0.9,2.5l0,5.1l-2.3,0l0,-4.7c0,-1.3 -0.5,-1.9 -1.4,-1.9c-0.5,0 -0.9,0.2 -1.2,0.5c-0.5,0.4 -0.6,0.9 -0.6,1.5z" fill="#444444"/>
   <path id="svg_47" d="m185.3,345l-2.2,0l0,-1c-0.6,0.8 -1.3,1.1 -2.2,1.1s-1.6,-0.3 -2.2,-0.8c-0.6,-0.5 -0.9,-1.2 -0.9,-2s0.3,-1.5 0.9,-1.9c0.6,-0.4 1.5,-0.6 2.5,-0.6l1.7,0l0,0c0,-0.9 -0.5,-1.3 -1.4,-1.3c-0.4,0 -0.8,0.1 -1.3,0.2c-0.4,0.2 -0.8,0.4 -1.1,0.6l-1,-1.5c1.1,-0.8 2.3,-1.2 3.7,-1.2c1,0 1.8,0.3 2.5,0.8c0.6,0.5 1,1.3 1,2.4l0,5.2zm-2.4,-3.1l0,-0.4l-1.5,0c-0.9,0 -1.4,0.3 -1.4,0.9c0,0.3 0.1,0.5 0.3,0.7s0.5,0.2 0.9,0.2s0.8,-0.1 1.1,-0.4c0.5,-0.3 0.6,-0.6 0.6,-1z" fill="#444444"/>
   <path id="svg_48" d="m189.7,340.4l0,4.6l-2.3,0l0,-8.3l2.3,0l0,0.9c0.7,-0.7 1.5,-1.1 2.4,-1.1c0.9,0 1.6,0.3 2.2,0.9s0.9,1.4 0.9,2.5l0,5.1l-2.3,0l0,-4.7c0,-1.3 -0.5,-1.9 -1.4,-1.9c-0.5,0 -0.9,0.2 -1.2,0.5c-0.4,0.4 -0.6,0.9 -0.6,1.5z" fill="#444444"/>
   <path id="svg_49" d="m199.9,338.4l0,3.7c0,0.3 0.1,0.6 0.2,0.7c0.2,0.2 0.4,0.3 0.6,0.3c0.4,0 0.8,-0.2 1.1,-0.6l0.9,1.6c-0.7,0.7 -1.5,1 -2.3,1s-1.5,-0.3 -2,-0.8c-0.6,-0.5 -0.8,-1.2 -0.8,-2.1l0,-3.8l-1,0l0,-1.7l1,0l0,-2.5l2.3,0l0,2.5l2,0l0,1.7l-2,0l0,0z" fill="#444444"/>
   <path id="svg_50" d="m217.3,343.6c-1.1,1.1 -2.4,1.6 -4,1.6c-1.6,0 -2.9,-0.5 -4,-1.6c-1.1,-1.1 -1.6,-2.4 -1.6,-4s0.5,-2.9 1.6,-4c1.1,-1.1 2.4,-1.6 4,-1.6c1.6,0 2.9,0.5 4,1.6c1.1,1.1 1.6,2.4 1.6,4s-0.5,2.9 -1.6,4zm-0.8,-4c0,-1 -0.3,-1.8 -0.9,-2.5s-1.4,-1 -2.3,-1c-0.9,0 -1.7,0.3 -2.3,1s-0.9,1.5 -0.9,2.5s0.3,1.8 0.9,2.5c0.6,0.7 1.4,1 2.3,1c0.9,0 1.7,-0.3 2.3,-1s0.9,-1.6 0.9,-2.5z" fill="#444444"/>
   <path id="svg_51" d="m223,340.4l0,4.6l-2.3,0l0,-8.3l2.3,0l0,0.9c0.7,-0.7 1.5,-1.1 2.4,-1.1s1.6,0.3 2.2,0.9c0.6,0.6 0.9,1.4 0.9,2.5l0,5.1l-2.3,0l0,-4.7c0,-1.3 -0.5,-1.9 -1.4,-1.9c-0.5,0 -0.9,0.2 -1.2,0.5c-0.4,0.4 -0.6,0.9 -0.6,1.5z" fill="#444444"/>
   <path id="svg_52" d="m237.8,343.8c-0.9,0.9 -2,1.3 -3.3,1.3s-2.3,-0.4 -3.1,-1.2c-0.8,-0.8 -1.2,-1.8 -1.2,-3.1s0.4,-2.3 1.3,-3.1c0.8,-0.8 1.8,-1.2 3,-1.2s2.1,0.3 2.9,1c0.8,0.7 1.2,1.6 1.2,2.8l0,1.2l-6.1,0c0.1,0.5 0.3,0.8 0.7,1.1c0.4,0.3 0.9,0.4 1.4,0.4c0.8,0 1.5,-0.3 2,-0.8l1.2,1.6zm-2.3,-4.9c-0.3,-0.3 -0.7,-0.4 -1.2,-0.4s-0.9,0.1 -1.3,0.4c-0.4,0.3 -0.6,0.7 -0.7,1.1l3.6,0c0.1,-0.4 0,-0.8 -0.4,-1.1z" fill="#444444"/>
  </g>
  <g id="svg_57">
   <path id="svg_58" d="m286.4,363l-1,2.2l-1.8,0l4.3,-9.7l1.8,0l4.3,9.7l-1.8,0l-1,-2.2l-4.8,0zm4.2,-1.5l-1.8,-4l-1.8,4l3.6,0z" fill="#444444"/>
   <path id="svg_59" d="m294.2,357.1c-0.3,-0.1 -0.4,-0.4 -0.4,-0.7s0.1,-0.5 0.2,-0.7c0.2,-0.2 0.4,-0.2 0.6,-0.2s0.5,0.1 0.6,0.2s0.3,0.4 0.3,0.6c0,0.3 -0.1,0.5 -0.2,0.7l-0.8,1.2l-0.8,0l0.5,-1.1z" fill="#444444"/>
  </g>
  <g id="svg_60">
   <path id="svg_61" d="m286.4,436.8l-1,2.2l-1.8,0l4.3,-9.7l1.8,0l4.3,9.7l-1.8,0l-1,-2.2l-4.8,0zm4.2,-1.6l-1.8,-4l-1.8,4l3.6,0z" fill="#444444"/>
  </g>
  <g id="svg_62">
   <g id="svg_63">
    <rect id="svg_64" height="1.4" width="117.6" fill="#9D6E80" y="411.8" x="65.6"/>
   </g>
   <g id="svg_65">
    <g id="svg_66">
     <path id="svg_67" d="m175.9,407.4c-0.2,0.2 -0.1,0.6 0.2,0.7l6.9,4.4l-6.9,4.4c-0.2,0.2 -0.3,0.5 -0.2,0.7c0.1,0.2 0.5,0.3 0.7,0.2l7.6,-4.8c0.2,-0.1 0.2,-0.3 0.2,-0.5c0,-0.2 -0.1,-0.4 -0.2,-0.5l-7.6,-4.8c-0.1,-0.1 -0.2,-0.1 -0.3,-0.1c-0.1,0.1 -0.3,0.2 -0.4,0.3z" fill="#9D6E80"/>
    </g>
   </g>
  </g>
  <g id="svg_68">
   <g id="svg_69">
    <rect id="svg_70" height="1.4" width="117.6" fill="#9D6E80" y="395.3" x="65.6"/>
   </g>
   <g id="svg_71">
    <g id="svg_72">
     <path id="svg_73" d="m175.9,390.8c-0.2,0.2 -0.1,0.6 0.2,0.7l6.9,4.4l-6.9,4.4c-0.2,0.2 -0.3,0.5 -0.2,0.7c0.2,0.2 0.5,0.3 0.7,0.2l7.6,-4.8c0.2,-0.1 0.2,-0.3 0.2,-0.5s-0.1,-0.4 -0.2,-0.5l-7.6,-4.8c-0.1,-0.1 -0.2,-0.1 -0.3,-0.1c-0.1,0.1 -0.3,0.2 -0.4,0.3z" fill="#9D6E80"/>
    </g>
   </g>
  </g>
  <g id="svg_74">
   <g id="svg_75">
    <rect id="svg_76" height="1.4" width="117.6" fill="#9D6E80" y="378.7" x="65.6"/>
   </g>
   <g id="svg_77">
    <g id="svg_78">
     <path id="svg_79" d="m175.9,374.3c-0.2,0.2 -0.1,0.6 0.2,0.7l6.9,4.4l-6.9,4.4c-0.2,0.2 -0.3,0.5 -0.2,0.7c0.2,0.2 0.5,0.3 0.7,0.2l7.6,-4.8c0.2,-0.1 0.2,-0.3 0.2,-0.5s-0.1,-0.4 -0.2,-0.5l-7.6,-4.8c-0.1,-0.1 -0.2,-0.1 -0.3,-0.1c-0.1,0 -0.3,0.1 -0.4,0.3z" fill="#9D6E80"/>
    </g>
   </g>
  </g>
  <g id="svg_80">
   <g id="svg_81">
    <polygon id="svg_82" points="362.70001220703125,425.5 325.6000061035156,359.6000061035156 362.79998779296875,359.70001220703125 362.79998779296875,361.20001220703125 328.29998779296875,361.1000061035156 364.1000061035156,424.70001220703125 " fill="#9D6E80"/>
   </g>
   <g id="svg_83">
    <g id="svg_84">
     <polygon id="svg_85" points="365.6000061035156,419.4000244140625 364.5,419.0999755859375 363.20001220703125,424.70001220703125 357.70001220703125,422.9000244140625 357.3999938964844,424.0999755859375 364,426.20001220703125 " fill="#9D6E80"/>
    </g>
   </g>
   <g id="svg_86">
    <g id="svg_87">
     <polygon id="svg_88" points="358.8999938964844,365.20001220703125 358.1000061035156,364.29998779296875 362.29998779296875,360.3999938964844 358.1000061035156,356.5 358.8999938964844,355.70001220703125 364,360.3999938964844 " fill="#9D6E80"/>
    </g>
   </g>
  </g>
  <g id="svg_98">
   <path id="svg_99" d="m305.3,459.5c-0.3,0 -0.5,0.1 -0.7,0.2s-0.3,0.3 -0.3,0.5s0.1,0.4 0.3,0.5c0.2,0.1 0.5,0.2 1.1,0.4c0.6,0.2 1,0.3 1.3,0.6c0.3,0.2 0.4,0.6 0.4,1.1s-0.2,0.9 -0.5,1.1c-0.4,0.3 -0.8,0.4 -1.4,0.4c-0.8,0 -1.6,-0.3 -2.2,-0.9l0.6,-0.7c0.5,0.5 1.1,0.7 1.7,0.7c0.3,0 0.5,-0.1 0.7,-0.2s0.3,-0.3 0.3,-0.5s-0.1,-0.4 -0.2,-0.5s-0.4,-0.2 -0.8,-0.3s-0.7,-0.2 -0.9,-0.3c-0.2,-0.1 -0.4,-0.2 -0.5,-0.3c-0.3,-0.2 -0.5,-0.6 -0.5,-1.1s0.2,-0.9 0.5,-1.2c0.4,-0.3 0.8,-0.4 1.3,-0.4c0.3,0 0.7,0.1 1,0.2s0.6,0.3 0.9,0.5l-0.5,0.7c-0.2,-0.1 -0.4,-0.3 -0.6,-0.4c-0.2,-0.1 -0.7,-0.1 -1,-0.1z"/>
   <path id="svg_100" d="m308.5,459.3c-0.1,-0.1 -0.2,-0.2 -0.2,-0.4c0,-0.2 0.1,-0.3 0.2,-0.4s0.2,-0.2 0.4,-0.2s0.3,0.1 0.4,0.2s0.2,0.2 0.2,0.4c0,0.2 -0.1,0.3 -0.2,0.4s-0.2,0.2 -0.4,0.2s-0.3,-0.1 -0.4,-0.2zm0.8,4.9l-0.9,0l0,-4.1l0.9,0l0,4.1z"/>
   <path id="svg_101" d="m310.9,463.7c-0.4,-0.4 -0.6,-0.9 -0.6,-1.5s0.2,-1.1 0.6,-1.5s0.9,-0.6 1.4,-0.6s1,0.2 1.3,0.7l0,-2.3l0.9,0l0,5.7l-0.9,0l0,-0.6c-0.3,0.5 -0.8,0.7 -1.4,0.7c-0.5,0 -0.9,-0.2 -1.3,-0.6zm0.3,-1.5c0,0.4 0.1,0.7 0.4,1c0.3,0.2 0.5,0.4 0.9,0.4s0.6,-0.1 0.9,-0.4c0.2,-0.2 0.4,-0.6 0.4,-1s-0.1,-0.7 -0.4,-1s-0.5,-0.4 -0.9,-0.4c-0.3,0 -0.6,0.1 -0.9,0.4c-0.3,0.3 -0.4,0.6 -0.4,1z"/>
   <path id="svg_102" d="m319.6,462.5l-3.2,0c0,0.3 0.2,0.5 0.4,0.7c0.3,0.2 0.5,0.3 0.9,0.3c0.5,0 0.9,-0.2 1.2,-0.5l0.5,0.5c-0.4,0.5 -1,0.7 -1.7,0.7c-0.6,0 -1.1,-0.2 -1.5,-0.6c-0.4,-0.4 -0.6,-0.9 -0.6,-1.5c0,-0.6 0.2,-1.2 0.6,-1.5c0.4,-0.3 0.9,-0.6 1.5,-0.6s1,0.2 1.4,0.5s0.6,0.8 0.6,1.4l-0.1,0.6l0,0zm-3.3,-0.6l2.4,0c0,-0.3 -0.1,-0.6 -0.3,-0.8c-0.2,-0.2 -0.5,-0.3 -0.8,-0.3s-0.6,0.1 -0.9,0.3c-0.2,0.2 -0.4,0.4 -0.4,0.8z"/>
   <path id="svg_103" d="m322.3,464.3c-0.6,0 -1.1,-0.2 -1.5,-0.6c-0.4,-0.4 -0.6,-0.9 -0.6,-1.5c0,-0.6 0.2,-1.1 0.6,-1.5c0.4,-0.4 1,-0.6 1.6,-0.6s1.1,0.2 1.6,0.6l-0.5,0.6c-0.4,-0.3 -0.7,-0.5 -1.1,-0.5s-0.7,0.1 -0.9,0.4c-0.2,0.3 -0.4,0.5 -0.4,0.9s0.1,0.7 0.4,1s0.6,0.4 1,0.4s0.7,-0.2 1.1,-0.5l0.5,0.6c-0.5,0.4 -1.1,0.7 -1.8,0.7z"/>
   <path id="svg_104" d="m328.3,464.2l-0.8,0l0,-0.5c-0.3,0.4 -0.8,0.6 -1.4,0.6c-0.4,0 -0.8,-0.1 -1.1,-0.4c-0.3,-0.2 -0.4,-0.6 -0.4,-1s0.1,-0.7 0.4,-0.9c0.3,-0.2 0.7,-0.3 1.2,-0.3l1.1,0l0,-0.2c0,-0.5 -0.3,-0.8 -0.9,-0.8c-0.4,0 -0.8,0.1 -1.2,0.4l-0.4,-0.5c0.5,-0.4 1.1,-0.6 1.7,-0.6c0.5,0 0.9,0.1 1.2,0.4c0.3,0.2 0.5,0.6 0.5,1.2l0.1,2.6l0,0zm-0.9,-1.5l0,-0.3l-1,0c-0.6,0 -0.9,0.2 -0.9,0.6c0,0.2 0.1,0.4 0.2,0.5c0.1,0.1 0.4,0.2 0.6,0.2s0.5,-0.1 0.7,-0.2c0.3,-0.3 0.4,-0.6 0.4,-0.8z"/>
   <path id="svg_105" d="m331.6,460.9c-0.4,0 -0.7,0.1 -1,0.4c-0.2,0.3 -0.3,0.7 -0.3,1.1l0,1.8l-0.9,0l0,-4.1l0.9,0l0,0.8c0.1,-0.3 0.3,-0.5 0.6,-0.6c0.2,-0.2 0.5,-0.2 0.8,-0.3l-0.1,0.9c0.1,0 0,0 0,0z"/>
  </g>
  <g id="svg_146">
   <g id="svg_147">
    <polygon id="svg_148" points="263,430.29998779296875 207.60000610351562,393.79998779296875 263,364.79998779296875 263.70001220703125,366.20001220703125 210.70001220703125,394 263.79998779296875,429.0999755859375 " fill="#9D6E80"/>
   </g>
   <g id="svg_149">
    <g id="svg_150">
     <path id="svg_151" d="m259.8,420.7c-0.3,0.1 -0.4,0.5 -0.3,0.8l3.6,8.1l-8.9,-0.1c-0.3,0 -0.6,0.3 -0.6,0.6c0,0.3 0.3,0.6 0.6,0.6l9.8,0.2c0.2,0 0.4,-0.1 0.5,-0.3c0.1,-0.2 0.1,-0.4 0,-0.6l-4,-8.9c0,-0.1 -0.1,-0.2 -0.2,-0.2c-0.1,-0.3 -0.3,-0.3 -0.5,-0.2z" fill="#9D6E80"/>
    </g>
   </g>
   <g id="svg_152">
    <g id="svg_153">
     <path id="svg_154" d="m258.9,374.1c-0.3,-0.2 -0.4,-0.5 -0.2,-0.8l4.4,-7.7l-8.8,-0.7c-0.3,0 -0.6,-0.3 -0.5,-0.6c0,-0.3 0.3,-0.6 0.6,-0.5l9.7,0.8c0.2,0 0.4,0.1 0.5,0.3c0.1,0.2 0.1,0.4 0,0.6l-4.9,8.5c-0.1,0.1 -0.1,0.2 -0.2,0.2c-0.2,0 -0.4,0 -0.6,-0.1z" fill="#9D6E80"/>
    </g>
   </g>
  </g>
  <g id="svg_155">
   <rect id="svg_156" height="49.1" width="10.1" fill="#452845" y="368.9" x="193.7"/>
  </g>
  <g id="svg_157">
   <rect id="svg_158" height="40.2" width="10.1" fill="#452845" y="413" x="312"/>
  </g>
  <g id="svg_159">
   <rect id="svg_160" height="40.2" width="10.1" fill="#452845" y="340.4" x="312"/>
  </g>
  <g id="svg_161">
   <g id="svg_162">
    <path id="svg_163" d="m398.8,453.6l-20.2,0c-5.7,0 -10.4,-4.7 -10.4,-10.4l0,-20.2c0,-5.8 4.7,-10.4 10.4,-10.4l20.2,0c5.7,0 10.4,4.7 10.4,10.4l0,20.2c0.1,5.7 -4.6,10.4 -10.4,10.4z" fill="#FFFFFF"/>
    <path id="svg_164" d="m398.8,454.1l-20.2,0c-6,0 -10.9,-4.9 -10.9,-10.9l0,-20.2c0,-6 4.9,-10.9 10.9,-10.9l20.2,0c6,0 10.9,4.9 10.9,10.9l0,20.2c0.1,6 -4.8,10.9 -10.9,10.9zm-20.1,-41c-5.5,0 -9.9,4.5 -9.9,9.9l0,20.2c0,5.5 4.5,9.9 9.9,9.9l20.2,0c5.5,0 9.9,-4.5 9.9,-9.9l0,-20.2c0,-5.5 -4.5,-9.9 -9.9,-9.9l-20.2,0z" fill="#452845"/>
   </g>
  </g>
  <g id="svg_165">
   <g id="svg_166">
    <path id="svg_167" d="m398.8,381l-20.2,0c-5.7,0 -10.4,-4.7 -10.4,-10.4l0,-20.2c0,-5.8 4.7,-10.4 10.4,-10.4l20.2,0c5.7,0 10.4,4.7 10.4,10.4l0,20.2c0.1,5.8 -4.6,10.4 -10.4,10.4z" fill="#FFFFFF"/>
    <path id="svg_168" d="m398.8,381.5l-20.2,0c-6,0 -10.9,-4.9 -10.9,-10.9l0,-20.2c0,-6 4.9,-10.9 10.9,-10.9l20.2,0c6,0 10.9,4.9 10.9,10.9l0,20.2c0.1,6 -4.8,10.9 -10.9,10.9zm-20.1,-41c-5.5,0 -9.9,4.5 -9.9,9.9l0,20.2c0,5.5 4.5,9.9 9.9,9.9l20.2,0c5.5,0 9.9,-4.5 9.9,-9.9l0,-20.2c0,-5.5 -4.5,-9.9 -9.9,-9.9l-20.2,0z" fill="#452845"/>
   </g>
  </g>
  <g id="svg_169">
   <path id="svg_170" d="m389.2,365.2l-4.2,0l0,-9.7l3.8,0c0.7,0 1.2,0.1 1.7,0.2c0.5,0.2 0.8,0.4 1.1,0.6c0.4,0.5 0.7,1.1 0.7,1.7c0,0.8 -0.2,1.3 -0.7,1.7c-0.2,0.1 -0.3,0.2 -0.4,0.2s-0.2,0.1 -0.3,0.2c0.6,0.1 1.1,0.4 1.4,0.8c0.4,0.4 0.5,0.9 0.5,1.5c0,0.7 -0.2,1.3 -0.7,1.8c-0.6,0.7 -1.6,1 -2.9,1zm-2.6,-5.6l2.1,0c1.2,0 1.8,-0.4 1.8,-1.2c0,-0.5 -0.1,-0.8 -0.4,-1s-0.7,-0.3 -1.3,-0.3l-2.1,0l0,2.5l-0.1,0zm0,4.1l2.6,0c0.6,0 1.1,-0.1 1.4,-0.3c0.3,-0.2 0.5,-0.5 0.5,-1.1c0,-0.9 -0.7,-1.3 -2.1,-1.3l-2.4,0l0,2.7z" fill="#444444"/>
   <path id="svg_171" d="m394.4,357.1c-0.3,-0.1 -0.4,-0.4 -0.4,-0.7s0.1,-0.5 0.2,-0.7c0.2,-0.2 0.4,-0.2 0.6,-0.2s0.5,0.1 0.6,0.2s0.3,0.4 0.3,0.6c0,0.3 -0.1,0.5 -0.2,0.7l-0.8,1.2l-0.8,0l0.5,-1.1z" fill="#444444"/>
  </g>
  <g id="svg_172">
   <path id="svg_173" d="m389.2,439l-4.2,0l0,-9.7l3.8,0c0.7,0 1.2,0.1 1.7,0.2c0.5,0.2 0.8,0.4 1.1,0.6c0.4,0.5 0.7,1.1 0.7,1.7c0,0.8 -0.2,1.3 -0.7,1.7c-0.2,0.1 -0.3,0.2 -0.4,0.2s-0.2,0.1 -0.3,0.2c0.6,0.1 1.1,0.4 1.4,0.8c0.4,0.4 0.5,0.9 0.5,1.5c0,0.7 -0.2,1.3 -0.7,1.8c-0.6,0.7 -1.6,1 -2.9,1zm-2.6,-5.7l2.1,0c1.2,0 1.8,-0.4 1.8,-1.2c0,-0.5 -0.1,-0.8 -0.4,-1s-0.7,-0.3 -1.3,-0.3l-2.1,0l0,2.5l-0.1,0zm0,4.1l2.6,0c0.6,0 1.1,-0.1 1.4,-0.3c0.3,-0.2 0.5,-0.5 0.5,-1.1c0,-0.9 -0.7,-1.3 -2.1,-1.3l-2.4,0l0,2.7z" fill="#444444"/>
  </g>
  <g id="svg_174">
   <rect id="svg_175" height="40.2" width="10.1" fill="#452845" y="413" x="412"/>
  </g>
  <g id="svg_176">
   <rect id="svg_177" height="40.2" width="10.1" fill="#452845" y="340.4" x="412"/>
  </g>
  <g id="svg_178">
   <g id="svg_179">
    <path id="svg_180" d="m498.7,381.7l-20.2,0c-5.7,0 -10.4,-4.7 -10.4,-10.4l0,-20.2c0,-5.8 4.7,-10.4 10.4,-10.4l20.2,0c5.7,0 10.4,4.7 10.4,10.4l0,20.2c0,5.7 -4.7,10.4 -10.4,10.4z" fill="#FFFFFF"/>
    <path id="svg_181" d="m498.7,382.2l-20.2,0c-6,0 -10.9,-4.9 -10.9,-10.9l0,-20.2c0,-6 4.9,-10.9 10.9,-10.9l20.2,0c6,0 10.9,4.9 10.9,10.9l0,20.2c0,6 -4.9,10.9 -10.9,10.9zm-20.2,-41c-5.5,0 -9.9,4.5 -9.9,9.9l0,20.2c0,5.5 4.5,9.9 9.9,9.9l20.2,0c5.5,0 9.9,-4.5 9.9,-9.9l0,-20.2c0,-5.5 -4.5,-9.9 -9.9,-9.9l-20.2,0z" fill="#452845"/>
   </g>
  </g>
  <g id="svg_182">
   <path id="svg_183" d="m489.2,363.8c0.6,0 1.1,-0.1 1.5,-0.3c0.4,-0.2 0.8,-0.5 1.3,-0.9l1.1,1.1c-1,1.1 -2.3,1.7 -3.7,1.7s-2.7,-0.5 -3.7,-1.4s-1.5,-2.1 -1.5,-3.6c0,-1.4 0.5,-2.7 1.5,-3.6s2.2,-1.4 3.7,-1.4s2.8,0.6 3.8,1.7l-1,1.1c-0.5,-0.4 -0.9,-0.8 -1.3,-0.9c-0.4,-0.2 -0.9,-0.3 -1.5,-0.3c-1,0 -1.8,0.3 -2.5,1c-0.7,0.7 -1,1.4 -1,2.4s0.3,1.8 1,2.5c0.6,0.5 1.4,0.9 2.3,0.9z" fill="#444444"/>
  </g>
  <g id="svg_184">
   <rect id="svg_185" height="40.2" width="10.1" fill="#452845" y="341.1" x="511.8"/>
  </g>
  <g id="svg_186">
   <g id="svg_187">
    <polygon id="svg_188" points="325.6000061035156,437.20001220703125 362.70001220703125,371.29998779296875 364.1000061035156,372.1000061035156 328.29998779296875,435.70001220703125 362.79998779296875,435.5 362.79998779296875,437.0999755859375 " fill="#9D6E80"/>
   </g>
   <g id="svg_189">
    <g id="svg_190">
     <polygon id="svg_191" points="357.3999938964844,372.70001220703125 357.70001220703125,373.79998779296875 363.20001220703125,372.1000061035156 364.5,377.6000061035156 365.6000061035156,377.3999938964844 364,370.6000061035156 " fill="#9D6E80"/>
    </g>
   </g>
   <g id="svg_192">
    <g id="svg_193">
     <polygon id="svg_194" points="358.8999938964844,441.0999755859375 358.1000061035156,440.20001220703125 362.29998779296875,436.29998779296875 358.1000061035156,432.4000244140625 358.8999938964844,431.5999755859375 364,436.29998779296875 " fill="#9D6E80"/>
    </g>
   </g>
  </g>
  <g id="svg_195">
   <g id="svg_196">
    <polygon id="svg_197" points="461.5,425.5 424.3999938964844,359.6000061035156 461.5,359.70001220703125 461.5,361.20001220703125 427,361.1000061035156 462.79998779296875,424.70001220703125 " fill="#9D6E80"/>
   </g>
   <g id="svg_198">
    <g id="svg_199">
     <polygon id="svg_200" points="464.4000244140625,419.4000244140625 463.29998779296875,419.0999755859375 461.9000244140625,424.70001220703125 456.5,422.9000244140625 456.0999755859375,424.0999755859375 462.79998779296875,426.20001220703125 " fill="#9D6E80"/>
    </g>
   </g>
   <g id="svg_201">
    <g id="svg_202">
     <polygon id="svg_203" points="457.70001220703125,365.20001220703125 456.9000244140625,364.29998779296875 461.0999755859375,360.3999938964844 456.9000244140625,356.5 457.70001220703125,355.70001220703125 462.79998779296875,360.3999938964844 " fill="#9D6E80"/>
    </g>
   </g>
  </g>
  <g id="svg_204">
   <g id="svg_205">
    <polygon id="svg_206" points="424.3999938964844,437.20001220703125 461.5,371.29998779296875 462.79998779296875,372.1000061035156 427,435.70001220703125 461.5,435.5 461.5,437.0999755859375 " fill="#9D6E80"/>
   </g>
   <g id="svg_207">
    <g id="svg_208">
     <polygon id="svg_209" points="456.0999755859375,372.70001220703125 456.5,373.79998779296875 461.9000244140625,372.1000061035156 463.29998779296875,377.6000061035156 464.4000244140625,377.3999938964844 462.79998779296875,370.6000061035156 " fill="#9D6E80"/>
    </g>
   </g>
   <g id="svg_210">
    <g id="svg_211">
     <polygon id="svg_212" points="457.70001220703125,441.0999755859375 456.9000244140625,440.20001220703125 461.0999755859375,436.29998779296875 456.9000244140625,432.4000244140625 457.70001220703125,431.5999755859375 462.79998779296875,436.29998779296875 " fill="#9D6E80"/>
    </g>
   </g>
  </g>
  <g id="svg_213">
   <g id="svg_214">
    <path id="svg_215" d="m311.2,334.1c-4.6,-9.4 -6.7,-19.2 -6.3,-29.3c0.3,-8 2.3,-15.8 5.8,-23.2l1.4,0.7c-3.4,7.2 -5.3,14.8 -5.6,22.6c-0.4,9.8 1.7,19.3 6.2,28.5l-1.5,0.7z" fill="#9D6E80"/>
   </g>
   <g id="svg_216">
    <g id="svg_217">
     <polygon id="svg_218" points="314.5,328.20001220703125 313.3999938964844,327.8999938964844 311.70001220703125,333.29998779296875 306.3999938964844,331.20001220703125 306,332.29998779296875 312.3999938964844,334.8999938964844 " fill="#9D6E80"/>
    </g>
   </g>
  </g>
  <g id="svg_219">
   <g id="svg_220">
    <path id="svg_221" d="m322.2,335.6l-1.4,-0.7c3.5,-7.3 5.4,-14.9 5.7,-22.8c0.4,-9.8 -1.7,-19.3 -6.2,-28.5l1.4,-0.7c4.6,9.4 6.7,19.2 6.3,29.3c-0.3,8 -2.3,15.9 -5.8,23.4z" fill="#9D6E80"/>
   </g>
   <g id="svg_222">
    <g id="svg_223">
     <polygon id="svg_224" points="326.8999938964844,284.70001220703125 326.5,285.79998779296875 321.20001220703125,283.70001220703125 319.5,289.1000061035156 318.3999938964844,288.79998779296875 320.5,282.1000061035156 " fill="#9D6E80"/>
    </g>
   </g>
  </g>
  <g id="svg_225">
   <g id="svg_226">
    <path id="svg_227" d="m413.3,334.5c-4.6,-9.4 -6.7,-19.2 -6.3,-29.3c0.3,-8 2.3,-15.8 5.8,-23.2l1.4,0.7c-3.4,7.2 -5.3,14.8 -5.6,22.6c-0.4,9.8 1.7,19.3 6.2,28.5l-1.5,0.7z" fill="#9D6E80"/>
   </g>
   <g id="svg_228">
    <g id="svg_229">
     <polygon id="svg_230" points="416.70001220703125,328.6000061035156 415.6000061035156,328.29998779296875 413.8999938964844,333.70001220703125 408.6000061035156,331.6000061035156 408.1000061035156,332.70001220703125 414.6000061035156,335.20001220703125 " fill="#9D6E80"/>
    </g>
   </g>
  </g>
  <g id="svg_231">
   <g id="svg_232">
    <path id="svg_233" d="m424.3,335.9l-1.4,-0.7c3.5,-7.3 5.4,-14.9 5.7,-22.8c0.4,-9.8 -1.7,-19.3 -6.2,-28.5l1.4,-0.7c4.6,9.4 6.7,19.2 6.3,29.3c-0.2,8.1 -2.2,16 -5.8,23.4z" fill="#9D6E80"/>
   </g>
   <g id="svg_234">
    <g id="svg_235">
     <polygon id="svg_236" points="429.1000061035156,285.1000061035156 428.70001220703125,286.20001220703125 423.3999938964844,284.1000061035156 421.70001220703125,289.5 420.5,289.1000061035156 422.70001220703125,282.5 " fill="#9D6E80"/>
    </g>
   </g>
  </g>
  <g id="svg_237">
   <g id="svg_238">
    <path id="svg_239" d="m512.4,334.8c-4.6,-9.4 -6.7,-19.2 -6.3,-29.3c0.3,-8 2.3,-15.8 5.8,-23.2l1.4,0.7c-3.4,7.2 -5.3,14.8 -5.6,22.6c-0.4,9.8 1.7,19.3 6.2,28.5l-1.5,0.7z" fill="#9D6E80"/>
   </g>
   <g id="svg_240">
    <g id="svg_241">
     <polygon id="svg_242" points="515.7999877929688,329 514.7000122070312,328.6000061035156 513,334.1000061035156 507.70001220703125,331.8999938964844 507.20001220703125,333 513.7000122070312,335.6000061035156 " fill="#9D6E80"/>
    </g>
   </g>
  </g>
  <g id="svg_243">
   <g id="svg_244">
    <path id="svg_245" d="m523.4,336.3l-1.4,-0.7c3.5,-7.3 5.4,-14.9 5.7,-22.8c0.4,-9.8 -1.7,-19.3 -6.2,-28.5l1.4,-0.7c4.6,9.4 6.7,19.2 6.3,29.3c-0.2,8.1 -2.2,16 -5.8,23.4z" fill="#9D6E80"/>
   </g>
   <g id="svg_246">
    <g id="svg_247">
     <polygon id="svg_248" points="528.2000122070312,285.5 527.7999877929688,286.5 522.5,284.3999938964844 520.7000122070312,289.8999938964844 519.5999755859375,289.5 521.7999877929688,282.8999938964844 " fill="#9D6E80"/>
    </g>
   </g>
  </g>
  <g id="svg_251">
   <g id="svg_252">
    <path id="svg_253" d="m484.3,438c-5.8,0 -10.3,-1.8 -10.3,-4.2c0,-2.3 4.5,-4.2 10.3,-4.2s10.3,1.8 10.3,4.2s-4.5,4.2 -10.3,4.2zm0,-7.5c-5.7,0 -9.5,1.8 -9.5,3.4c0,1.6 3.8,3.4 9.5,3.4s9.5,-1.8 9.5,-3.4c0,-1.7 -3.8,-3.4 -9.5,-3.4z" fill="#452845"/>
   </g>
   <g id="svg_254">
    <path id="svg_255" d="m484.3,453.4c-5.8,0 -10.3,-1.8 -10.3,-4.2l0.8,0c0,1.6 3.8,3.4 9.5,3.4s9.5,-1.8 9.5,-3.4l0.8,0c0,2.4 -4.5,4.2 -10.3,4.2z" fill="#452845"/>
   </g>
   <g id="svg_256">
    <path id="svg_257" d="m505.7,453.4c-5.8,0 -10.3,-1.8 -10.3,-4.2l0.8,0c0,1.6 3.8,3.4 9.5,3.4s9.5,-1.8 9.5,-3.4l0.8,0c0,2.4 -4.5,4.2 -10.3,4.2z" fill="#452845"/>
   </g>
   <g id="svg_258">
    <path id="svg_259" d="m527.1,453.4c-5.8,0 -10.3,-1.8 -10.3,-4.2l0.8,0c0,1.6 3.8,3.4 9.5,3.4c5.7,0 9.5,-1.8 9.5,-3.4l0.8,0c0,2.4 -4.5,4.2 -10.3,4.2z" fill="#452845"/>
   </g>
   <g id="svg_260">
    <path id="svg_261" d="m505.7,438c-5.8,0 -10.3,-1.8 -10.3,-4.2c0,-2.3 4.5,-4.2 10.3,-4.2s10.3,1.8 10.3,4.2s-4.5,4.2 -10.3,4.2zm0,-7.5c-5.7,0 -9.5,1.8 -9.5,3.4c0,1.6 3.8,3.4 9.5,3.4s9.5,-1.8 9.5,-3.4c0,-1.7 -3.8,-3.4 -9.5,-3.4z" fill="#452845"/>
   </g>
   <g id="svg_262">
    <path id="svg_263" d="m527.1,438c-5.8,0 -10.3,-1.8 -10.3,-4.2c0,-2.3 4.5,-4.2 10.3,-4.2c5.8,0 10.3,1.8 10.3,4.2s-4.5,4.2 -10.3,4.2zm0,-7.5c-5.7,0 -9.5,1.8 -9.5,3.4c0,1.6 3.8,3.4 9.5,3.4c5.7,0 9.5,-1.8 9.5,-3.4c0.1,-1.7 -3.8,-3.4 -9.5,-3.4z" fill="#452845"/>
   </g>
   <g id="svg_264">
    <rect id="svg_265" height="15.4" width="0.8" fill="#452845" y="433.8" x="474"/>
   </g>
   <g id="svg_266">
    <rect id="svg_267" height="15.4" width="0.8" fill="#452845" y="433.8" x="493.8"/>
   </g>
   <g id="svg_268">
    <rect id="svg_269" height="15.4" width="0.8" fill="#452845" y="433.8" x="515.2"/>
   </g>
   <g id="svg_270">
    <rect id="svg_271" height="15.4" width="0.8" fill="#452845" y="433.8" x="536.7"/>
   </g>
   <g id="svg_272">
    <rect id="svg_273" height="15.4" width="0.8" fill="#452845" y="433.8" x="495.4"/>
   </g>
   <g id="svg_274">
    <rect id="svg_275" height="15.4" width="0.8" fill="#452845" y="433.8" x="516.8"/>
   </g>
   <g id="svg_276">
    <path id="svg_277" d="m534.6,460.6l0,-0.8l4.7,0l0,0.5l0,0.2l-4.7,0.1l0,0zm-4.8,0l-4.7,0l0,-0.8l4.7,0l0,0.8zm-9.4,0l-4.7,0l0,-0.8l4.7,0l0,0.8zm-9.5,0l-4.7,0l0,-0.8l4.7,0l0,0.8zm-9.4,0l-4.7,0l0,-0.8l4.7,0l0,0.8zm-9.5,0l-4.7,0l0,-0.8l4.7,0l0,0.8zm-9.4,0l-4.7,0l0,-0.8l4.7,0l0,0.8zm-9.5,0l-0.2,0c-1.6,0 -3.2,-0.7 -4.3,-1.9l0.6,-0.5c1,1.1 2.3,1.7 3.7,1.7l0.2,0l0,0.7l0,0zm70.7,-2.2l-0.6,-0.5c0.7,-0.9 1.1,-2 1.1,-3.2l0,-1l0.8,0l0,1c0,1.4 -0.5,2.7 -1.3,3.7zm-75.9,-4.4l-0.8,0l0,-4.7l0.8,0l0,4.7zm77.2,-5l-0.8,0l0,-4.7l0.8,0l0,4.7zm-77.2,-4.4l-0.8,0l0,-4.7l0.8,0l0,4.7zm77.2,-5l-0.8,0l0,-4.7l0.8,0l0,4.7zm-77.2,-4.5l-0.8,0l0,-4.7l0.8,0l0,4.7zm77.2,-5l-0.8,0l0,-0.7c0,-1.2 -0.5,-2.4 -1.3,-3.4l0.6,-0.5c1,1.1 1.5,2.5 1.5,3.9l0,0.7zm-76.1,-3.9l-0.6,-0.5c1.1,-1.3 2.7,-2.1 4.4,-2.1l0,0.8c-1.4,0 -2.8,0.6 -3.8,1.8zm70.1,-1.8l-4.7,0l0,-0.8l4.7,0l0,0.8zm-9.5,0l-4.7,0l0,-0.8l4.7,0l0,0.8zm-9.4,0l-4.7,0l0,-0.8l4.7,0l0,0.8zm-9.5,0l-4.7,0l0,-0.8l4.7,0l0,0.8zm-9.5,0l-4.7,0l0,-0.8l4.7,0l0,0.8zm-9.4,0l-4.7,0l0,-0.8l4.7,0l0,0.8zm-9.5,0l-4.7,0l0,-0.8l4.7,0l0,0.8z" fill="#452845"/>
   </g>
  </g>
  <g id="svg_278">
   <path id="svg_279" d="m716.7,390.5l-112,0c-6.4,0 -11.6,-5.2 -11.6,-11.6l0,-47.9c0,-6.4 5.2,-11.6 11.6,-11.6l112,0c6.4,0 11.6,5.2 11.6,11.6l0,47.9c0,6.4 -5.2,11.6 -11.6,11.6z" fill="#EDEDED"/>
  </g>
  <g id="svg_280">
   <path id="svg_281" d="m621.2,350.9l0,8.7l-2.4,0l0,-8.7l-3.1,0l0,-2.1l8.5,0l0,2.1l-3,0z" fill="#444444"/>
   <path id="svg_282" d="m632.9,358.4c-0.9,0.9 -2,1.3 -3.3,1.3s-2.3,-0.4 -3.1,-1.2c-0.8,-0.8 -1.2,-1.8 -1.2,-3.1s0.4,-2.3 1.3,-3.1s1.8,-1.2 3,-1.2s2.1,0.3 2.9,1c0.8,0.7 1.2,1.6 1.2,2.8l0,1.2l-6.1,0c0.1,0.5 0.3,0.8 0.7,1.1c0.4,0.3 0.9,0.4 1.4,0.4c0.8,0 1.5,-0.3 2,-0.8l1.2,1.6zm-2.2,-4.9c-0.3,-0.3 -0.7,-0.4 -1.2,-0.4s-0.9,0.1 -1.3,0.4c-0.4,0.3 -0.6,0.7 -0.7,1.1l3.6,0c0.1,-0.5 -0.1,-0.9 -0.4,-1.1z" fill="#444444"/>
   <path id="svg_283" d="m637.6,355l0,4.6l-2.3,0l0,-8.3l2.3,0l0,0.9c0.7,-0.7 1.5,-1.1 2.4,-1.1s1.6,0.3 2.2,0.9s0.9,1.4 0.9,2.5l0,5.1l-2.3,0l0,-4.7c0,-1.3 -0.5,-1.9 -1.4,-1.9c-0.5,0 -0.9,0.2 -1.2,0.5c-0.4,0.3 -0.6,0.8 -0.6,1.5z" fill="#444444"/>
   <path id="svg_284" d="m652.2,359.6l-2.2,0l0,-1c-0.6,0.8 -1.3,1.1 -2.2,1.1s-1.6,-0.3 -2.2,-0.8c-0.6,-0.5 -0.9,-1.2 -0.9,-2s0.3,-1.5 0.9,-1.9c0.6,-0.4 1.5,-0.6 2.5,-0.6l1.7,0l0,0c0,-0.9 -0.5,-1.3 -1.4,-1.3c-0.4,0 -0.8,0.1 -1.3,0.2c-0.4,0.2 -0.8,0.4 -1.1,0.6l-1,-1.5c1.1,-0.8 2.3,-1.2 3.7,-1.2c1,0 1.8,0.3 2.5,0.8c0.6,0.5 1,1.3 1,2.4l0,5.2zm-2.3,-3.2l0,-0.4l-1.5,0c-0.9,0 -1.4,0.3 -1.4,0.9c0,0.3 0.1,0.5 0.3,0.7s0.5,0.2 1,0.2s0.8,-0.1 1.1,-0.4c0.3,-0.2 0.5,-0.5 0.5,-1z" fill="#444444"/>
   <path id="svg_285" d="m656.7,355l0,4.6l-2.3,0l0,-8.3l2.3,0l0,0.9c0.7,-0.7 1.5,-1.1 2.4,-1.1s1.6,0.3 2.2,0.9s0.9,1.4 0.9,2.5l0,5.1l-2.3,0l0,-4.7c0,-1.3 -0.5,-1.9 -1.4,-1.9c-0.5,0 -0.9,0.2 -1.2,0.5c-0.5,0.3 -0.6,0.8 -0.6,1.5z" fill="#444444"/>
   <path id="svg_286" d="m666.9,353l0,3.7c0,0.3 0.1,0.6 0.2,0.7c0.2,0.2 0.4,0.3 0.6,0.3c0.4,0 0.8,-0.2 1.1,-0.6l0.9,1.6c-0.7,0.7 -1.5,1 -2.3,1s-1.5,-0.3 -2,-0.8s-0.8,-1.2 -0.8,-2.1l0,-3.8l-1,0l0,-1.7l1,0l0,-2.5l2.3,0l0,2.5l2,0l0,1.7l-2,0z" fill="#444444"/>
   <path id="svg_287" d="m679.8,350.9l0,8.7l-2.4,0l0,-8.7l-3.1,0l0,-2.1l8.5,0l0,2.1l-3,0z" fill="#444444"/>
   <path id="svg_288" d="m687.7,359.6l-2.4,0l-2.8,-8.3l2.4,0l1.6,5l1.6,-5l2.2,0l1.6,5l1.6,-5l2.4,0l-2.8,8.3l-2.4,0l-1.5,-4.5l-1.5,4.5z" fill="#444444"/>
   <path id="svg_289" d="m705.5,355.5c0,1.2 -0.4,2.2 -1.3,3c-0.8,0.8 -1.9,1.2 -3.1,1.2c-1.3,0 -2.3,-0.4 -3.1,-1.2s-1.3,-1.8 -1.3,-3s0.4,-2.2 1.3,-3.1s1.9,-1.2 3.1,-1.2c1.3,0 2.3,0.4 3.1,1.2c0.9,0.8 1.3,1.9 1.3,3.1zm-6.5,0c0,0.7 0.2,1.2 0.6,1.7c0.4,0.4 0.9,0.6 1.5,0.6s1.1,-0.2 1.5,-0.6s0.6,-1 0.6,-1.7s-0.2,-1.2 -0.6,-1.7s-0.9,-0.6 -1.5,-0.6s-1.1,0.2 -1.5,0.6c-0.4,0.4 -0.6,1 -0.6,1.7z" fill="#444444"/>
  </g>
  <g id="svg_290">
   <path id="svg_291" d="m716.7,477.1l-112,0c-6.4,0 -11.6,-5.2 -11.6,-11.6l0,-47.9c0,-6.4 5.2,-11.6 11.6,-11.6l112,0c6.4,0 11.6,5.2 11.6,11.6l0,47.9c0,6.4 -5.2,11.6 -11.6,11.6z" fill="#EDEDED"/>
  </g>
  <g id="svg_292">
   <path id="svg_293" d="m615,437.4l0,8.7l-2.4,0l0,-8.7l-3.1,0l0,-2.1l8.5,0l0,2.1l-3,0z" fill="#444444"/>
   <path id="svg_294" d="m626.8,445c-0.9,0.9 -2,1.3 -3.3,1.3s-2.3,-0.4 -3.1,-1.2c-0.8,-0.8 -1.2,-1.8 -1.2,-3.1c0,-1.3 0.4,-2.3 1.3,-3.1s1.8,-1.2 3,-1.2s2.1,0.3 2.9,1c0.8,0.7 1.2,1.6 1.2,2.8l0,1.2l-6.1,0c0.1,0.5 0.3,0.8 0.7,1.1c0.4,0.3 0.9,0.4 1.4,0.4c0.8,0 1.5,-0.3 2,-0.8l1.2,1.6zm-2.3,-5c-0.3,-0.3 -0.7,-0.4 -1.2,-0.4s-0.9,0.1 -1.3,0.4c-0.4,0.3 -0.6,0.7 -0.7,1.1l3.6,0c0.1,-0.4 -0.1,-0.8 -0.4,-1.1z" fill="#444444"/>
   <path id="svg_295" d="m631.4,441.5l0,4.6l-2.3,0l0,-8.3l2.3,0l0,0.9c0.7,-0.7 1.5,-1.1 2.4,-1.1s1.6,0.3 2.2,0.9s0.9,1.4 0.9,2.5l0,5.1l-2.3,0l0,-4.7c0,-1.3 -0.5,-1.9 -1.4,-1.9c-0.5,0 -0.9,0.2 -1.2,0.5c-0.4,0.4 -0.6,0.9 -0.6,1.5z" fill="#444444"/>
   <path id="svg_296" d="m646,446.2l-2.2,0l0,-1c-0.6,0.8 -1.3,1.1 -2.2,1.1s-1.6,-0.3 -2.2,-0.8c-0.6,-0.5 -0.9,-1.2 -0.9,-2c0,-0.8 0.3,-1.5 0.9,-1.9c0.6,-0.4 1.5,-0.6 2.5,-0.6l1.7,0l0,0c0,-0.9 -0.5,-1.3 -1.4,-1.3c-0.4,0 -0.8,0.1 -1.3,0.2c-0.4,0.2 -0.8,0.4 -1.1,0.6l-1,-1.5c1.1,-0.8 2.3,-1.2 3.7,-1.2c1,0 1.8,0.3 2.5,0.8c0.6,0.5 1,1.3 1,2.4l0,5.2zm-2.3,-3.2l0,-0.4l-1.5,0c-0.9,0 -1.4,0.3 -1.4,0.9c0,0.3 0.1,0.5 0.3,0.7s0.5,0.2 1,0.2s0.8,-0.1 1.1,-0.4c0.3,-0.3 0.5,-0.6 0.5,-1z" fill="#444444"/>
   <path id="svg_297" d="m650.5,441.5l0,4.6l-2.3,0l0,-8.3l2.3,0l0,0.9c0.7,-0.7 1.5,-1.1 2.4,-1.1s1.6,0.3 2.2,0.9s0.9,1.4 0.9,2.5l0,5.1l-2.3,0l0,-4.7c0,-1.3 -0.5,-1.9 -1.4,-1.9c-0.5,0 -0.9,0.2 -1.2,0.5c-0.5,0.4 -0.6,0.9 -0.6,1.5z" fill="#444444"/>
   <path id="svg_298" d="m660.7,439.5l0,3.7c0,0.3 0.1,0.6 0.2,0.7c0.2,0.2 0.4,0.3 0.6,0.3c0.4,0 0.8,-0.2 1.1,-0.6l0.9,1.6c-0.7,0.7 -1.5,1 -2.3,1s-1.5,-0.3 -2,-0.8s-0.8,-1.2 -0.8,-2.1l0,-3.8l-1,0l0,-1.7l1,0l0,-2.5l2.3,0l0,2.5l2,0l0,1.7l-2,0l0,0z" fill="#444444"/>
   <path id="svg_299" d="m673.6,437.4l0,8.7l-2.4,0l0,-8.7l-3.1,0l0,-2.1l8.5,0l0,2.1l-3,0z" fill="#444444"/>
   <path id="svg_300" d="m680.4,441.7l0,4.5l-2.3,0l0,-11.5l2.3,0l0,4.1c0.7,-0.7 1.5,-1.1 2.4,-1.1s1.6,0.3 2.2,0.9c0.6,0.6 0.9,1.4 0.9,2.5l0,5.1l-2.3,0l0,-4.5c0,-1.3 -0.5,-1.9 -1.4,-1.9c-0.5,0 -0.9,0.2 -1.2,0.5c-0.4,0.2 -0.6,0.7 -0.6,1.4z" fill="#444444"/>
   <path id="svg_301" d="m692.3,439.9c-0.7,0 -1.2,0.2 -1.5,0.7s-0.5,1.1 -0.5,1.9l0,3.6l-2.3,0l0,-8.3l2.3,0l0,1.1c0.3,-0.3 0.7,-0.6 1.1,-0.9c0.4,-0.2 0.9,-0.4 1.4,-0.4l0,2.2l-0.5,0.1l0,0z" fill="#444444"/>
   <path id="svg_302" d="m701.5,445c-0.9,0.9 -2,1.3 -3.3,1.3s-2.3,-0.4 -3.1,-1.2c-0.8,-0.8 -1.2,-1.8 -1.2,-3.1c0,-1.3 0.4,-2.3 1.3,-3.1c0.8,-0.8 1.8,-1.2 3,-1.2s2.1,0.3 2.9,1c0.8,0.7 1.2,1.6 1.2,2.8l0,1.2l-6.1,0c0.1,0.5 0.3,0.8 0.7,1.1c0.4,0.3 0.9,0.4 1.4,0.4c0.8,0 1.5,-0.3 2,-0.8l1.2,1.6zm-2.2,-5c-0.3,-0.3 -0.7,-0.4 -1.2,-0.4s-0.9,0.1 -1.3,0.4c-0.4,0.3 -0.6,0.7 -0.7,1.1l3.6,0c0.1,-0.4 -0.1,-0.8 -0.4,-1.1z" fill="#444444"/>
   <path id="svg_303" d="m711.1,445c-0.9,0.9 -2,1.3 -3.3,1.3s-2.3,-0.4 -3.1,-1.2c-0.8,-0.8 -1.2,-1.8 -1.2,-3.1c0,-1.3 0.4,-2.3 1.3,-3.1c0.8,-0.8 1.8,-1.2 3,-1.2c1.1,0 2.1,0.3 2.9,1c0.8,0.7 1.2,1.6 1.2,2.8l0,1.2l-6.1,0c0.1,0.5 0.3,0.8 0.7,1.1c0.4,0.3 0.9,0.4 1.4,0.4c0.8,0 1.5,-0.3 2,-0.8l1.2,1.6zm-2.3,-5c-0.3,-0.3 -0.7,-0.4 -1.2,-0.4s-0.9,0.1 -1.3,0.4c-0.4,0.3 -0.6,0.7 -0.7,1.1l3.6,0c0.1,-0.4 0,-0.8 -0.4,-1.1z" fill="#444444"/>
  </g>
  <text xml:space="preserve" text-anchor="start" font-family="Helvetica, Arial, sans-serif" font-size="12" id="svg_312" y="428.5" x="62.5" stroke-width="0" stroke="#452845" fill="#191919">Requests</text>
  <rect stroke="#452845" rx="7" id="svg_313" height="27.999994" width="79.333316" y="91.999986" x="154.666624" stroke-width="null" fill="none"/>
  <text xml:space="preserve" text-anchor="start" font-family="Helvetica, Arial, sans-serif" font-size="10" id="svg_314" y="104.66665" x="161.333289" stroke-width="0" stroke="#452845" fill="#191919">Version-aware</text>
  <text xml:space="preserve" text-anchor="start" font-family="Helvetica, Arial, sans-serif" font-size="10" id="svg_315" y="114.666649" x="160.666623" stroke-width="0" stroke="#452845" fill="#191919">Load Balancing</text>
  <rect stroke="#452845" rx="7" id="svg_316" height="27.999994" width="63.999982" y="55" x="273.333272" stroke-width="null" fill="none"/>
  <text xml:space="preserve" text-anchor="start" font-family="Helvetica, Arial, sans-serif" font-size="10" id="svg_317" y="66.666656" x="283.33327" stroke-width="0" stroke="#452845" fill="#191919">Red/Black</text>
  <text xml:space="preserve" text-anchor="start" font-family="Helvetica, Arial, sans-serif" font-size="10" id="svg_318" y="76.666654" x="279.333271" stroke-width="0" stroke="#452845" fill="#191919">Deployment</text>
  <rect stroke="#452845" rx="7" id="svg_319" height="27.999994" width="63.999982" y="92" x="282.666604" stroke-width="null" fill="none"/>
  <text xml:space="preserve" text-anchor="start" font-family="Helvetica, Arial, sans-serif" font-size="10" id="svg_320" y="103.333317" x="298.666602" stroke-width="0" stroke="#452845" fill="#191919">Canary</text>
  <text xml:space="preserve" text-anchor="start" font-family="Helvetica, Arial, sans-serif" font-size="10" id="svg_321" y="113.333315" x="288.666603" stroke-width="0" stroke="#452845" fill="#191919">Deployment</text>
  <rect stroke="#452845" rx="7" id="svg_322" height="27.999994" width="63.999982" y="55.333325" x="171.999959" stroke-width="null" fill="none"/>
  <text xml:space="preserve" text-anchor="start" font-family="Helvetica, Arial, sans-serif" font-size="10" id="svg_323" y="73.333321" x="179.333291" stroke-width="0" stroke="#452845" fill="#191919">A/B Testing</text>
  <line stroke="#452845" stroke-dasharray="5,5" stroke-linecap="null" stroke-linejoin="null" id="svg_327" y2="163.333306" x2="260.666579" y1="81.999991" x1="277.999973" fill-opacity="null" stroke-opacity="null" fill="none"/>
  <line stroke="#452845" stroke-dasharray="5,5" stroke-linecap="null" stroke-linejoin="null" id="svg_328" y2="162.666641" x2="265.333286" y1="119.333314" x1="284.666601" fill-opacity="null" stroke-opacity="null" fill="none"/>
  <rect stroke="#452845" rx="7" id="svg_329" height="27.999994" width="63.999982" y="90.999995" x="577.999892" stroke-width="null" fill="none"/>
  <text xml:space="preserve" text-anchor="start" font-family="Helvetica, Arial, sans-serif" font-size="10" id="svg_330" y="102.999996" x="587.33322" stroke-width="0" stroke="#452845" fill="#191919">Resilience</text>
  <text xml:space="preserve" text-anchor="start" font-family="Helvetica, Arial, sans-serif" font-size="10" id="svg_331" y="113.666661" x="593.999886" stroke-width="0" stroke="#452845" fill="#191919">Testing</text>
  <line stroke="#452845" stroke-dasharray="5,5" stroke-linecap="null" stroke-linejoin="null" id="svg_332" y2="161.333308" x2="610.666551" y1="119.999983" x1="610.666551" stroke-width="NaN" fill="none"/>
  <line stroke="#452845" transform="rotate(180 244.66659545898438,121.33329772949219) " stroke-dasharray="5,5" stroke-linecap="null" stroke-linejoin="null" id="svg_336" y2="162.666632" x2="255.333204" y1="79.999976" x1="233.99998" fill-opacity="null" stroke-opacity="null" fill="none"/>
  <line stroke="#452845" stroke-dasharray="5,5" stroke-linecap="null" stroke-linejoin="null" id="svg_337" y2="163.333308" x2="251.999948" y1="119.333314" x1="227.333272" fill-opacity="null" stroke-opacity="null" fill="none"/>
 </g>
</svg>