<svg width="792" height="504.00000000000006" xmlns="http://www.w3.org/2000/svg">
 <g>
  <title>background</title>
  <rect x="-1" y="-1" width="794" height="506" id="canvas_background" fill="none"/>
 </g>

 <g>
  <title>Layer 1</title>
  <g id="svg_333" stroke="null">
   <g id="svg_3" stroke="null">
    <path fill="#FFFFFF" d="m679.8245,218.26667l-577.81567,0c-10.3263,0 -18.64217,-7.88505 -18.64217,-17.67637l0,-94.44726c0,-9.79133 8.31587,-17.67637 18.64217,-17.67637l577.81567,0c10.3263,0 18.64217,7.88505 18.64217,17.67637l0,94.44726c0,9.79132 -8.31587,17.67637 -18.64217,17.67637z" id="svg_4" stroke="null"/>
   </g>
   <g id="svg_53" stroke="null">
    <path fill="#9D6E80" d="m633.12771,191.37494l-475.28378,0c-6.57959,0 -11.87981,-4.24897 -11.87981,-9.52356l0,-19.04712c0,-5.27459 5.30022,-9.52356 11.87981,-9.52356l475.28378,0c6.57959,0 11.87981,4.24897 11.87981,9.52356l0,19.04712c0,5.27459 -5.30022,9.52356 -11.87981,9.52356zm-475.28378,-36.62908c-5.57437,0 -10.05214,3.58965 -10.05214,8.0584l0,19.04712c0,4.46875 4.47777,8.0584 10.05214,8.0584l475.28378,0c5.57437,0 10.05215,-3.58965 10.05215,-8.0584l0,-19.04712c0,-4.46875 -4.47778,-8.0584 -10.05215,-8.0584l-475.28378,0z" id="svg_54" stroke="null"/>
   </g>
   <g id="svg_55" stroke="null">
    <path fill="#9D6E80" d="m612.27678,154.48946l-422.61592,0c-8.00535,0 -14.45411,-4.69513 -14.45411,-10.52356l0,-21.04712c0,-5.82843 6.44876,-10.52356 14.45411,-10.52356l422.61592,0c8.00535,0 14.45411,4.69513 14.45411,10.52356l0,21.04712c0,5.82843 -6.44876,10.52356 -14.45411,10.52356zm-422.61592,-40.47523c-6.78231,0 -12.2304,3.96657 -12.2304,8.90455l0,21.04712c0,4.93798 5.44809,8.90455 12.2304,8.90455l422.61592,0c6.78231,0 12.2304,-3.96657 12.2304,-8.90455l0,-21.04712c0,-4.93798 -5.44809,-8.90455 -12.2304,-8.90455l-422.61592,0z" id="svg_56" stroke="null"/>
   </g>
   <g id="svg_106" stroke="null">
    <path fill="#444444" d="m333.29959,135.5888l-1.18799,2.71936l-2.10181,0l5.02608,-11.81514l2.10181,0l5.02607,11.81514l-2.10181,0l-1.18798,-2.71936l-5.57437,0zm4.93469,-1.87542l-2.10182,-4.87609l-2.10181,4.87609l4.20362,0l0.00001,0z" id="svg_107" stroke="null"/>
    <path fill="#444444" d="m345.45355,133.43207l0,4.87609l-1.82767,0l0,-9.00201l1.82767,0l0,1.5941c0.27415,-0.56262 0.63968,-0.93771 1.18798,-1.31279s1.09659,-0.46885 1.73628,-0.46885c1.37074,0 2.28458,0.56262 2.83288,1.78164c0.82244,-1.12525 1.91904,-1.78164 3.19841,-1.78164c1.00521,0 1.82766,0.28131 2.37596,0.93771c0.63968,0.65639 0.91383,1.50033 0.91383,2.71935l0,5.53249l-1.82766,0l0,-4.96986c0,-1.68788 -0.63969,-2.43805 -2.01043,-2.43805c-0.63968,0 -1.18798,0.18755 -1.6449,0.6564c-0.45692,0.37509 -0.73106,1.03148 -0.73106,1.78165l0,4.96986l-1.82767,0l0,-4.96986c0,-0.84394 -0.18276,-1.50034 -0.45691,-1.87542s-0.73107,-0.56263 -1.37075,-0.56263s-1.18798,0.18755 -1.6449,0.6564c-0.5483,0.37509 -0.73106,1.03148 -0.73106,1.87542z" id="svg_108" stroke="null"/>
    <path fill="#444444" d="m367.29412,138.30816l-1.6449,0l0,-1.21902c-0.73106,0.84394 -1.73628,1.31279 -2.92426,1.31279c-0.91383,0 -1.6449,-0.28131 -2.28458,-0.75017c-0.63968,-0.56263 -0.91383,-1.21902 -0.91383,-2.15673s0.27415,-1.50034 0.91383,-1.96919s1.46213,-0.6564 2.55873,-0.6564l2.37596,0l0,-0.37508c0,-1.21902 -0.63968,-1.78165 -1.91904,-1.78165c-0.82245,0 -1.6449,0.28131 -2.55873,0.93771l-0.82245,-1.21902c1.0966,-0.84394 2.28458,-1.3128 3.65533,-1.3128c1.00521,0 1.82766,0.28132 2.55872,0.84394c0.63969,0.56263 1.00522,1.40657 1.00522,2.53182l0,5.8138zm-1.82766,-3.37576l0,-0.75016l-2.10182,0c-1.37074,0 -2.01043,0.46885 -2.01043,1.31279c0,0.46885 0.18277,0.75017 0.45692,1.03148c0.36553,0.18754 0.82245,0.37508 1.37075,0.37508s1.0966,-0.18754 1.55351,-0.46885c0.5483,-0.46886 0.73107,-0.93771 0.73107,-1.50034z" id="svg_109" stroke="null"/>
    <path fill="#444444" d="m371.77189,138.30816l-1.82766,0l0,-12.56531l1.82766,0l0,12.56531z" id="svg_110" stroke="null"/>
    <path fill="#444444" d="m382.46372,129.30615l0,7.87676c0,1.5941 -0.45691,2.81313 -1.27936,3.5633c-0.82245,0.75016 -1.91905,1.21902 -3.19841,1.21902s-2.46735,-0.46886 -3.56394,-1.3128l0.91383,-1.40656c0.82245,0.6564 1.73628,1.03148 2.55873,1.03148s1.55351,-0.18754 2.10181,-0.65639c0.5483,-0.46886 0.73106,-1.21903 0.73106,-2.25051l0,-1.12525c-0.27415,0.56263 -0.63968,0.93771 -1.18798,1.31279c-0.5483,0.28132 -1.09659,0.46886 -1.73628,0.46886c-1.18798,0 -2.10181,-0.37509 -2.83288,-1.21902c-0.73106,-0.84394 -1.09659,-1.87542 -1.09659,-3.09445c0,-1.21902 0.36553,-2.2505 1.09659,-3.09444c0.73107,-0.84394 1.73629,-1.21902 2.83288,-1.21902c1.18798,0 2.10182,0.46885 2.83288,1.50033l0,-1.31279l1.82766,0l0,-0.28131zm-6.76235,4.12592c0,0.75017 0.18277,1.40656 0.63968,1.87542c0.45692,0.56262 1.00522,0.84394 1.82766,0.84394s1.37075,-0.28132 1.82767,-0.75017c0.45691,-0.56263 0.73106,-1.12525 0.73106,-1.96919c0,-0.75017 -0.27415,-1.40656 -0.73106,-1.96919c-0.45692,-0.56263 -1.0966,-0.84394 -1.82767,-0.84394s-1.37074,0.28131 -1.82766,0.84394c-0.45691,0.56263 -0.63968,1.21902 -0.63968,1.96919z" id="svg_111" stroke="null"/>
    <path fill="#444444" d="m392.24172,138.30816l-1.6449,0l0,-1.21902c-0.73106,0.84394 -1.73628,1.31279 -2.92426,1.31279c-0.91383,0 -1.6449,-0.28131 -2.28458,-0.75017c-0.63968,-0.56263 -0.91383,-1.21902 -0.91383,-2.15673s0.27415,-1.50034 0.91383,-1.96919s1.46213,-0.6564 2.55873,-0.6564l2.37596,0l0,-0.37508c0,-1.21902 -0.63968,-1.78165 -1.91904,-1.78165c-0.82245,0 -1.6449,0.28131 -2.55873,0.93771l-0.82245,-1.21902c1.0966,-0.84394 2.28458,-1.3128 3.65533,-1.3128c1.00521,0 1.82766,0.28132 2.55872,0.84394c0.63969,0.56263 1.00522,1.40657 1.00522,2.53182l0,5.8138zm-1.82766,-3.37576l0,-0.75016l-2.10182,0c-1.37074,0 -2.01042,0.46885 -2.01042,1.31279c0,0.46885 0.18276,0.75017 0.45691,1.03148c0.36553,0.18754 0.82245,0.37508 1.37075,0.37508s1.0966,-0.18754 1.55351,-0.46885c0.5483,-0.46886 0.73107,-0.93771 0.73107,-1.50034z" id="svg_112" stroke="null"/>
    <path fill="#444444" d="m396.62811,133.43207l0,4.87609l-1.82766,0l0,-9.00201l1.82766,0l0,1.5941c0.27415,-0.56262 0.63968,-0.93771 1.18798,-1.31279s1.0966,-0.46885 1.73628,-0.46885c1.37075,0 2.28458,0.56262 2.83288,1.78164c0.82245,-1.12525 1.91905,-1.78164 3.19841,-1.78164c1.00522,0 1.82766,0.28131 2.37596,0.93771c0.63968,0.65639 0.91383,1.50033 0.91383,2.71935l0,5.53249l-1.82766,0l0,-4.96986c0,-1.68788 -0.63968,-2.43805 -2.01043,-2.43805c-0.63968,0 -1.18798,0.18755 -1.64489,0.6564c-0.45692,0.37509 -0.73107,1.03148 -0.73107,1.78165l0,4.96986l-1.82766,0l0,-4.96986c0,-0.84394 -0.18277,-1.50034 -0.45692,-1.87542s-0.73106,-0.56263 -1.37075,-0.56263s-1.18798,0.18755 -1.64489,0.6564c-0.45692,0.37509 -0.73107,1.03148 -0.73107,1.87542z" id="svg_113" stroke="null"/>
    <path fill="#444444" d="m412.62016,127.14942c0.73107,-0.56263 1.6449,-0.93772 2.7415,-0.93772s2.01043,0.28132 2.74149,0.93772c0.73107,0.56262 1.0966,1.31279 1.0966,2.2505s-0.45692,1.68788 -1.27936,2.43804c1.09659,0.75017 1.64489,1.68788 1.64489,3.00067c0,1.03149 -0.36553,1.87542 -1.18798,2.53182s-1.82766,1.03148 -3.10702,1.03148s-2.28458,-0.37508 -3.10703,-1.03148s-1.18798,-1.50034 -1.18798,-2.53182c0,-1.31279 0.5483,-2.34427 1.64489,-3.00067c-0.82244,-0.65639 -1.18798,-1.50033 -1.18798,-2.43804c0.09139,-0.93771 0.45692,-1.68788 1.18798,-2.2505zm1.18798,9.00201c0.5483,0.37508 1.00522,0.46885 1.6449,0.46885s1.0966,-0.18754 1.6449,-0.46885c0.5483,-0.37509 0.73106,-0.84394 0.73106,-1.40657c0,-0.65639 -0.27415,-1.12525 -0.73106,-1.40656c-0.45692,-0.28131 -1.00522,-0.46886 -1.6449,-0.46886s-1.18798,0.18755 -1.6449,0.46886c-0.45691,0.28131 -0.73106,0.84394 -0.73106,1.40656c0,0.6564 0.18276,1.12525 0.73106,1.40657zm0.18277,-5.34495c0.45692,0.37509 0.91383,0.46886 1.46213,0.46886s1.00522,-0.18755 1.46213,-0.46886c0.45692,-0.37508 0.63968,-0.75017 0.63968,-1.31279s-0.18276,-0.93771 -0.63968,-1.21902c-0.36553,-0.37509 -0.91383,-0.46886 -1.46213,-0.46886s-1.00522,0.18754 -1.46213,0.46886c-0.45692,0.37508 -0.63968,0.75016 -0.63968,1.21902s0.18276,1.03148 0.63968,1.31279z" id="svg_114" stroke="null"/>
    <path fill="#444444" d="m428.33807,135.5888l-1.18798,2.71936l-2.10182,0l5.02608,-11.81514l2.10181,0l5.02607,11.81514l-2.10181,0l-1.18798,-2.71936l-5.57437,0zm5.02607,-1.87542l-2.10181,-4.87609l-2.10182,4.87609l4.20363,0z" id="svg_115" stroke="null"/>
    <path fill="#444444" d="m446.70608,127.5245c0.82245,0.6564 1.18798,1.78165 1.18798,3.18821s-0.36553,2.43805 -1.18798,3.09444c-0.82245,0.6564 -2.10181,1.03148 -3.74671,1.03148l-2.01043,0l0,3.46953l-1.91904,0l0,-11.81514l3.92947,0c1.6449,0 2.92426,0.37508 3.74671,1.03148zm-1.37075,4.87609c0.36554,-0.46886 0.5483,-1.03148 0.5483,-1.87542c0,-0.84394 -0.27415,-1.40656 -0.73106,-1.68788c-0.45692,-0.37508 -1.27937,-0.46885 -2.28458,-0.46885l-2.01043,0l0,4.68855l2.28458,0c1.09659,0 1.82766,-0.28132 2.19319,-0.6564z" id="svg_116" stroke="null"/>
    <path fill="#444444" d="m450.17864,126.49302l1.91904,0l0,11.81514l-1.91904,0l0,-11.81514z" id="svg_117" stroke="null"/>
   </g>
   <g id="svg_118" stroke="null">
    <path fill="#444444" d="m273.90054,175.14095l-1.18798,2.71936l-2.10182,0l5.02608,-11.81514l2.10181,0l5.02607,11.81514l-2.10181,0l-1.18798,-2.71936l-5.57437,0zm4.93469,-1.87542l-2.10182,-4.87609l-2.10181,4.87609l4.20363,0z" id="svg_119" stroke="null"/>
    <path fill="#444444" d="m286.0545,172.98422l0,4.87609l-1.82767,0l0,-9.00201l1.82767,0l0,1.5941c0.27414,-0.56262 0.63968,-0.93771 1.18798,-1.31279c0.5483,-0.37508 1.09659,-0.46885 1.73628,-0.46885c1.37074,0 2.28458,0.56262 2.83287,1.78164c0.82245,-1.12525 1.91905,-1.78164 3.19841,-1.78164c1.00522,0 1.82767,0.28131 2.37597,0.93771c0.63968,0.65639 0.91383,1.50033 0.91383,2.71935l0,5.53249l-1.82766,0l0,-4.96986c0,-1.68788 -0.63969,-2.43805 -2.01043,-2.43805c-0.63968,0 -1.18798,0.18755 -1.6449,0.6564c-0.45692,0.37509 -0.73106,1.03148 -0.73106,1.78165l0,4.96986l-1.82767,0l0,-4.96986c0,-0.84394 -0.18276,-1.50034 -0.45691,-1.87542c-0.27415,-0.37508 -0.73107,-0.56263 -1.37075,-0.56263s-1.18798,0.18755 -1.6449,0.6564c-0.5483,0.37509 -0.73106,1.03148 -0.73106,1.87542z" id="svg_120" stroke="null"/>
    <path fill="#444444" d="m307.89507,177.86031l-1.6449,0l0,-1.21902c-0.73106,0.84394 -1.73628,1.31279 -2.92426,1.31279c-0.91383,0 -1.6449,-0.28131 -2.28458,-0.75017c-0.63968,-0.56262 -0.91383,-1.21902 -0.91383,-2.15673s0.27415,-1.50034 0.91383,-1.96919s1.46213,-0.6564 2.55873,-0.6564l2.37596,0l0,-0.37508c0,-1.21902 -0.63968,-1.78165 -1.91904,-1.78165c-0.82245,0 -1.6449,0.28131 -2.55873,0.93771l-0.82245,-1.21902c1.0966,-0.84394 2.28458,-1.3128 3.65533,-1.3128c1.00521,0 1.82766,0.28132 2.55872,0.84394c0.63969,0.56263 1.00522,1.40657 1.00522,2.53182l0,5.8138zm-1.82766,-3.37576l0,-0.75016l-2.10182,0c-1.37074,0 -2.01042,0.46885 -2.01042,1.31279c0,0.46885 0.18276,0.75017 0.45691,1.03148c0.36553,0.18754 0.82245,0.37508 1.37075,0.37508s1.0966,-0.18754 1.55351,-0.46885c0.5483,-0.46886 0.73107,-0.93771 0.73107,-1.50034z" id="svg_121" stroke="null"/>
    <path fill="#444444" d="m312.37284,177.86031l-1.82766,0l0,-12.56531l1.82766,0l0,12.56531z" id="svg_122" stroke="null"/>
    <path fill="#444444" d="m323.06467,168.8583l0,7.87676c0,1.5941 -0.45691,2.81313 -1.27936,3.56329s-1.91905,1.21903 -3.19841,1.21903s-2.46735,-0.46886 -3.56394,-1.3128l0.91383,-1.40656c0.82245,0.6564 1.73628,1.03148 2.55873,1.03148s1.55351,-0.18754 2.10181,-0.6564c0.5483,-0.46885 0.73106,-1.21902 0.73106,-2.2505l0,-1.12525c-0.27415,0.56262 -0.63968,0.93771 -1.18798,1.31279c-0.5483,0.28132 -1.09659,0.46886 -1.73628,0.46886c-1.18798,0 -2.10181,-0.37509 -2.83287,-1.21903c-0.73107,-0.84394 -1.0966,-1.87541 -1.0966,-3.09444c0,-1.21902 0.36553,-2.2505 1.0966,-3.09444c0.73106,-0.84394 1.73628,-1.21902 2.83287,-1.21902c1.18798,0 2.10182,0.46885 2.83288,1.50033l0,-1.31279l1.82766,0l0,-0.28131zm-6.76235,4.12592c0,0.75017 0.18277,1.40656 0.63968,1.87542c0.45692,0.56262 1.00522,0.84394 1.82766,0.84394s1.37075,-0.28132 1.82767,-0.75017c0.45691,-0.56263 0.73106,-1.12525 0.73106,-1.96919c0,-0.75017 -0.27415,-1.40657 -0.73106,-1.96919s-1.0966,-0.84394 -1.82767,-0.84394s-1.37074,0.28131 -1.82766,0.84394s-0.63968,1.21902 -0.63968,1.96919z" id="svg_123" stroke="null"/>
    <path fill="#444444" d="m332.84267,177.86031l-1.6449,0l0,-1.21902c-0.73106,0.84394 -1.73628,1.31279 -2.92426,1.31279c-0.91383,0 -1.6449,-0.28131 -2.28458,-0.75017c-0.63968,-0.56262 -0.91383,-1.21902 -0.91383,-2.15673s0.27415,-1.50034 0.91383,-1.96919s1.46213,-0.6564 2.55873,-0.6564l2.37596,0l0,-0.37508c0,-1.21902 -0.63968,-1.78165 -1.91904,-1.78165c-0.82245,0 -1.6449,0.28131 -2.55873,0.93771l-0.82245,-1.21902c1.0966,-0.84394 2.28458,-1.3128 3.65533,-1.3128c1.00521,0 1.82766,0.28132 2.55872,0.84394c0.63969,0.56263 1.00522,1.40657 1.00522,2.53182l0,5.8138zm-1.82766,-3.37576l0,-0.75016l-2.10182,0c-1.37074,0 -2.01042,0.46885 -2.01042,1.31279c0,0.46885 0.18276,0.75017 0.45691,1.03148c0.36553,0.18754 0.82245,0.37508 1.37075,0.37508s1.0966,-0.18754 1.55351,-0.46885c0.5483,-0.46886 0.73107,-0.93771 0.73107,-1.50034z" id="svg_124" stroke="null"/>
    <path fill="#444444" d="m337.22906,172.98422l0,4.87609l-1.82766,0l0,-9.00201l1.82766,0l0,1.5941c0.27415,-0.56262 0.63968,-0.93771 1.18798,-1.31279c0.5483,-0.37508 1.0966,-0.46885 1.73628,-0.46885c1.37075,0 2.28458,0.56262 2.83288,1.78164c0.82245,-1.12525 1.91905,-1.78164 3.19841,-1.78164c1.00522,0 1.82766,0.28131 2.37596,0.93771c0.63969,0.65639 0.91384,1.50033 0.91384,2.71935l0,5.53249l-1.82767,0l0,-4.96986c0,-1.68788 -0.63968,-2.43805 -2.01043,-2.43805c-0.63968,0 -1.18798,0.18755 -1.64489,0.6564c-0.45692,0.37509 -0.73107,1.03148 -0.73107,1.78165l0,4.96986l-1.82766,0l0,-4.96986c0,-0.84394 -0.18277,-1.50034 -0.45692,-1.87542c-0.27415,-0.37508 -0.73106,-0.56263 -1.37074,-0.56263s-1.18799,0.18755 -1.6449,0.6564c-0.45692,0.37509 -0.73107,1.03148 -0.73107,1.87542z" id="svg_125" stroke="null"/>
    <path fill="#444444" d="m353.22111,166.70156c0.73107,-0.56262 1.6449,-0.93771 2.7415,-0.93771s2.01043,0.28132 2.74149,0.93771c0.73107,0.56263 1.0966,1.3128 1.0966,2.25051s-0.45691,1.68787 -1.27936,2.43804c1.0966,0.75017 1.64489,1.68788 1.64489,3.00067c0,1.03148 -0.36553,1.87542 -1.18798,2.53182s-1.82766,1.03148 -3.10702,1.03148s-2.28458,-0.37508 -3.10703,-1.03148c-0.82245,-0.6564 -1.18798,-1.50034 -1.18798,-2.53182c0,-1.31279 0.5483,-2.34427 1.6449,-3.00067c-0.82245,-0.6564 -1.18798,-1.50033 -1.18798,-2.43804c0.09138,-0.93771 0.45691,-1.68788 1.18798,-2.25051l-0.00001,0zm1.18798,9.00202c0.5483,0.37508 1.00522,0.46885 1.6449,0.46885s1.0966,-0.18754 1.6449,-0.46885c0.5483,-0.37509 0.73106,-0.84394 0.73106,-1.40657c0,-0.6564 -0.27415,-1.12525 -0.73106,-1.40656s-1.00522,-0.46886 -1.6449,-0.46886s-1.18798,0.18755 -1.6449,0.46886s-0.73106,0.84394 -0.73106,1.40656c0,0.6564 0.18277,1.12525 0.73106,1.40657zm0.18277,-5.34495c0.45692,0.37508 0.91383,0.46886 1.46213,0.46886s1.00522,-0.18755 1.46213,-0.46886c0.45692,-0.37508 0.63968,-0.75017 0.63968,-1.31279s-0.18276,-0.93771 -0.63968,-1.21902c-0.36553,-0.37509 -0.91383,-0.46886 -1.46213,-0.46886s-1.00521,0.18754 -1.46213,0.46886c-0.45691,0.37508 -0.63968,0.75016 -0.63968,1.21902s0.18277,1.03148 0.63968,1.31279z" id="svg_126" stroke="null"/>
    <path fill="#444444" d="m372.59434,175.98489c0.63968,0 1.27937,-0.09377 1.73628,-0.37508s1.00522,-0.56263 1.55352,-1.12526l1.27936,1.3128c-1.18798,1.40656 -2.65011,2.06296 -4.47778,2.06296c-1.73628,0 -3.19841,-0.56263 -4.295,-1.68788c-1.0966,-1.12525 -1.73628,-2.62559 -1.73628,-4.31346c0,-1.68788 0.5483,-3.18822 1.73628,-4.40724c1.18798,-1.12525 2.65011,-1.78165 4.38639,-1.78165s3.28979,0.6564 4.47777,2.06296l-1.18798,1.40657c-0.5483,-0.56263 -1.0966,-0.93771 -1.55351,-1.12525s-1.0966,-0.28132 -1.73628,-0.28132c-1.18798,0 -2.10181,0.37509 -2.92426,1.12525s-1.18798,1.78165 -1.18798,2.90691s0.36553,2.15673 1.18798,3.00067c0.73106,0.84394 1.64489,1.21902 2.74149,1.21902z" id="svg_127" stroke="null"/>
    <path fill="#444444" d="m386.21043,176.64129c-0.91383,0.93771 -2.01043,1.31279 -3.28979,1.31279s-2.37596,-0.46886 -3.2898,-1.31279s-1.27936,-1.96919 -1.27936,-3.28199s0.45692,-2.34427 1.27936,-3.28198s2.01043,-1.31279 3.2898,-1.31279s2.37596,0.46885 3.28979,1.31279s1.27937,1.96919 1.27937,3.28198c0.09138,1.3128 -0.36554,2.34428 -1.27937,3.28199zm-5.20884,-1.21903c0.5483,0.56263 1.18798,0.84394 2.01043,0.84394c0.82245,0 1.46213,-0.28131 2.01043,-0.84394c0.5483,-0.56262 0.82245,-1.21902 0.82245,-2.15673c0,-0.84394 -0.27415,-1.59411 -0.82245,-2.15673c-0.5483,-0.56263 -1.18798,-0.84394 -2.01043,-0.84394c-0.82245,0 -1.46213,0.28131 -2.01043,0.84394c-0.5483,0.56262 -0.82245,1.21902 -0.82245,2.15673s0.27415,1.68788 0.82245,2.15673z" id="svg_128" stroke="null"/>
    <path fill="#444444" d="m391.51065,172.98422l0,4.87609l-1.82766,0l0,-9.00201l1.82766,0l0,1.5941c0.27415,-0.56262 0.73107,-0.93771 1.18799,-1.31279c0.54829,-0.28131 1.09659,-0.46885 1.64489,-0.46885c1.00522,0 1.82767,0.28131 2.37596,0.93771c0.63969,0.65639 0.91384,1.50033 0.91384,2.71935l0,5.53249l-1.82767,0l0,-4.96986c0,-1.68788 -0.63968,-2.43805 -2.01042,-2.43805c-0.63969,0 -1.18799,0.18755 -1.6449,0.6564s-0.63968,1.03148 -0.63968,1.87542l-0.00001,0z" id="svg_129" stroke="null"/>
    <path fill="#444444" d="m402.47663,170.35863l0,4.59478c0,0.46885 0.09139,0.75017 0.36554,1.03148c0.18276,0.28131 0.5483,0.37508 0.91383,0.37508s0.73106,-0.18754 1.0966,-0.56262l0.73106,1.31279c-0.63968,0.56263 -1.37075,0.93771 -2.10181,0.93771c-0.82245,0 -1.46213,-0.28131 -2.01043,-0.84394s-0.82245,-1.31279 -0.82245,-2.2505l0,-4.50101l-1.0966,0l0,-1.50033l1.0966,0l0,-2.81313l1.82766,0l0,2.81313l2.28458,0l0,1.50033l-2.28458,0l0,-0.09377z" id="svg_130" stroke="null"/>
    <path fill="#444444" d="m411.61495,170.63994c-0.91383,0 -1.55351,0.28132 -2.01043,0.93771c-0.45692,0.6564 -0.73106,1.40657 -0.73106,2.43805l0,3.84461l-1.82767,0l0,-9.00201l1.82767,0l0,1.78164c0.27414,-0.56262 0.73106,-1.03148 1.18798,-1.40656c0.5483,-0.37508 1.00521,-0.56263 1.64489,-0.56263l0,1.87542c0,0.09377 0,0.09377 -0.09138,0.09377z" id="svg_131" stroke="null"/>
    <path fill="#444444" d="m420.75326,176.64129c-0.91383,0.93771 -2.01042,1.31279 -3.28979,1.31279s-2.37596,-0.46886 -3.28979,-1.31279c-0.91384,-0.93771 -1.27937,-1.96919 -1.27937,-3.28199s0.45692,-2.34427 1.27937,-3.28198c0.91383,-0.93771 2.01043,-1.31279 3.28979,-1.31279s2.37596,0.46885 3.28979,1.31279s1.27937,1.96919 1.27937,3.28198s-0.45692,2.34428 -1.27937,3.28199zm-5.30022,-1.21903c0.5483,0.56263 1.18798,0.84394 2.01043,0.84394s1.46213,-0.28131 2.01043,-0.84394c0.5483,-0.56262 0.82245,-1.21902 0.82245,-2.15673c0,-0.84394 -0.27415,-1.59411 -0.82245,-2.15673c-0.5483,-0.56263 -1.18798,-0.84394 -2.01043,-0.84394s-1.46213,0.28131 -2.01043,0.84394c-0.5483,0.56262 -0.82245,1.21902 -0.82245,2.15673s0.27415,1.68788 0.82245,2.15673z" id="svg_132" stroke="null"/>
    <path fill="#444444" d="m425.9621,177.86031l-1.82766,0l0,-12.56531l1.82766,0l0,12.56531z" id="svg_133" stroke="null"/>
    <path fill="#444444" d="m430.43988,177.86031l-1.82766,0l0,-12.56531l1.82766,0l0,12.56531z" id="svg_134" stroke="null"/>
    <path fill="#444444" d="m441.31447,174.20324l-6.85373,0c0,0.6564 0.36553,1.21902 0.91383,1.59411c0.5483,0.37508 1.18798,0.56262 1.82766,0.56262c1.0966,0 1.91905,-0.37508 2.46735,-1.03148l1.09659,1.21902c-0.91383,1.03149 -2.19319,1.50034 -3.65532,1.50034c-1.18798,0 -2.28458,-0.37508 -3.10703,-1.21902c-0.82245,-0.84394 -1.27936,-1.96919 -1.27936,-3.37576s0.45691,-2.53181 1.27936,-3.37575c0.91383,-0.84394 1.91905,-1.21903 3.10703,-1.21903c1.18798,0 2.19319,0.37509 3.01564,1.12526c0.82245,0.75016 1.27937,1.78164 1.27937,3.00067l-0.09139,1.21902l0,0zm-6.85373,-1.50033l5.02607,0c0,-0.75017 -0.27415,-1.3128 -0.73107,-1.78165c-0.45691,-0.37509 -1.00521,-0.56263 -1.73628,-0.56263c-0.63968,0 -1.27936,0.18754 -1.82766,0.6564c-0.45691,0.37508 -0.73106,0.93771 -0.73106,1.68788z" id="svg_135" stroke="null"/>
    <path fill="#444444" d="m447.89406,170.63994c-0.91383,0 -1.55351,0.28132 -2.01043,0.93771c-0.45691,0.6564 -0.73106,1.40657 -0.73106,2.43805l0,3.84461l-1.82767,0l0,-9.00201l1.82767,0l0,1.78164c0.27415,-0.56262 0.73106,-1.03148 1.18798,-1.40656c0.5483,-0.37508 1.00521,-0.56263 1.64489,-0.56263l0,1.87542c0,0.09377 -0.09138,0.09377 -0.09138,0.09377z" id="svg_136" stroke="null"/>
    <path fill="#444444" d="m449.63034,176.73506c0,-0.37509 0.09138,-0.6564 0.36553,-0.93771c0.27415,-0.28132 0.5483,-0.37509 0.82245,-0.37509c0.36553,0 0.63968,0.09377 0.82245,0.37509c0.27415,0.28131 0.36553,0.56262 0.36553,0.84394s-0.18276,0.75016 -0.45691,1.21902l-1.00522,1.68788l-0.91383,0l0.63968,-1.78165c-0.45691,-0.09377 -0.63968,-0.46886 -0.63968,-1.03148z" id="svg_137" stroke="null"/>
    <path fill="#444444" d="m468.45527,169.88978c0,1.96919 -0.82245,3.18821 -2.46735,3.65707l3.01565,4.31346l-2.46735,0l-2.74149,-3.93838l-2.55873,0l0,3.93838l-2.01043,0l0,-11.81514l4.29501,0c1.73628,0 3.01564,0.28131 3.74671,0.93771c0.73106,0.56262 1.18798,1.50033 1.18798,2.9069zm-2.65011,1.68787c0.36553,-0.37508 0.5483,-0.93771 0.5483,-1.68787s-0.18277,-1.3128 -0.63968,-1.59411c-0.36554,-0.28131 -1.0966,-0.46885 -2.1932,-0.46885l-2.46735,0l0,4.21969l2.37597,0c1.27936,0 2.01043,-0.18754 2.37596,-0.46886z" id="svg_138" stroke="null"/>
    <path fill="#444444" d="m479.05572,174.20324l-6.85374,0c0,0.6564 0.36553,1.21902 0.91383,1.59411c0.5483,0.37508 1.18798,0.56262 1.82766,0.56262c1.0966,0 1.91905,-0.37508 2.46735,-1.03148l1.0966,1.21902c-0.91383,1.03149 -2.1932,1.50034 -3.65533,1.50034c-1.18798,0 -2.28458,-0.37508 -3.10703,-1.21902c-0.82244,-0.84394 -1.27936,-1.96919 -1.27936,-3.37576s0.45692,-2.53181 1.27936,-3.37575c0.91384,-0.84394 1.91905,-1.21903 3.10703,-1.21903s2.1932,0.37509 3.01565,1.12526c0.82244,0.75016 1.27936,1.78164 1.27936,3.00067l0,1.21902l-0.09138,0zm-6.85374,-1.50033l5.02607,0c0,-0.75017 -0.27415,-1.3128 -0.73106,-1.78165c-0.45692,-0.37509 -1.00522,-0.56263 -1.73628,-0.56263c-0.63968,0 -1.27937,0.18754 -1.82767,0.6564c-0.45691,0.37508 -0.73106,0.93771 -0.73106,1.68788z" id="svg_139" stroke="null"/>
    <path fill="#444444" d="m489.19925,168.8583l0,7.87676c0,1.5941 -0.45692,2.81313 -1.27937,3.56329c-0.82245,0.75017 -1.91904,1.21903 -3.19841,1.21903c-1.27936,0 -2.46734,-0.46886 -3.56394,-1.3128l0.91383,-1.40656c0.82245,0.6564 1.73628,1.03148 2.55873,1.03148c0.91383,0 1.55351,-0.18754 2.10181,-0.6564s0.73107,-1.21902 0.73107,-2.2505l0,-1.12525c-0.27415,0.56262 -0.63969,0.93771 -1.18798,1.31279c-0.5483,0.28132 -1.0966,0.46886 -1.73628,0.46886c-1.18799,0 -2.10182,-0.37509 -2.83288,-1.21903c-0.73107,-0.84394 -1.0966,-1.87541 -1.0966,-3.09444c0,-1.21902 0.36553,-2.2505 1.0966,-3.09444c0.73106,-0.84394 1.73628,-1.21902 2.83288,-1.21902c1.18798,0 2.10181,0.46885 2.83287,1.50033l0,-1.31279l1.82767,0l0,-0.28131zm-6.85374,4.12592c0,0.75017 0.18277,1.40656 0.63968,1.87542c0.45692,0.56262 1.00522,0.84394 1.82767,0.84394c0.73106,0 1.37074,-0.28132 1.82766,-0.75017c0.45691,-0.56263 0.73106,-1.12525 0.73106,-1.96919c0,-0.75017 -0.27415,-1.40657 -0.73106,-1.96919s-1.0966,-0.84394 -1.82766,-0.84394s-1.37075,0.28131 -1.82767,0.84394c-0.36553,0.56262 -0.63968,1.21902 -0.63968,1.96919z" id="svg_140" stroke="null"/>
    <path fill="#444444" d="m491.94074,167.07665c-0.27415,-0.28132 -0.36553,-0.56263 -0.36553,-0.84394s0.09138,-0.56263 0.36553,-0.84394s0.5483,-0.37508 0.82245,-0.37508c0.27415,0 0.5483,0.09377 0.82245,0.37508c0.27414,0.28131 0.36553,0.56263 0.36553,0.84394s-0.09138,0.56262 -0.36553,0.84394c-0.27415,0.28131 -0.5483,0.37508 -0.82245,0.37508c-0.27415,0 -0.5483,-0.18754 -0.82245,-0.37508zm1.73628,10.78366l-1.82766,0l0,-9.00201l1.82766,0l0,9.00201z" id="svg_141" stroke="null"/>
    <path fill="#444444" d="m502.63257,175.14095c0,0.84394 -0.27415,1.50034 -0.91383,2.06296c-0.63968,0.56263 -1.37075,0.75017 -2.28458,0.75017c-0.63968,0 -1.27937,-0.09377 -2.01043,-0.37508s-1.27937,-0.56263 -1.82766,-1.03148l0.91383,-1.50034c1.00521,0.75017 2.01043,1.21902 2.92426,1.21902c0.45691,0 0.73106,-0.09377 1.00521,-0.28131c0.27415,-0.18754 0.36554,-0.46886 0.36554,-0.75017c0,-0.46885 -0.5483,-0.84394 -1.73628,-1.21902c-0.09139,0 -0.18277,-0.09377 -0.18277,-0.09377c-1.82766,-0.46886 -2.74149,-1.3128 -2.74149,-2.53182c0,-0.84394 0.27414,-1.50033 0.91383,-1.96919c0.63968,-0.46885 1.46213,-0.75017 2.46734,-0.75017c1.00522,0 1.91905,0.28132 2.83288,0.93771l-0.73106,1.40657c-0.73107,-0.46886 -1.46213,-0.75017 -2.28458,-0.75017c-0.45692,0 -0.82245,0.09377 -1.0966,0.28131s-0.45692,0.37509 -0.45692,0.75017c0,0.28131 0.18277,0.46886 0.45692,0.6564c0.18277,0.09377 0.45692,0.18754 0.82245,0.28131c0.36553,0.09377 0.63968,0.18754 0.91383,0.28131c0.27415,0.09378 0.5483,0.18755 0.82245,0.28132c0.27415,0.09377 0.5483,0.28131 0.82245,0.46885c0.73106,0.37509 1.00521,1.03148 1.00521,1.87542z" id="svg_142" stroke="null"/>
    <path fill="#444444" d="m506.92758,170.35863l0,4.59478c0,0.46885 0.09138,0.75017 0.36553,1.03148c0.27415,0.28131 0.5483,0.37508 0.91383,0.37508c0.36554,0 0.73107,-0.18754 1.0966,-0.56262l0.73106,1.31279c-0.63968,0.56263 -1.37074,0.93771 -2.10181,0.93771c-0.82245,0 -1.46213,-0.28131 -2.01043,-0.84394c-0.5483,-0.56262 -0.82245,-1.31279 -0.82245,-2.2505l0,-4.50101l-1.09659,0l0,-1.50033l1.09659,0l0,-2.81313l1.82767,0l0,2.81313l2.28458,0l0,1.50033l-2.28458,0l0,-0.09377z" id="svg_143" stroke="null"/>
    <path fill="#444444" d="m516.15728,170.63994c-0.91384,0 -1.55352,0.28132 -2.01043,0.93771c-0.45692,0.6564 -0.73107,1.40657 -0.73107,2.43805l0,3.84461l-1.82766,0l0,-9.00201l1.82766,0l0,1.78164c0.27415,-0.56262 0.73107,-1.03148 1.18798,-1.40656c0.5483,-0.37508 1.00522,-0.56263 1.6449,-0.56263l0,1.87542c0,0.09377 -0.09138,0.09377 -0.09138,0.09377z" id="svg_144" stroke="null"/>
    <path fill="#444444" d="m519.17292,181.42361c-0.82245,0 -1.55351,-0.28132 -2.1932,-0.93772l0.82245,-1.50033c0.36554,0.37508 0.82245,0.56263 1.18798,0.56263s0.73107,-0.18755 1.00522,-0.46886c0.27415,-0.28131 0.36553,-0.6564 0.36553,-1.03148c0,-0.18754 -1.18798,-3.18821 -3.56394,-9.18955l2.01043,0l2.65011,6.65773l2.65011,-6.65773l2.01043,0l-4.20363,10.68989c-0.27415,0.56262 -0.63968,1.03148 -1.09659,1.40656c-0.5483,0.28131 -1.00522,0.46885 -1.6449,0.46885l0,0.00001z" id="svg_145" stroke="null"/>
   </g>
   <g id="svg_249" stroke="null">
    <rect x="151.721261" y="197.449513" fill="#452845" width="492.372429" height="12.283996" id="svg_250" stroke="null"/>
   </g>
   <rect fill="#e5e5e5" stroke-width="2" x="198.004677" y="119.083771" width="72.58951" height="29.383803" id="svg_306" rx="5" stroke="#9D6E80"/>
   <text fill="#191919" stroke-width="0" stroke-opacity="null" fill-opacity="null" x="153.199724" y="132.059418" id="svg_307" font-size="11" font-family="Helvetica, Arial, sans-serif" text-anchor="start" xml:space="preserve" transform="matrix(0.9138315320014953,0,0,1.0013911259534394,62.99459653810844,-0.008608268486682391) " stroke="#9D6E80">Version-aware</text>
   <text fill="#191919" stroke-width="0" stroke-opacity="null" fill-opacity="null" x="169.011137" y="143.082753" id="svg_308" font-size="11" font-family="Helvetica, Arial, sans-serif" text-anchor="start" xml:space="preserve" transform="matrix(0.9138315320014953,0,0,1.0013911259534394,62.99459653810844,-0.008608268486682391) " stroke="#9D6E80">Routing</text>
   <rect fill="#e5e5e5" stroke-width="2" x="552.324146" y="119" width="47.324219" height="29.95543" id="svg_309" rx="5" stroke="#9D6E80"/>
   <text fill="#191919" stroke-width="0" stroke-opacity="null" fill-opacity="null" x="548.093021" y="130.77037" id="svg_310" font-size="11" font-family="Helvetica, Arial, sans-serif" text-anchor="start" xml:space="preserve" transform="matrix(0.9138315320014953,0,0,1.0013911259534394,62.99459653810844,-0.008608268486682391) " stroke="#9D6E80">Fault</text>
   <text fill="#191919" stroke-width="0" stroke-opacity="null" fill-opacity="null" x="541.093021" y="141.793705" id="svg_311" font-size="11" font-family="Helvetica, Arial, sans-serif" text-anchor="start" xml:space="preserve" transform="matrix(0.9138315320014953,0,0,1.0013911259534394,62.99459653810844,-0.008608268486682391) " stroke="#9D6E80">Injection</text>
  </g>
  <g stroke="null" id="svg_1">
   <path stroke="null" fill="#FFFFFF" d="m681.3,446.1l-577.6,0c-12.8,0 -23.2,-9.613313 -23.2,-21.445083l0,-140.409833c0,-11.83177 10.4,-21.445083 23.2,-21.445083l577.6,0c12.8,0 23.2,9.613313 23.2,21.445083l0,140.502269c0,11.739334 -10.4,21.352647 -23.2,21.352647z" id="svg_2"/>
  </g>
  <g id="svg_5">
   <g id="svg_6">
    <path fill="#EDEDED" d="m530.3,432.5l-421.6,0c-7.2,0 -13,-6.6 -13,-14.7l0,-128.1c0,-8.1 5.8,-14.7 13,-14.7l421.6,0c7.2,0 13,6.6 13,14.7l0,128.1c0,8.1 -5.9,14.7 -13,14.7z" id="svg_7"/>
   </g>
   <g id="svg_8">
    <path fill="#EDEDED" d="m530.3,432.9l-421.6,0c-7.4,0 -13.3,-6.8 -13.3,-15.1l0,-128.1c0,-8.3 6,-15.1 13.3,-15.1l421.6,0c7.4,0 13.3,6.8 13.3,15.1l0,128.1c0,8.3 -6,15.1 -13.3,15.1zm-421.6,-157.4c-7,0 -12.7,6.4 -12.7,14.3l0,128.1c0,7.9 5.7,14.3 12.7,14.3l421.6,0c7,0 12.7,-6.4 12.7,-14.3l0,-128.2c0,-7.9 -5.7,-14.3 -12.7,-14.3l-421.6,0.1l0,0z" id="svg_9"/>
   </g>
  </g>
  <g id="svg_10">
   <g id="svg_11">
    <path fill="#FFFFFF" d="m263.9,409.6l-20.2,0c-5.7,0 -10.4,-4.7 -10.4,-10.4l0,-20.2c0,-5.8 4.7,-10.4 10.4,-10.4l20.2,0c5.7,0 10.4,4.7 10.4,10.4l0,20.2c0,5.7 -4.7,10.4 -10.4,10.4z" id="svg_12"/>
    <path fill="#452845" d="m263.9,410.1l-20.2,0c-6,0 -10.9,-4.9 -10.9,-10.9l0,-20.2c0,-6 4.9,-10.9 10.9,-10.9l20.2,0c6,0 10.9,4.9 10.9,10.9l0,20.2c0,6 -4.9,10.9 -10.9,10.9zm-20.2,-41c-5.5,0 -9.9,4.5 -9.9,9.9l0,20.2c0,5.5 4.5,9.9 9.9,9.9l20.2,0c5.5,0 9.9,-4.5 9.9,-9.9l0,-20.2c0,-5.5 -4.5,-9.9 -9.9,-9.9l-20.2,0z" id="svg_13"/>
   </g>
  </g>
  <g id="svg_14">
   <g id="svg_15">
    <path fill="#FFFFFF" d="m263.9,337l-20.2,0c-5.7,0 -10.4,-4.7 -10.4,-10.4l0,-20.2c0,-5.8 4.7,-10.4 10.4,-10.4l20.2,0c5.7,0 10.4,4.7 10.4,10.4l0,20.2c0,5.8 -4.7,10.4 -10.4,10.4z" id="svg_16"/>
    <path fill="#452845" d="m263.9,337.5l-20.2,0c-6,0 -10.9,-4.9 -10.9,-10.9l0,-20.2c0,-6 4.9,-10.9 10.9,-10.9l20.2,0c6,0 10.9,4.9 10.9,10.9l0,20.2c0,6 -4.9,10.9 -10.9,10.9zm-20.2,-41c-5.5,0 -9.9,4.5 -9.9,9.9l0,20.2c0,5.5 4.5,9.9 9.9,9.9l20.2,0c5.5,0 9.9,-4.5 9.9,-9.9l0,-20.2c0,-5.5 -4.5,-9.9 -9.9,-9.9l-20.2,0z" id="svg_17"/>
   </g>
  </g>
  <g id="svg_18" fill="#452845">
   <path fill="#452845" d="m335.16666,77.83333c1.5,0 2.8,-0.6 3.8,-1.8l2,2.1c-1.6,1.8 -3.5,2.7 -5.6,2.7s-3.9,-0.7 -5.3,-2c-1.4,-1.4 -2.1,-3.1 -2.1,-5.1s0.7,-3.8 2.1,-5.2c1.4,-1.4 3.2,-2.1 5.2,-2.1c2.3,0 4.2,0.9 5.8,2.6l-1.9,2.2c-1,-1.2 -2.2,-1.8 -3.7,-1.8c-1.2,0 -2.2,0.4 -3,1.1c-0.8,0.8 -1.2,1.8 -1.2,3.1s0.4,2.3 1.2,3.1c0.8,0.8 1.6,1.1 2.7,1.1z" id="svg_19"/>
   <path fill="#452845" d="m353.36666,75.23333c0,1.6 -0.5,2.9 -1.6,3.9c-1.1,1.1 -2.4,1.6 -4.1,1.6c-1.6,0 -3,-0.5 -4.1,-1.6s-1.6,-2.4 -1.6,-3.9s0.5,-2.9 1.6,-4c1.1,-1.1 2.4,-1.6 4.1,-1.6c1.6,0 3,0.5 4.1,1.6c1.1,1.1 1.6,2.4 1.6,4zm-8.3,0c0,0.9 0.2,1.6 0.8,2.1s1.1,0.8 1.9,0.8s1.4,-0.3 1.9,-0.8s0.8,-1.3 0.8,-2.1c0,-0.8 -0.2,-1.6 -0.8,-2.2c-0.6,-0.6 -1.1,-0.8 -1.9,-0.8s-1.4,0.3 -1.9,0.8s-0.8,1.3 -0.8,2.2z" id="svg_20"/>
   <path fill="#452845" d="m358.66666,74.63333l0,6l-3,0l0,-10.8l3,0l0,1.2c0.9,-0.9 1.9,-1.4 3.1,-1.4s2.1,0.4 2.9,1.2s1.1,1.9 1.1,3.2l0,6.5l-3,0l0,-6.1c0,-1.7 -0.6,-2.5 -1.8,-2.5c-0.6,0 -1.1,0.2 -1.6,0.6c-0.5,0.6 -0.7,1.2 -0.7,2.1z" id="svg_21"/>
   <path fill="#452845" d="m371.86666,72.03333l0,4.8c0,0.4 0.1,0.7 0.3,1c0.2,0.2 0.5,0.4 0.8,0.4c0.6,0 1,-0.3 1.4,-0.8l1.1,2.1c-0.9,0.9 -1.9,1.3 -3,1.3s-1.9,-0.3 -2.6,-1s-1.1,-1.6 -1.1,-2.8l0,-5l-1.3,0l0,-2.2l1.3,0l0,-3.2l3,0l0,3.2l2.6,0l0,2.2l-2.5,0z" id="svg_22"/>
   <path fill="#452845" d="m382.66666,72.53333c-0.9,0 -1.6,0.3 -2,1s-0.7,1.5 -0.7,2.5l0,4.7l-3,0l0,-10.9l3,0l0,1.4c0.4,-0.4 0.9,-0.8 1.5,-1.1s1.2,-0.5 1.8,-0.5l0,2.8l-0.6,0.1l0,0z" id="svg_23"/>
   <path fill="#452845" d="m395.86666,75.23333c0,1.6 -0.5,2.9 -1.6,3.9c-1.1,1.1 -2.4,1.6 -4.1,1.6c-1.6,0 -3,-0.5 -4.1,-1.6s-1.6,-2.4 -1.6,-3.9s0.5,-2.9 1.6,-4c1.1,-1.1 2.4,-1.6 4.1,-1.6c1.6,0 3,0.5 4.1,1.6c1.1,1.1 1.6,2.4 1.6,4zm-8.4,0c0,0.9 0.2,1.6 0.8,2.1s1.1,0.8 1.9,0.8s1.4,-0.3 1.9,-0.8s0.8,-1.3 0.8,-2.1c0,-0.8 -0.2,-1.6 -0.8,-2.2c-0.6,-0.6 -1.1,-0.8 -1.9,-0.8s-1.4,0.3 -1.9,0.8s-0.8,1.3 -0.8,2.2z" id="svg_24"/>
   <path fill="#452845" d="m401.06666,80.63333l-3,0l0,-14.9l3,0l0,14.9z" id="svg_25"/>
   <path fill="#452845" d="m419.16666,67.83333c1,0.8 1.5,2.1 1.5,3.8s-0.5,3 -1.5,3.8c-1,0.8 -2.5,1.2 -4.6,1.2l-1.9,0l0,3.9l-3.1,0l0,-14l4.9,0c2.1,0.1 3.7,0.5 4.7,1.3zm-2.3,5.5c0.4,-0.4 0.6,-1 0.6,-1.8s-0.2,-1.4 -0.7,-1.7s-1.2,-0.5 -2.3,-0.5l-1.8,0l0,4.7l2.1,0c1,0 1.7,-0.2 2.1,-0.7z" id="svg_26"/>
   <path fill="#452845" d="m425.76666,80.63333l-3,0l0,-14.9l3,0l0,14.9z" id="svg_27"/>
   <path fill="#452845" d="m437.76666,80.63333l-2.8,0l0,-1.3c-0.8,1 -1.7,1.5 -2.9,1.5s-2.1,-0.3 -2.9,-1s-1.2,-1.5 -1.2,-2.6c0,-1.1 0.4,-1.9 1.2,-2.5c0.8,-0.5 1.9,-0.8 3.3,-0.8l2.2,0l0,-0.1c0,-1.1 -0.6,-1.7 -1.8,-1.7c-0.5,0 -1.1,0.1 -1.7,0.3c-0.6,0.2 -1.1,0.5 -1.5,0.8l-1.3,-1.9c1.4,-1 3,-1.5 4.8,-1.5c1.3,0 2.4,0.3 3.2,1c0.8,0.7 1.2,1.7 1.2,3.1l0,6.7l0.2,0zm-3.1,-4.1l0,-0.5l-1.9,0c-1.2,0 -1.8,0.4 -1.8,1.1c0,0.4 0.1,0.7 0.4,0.9s0.7,0.3 1.2,0.3s1,-0.2 1.4,-0.5c0.5,-0.3 0.7,-0.8 0.7,-1.3z" id="svg_28"/>
   <path fill="#452845" d="m443.46666,74.63333l0,6l-3,0l0,-10.8l3,0l0,1.2c0.9,-0.9 1.9,-1.4 3.1,-1.4c1.1,0 2.1,0.4 2.8,1.2c0.8,0.8 1.2,1.9 1.2,3.2l0,6.5l-3,0l0,-6.1c0,-1.7 -0.6,-2.5 -1.8,-2.5c-0.6,0 -1.1,0.2 -1.6,0.6c-0.5,0.6 -0.7,1.2 -0.7,2.1z" id="svg_29"/>
   <path fill="#452845" d="m462.56666,79.03333c-1.2,1.1 -2.6,1.7 -4.3,1.7c-1.6,0 -3,-0.5 -4,-1.5c-1.1,-1 -1.6,-2.4 -1.6,-4c0,-1.6 0.5,-3 1.6,-4c1.1,-1 2.4,-1.5 3.8,-1.5c1.5,0 2.7,0.4 3.8,1.3c1,0.9 1.6,2.1 1.6,3.7l0,1.6l-7.8,0c0.1,0.6 0.4,1.1 0.9,1.4c0.5,0.4 1.1,0.6 1.8,0.6c1.1,0 1.9,-0.4 2.6,-1.1l1.6,1.8zm-2.9,-6.4c-0.4,-0.3 -0.9,-0.5 -1.5,-0.5s-1.1,0.2 -1.6,0.5s-0.8,0.8 -0.9,1.5l4.7,0c0,-0.6 -0.3,-1.1 -0.7,-1.5z" id="svg_30"/>
  </g>
  <g id="svg_31">
   <path fill="#452845" d="m332.36666,223l0,11.3l-3.1,0l0,-11.3l-4,0l0,-2.7l11,0l0,2.7l-3.9,0z" id="svg_32"/>
   <path fill="#452845" d="m347.56666,232.7c-1.2,1.1 -2.6,1.7 -4.3,1.7c-1.6,0 -3,-0.5 -4.1,-1.5s-1.6,-2.4 -1.6,-4s0.5,-3 1.6,-4s2.4,-1.5 3.8,-1.5s2.7,0.4 3.8,1.3c1,0.9 1.6,2.1 1.6,3.7l0,1.6l-7.8,0c0.1,0.6 0.4,1.1 0.9,1.4c0.5,0.4 1.1,0.6 1.8,0.6c1.1,0 1.9,-0.4 2.6,-1.1l1.7,1.8zm-2.9,-6.4c-0.4,-0.3 -0.9,-0.5 -1.5,-0.5s-1.1,0.2 -1.6,0.5c-0.5,0.4 -0.8,0.8 -0.9,1.5l4.7,0c0,-0.6 -0.3,-1.1 -0.7,-1.5z" id="svg_33"/>
   <path fill="#452845" d="m353.56666,228.3l0,6l-3,0l0,-10.8l3,0l0,1.2c0.9,-0.9 1.9,-1.4 3.1,-1.4s2.1,0.4 2.9,1.2s1.1,1.9 1.1,3.2l0,6.5l-3,0l0,-6.1c0,-1.7 -0.6,-2.5 -1.8,-2.5c-0.6,0 -1.1,0.2 -1.6,0.6c-0.4,0.6 -0.7,1.2 -0.7,2.1z" id="svg_34"/>
   <path fill="#452845" d="m372.56666,234.3l-2.9,0l0,-1.3c-0.8,1 -1.7,1.5 -2.9,1.5c-1.1,0 -2.1,-0.3 -2.9,-1s-1.2,-1.5 -1.2,-2.6s0.4,-1.9 1.2,-2.5c0.8,-0.5 1.9,-0.8 3.3,-0.8l2.2,0l0,-0.1c0,-1.1 -0.6,-1.7 -1.8,-1.7c-0.5,0 -1.1,0.1 -1.7,0.3c-0.6,0.2 -1.1,0.5 -1.5,0.8l-1.3,-1.9c1.4,-1 3,-1.5 4.8,-1.5c1.3,0 2.4,0.3 3.2,1s1.2,1.7 1.2,3.1l0,6.7l0.3,0zm-3.1,-4.1l0,-0.5l-1.8,0c-1.2,0 -1.8,0.4 -1.8,1.1c0,0.4 0.1,0.7 0.4,0.9c0.3,0.2 0.7,0.3 1.2,0.3s1,-0.2 1.4,-0.5s0.6,-0.8 0.6,-1.3z" id="svg_35"/>
   <path fill="#452845" d="m378.26666,228.3l0,6l-3,0l0,-10.8l3,0l0,1.2c0.9,-0.9 1.9,-1.4 3.1,-1.4s2.1,0.4 2.9,1.2s1.1,1.9 1.1,3.2l0,6.5l-3,0l0,-6.1c0,-1.7 -0.6,-2.5 -1.8,-2.5c-0.6,0 -1.1,0.2 -1.6,0.6c-0.5,0.6 -0.7,1.2 -0.7,2.1z" id="svg_36"/>
   <path fill="#452845" d="m391.46666,225.7l0,4.8c0,0.4 0.1,0.7 0.3,1c0.2,0.2 0.5,0.4 0.8,0.4c0.6,0 1,-0.3 1.4,-0.8l1.1,2.1c-0.9,0.9 -1.9,1.3 -3,1.3s-1.9,-0.3 -2.6,-1s-1.1,-1.6 -1.1,-2.8l0,-5l-1.3,0l0,-2.2l1.3,0l0,-3.2l3,0l0,3.2l2.6,0l0,2.2l-2.5,0z" id="svg_37"/>
   <path fill="#452845" d="m405.56666,223.1c-0.3,0.2 -0.5,0.6 -0.5,1s0.2,0.7 0.5,1c0.4,0.2 1.2,0.5 2.5,0.9c1.3,0.3 2.4,0.8 3.1,1.5s1.1,1.6 1.1,2.9c0,1.3 -0.5,2.3 -1.4,3.1s-2.2,1.2 -3.7,1.2c-2.2,0 -4.2,-0.8 -6,-2.5l1.9,-2.3c1.5,1.3 2.9,2 4.2,2c0.6,0 1,-0.1 1.4,-0.4c0.3,-0.2 0.5,-0.6 0.5,-1s-0.2,-0.8 -0.5,-1s-1,-0.5 -2.1,-0.8c-1.6,-0.4 -2.8,-0.9 -3.6,-1.5c-0.8,-0.6 -1.1,-1.6 -1.1,-2.9s0.5,-2.4 1.4,-3.1c1,-0.7 2.1,-1.1 3.6,-1.1c0.9,0 1.9,0.2 2.8,0.5c0.9,0.3 1.7,0.8 2.4,1.4l-1.6,2.3c-1.2,-0.9 -2.5,-1.4 -3.8,-1.4c-0.4,-0.2 -0.8,-0.1 -1.1,0.2z" id="svg_38"/>
   <path fill="#452845" d="m420.96666,223.3c1.3,0 2.4,0.5 3.3,1.6c1,1 1.5,2.4 1.5,4c0,1.6 -0.5,2.9 -1.5,4c-1,1.1 -2.1,1.6 -3.4,1.6s-2.4,-0.5 -3.2,-1.6l0,5.3l-3,0l0,-14.6l3,0l0,1.2c1,-1 2.1,-1.5 3.3,-1.5zm-3.3,5.6c0,0.9 0.2,1.6 0.7,2.1c0.5,0.6 1.1,0.8 1.8,0.8s1.3,-0.3 1.8,-0.8c0.5,-0.6 0.8,-1.3 0.8,-2.1s-0.3,-1.6 -0.8,-2.2c-0.5,-0.6 -1.1,-0.9 -1.8,-0.9c-0.7,0 -1.3,0.3 -1.8,0.9c-0.4,0.6 -0.7,1.3 -0.7,2.2z" id="svg_39"/>
   <path fill="#452845" d="m437.16666,234.3l-2.8,0l0,-1.3c-0.8,1 -1.7,1.5 -2.9,1.5c-1.1,0 -2.1,-0.3 -2.9,-1s-1.2,-1.5 -1.2,-2.6s0.4,-1.9 1.2,-2.5c0.8,-0.5 1.9,-0.8 3.3,-0.8l2.2,0l0,-0.1c0,-1.1 -0.6,-1.7 -1.8,-1.7c-0.5,0 -1.1,0.1 -1.7,0.3c-0.6,0.2 -1.1,0.5 -1.5,0.8l-1.3,-1.9c1.4,-1 3,-1.5 4.8,-1.5c1.3,0 2.4,0.3 3.2,1s1.2,1.7 1.2,3.1l0,6.7l0.2,0zm-3,-4.1l0,-0.5l-1.9,0c-1.2,0 -1.8,0.4 -1.8,1.1c0,0.4 0.1,0.7 0.4,0.9c0.3,0.2 0.7,0.3 1.2,0.3s1,-0.2 1.4,-0.5c0.5,-0.3 0.7,-0.8 0.7,-1.3z" id="svg_40"/>
   <path fill="#452845" d="m445.06666,231.8c1,0 1.9,-0.5 2.7,-1.5l1.8,2c-1.4,1.4 -2.9,2.2 -4.5,2.2c-1.6,0 -3,-0.5 -4.1,-1.5s-1.7,-2.4 -1.7,-4s0.6,-3 1.7,-4s2.5,-1.5 4,-1.5c0.8,0 1.6,0.2 2.3,0.5s1.5,0.8 2.1,1.4l-1.6,2c-0.3,-0.4 -0.8,-0.7 -1.3,-1c-0.5,-0.2 -1,-0.3 -1.5,-0.3c-0.8,0 -1.5,0.3 -2,0.8c-0.6,0.5 -0.8,1.2 -0.8,2.1c0,0.9 0.3,1.6 0.8,2.1c0.7,0.4 1.4,0.7 2.1,0.7z" id="svg_41"/>
   <path fill="#452845" d="m460.86666,232.7c-1.2,1.1 -2.6,1.7 -4.3,1.7c-1.6,0 -3,-0.5 -4,-1.5c-1.1,-1 -1.6,-2.4 -1.6,-4s0.5,-3 1.6,-4s2.4,-1.5 3.8,-1.5c1.5,0 2.7,0.4 3.8,1.3c1,0.9 1.6,2.1 1.6,3.7l0,1.6l-7.8,0c0.1,0.6 0.4,1.1 0.9,1.4c0.5,0.4 1.1,0.6 1.8,0.6c1.1,0 1.9,-0.4 2.6,-1.1l1.6,1.8zm-2.9,-6.4c-0.4,-0.3 -0.9,-0.5 -1.5,-0.5s-1.1,0.2 -1.6,0.5c-0.5,0.3 -0.8,0.8 -0.9,1.5l4.7,0c0,-0.6 -0.2,-1.1 -0.7,-1.5z" id="svg_42"/>
  </g>
  <g id="svg_43">
   <path fill="#444444" d="m119.2,292.3l0,8.7l-2.4,0l0,-8.7l-3.1,0l0,-2.1l8.5,0l0,2.1l-3,0z" id="svg_44"/>
   <path fill="#444444" d="m131,299.8c-0.9,0.9 -2,1.3 -3.3,1.3s-2.3,-0.4 -3.1,-1.2c-0.8,-0.8 -1.2,-1.8 -1.2,-3.1s0.4,-2.3 1.3,-3.1c0.8,-0.8 1.8,-1.2 3,-1.2s2.1,0.3 2.9,1c0.8,0.7 1.2,1.6 1.2,2.8l0,1.2l-6.1,0c0.1,0.5 0.3,0.8 0.7,1.1c0.4,0.3 0.9,0.4 1.4,0.4c0.8,0 1.5,-0.3 2,-0.8l1.2,1.6zm-2.2,-4.9c-0.3,-0.3 -0.7,-0.4 -1.2,-0.4s-0.9,0.1 -1.3,0.4c-0.4,0.3 -0.6,0.7 -0.7,1.1l3.6,0c0.1,-0.4 -0.1,-0.8 -0.4,-1.1z" id="svg_45"/>
   <path fill="#444444" d="m135.7,296.4l0,4.6l-2.3,0l0,-8.3l2.3,0l0,0.9c0.7,-0.7 1.5,-1.1 2.4,-1.1s1.6,0.3 2.2,0.9s0.9,1.4 0.9,2.5l0,5.1l-2.3,0l0,-4.7c0,-1.3 -0.5,-1.9 -1.4,-1.9c-0.5,0 -0.9,0.2 -1.2,0.5c-0.5,0.4 -0.6,0.9 -0.6,1.5z" id="svg_46"/>
   <path fill="#444444" d="m150.3,301l-2.2,0l0,-1c-0.6,0.8 -1.3,1.1 -2.2,1.1s-1.6,-0.3 -2.2,-0.8c-0.6,-0.5 -0.9,-1.2 -0.9,-2s0.3,-1.5 0.9,-1.9c0.6,-0.4 1.5,-0.6 2.5,-0.6l1.7,0l0,0c0,-0.9 -0.5,-1.3 -1.4,-1.3c-0.4,0 -0.8,0.1 -1.3,0.2c-0.4,0.2 -0.8,0.4 -1.1,0.6l-1,-1.5c1.1,-0.8 2.3,-1.2 3.7,-1.2c1,0 1.8,0.3 2.5,0.8c0.6,0.5 1,1.3 1,2.4l0,5.2zm-2.4,-3.1l0,-0.4l-1.5,0c-0.9,0 -1.4,0.3 -1.4,0.9c0,0.3 0.1,0.5 0.3,0.7s0.5,0.2 0.9,0.2s0.8,-0.1 1.1,-0.4c0.5,-0.3 0.6,-0.6 0.6,-1z" id="svg_47"/>
   <path fill="#444444" d="m154.7,296.4l0,4.6l-2.3,0l0,-8.3l2.3,0l0,0.9c0.7,-0.7 1.5,-1.1 2.4,-1.1c0.9,0 1.6,0.3 2.2,0.9s0.9,1.4 0.9,2.5l0,5.1l-2.3,0l0,-4.7c0,-1.3 -0.5,-1.9 -1.4,-1.9c-0.5,0 -0.9,0.2 -1.2,0.5c-0.4,0.4 -0.6,0.9 -0.6,1.5z" id="svg_48"/>
   <path fill="#444444" d="m164.9,294.4l0,3.7c0,0.3 0.1,0.6 0.2,0.7c0.2,0.2 0.4,0.3 0.6,0.3c0.4,0 0.8,-0.2 1.1,-0.6l0.9,1.6c-0.7,0.7 -1.5,1 -2.3,1s-1.5,-0.3 -2,-0.8c-0.6,-0.5 -0.8,-1.2 -0.8,-2.1l0,-3.8l-1,0l0,-1.7l1,0l0,-2.5l2.3,0l0,2.5l2,0l0,1.7l-2,0l0,0z" id="svg_49"/>
   <path fill="#444444" d="m182.3,299.6c-1.1,1.1 -2.4,1.6 -4,1.6c-1.6,0 -2.9,-0.5 -4,-1.6c-1.1,-1.1 -1.6,-2.4 -1.6,-4s0.5,-2.9 1.6,-4c1.1,-1.1 2.4,-1.6 4,-1.6c1.6,0 2.9,0.5 4,1.6c1.1,1.1 1.6,2.4 1.6,4s-0.5,2.9 -1.6,4zm-0.8,-4c0,-1 -0.3,-1.8 -0.9,-2.5s-1.4,-1 -2.3,-1c-0.9,0 -1.7,0.3 -2.3,1s-0.9,1.5 -0.9,2.5s0.3,1.8 0.9,2.5c0.6,0.7 1.4,1 2.3,1c0.9,0 1.7,-0.3 2.3,-1s0.9,-1.6 0.9,-2.5z" id="svg_50"/>
   <path fill="#444444" d="m188,296.4l0,4.6l-2.3,0l0,-8.3l2.3,0l0,0.9c0.7,-0.7 1.5,-1.1 2.4,-1.1s1.6,0.3 2.2,0.9c0.6,0.6 0.9,1.4 0.9,2.5l0,5.1l-2.3,0l0,-4.7c0,-1.3 -0.5,-1.9 -1.4,-1.9c-0.5,0 -0.9,0.2 -1.2,0.5c-0.4,0.4 -0.6,0.9 -0.6,1.5z" id="svg_51"/>
   <path fill="#444444" d="m202.8,299.8c-0.9,0.9 -2,1.3 -3.3,1.3s-2.3,-0.4 -3.1,-1.2c-0.8,-0.8 -1.2,-1.8 -1.2,-3.1s0.4,-2.3 1.3,-3.1c0.8,-0.8 1.8,-1.2 3,-1.2s2.1,0.3 2.9,1c0.8,0.7 1.2,1.6 1.2,2.8l0,1.2l-6.1,0c0.1,0.5 0.3,0.8 0.7,1.1c0.4,0.3 0.9,0.4 1.4,0.4c0.8,0 1.5,-0.3 2,-0.8l1.2,1.6zm-2.3,-4.9c-0.3,-0.3 -0.7,-0.4 -1.2,-0.4s-0.9,0.1 -1.3,0.4c-0.4,0.3 -0.6,0.7 -0.7,1.1l3.6,0c0.1,-0.4 0,-0.8 -0.4,-1.1z" id="svg_52"/>
  </g>
  <g id="svg_57">
   <path fill="#444444" d="m251.4,319l-1,2.2l-1.8,0l4.3,-9.7l1.8,0l4.3,9.7l-1.8,0l-1,-2.2l-4.8,0zm4.2,-1.5l-1.8,-4l-1.8,4l3.6,0z" id="svg_58"/>
   <path fill="#444444" d="m259.2,313.1c-0.3,-0.1 -0.4,-0.4 -0.4,-0.7s0.1,-0.5 0.2,-0.7c0.2,-0.2 0.4,-0.2 0.6,-0.2s0.5,0.1 0.6,0.2s0.3,0.4 0.3,0.6c0,0.3 -0.1,0.5 -0.2,0.7l-0.8,1.2l-0.8,0l0.5,-1.1z" id="svg_59"/>
  </g>
  <g id="svg_60">
   <path fill="#444444" d="m251.4,392.8l-1,2.2l-1.8,0l4.3,-9.7l1.8,0l4.3,9.7l-1.8,0l-1,-2.2l-4.8,0zm4.2,-1.6l-1.8,-4l-1.8,4l3.6,0z" id="svg_61"/>
  </g>
  <g id="svg_62">
   <g id="svg_63">
    <rect x="30.6" y="367.8" fill="#9D6E80" width="117.6" height="1.4" id="svg_64"/>
   </g>
   <g id="svg_65">
    <g id="svg_66">
     <path fill="#9D6E80" d="m140.9,363.4c-0.2,0.2 -0.1,0.6 0.2,0.7l6.9,4.4l-6.9,4.4c-0.2,0.2 -0.3,0.5 -0.2,0.7c0.1,0.2 0.5,0.3 0.7,0.2l7.6,-4.8c0.2,-0.1 0.2,-0.3 0.2,-0.5c0,-0.2 -0.1,-0.4 -0.2,-0.5l-7.6,-4.8c-0.1,-0.1 -0.2,-0.1 -0.3,-0.1c-0.1,0.1 -0.3,0.2 -0.4,0.3z" id="svg_67"/>
    </g>
   </g>
  </g>
  <g id="svg_68">
   <g id="svg_69">
    <rect x="30.6" y="351.3" fill="#9D6E80" width="117.6" height="1.4" id="svg_70"/>
   </g>
   <g id="svg_71">
    <g id="svg_72">
     <path fill="#9D6E80" d="m140.9,346.8c-0.2,0.2 -0.1,0.6 0.2,0.7l6.9,4.4l-6.9,4.4c-0.2,0.2 -0.3,0.5 -0.2,0.7c0.2,0.2 0.5,0.3 0.7,0.2l7.6,-4.8c0.2,-0.1 0.2,-0.3 0.2,-0.5s-0.1,-0.4 -0.2,-0.5l-7.6,-4.8c-0.1,-0.1 -0.2,-0.1 -0.3,-0.1c-0.1,0.1 -0.3,0.2 -0.4,0.3z" id="svg_73"/>
    </g>
   </g>
  </g>
  <g id="svg_74">
   <g id="svg_75">
    <rect x="30.6" y="334.7" fill="#9D6E80" width="117.6" height="1.4" id="svg_76"/>
   </g>
   <g id="svg_77">
    <g id="svg_78">
     <path fill="#9D6E80" d="m140.9,330.3c-0.2,0.2 -0.1,0.6 0.2,0.7l6.9,4.4l-6.9,4.4c-0.2,0.2 -0.3,0.5 -0.2,0.7c0.2,0.2 0.5,0.3 0.7,0.2l7.6,-4.8c0.2,-0.1 0.2,-0.3 0.2,-0.5s-0.1,-0.4 -0.2,-0.5l-7.6,-4.8c-0.1,-0.1 -0.2,-0.1 -0.3,-0.1c-0.1,0 -0.3,0.1 -0.4,0.3z" id="svg_79"/>
    </g>
   </g>
  </g>
  <g id="svg_80">
   <g id="svg_81">
    <polygon fill="#9D6E80" points="327.70001220703125,381.5 290.6000061035156,315.6000061035156 327.79998779296875,315.70001220703125 327.79998779296875,317.20001220703125 293.29998779296875,317.1000061035156 329.1000061035156,380.70001220703125 " id="svg_82"/>
   </g>
   <g id="svg_83">
    <g id="svg_84">
     <polygon fill="#9D6E80" points="330.6000061035156,375.4000244140625 329.5,375.0999755859375 328.20001220703125,380.70001220703125 322.70001220703125,378.9000244140625 322.3999938964844,380.0999755859375 329,382.20001220703125 " id="svg_85"/>
    </g>
   </g>
   <g id="svg_86">
    <g id="svg_87">
     <polygon fill="#9D6E80" points="323.8999938964844,321.20001220703125 323.1000061035156,320.29998779296875 327.29998779296875,316.3999938964844 323.1000061035156,312.5 323.8999938964844,311.70001220703125 329,316.3999938964844 " id="svg_88"/>
    </g>
   </g>
  </g>
  <g id="svg_98">
   <path d="m270.3,415.5c-0.3,0 -0.5,0.1 -0.7,0.2s-0.3,0.3 -0.3,0.5s0.1,0.4 0.3,0.5c0.2,0.1 0.5,0.2 1.1,0.4c0.6,0.2 1,0.3 1.3,0.6c0.3,0.2 0.4,0.6 0.4,1.1s-0.2,0.9 -0.5,1.1c-0.4,0.3 -0.8,0.4 -1.4,0.4c-0.8,0 -1.6,-0.3 -2.2,-0.9l0.6,-0.7c0.5,0.5 1.1,0.7 1.7,0.7c0.3,0 0.5,-0.1 0.7,-0.2s0.3,-0.3 0.3,-0.5s-0.1,-0.4 -0.2,-0.5s-0.4,-0.2 -0.8,-0.3s-0.7,-0.2 -0.9,-0.3c-0.2,-0.1 -0.4,-0.2 -0.5,-0.3c-0.3,-0.2 -0.5,-0.6 -0.5,-1.1s0.2,-0.9 0.5,-1.2c0.4,-0.3 0.8,-0.4 1.3,-0.4c0.3,0 0.7,0.1 1,0.2s0.6,0.3 0.9,0.5l-0.5,0.7c-0.2,-0.1 -0.4,-0.3 -0.6,-0.4c-0.2,-0.1 -0.7,-0.1 -1,-0.1z" id="svg_99"/>
   <path d="m273.5,415.3c-0.1,-0.1 -0.2,-0.2 -0.2,-0.4c0,-0.2 0.1,-0.3 0.2,-0.4s0.2,-0.2 0.4,-0.2s0.3,0.1 0.4,0.2s0.2,0.2 0.2,0.4c0,0.2 -0.1,0.3 -0.2,0.4s-0.2,0.2 -0.4,0.2s-0.3,-0.1 -0.4,-0.2zm0.8,4.9l-0.9,0l0,-4.1l0.9,0l0,4.1z" id="svg_100"/>
   <path d="m275.9,419.7c-0.4,-0.4 -0.6,-0.9 -0.6,-1.5s0.2,-1.1 0.6,-1.5s0.9,-0.6 1.4,-0.6s1,0.2 1.3,0.7l0,-2.3l0.9,0l0,5.7l-0.9,0l0,-0.6c-0.3,0.5 -0.8,0.7 -1.4,0.7c-0.5,0 -0.9,-0.2 -1.3,-0.6zm0.3,-1.5c0,0.4 0.1,0.7 0.4,1c0.3,0.2 0.5,0.4 0.9,0.4s0.6,-0.1 0.9,-0.4c0.2,-0.2 0.4,-0.6 0.4,-1s-0.1,-0.7 -0.4,-1s-0.5,-0.4 -0.9,-0.4c-0.3,0 -0.6,0.1 -0.9,0.4c-0.3,0.3 -0.4,0.6 -0.4,1z" id="svg_101"/>
   <path d="m284.6,418.5l-3.2,0c0,0.3 0.2,0.5 0.4,0.7c0.3,0.2 0.5,0.3 0.9,0.3c0.5,0 0.9,-0.2 1.2,-0.5l0.5,0.5c-0.4,0.5 -1,0.7 -1.7,0.7c-0.6,0 -1.1,-0.2 -1.5,-0.6c-0.4,-0.4 -0.6,-0.9 -0.6,-1.5c0,-0.6 0.2,-1.2 0.6,-1.5c0.4,-0.3 0.9,-0.6 1.5,-0.6s1,0.2 1.4,0.5s0.6,0.8 0.6,1.4l-0.1,0.6l0,0zm-3.3,-0.6l2.4,0c0,-0.3 -0.1,-0.6 -0.3,-0.8c-0.2,-0.2 -0.5,-0.3 -0.8,-0.3s-0.6,0.1 -0.9,0.3c-0.2,0.2 -0.4,0.4 -0.4,0.8z" id="svg_102"/>
   <path d="m287.3,420.3c-0.6,0 -1.1,-0.2 -1.5,-0.6c-0.4,-0.4 -0.6,-0.9 -0.6,-1.5c0,-0.6 0.2,-1.1 0.6,-1.5c0.4,-0.4 1,-0.6 1.6,-0.6s1.1,0.2 1.6,0.6l-0.5,0.6c-0.4,-0.3 -0.7,-0.5 -1.1,-0.5s-0.7,0.1 -0.9,0.4c-0.2,0.3 -0.4,0.5 -0.4,0.9s0.1,0.7 0.4,1s0.6,0.4 1,0.4s0.7,-0.2 1.1,-0.5l0.5,0.6c-0.5,0.4 -1.1,0.7 -1.8,0.7z" id="svg_103"/>
   <path d="m293.3,420.2l-0.8,0l0,-0.5c-0.3,0.4 -0.8,0.6 -1.4,0.6c-0.4,0 -0.8,-0.1 -1.1,-0.4c-0.3,-0.2 -0.4,-0.6 -0.4,-1s0.1,-0.7 0.4,-0.9c0.3,-0.2 0.7,-0.3 1.2,-0.3l1.1,0l0,-0.2c0,-0.5 -0.3,-0.8 -0.9,-0.8c-0.4,0 -0.8,0.1 -1.2,0.4l-0.4,-0.5c0.5,-0.4 1.1,-0.6 1.7,-0.6c0.5,0 0.9,0.1 1.2,0.4c0.3,0.2 0.5,0.6 0.5,1.2l0.1,2.6l0,0zm-0.9,-1.5l0,-0.3l-1,0c-0.6,0 -0.9,0.2 -0.9,0.6c0,0.2 0.1,0.4 0.2,0.5c0.1,0.1 0.4,0.2 0.6,0.2s0.5,-0.1 0.7,-0.2c0.3,-0.3 0.4,-0.6 0.4,-0.8z" id="svg_104"/>
   <path d="m296.6,416.9c-0.4,0 -0.7,0.1 -1,0.4c-0.2,0.3 -0.3,0.7 -0.3,1.1l0,1.8l-0.9,0l0,-4.1l0.9,0l0,0.8c0.1,-0.3 0.3,-0.5 0.6,-0.6c0.2,-0.2 0.5,-0.2 0.8,-0.3l-0.1,0.9c0.1,0 0,0 0,0z" id="svg_105"/>
  </g>
  <g id="svg_146">
   <g id="svg_147">
    <polygon fill="#9D6E80" points="228,386.29998779296875 172.60000610351562,349.79998779296875 228,320.79998779296875 228.70001220703125,322.20001220703125 175.70001220703125,350 228.79998779296875,385.0999755859375 " id="svg_148"/>
   </g>
   <g id="svg_149">
    <g id="svg_150">
     <path fill="#9D6E80" d="m224.8,376.7c-0.3,0.1 -0.4,0.5 -0.3,0.8l3.6,8.1l-8.9,-0.1c-0.3,0 -0.6,0.3 -0.6,0.6c0,0.3 0.3,0.6 0.6,0.6l9.8,0.2c0.2,0 0.4,-0.1 0.5,-0.3c0.1,-0.2 0.1,-0.4 0,-0.6l-4,-8.9c0,-0.1 -0.1,-0.2 -0.2,-0.2c-0.1,-0.3 -0.3,-0.3 -0.5,-0.2z" id="svg_151"/>
    </g>
   </g>
   <g id="svg_152">
    <g id="svg_153">
     <path fill="#9D6E80" d="m223.9,330.1c-0.3,-0.2 -0.4,-0.5 -0.2,-0.8l4.4,-7.7l-8.8,-0.7c-0.3,0 -0.6,-0.3 -0.5,-0.6c0,-0.3 0.3,-0.6 0.6,-0.5l9.7,0.8c0.2,0 0.4,0.1 0.5,0.3c0.1,0.2 0.1,0.4 0,0.6l-4.9,8.5c-0.1,0.1 -0.1,0.2 -0.2,0.2c-0.2,0 -0.4,0 -0.6,-0.1z" id="svg_154"/>
    </g>
   </g>
  </g>
  <g id="svg_155">
   <rect x="158.7" y="324.9" fill="#452845" width="10.1" height="49.1" id="svg_156"/>
  </g>
  <g id="svg_157">
   <rect x="277" y="369" fill="#452845" width="10.1" height="40.2" id="svg_158"/>
  </g>
  <g id="svg_159">
   <rect x="277" y="296.4" fill="#452845" width="10.1" height="40.2" id="svg_160"/>
  </g>
  <g id="svg_161">
   <g id="svg_162">
    <path fill="#FFFFFF" d="m363.8,409.6l-20.2,0c-5.7,0 -10.4,-4.7 -10.4,-10.4l0,-20.2c0,-5.8 4.7,-10.4 10.4,-10.4l20.2,0c5.7,0 10.4,4.7 10.4,10.4l0,20.2c0.1,5.7 -4.6,10.4 -10.4,10.4z" id="svg_163"/>
    <path fill="#452845" d="m363.8,410.1l-20.2,0c-6,0 -10.9,-4.9 -10.9,-10.9l0,-20.2c0,-6 4.9,-10.9 10.9,-10.9l20.2,0c6,0 10.9,4.9 10.9,10.9l0,20.2c0.1,6 -4.8,10.9 -10.9,10.9zm-20.1,-41c-5.5,0 -9.9,4.5 -9.9,9.9l0,20.2c0,5.5 4.5,9.9 9.9,9.9l20.2,0c5.5,0 9.9,-4.5 9.9,-9.9l0,-20.2c0,-5.5 -4.5,-9.9 -9.9,-9.9l-20.2,0z" id="svg_164"/>
   </g>
  </g>
  <g id="svg_165">
   <g id="svg_166">
    <path fill="#FFFFFF" d="m363.8,337l-20.2,0c-5.7,0 -10.4,-4.7 -10.4,-10.4l0,-20.2c0,-5.8 4.7,-10.4 10.4,-10.4l20.2,0c5.7,0 10.4,4.7 10.4,10.4l0,20.2c0.1,5.8 -4.6,10.4 -10.4,10.4z" id="svg_167"/>
    <path fill="#452845" d="m363.8,337.5l-20.2,0c-6,0 -10.9,-4.9 -10.9,-10.9l0,-20.2c0,-6 4.9,-10.9 10.9,-10.9l20.2,0c6,0 10.9,4.9 10.9,10.9l0,20.2c0.1,6 -4.8,10.9 -10.9,10.9zm-20.1,-41c-5.5,0 -9.9,4.5 -9.9,9.9l0,20.2c0,5.5 4.5,9.9 9.9,9.9l20.2,0c5.5,0 9.9,-4.5 9.9,-9.9l0,-20.2c0,-5.5 -4.5,-9.9 -9.9,-9.9l-20.2,0z" id="svg_168"/>
   </g>
  </g>
  <g id="svg_169">
   <path fill="#444444" d="m354.2,321.2l-4.2,0l0,-9.7l3.8,0c0.7,0 1.2,0.1 1.7,0.2c0.5,0.2 0.8,0.4 1.1,0.6c0.4,0.5 0.7,1.1 0.7,1.7c0,0.8 -0.2,1.3 -0.7,1.7c-0.2,0.1 -0.3,0.2 -0.4,0.2s-0.2,0.1 -0.3,0.2c0.6,0.1 1.1,0.4 1.4,0.8c0.4,0.4 0.5,0.9 0.5,1.5c0,0.7 -0.2,1.3 -0.7,1.8c-0.6,0.7 -1.6,1 -2.9,1zm-2.6,-5.6l2.1,0c1.2,0 1.8,-0.4 1.8,-1.2c0,-0.5 -0.1,-0.8 -0.4,-1s-0.7,-0.3 -1.3,-0.3l-2.1,0l0,2.5l-0.1,0zm0,4.1l2.6,0c0.6,0 1.1,-0.1 1.4,-0.3c0.3,-0.2 0.5,-0.5 0.5,-1.1c0,-0.9 -0.7,-1.3 -2.1,-1.3l-2.4,0l0,2.7z" id="svg_170"/>
   <path fill="#444444" d="m359.4,313.1c-0.3,-0.1 -0.4,-0.4 -0.4,-0.7s0.1,-0.5 0.2,-0.7c0.2,-0.2 0.4,-0.2 0.6,-0.2s0.5,0.1 0.6,0.2s0.3,0.4 0.3,0.6c0,0.3 -0.1,0.5 -0.2,0.7l-0.8,1.2l-0.8,0l0.5,-1.1z" id="svg_171"/>
  </g>
  <g id="svg_172">
   <path fill="#444444" d="m354.2,395l-4.2,0l0,-9.7l3.8,0c0.7,0 1.2,0.1 1.7,0.2c0.5,0.2 0.8,0.4 1.1,0.6c0.4,0.5 0.7,1.1 0.7,1.7c0,0.8 -0.2,1.3 -0.7,1.7c-0.2,0.1 -0.3,0.2 -0.4,0.2s-0.2,0.1 -0.3,0.2c0.6,0.1 1.1,0.4 1.4,0.8c0.4,0.4 0.5,0.9 0.5,1.5c0,0.7 -0.2,1.3 -0.7,1.8c-0.6,0.7 -1.6,1 -2.9,1zm-2.6,-5.7l2.1,0c1.2,0 1.8,-0.4 1.8,-1.2c0,-0.5 -0.1,-0.8 -0.4,-1s-0.7,-0.3 -1.3,-0.3l-2.1,0l0,2.5l-0.1,0zm0,4.1l2.6,0c0.6,0 1.1,-0.1 1.4,-0.3c0.3,-0.2 0.5,-0.5 0.5,-1.1c0,-0.9 -0.7,-1.3 -2.1,-1.3l-2.4,0l0,2.7z" id="svg_173"/>
  </g>
  <g id="svg_174">
   <rect x="377" y="369" fill="#452845" width="10.1" height="40.2" id="svg_175"/>
  </g>
  <g id="svg_176">
   <rect x="377" y="296.4" fill="#452845" width="10.1" height="40.2" id="svg_177"/>
  </g>
  <g id="svg_178">
   <g id="svg_179">
    <path fill="#FFFFFF" d="m463.7,337.7l-20.2,0c-5.7,0 -10.4,-4.7 -10.4,-10.4l0,-20.2c0,-5.8 4.7,-10.4 10.4,-10.4l20.2,0c5.7,0 10.4,4.7 10.4,10.4l0,20.2c0,5.7 -4.7,10.4 -10.4,10.4z" id="svg_180"/>
    <path fill="#452845" d="m463.7,338.2l-20.2,0c-6,0 -10.9,-4.9 -10.9,-10.9l0,-20.2c0,-6 4.9,-10.9 10.9,-10.9l20.2,0c6,0 10.9,4.9 10.9,10.9l0,20.2c0,6 -4.9,10.9 -10.9,10.9zm-20.2,-41c-5.5,0 -9.9,4.5 -9.9,9.9l0,20.2c0,5.5 4.5,9.9 9.9,9.9l20.2,0c5.5,0 9.9,-4.5 9.9,-9.9l0,-20.2c0,-5.5 -4.5,-9.9 -9.9,-9.9l-20.2,0z" id="svg_181"/>
   </g>
  </g>
  <g id="svg_182">
   <path fill="#444444" d="m454.2,319.8c0.6,0 1.1,-0.1 1.5,-0.3c0.4,-0.2 0.8,-0.5 1.3,-0.9l1.1,1.1c-1,1.1 -2.3,1.7 -3.7,1.7s-2.7,-0.5 -3.7,-1.4s-1.5,-2.1 -1.5,-3.6c0,-1.4 0.5,-2.7 1.5,-3.6s2.2,-1.4 3.7,-1.4s2.8,0.6 3.8,1.7l-1,1.1c-0.5,-0.4 -0.9,-0.8 -1.3,-0.9c-0.4,-0.2 -0.9,-0.3 -1.5,-0.3c-1,0 -1.8,0.3 -2.5,1c-0.7,0.7 -1,1.4 -1,2.4s0.3,1.8 1,2.5c0.6,0.5 1.4,0.9 2.3,0.9z" id="svg_183"/>
  </g>
  <g id="svg_184">
   <rect x="476.8" y="297.1" fill="#452845" width="10.1" height="40.2" id="svg_185"/>
  </g>
  <g id="svg_186">
   <g id="svg_187">
    <polygon fill="#9D6E80" points="290.6000061035156,393.20001220703125 327.70001220703125,327.29998779296875 329.1000061035156,328.1000061035156 293.29998779296875,391.70001220703125 327.79998779296875,391.5 327.79998779296875,393.0999755859375 " id="svg_188"/>
   </g>
   <g id="svg_189">
    <g id="svg_190">
     <polygon fill="#9D6E80" points="322.3999938964844,328.70001220703125 322.70001220703125,329.79998779296875 328.20001220703125,328.1000061035156 329.5,333.6000061035156 330.6000061035156,333.3999938964844 329,326.6000061035156 " id="svg_191"/>
    </g>
   </g>
   <g id="svg_192">
    <g id="svg_193">
     <polygon fill="#9D6E80" points="323.8999938964844,397.0999755859375 323.1000061035156,396.20001220703125 327.29998779296875,392.29998779296875 323.1000061035156,388.4000244140625 323.8999938964844,387.5999755859375 329,392.29998779296875 " id="svg_194"/>
    </g>
   </g>
  </g>
  <g id="svg_195">
   <g id="svg_196">
    <polygon fill="#9D6E80" points="426.5,381.5 389.3999938964844,315.6000061035156 426.5,315.70001220703125 426.5,317.20001220703125 392,317.1000061035156 427.79998779296875,380.70001220703125 " id="svg_197"/>
   </g>
   <g id="svg_198">
    <g id="svg_199">
     <polygon fill="#9D6E80" points="429.4000244140625,375.4000244140625 428.29998779296875,375.0999755859375 426.9000244140625,380.70001220703125 421.5,378.9000244140625 421.0999755859375,380.0999755859375 427.79998779296875,382.20001220703125 " id="svg_200"/>
    </g>
   </g>
   <g id="svg_201">
    <g id="svg_202">
     <polygon fill="#9D6E80" points="422.70001220703125,321.20001220703125 421.9000244140625,320.29998779296875 426.0999755859375,316.3999938964844 421.9000244140625,312.5 422.70001220703125,311.70001220703125 427.79998779296875,316.3999938964844 " id="svg_203"/>
    </g>
   </g>
  </g>
  <g id="svg_204">
   <g id="svg_205">
    <polygon fill="#9D6E80" points="389.3999938964844,393.20001220703125 426.5,327.29998779296875 427.79998779296875,328.1000061035156 392,391.70001220703125 426.5,391.5 426.5,393.0999755859375 " id="svg_206"/>
   </g>
   <g id="svg_207">
    <g id="svg_208">
     <polygon fill="#9D6E80" points="421.0999755859375,328.70001220703125 421.5,329.79998779296875 426.9000244140625,328.1000061035156 428.29998779296875,333.6000061035156 429.4000244140625,333.3999938964844 427.79998779296875,326.6000061035156 " id="svg_209"/>
    </g>
   </g>
   <g id="svg_210">
    <g id="svg_211">
     <polygon fill="#9D6E80" points="422.70001220703125,397.0999755859375 421.9000244140625,396.20001220703125 426.0999755859375,392.29998779296875 421.9000244140625,388.4000244140625 422.70001220703125,387.5999755859375 427.79998779296875,392.29998779296875 " id="svg_212"/>
    </g>
   </g>
  </g>
  <g id="svg_213">
   <g id="svg_214">
    <path fill="#9D6E80" d="m276.2,290.1c-4.6,-9.4 -6.7,-19.2 -6.3,-29.3c0.3,-8 2.3,-15.8 5.8,-23.2l1.4,0.7c-3.4,7.2 -5.3,14.8 -5.6,22.6c-0.4,9.8 1.7,19.3 6.2,28.5l-1.5,0.7z" id="svg_215"/>
   </g>
   <g id="svg_216">
    <g id="svg_217">
     <polygon fill="#9D6E80" points="279.5,284.20001220703125 278.3999938964844,283.8999938964844 276.70001220703125,289.29998779296875 271.3999938964844,287.20001220703125 271,288.29998779296875 277.3999938964844,290.8999938964844 " id="svg_218"/>
    </g>
   </g>
  </g>
  <g id="svg_219">
   <g id="svg_220">
    <path fill="#9D6E80" d="m287.2,291.6l-1.4,-0.7c3.5,-7.3 5.4,-14.9 5.7,-22.8c0.4,-9.8 -1.7,-19.3 -6.2,-28.5l1.4,-0.7c4.6,9.4 6.7,19.2 6.3,29.3c-0.3,8 -2.3,15.9 -5.8,23.4z" id="svg_221"/>
   </g>
   <g id="svg_222">
    <g id="svg_223">
     <polygon fill="#9D6E80" points="291.8999938964844,240.70001220703125 291.5,241.79998779296875 286.20001220703125,239.70001220703125 284.5,245.10000610351562 283.3999938964844,244.79998779296875 285.5,238.10000610351562 " id="svg_224"/>
    </g>
   </g>
  </g>
  <g id="svg_225">
   <g id="svg_226">
    <path fill="#9D6E80" d="m378.3,290.5c-4.6,-9.4 -6.7,-19.2 -6.3,-29.3c0.3,-8 2.3,-15.8 5.8,-23.2l1.4,0.7c-3.4,7.2 -5.3,14.8 -5.6,22.6c-0.4,9.8 1.7,19.3 6.2,28.5l-1.5,0.7z" id="svg_227"/>
   </g>
   <g id="svg_228">
    <g id="svg_229">
     <polygon fill="#9D6E80" points="381.70001220703125,284.6000061035156 380.6000061035156,284.29998779296875 378.8999938964844,289.70001220703125 373.6000061035156,287.6000061035156 373.1000061035156,288.70001220703125 379.6000061035156,291.20001220703125 " id="svg_230"/>
    </g>
   </g>
  </g>
  <g id="svg_231">
   <g id="svg_232">
    <path fill="#9D6E80" d="m389.3,291.9l-1.4,-0.7c3.5,-7.3 5.4,-14.9 5.7,-22.8c0.4,-9.8 -1.7,-19.3 -6.2,-28.5l1.4,-0.7c4.6,9.4 6.7,19.2 6.3,29.3c-0.2,8.1 -2.2,16 -5.8,23.4z" id="svg_233"/>
   </g>
   <g id="svg_234">
    <g id="svg_235">
     <polygon fill="#9D6E80" points="394.1000061035156,241.10000610351562 393.70001220703125,242.20001220703125 388.3999938964844,240.10000610351562 386.70001220703125,245.5 385.5,245.10000610351562 387.70001220703125,238.5 " id="svg_236"/>
    </g>
   </g>
  </g>
  <g id="svg_237">
   <g id="svg_238">
    <path fill="#9D6E80" d="m477.4,290.8c-4.6,-9.4 -6.7,-19.2 -6.3,-29.3c0.3,-8 2.3,-15.8 5.8,-23.2l1.4,0.7c-3.4,7.2 -5.3,14.8 -5.6,22.6c-0.4,9.8 1.7,19.3 6.2,28.5l-1.5,0.7z" id="svg_239"/>
   </g>
   <g id="svg_240">
    <g id="svg_241">
     <polygon fill="#9D6E80" points="480.79998779296875,285 479.70001220703125,284.6000061035156 478,290.1000061035156 472.70001220703125,287.8999938964844 472.20001220703125,289 478.70001220703125,291.6000061035156 " id="svg_242"/>
    </g>
   </g>
  </g>
  <g id="svg_243">
   <g id="svg_244">
    <path fill="#9D6E80" d="m488.4,292.3l-1.4,-0.7c3.5,-7.3 5.4,-14.9 5.7,-22.8c0.4,-9.8 -1.7,-19.3 -6.2,-28.5l1.4,-0.7c4.6,9.4 6.7,19.2 6.3,29.3c-0.2,8.1 -2.2,16 -5.8,23.4z" id="svg_245"/>
   </g>
   <g id="svg_246">
    <g id="svg_247">
     <polygon fill="#9D6E80" points="493.20001220703125,241.5 492.79998779296875,242.5 487.5,240.39999389648438 485.70001220703125,245.89999389648438 484.5999755859375,245.5 486.79998779296875,238.89999389648438 " id="svg_248"/>
    </g>
   </g>
  </g>
  <g id="svg_251">
   <g id="svg_252">
    <path fill="#452845" d="m449.3,394c-5.8,0 -10.3,-1.8 -10.3,-4.2c0,-2.3 4.5,-4.2 10.3,-4.2s10.3,1.8 10.3,4.2s-4.5,4.2 -10.3,4.2zm0,-7.5c-5.7,0 -9.5,1.8 -9.5,3.4c0,1.6 3.8,3.4 9.5,3.4s9.5,-1.8 9.5,-3.4c0,-1.7 -3.8,-3.4 -9.5,-3.4z" id="svg_253"/>
   </g>
   <g id="svg_254">
    <path fill="#452845" d="m449.3,409.4c-5.8,0 -10.3,-1.8 -10.3,-4.2l0.8,0c0,1.6 3.8,3.4 9.5,3.4s9.5,-1.8 9.5,-3.4l0.8,0c0,2.4 -4.5,4.2 -10.3,4.2z" id="svg_255"/>
   </g>
   <g id="svg_256">
    <path fill="#452845" d="m470.7,409.4c-5.8,0 -10.3,-1.8 -10.3,-4.2l0.8,0c0,1.6 3.8,3.4 9.5,3.4s9.5,-1.8 9.5,-3.4l0.8,0c0,2.4 -4.5,4.2 -10.3,4.2z" id="svg_257"/>
   </g>
   <g id="svg_258">
    <path fill="#452845" d="m492.1,409.4c-5.8,0 -10.3,-1.8 -10.3,-4.2l0.8,0c0,1.6 3.8,3.4 9.5,3.4c5.7,0 9.5,-1.8 9.5,-3.4l0.8,0c0,2.4 -4.5,4.2 -10.3,4.2z" id="svg_259"/>
   </g>
   <g id="svg_260">
    <path fill="#452845" d="m470.7,394c-5.8,0 -10.3,-1.8 -10.3,-4.2c0,-2.3 4.5,-4.2 10.3,-4.2s10.3,1.8 10.3,4.2s-4.5,4.2 -10.3,4.2zm0,-7.5c-5.7,0 -9.5,1.8 -9.5,3.4c0,1.6 3.8,3.4 9.5,3.4s9.5,-1.8 9.5,-3.4c0,-1.7 -3.8,-3.4 -9.5,-3.4z" id="svg_261"/>
   </g>
   <g id="svg_262">
    <path fill="#452845" d="m492.1,394c-5.8,0 -10.3,-1.8 -10.3,-4.2c0,-2.3 4.5,-4.2 10.3,-4.2c5.8,0 10.3,1.8 10.3,4.2s-4.5,4.2 -10.3,4.2zm0,-7.5c-5.7,0 -9.5,1.8 -9.5,3.4c0,1.6 3.8,3.4 9.5,3.4c5.7,0 9.5,-1.8 9.5,-3.4c0.1,-1.7 -3.8,-3.4 -9.5,-3.4z" id="svg_263"/>
   </g>
   <g id="svg_264">
    <rect x="439" y="389.8" fill="#452845" width="0.8" height="15.4" id="svg_265"/>
   </g>
   <g id="svg_266">
    <rect x="458.8" y="389.8" fill="#452845" width="0.8" height="15.4" id="svg_267"/>
   </g>
   <g id="svg_268">
    <rect x="480.2" y="389.8" fill="#452845" width="0.8" height="15.4" id="svg_269"/>
   </g>
   <g id="svg_270">
    <rect x="501.7" y="389.8" fill="#452845" width="0.8" height="15.4" id="svg_271"/>
   </g>
   <g id="svg_272">
    <rect x="460.4" y="389.8" fill="#452845" width="0.8" height="15.4" id="svg_273"/>
   </g>
   <g id="svg_274">
    <rect x="481.8" y="389.8" fill="#452845" width="0.8" height="15.4" id="svg_275"/>
   </g>
   <g id="svg_276">
    <path fill="#452845" d="m499.6,416.6l0,-0.8l4.7,0l0,0.5l0,0.2l-4.7,0.1l0,0zm-4.8,0l-4.7,0l0,-0.8l4.7,0l0,0.8zm-9.4,0l-4.7,0l0,-0.8l4.7,0l0,0.8zm-9.5,0l-4.7,0l0,-0.8l4.7,0l0,0.8zm-9.4,0l-4.7,0l0,-0.8l4.7,0l0,0.8zm-9.5,0l-4.7,0l0,-0.8l4.7,0l0,0.8zm-9.4,0l-4.7,0l0,-0.8l4.7,0l0,0.8zm-9.5,0l-0.2,0c-1.6,0 -3.2,-0.7 -4.3,-1.9l0.6,-0.5c1,1.1 2.3,1.7 3.7,1.7l0.2,0l0,0.7l0,0zm70.7,-2.2l-0.6,-0.5c0.7,-0.9 1.1,-2 1.1,-3.2l0,-1l0.8,0l0,1c0,1.4 -0.5,2.7 -1.3,3.7zm-75.9,-4.4l-0.8,0l0,-4.7l0.8,0l0,4.7zm77.2,-5l-0.8,0l0,-4.7l0.8,0l0,4.7zm-77.2,-4.4l-0.8,0l0,-4.7l0.8,0l0,4.7zm77.2,-5l-0.8,0l0,-4.7l0.8,0l0,4.7zm-77.2,-4.5l-0.8,0l0,-4.7l0.8,0l0,4.7zm77.2,-5l-0.8,0l0,-0.7c0,-1.2 -0.5,-2.4 -1.3,-3.4l0.6,-0.5c1,1.1 1.5,2.5 1.5,3.9l0,0.7zm-76.1,-3.9l-0.6,-0.5c1.1,-1.3 2.7,-2.1 4.4,-2.1l0,0.8c-1.4,0 -2.8,0.6 -3.8,1.8zm70.1,-1.8l-4.7,0l0,-0.8l4.7,0l0,0.8zm-9.5,0l-4.7,0l0,-0.8l4.7,0l0,0.8zm-9.4,0l-4.7,0l0,-0.8l4.7,0l0,0.8zm-9.5,0l-4.7,0l0,-0.8l4.7,0l0,0.8zm-9.5,0l-4.7,0l0,-0.8l4.7,0l0,0.8zm-9.4,0l-4.7,0l0,-0.8l4.7,0l0,0.8zm-9.5,0l-4.7,0l0,-0.8l4.7,0l0,0.8z" id="svg_277"/>
   </g>
  </g>
  <g id="svg_278">
   <path fill="#EDEDED" d="m681.7,346.5l-112,0c-6.4,0 -11.6,-5.2 -11.6,-11.6l0,-47.9c0,-6.4 5.2,-11.6 11.6,-11.6l112,0c6.4,0 11.6,5.2 11.6,11.6l0,47.9c0,6.4 -5.2,11.6 -11.6,11.6z" id="svg_279"/>
  </g>
  <g id="svg_280">
   <path fill="#444444" d="m586.2,306.9l0,8.7l-2.4,0l0,-8.7l-3.1,0l0,-2.1l8.5,0l0,2.1l-3,0z" id="svg_281"/>
   <path fill="#444444" d="m597.9,314.4c-0.9,0.9 -2,1.3 -3.3,1.3s-2.3,-0.4 -3.1,-1.2c-0.8,-0.8 -1.2,-1.8 -1.2,-3.1s0.4,-2.3 1.3,-3.1s1.8,-1.2 3,-1.2s2.1,0.3 2.9,1c0.8,0.7 1.2,1.6 1.2,2.8l0,1.2l-6.1,0c0.1,0.5 0.3,0.8 0.7,1.1c0.4,0.3 0.9,0.4 1.4,0.4c0.8,0 1.5,-0.3 2,-0.8l1.2,1.6zm-2.2,-4.9c-0.3,-0.3 -0.7,-0.4 -1.2,-0.4s-0.9,0.1 -1.3,0.4c-0.4,0.3 -0.6,0.7 -0.7,1.1l3.6,0c0.1,-0.5 -0.1,-0.9 -0.4,-1.1z" id="svg_282"/>
   <path fill="#444444" d="m602.6,311l0,4.6l-2.3,0l0,-8.3l2.3,0l0,0.9c0.7,-0.7 1.5,-1.1 2.4,-1.1s1.6,0.3 2.2,0.9s0.9,1.4 0.9,2.5l0,5.1l-2.3,0l0,-4.7c0,-1.3 -0.5,-1.9 -1.4,-1.9c-0.5,0 -0.9,0.2 -1.2,0.5c-0.4,0.3 -0.6,0.8 -0.6,1.5z" id="svg_283"/>
   <path fill="#444444" d="m617.2,315.6l-2.2,0l0,-1c-0.6,0.8 -1.3,1.1 -2.2,1.1s-1.6,-0.3 -2.2,-0.8c-0.6,-0.5 -0.9,-1.2 -0.9,-2s0.3,-1.5 0.9,-1.9c0.6,-0.4 1.5,-0.6 2.5,-0.6l1.7,0l0,0c0,-0.9 -0.5,-1.3 -1.4,-1.3c-0.4,0 -0.8,0.1 -1.3,0.2c-0.4,0.2 -0.8,0.4 -1.1,0.6l-1,-1.5c1.1,-0.8 2.3,-1.2 3.7,-1.2c1,0 1.8,0.3 2.5,0.8c0.6,0.5 1,1.3 1,2.4l0,5.2zm-2.3,-3.2l0,-0.4l-1.5,0c-0.9,0 -1.4,0.3 -1.4,0.9c0,0.3 0.1,0.5 0.3,0.7s0.5,0.2 1,0.2s0.8,-0.1 1.1,-0.4c0.3,-0.2 0.5,-0.5 0.5,-1z" id="svg_284"/>
   <path fill="#444444" d="m621.7,311l0,4.6l-2.3,0l0,-8.3l2.3,0l0,0.9c0.7,-0.7 1.5,-1.1 2.4,-1.1s1.6,0.3 2.2,0.9s0.9,1.4 0.9,2.5l0,5.1l-2.3,0l0,-4.7c0,-1.3 -0.5,-1.9 -1.4,-1.9c-0.5,0 -0.9,0.2 -1.2,0.5c-0.5,0.3 -0.6,0.8 -0.6,1.5z" id="svg_285"/>
   <path fill="#444444" d="m631.9,309l0,3.7c0,0.3 0.1,0.6 0.2,0.7c0.2,0.2 0.4,0.3 0.6,0.3c0.4,0 0.8,-0.2 1.1,-0.6l0.9,1.6c-0.7,0.7 -1.5,1 -2.3,1s-1.5,-0.3 -2,-0.8s-0.8,-1.2 -0.8,-2.1l0,-3.8l-1,0l0,-1.7l1,0l0,-2.5l2.3,0l0,2.5l2,0l0,1.7l-2,0z" id="svg_286"/>
   <path fill="#444444" d="m644.8,306.9l0,8.7l-2.4,0l0,-8.7l-3.1,0l0,-2.1l8.5,0l0,2.1l-3,0z" id="svg_287"/>
   <path fill="#444444" d="m652.7,315.6l-2.4,0l-2.8,-8.3l2.4,0l1.6,5l1.6,-5l2.2,0l1.6,5l1.6,-5l2.4,0l-2.8,8.3l-2.4,0l-1.5,-4.5l-1.5,4.5z" id="svg_288"/>
   <path fill="#444444" d="m670.5,311.5c0,1.2 -0.4,2.2 -1.3,3c-0.8,0.8 -1.9,1.2 -3.1,1.2c-1.3,0 -2.3,-0.4 -3.1,-1.2s-1.3,-1.8 -1.3,-3s0.4,-2.2 1.3,-3.1s1.9,-1.2 3.1,-1.2c1.3,0 2.3,0.4 3.1,1.2c0.9,0.8 1.3,1.9 1.3,3.1zm-6.5,0c0,0.7 0.2,1.2 0.6,1.7c0.4,0.4 0.9,0.6 1.5,0.6s1.1,-0.2 1.5,-0.6s0.6,-1 0.6,-1.7s-0.2,-1.2 -0.6,-1.7s-0.9,-0.6 -1.5,-0.6s-1.1,0.2 -1.5,0.6c-0.4,0.4 -0.6,1 -0.6,1.7z" id="svg_289"/>
  </g>
  <g id="svg_290">
   <path fill="#EDEDED" d="m681.7,433.1l-112,0c-6.4,0 -11.6,-5.2 -11.6,-11.6l0,-47.9c0,-6.4 5.2,-11.6 11.6,-11.6l112,0c6.4,0 11.6,5.2 11.6,11.6l0,47.9c0,6.4 -5.2,11.6 -11.6,11.6z" id="svg_291"/>
  </g>
  <g id="svg_292">
   <path fill="#444444" d="m580,393.4l0,8.7l-2.4,0l0,-8.7l-3.1,0l0,-2.1l8.5,0l0,2.1l-3,0z" id="svg_293"/>
   <path fill="#444444" d="m591.8,401c-0.9,0.9 -2,1.3 -3.3,1.3s-2.3,-0.4 -3.1,-1.2c-0.8,-0.8 -1.2,-1.8 -1.2,-3.1c0,-1.3 0.4,-2.3 1.3,-3.1s1.8,-1.2 3,-1.2s2.1,0.3 2.9,1c0.8,0.7 1.2,1.6 1.2,2.8l0,1.2l-6.1,0c0.1,0.5 0.3,0.8 0.7,1.1c0.4,0.3 0.9,0.4 1.4,0.4c0.8,0 1.5,-0.3 2,-0.8l1.2,1.6zm-2.3,-5c-0.3,-0.3 -0.7,-0.4 -1.2,-0.4s-0.9,0.1 -1.3,0.4c-0.4,0.3 -0.6,0.7 -0.7,1.1l3.6,0c0.1,-0.4 -0.1,-0.8 -0.4,-1.1z" id="svg_294"/>
   <path fill="#444444" d="m596.4,397.5l0,4.6l-2.3,0l0,-8.3l2.3,0l0,0.9c0.7,-0.7 1.5,-1.1 2.4,-1.1s1.6,0.3 2.2,0.9s0.9,1.4 0.9,2.5l0,5.1l-2.3,0l0,-4.7c0,-1.3 -0.5,-1.9 -1.4,-1.9c-0.5,0 -0.9,0.2 -1.2,0.5c-0.4,0.4 -0.6,0.9 -0.6,1.5z" id="svg_295"/>
   <path fill="#444444" d="m611,402.2l-2.2,0l0,-1c-0.6,0.8 -1.3,1.1 -2.2,1.1s-1.6,-0.3 -2.2,-0.8c-0.6,-0.5 -0.9,-1.2 -0.9,-2c0,-0.8 0.3,-1.5 0.9,-1.9c0.6,-0.4 1.5,-0.6 2.5,-0.6l1.7,0l0,0c0,-0.9 -0.5,-1.3 -1.4,-1.3c-0.4,0 -0.8,0.1 -1.3,0.2c-0.4,0.2 -0.8,0.4 -1.1,0.6l-1,-1.5c1.1,-0.8 2.3,-1.2 3.7,-1.2c1,0 1.8,0.3 2.5,0.8c0.6,0.5 1,1.3 1,2.4l0,5.2zm-2.3,-3.2l0,-0.4l-1.5,0c-0.9,0 -1.4,0.3 -1.4,0.9c0,0.3 0.1,0.5 0.3,0.7s0.5,0.2 1,0.2s0.8,-0.1 1.1,-0.4c0.3,-0.3 0.5,-0.6 0.5,-1z" id="svg_296"/>
   <path fill="#444444" d="m615.5,397.5l0,4.6l-2.3,0l0,-8.3l2.3,0l0,0.9c0.7,-0.7 1.5,-1.1 2.4,-1.1s1.6,0.3 2.2,0.9s0.9,1.4 0.9,2.5l0,5.1l-2.3,0l0,-4.7c0,-1.3 -0.5,-1.9 -1.4,-1.9c-0.5,0 -0.9,0.2 -1.2,0.5c-0.5,0.4 -0.6,0.9 -0.6,1.5z" id="svg_297"/>
   <path fill="#444444" d="m625.7,395.5l0,3.7c0,0.3 0.1,0.6 0.2,0.7c0.2,0.2 0.4,0.3 0.6,0.3c0.4,0 0.8,-0.2 1.1,-0.6l0.9,1.6c-0.7,0.7 -1.5,1 -2.3,1s-1.5,-0.3 -2,-0.8s-0.8,-1.2 -0.8,-2.1l0,-3.8l-1,0l0,-1.7l1,0l0,-2.5l2.3,0l0,2.5l2,0l0,1.7l-2,0l0,0z" id="svg_298"/>
   <path fill="#444444" d="m638.6,393.4l0,8.7l-2.4,0l0,-8.7l-3.1,0l0,-2.1l8.5,0l0,2.1l-3,0z" id="svg_299"/>
   <path fill="#444444" d="m645.4,397.7l0,4.5l-2.3,0l0,-11.5l2.3,0l0,4.1c0.7,-0.7 1.5,-1.1 2.4,-1.1s1.6,0.3 2.2,0.9c0.6,0.6 0.9,1.4 0.9,2.5l0,5.1l-2.3,0l0,-4.5c0,-1.3 -0.5,-1.9 -1.4,-1.9c-0.5,0 -0.9,0.2 -1.2,0.5c-0.4,0.2 -0.6,0.7 -0.6,1.4z" id="svg_300"/>
   <path fill="#444444" d="m657.3,395.9c-0.7,0 -1.2,0.2 -1.5,0.7s-0.5,1.1 -0.5,1.9l0,3.6l-2.3,0l0,-8.3l2.3,0l0,1.1c0.3,-0.3 0.7,-0.6 1.1,-0.9c0.4,-0.2 0.9,-0.4 1.4,-0.4l0,2.2l-0.5,0.1l0,0z" id="svg_301"/>
   <path fill="#444444" d="m666.5,401c-0.9,0.9 -2,1.3 -3.3,1.3s-2.3,-0.4 -3.1,-1.2c-0.8,-0.8 -1.2,-1.8 -1.2,-3.1c0,-1.3 0.4,-2.3 1.3,-3.1c0.8,-0.8 1.8,-1.2 3,-1.2s2.1,0.3 2.9,1c0.8,0.7 1.2,1.6 1.2,2.8l0,1.2l-6.1,0c0.1,0.5 0.3,0.8 0.7,1.1c0.4,0.3 0.9,0.4 1.4,0.4c0.8,0 1.5,-0.3 2,-0.8l1.2,1.6zm-2.2,-5c-0.3,-0.3 -0.7,-0.4 -1.2,-0.4s-0.9,0.1 -1.3,0.4c-0.4,0.3 -0.6,0.7 -0.7,1.1l3.6,0c0.1,-0.4 -0.1,-0.8 -0.4,-1.1z" id="svg_302"/>
   <path fill="#444444" d="m676.1,401c-0.9,0.9 -2,1.3 -3.3,1.3s-2.3,-0.4 -3.1,-1.2c-0.8,-0.8 -1.2,-1.8 -1.2,-3.1c0,-1.3 0.4,-2.3 1.3,-3.1c0.8,-0.8 1.8,-1.2 3,-1.2c1.1,0 2.1,0.3 2.9,1c0.8,0.7 1.2,1.6 1.2,2.8l0,1.2l-6.1,0c0.1,0.5 0.3,0.8 0.7,1.1c0.4,0.3 0.9,0.4 1.4,0.4c0.8,0 1.5,-0.3 2,-0.8l1.2,1.6zm-2.3,-5c-0.3,-0.3 -0.7,-0.4 -1.2,-0.4s-0.9,0.1 -1.3,0.4c-0.4,0.3 -0.6,0.7 -0.7,1.1l3.6,0c0.1,-0.4 0,-0.8 -0.4,-1.1z" id="svg_303"/>
  </g>
  <text fill="#191919" stroke="#452845" stroke-width="0" x="27.5" y="384.5" id="svg_312" font-size="12" font-family="Helvetica, Arial, sans-serif" text-anchor="start" xml:space="preserve">Requests</text>
  <rect fill="none" stroke-width="2" x="119.666624" y="47.999986" width="79.333316" height="27.999994" id="svg_313" rx="7" stroke="#452845"/>
  <text fill="#191919" stroke="#452845" stroke-width="0" x="126.333289" y="60.66665" id="svg_314" font-size="10" font-family="Helvetica, Arial, sans-serif" text-anchor="start" xml:space="preserve">Version-aware</text>
  <text fill="#191919" stroke="#452845" stroke-width="0" x="125.666623" y="70.666649" id="svg_315" font-size="10" font-family="Helvetica, Arial, sans-serif" text-anchor="start" xml:space="preserve">Load Balancing</text>
  <rect fill="none" stroke-width="2" x="238.333272" y="11" width="63.999982" height="27.999994" id="svg_316" rx="7" stroke="#452845"/>
  <text fill="#191919" stroke="#452845" stroke-width="0" x="248.33327" y="22.666656" id="svg_317" font-size="10" font-family="Helvetica, Arial, sans-serif" text-anchor="start" xml:space="preserve">Red/Black</text>
  <text fill="#191919" stroke="#452845" stroke-width="0" x="244.333271" y="32.666654" id="svg_318" font-size="10" font-family="Helvetica, Arial, sans-serif" text-anchor="start" xml:space="preserve">Deployment</text>
  <rect fill="none" stroke-width="2" x="247.666604" y="48" width="63.999982" height="27.999994" id="svg_319" rx="7" stroke="#452845"/>
  <text fill="#191919" stroke="#452845" stroke-width="0" x="263.666602" y="59.333317" id="svg_320" font-size="10" font-family="Helvetica, Arial, sans-serif" text-anchor="start" xml:space="preserve">Canary</text>
  <text fill="#191919" stroke="#452845" stroke-width="0" x="253.666603" y="69.333315" id="svg_321" font-size="10" font-family="Helvetica, Arial, sans-serif" text-anchor="start" xml:space="preserve">Deployment</text>
  <rect fill="none" stroke-width="2" x="136.999959" y="11.333325" width="63.999982" height="27.999994" id="svg_322" rx="7" stroke="#452845"/>
  <text fill="#191919" stroke="#452845" stroke-width="0" x="144.333291" y="29.333321" id="svg_323" font-size="10" font-family="Helvetica, Arial, sans-serif" text-anchor="start" xml:space="preserve">A/B Testing</text>
  <line fill="none" stroke-opacity="null" fill-opacity="null" x1="242.999973" y1="37.999991" x2="225.666579" y2="119.333306" id="svg_327" stroke-linejoin="null" stroke-linecap="null" stroke-dasharray="5,5" stroke="#452845"/>
  <line fill="none" stroke-opacity="null" fill-opacity="null" x1="249.666601" y1="75.333314" x2="230.333286" y2="118.666641" id="svg_328" stroke-linejoin="null" stroke-linecap="null" stroke-dasharray="5,5" stroke="#452845"/>
  <rect fill="none" stroke-width="2" x="542.999892" y="46.999995" width="63.999982" height="27.999994" id="svg_329" rx="7" stroke="#452845"/>
  <text fill="#191919" stroke="#452845" stroke-width="0" x="552.33322" y="58.999996" id="svg_330" font-size="10" font-family="Helvetica, Arial, sans-serif" text-anchor="start" xml:space="preserve">Resilience</text>
  <text fill="#191919" stroke="#452845" stroke-width="0" x="558.999886" y="69.666661" id="svg_331" font-size="10" font-family="Helvetica, Arial, sans-serif" text-anchor="start" xml:space="preserve">Testing</text>
  <line fill="none" stroke-width="NaN" x1="575.666551" y1="75.999983" x2="575.666551" y2="117.333308" id="svg_332" stroke-linejoin="null" stroke-linecap="null" stroke-dasharray="5,5" stroke="#452845"/>
  <line fill="none" stroke-opacity="null" fill-opacity="null" x1="198.99998" y1="35.999976" x2="220.333204" y2="118.666632" id="svg_336" stroke-linejoin="null" stroke-linecap="null" stroke-dasharray="5,5" transform="rotate(180 209.66659545898438,77.33329772949219) " stroke="#452845"/>
  <line fill="none" stroke-opacity="null" fill-opacity="null" x1="192.333272" y1="75.333314" x2="216.999948" y2="119.333308" id="svg_337" stroke-linejoin="null" stroke-linecap="null" stroke-dasharray="5,5" stroke="#452845"/>
  <rect rx="7" stroke="#000000" id="svg_89" height="34" width="621.000055" y="458.5" x="82.499972" stroke-width="0" fill="#EDEDED"/>
  <text xml:space="preserve" text-anchor="start" font-family="Helvetica, Arial, sans-serif" font-size="20" id="svg_90" y="482.5" x="113.5" stroke-width="0" stroke="#000000" fill="#333333">Container Platform (K8s, Docker, Mesos, Bluemix, Google, etc.)</text>
 </g>
</svg>