<svg width="362" height="322" xmlns="http://www.w3.org/2000/svg" clip-rule="evenodd">
 <desc>SVG generated by Keynote</desc>

 <g>
  <title>background</title>
  <rect fill="none" id="canvas_background" height="324" width="364" y="-1" x="-1"/>
 </g>
 <g>
  <title>Layer 1</title>
  <path id="svg_3" fill="#FFFFFF" d="m132.385892,282.335499l0,-92.19218c0,-12.77443 10.752393,-23.115635 23.964483,-23.115635l149.05768,0c13.21209,0 23.964483,10.341205 23.964483,23.115635l0,92.19218c0,12.70684 -10.752393,23.048045 -23.964483,23.048045l-149.05768,0c-13.21209,0 -23.964483,-10.341205 -23.964483,-23.048045zm0,0"/>
  <path id="svg_4" stroke-linejoin="round" stroke="#000000" fill="none" d="m132.385892,282.267909l0,-92.19218c0,-12.70684 10.752393,-23.048045 23.964483,-23.048045l149.05768,0c13.21209,0 23.964483,10.341205 23.964483,23.048045l0,92.19218c0,12.70684 -10.752393,23.048045 -23.964483,23.048045l-149.05768,0c-13.21209,0 -23.964483,-10.341205 -23.964483,-23.048045zm0,0"/>
  <path id="svg_5" fill="#FFFFFF" d="m132.385892,107.819216l0,-46.366448c0,-6.35342 5.411335,-11.557817 12.01738,-11.557817l172.881609,0c6.676322,0 12.087657,5.204397 12.087657,11.557817l0,46.366448c0,6.42101 -5.411335,11.625407 -12.087657,11.625407l-172.881609,0c-6.606045,0 -12.01738,-5.204397 -12.01738,-11.625407zm0,0"/>
  <path id="svg_6" stroke-linejoin="round" stroke="#000000" fill="none" d="m132.385892,107.819216l0,-46.366448c0,-6.35342 5.411335,-11.557817 12.01738,-11.557817l172.881609,0c6.676322,0 12.087657,5.204397 12.087657,11.557817l0,46.366448c0,6.42101 -5.411335,11.625407 -12.087657,11.625407l-172.881609,0c-6.606045,0 -12.01738,-5.204397 -12.01738,-11.625407zm0,0"/>
  <text id="svg_7" transform="matrix(0.7027707695960999,0,0,0.6758957505226135,147.28463238477707,282.20031946897507) " fill="#000000" font-size="16" font-family="Helvetica" xml:space="preserve">T</text>
  <text id="svg_8" transform="matrix(0.7027707695960999,0,0,0.6758957505226135,152.90679854154587,282.20031946897507) " fill="#000000" font-size="16" font-family="Helvetica" xml:space="preserve">e</text>
  <text id="svg_9" transform="matrix(0.7027707695960999,0,0,0.6758957505226135,159.16145839095117,282.20031946897507) " fill="#000000" font-size="16" font-family="Helvetica" xml:space="preserve">n</text>
  <text id="svg_10" transform="matrix(0.7027707695960999,0,0,0.6758957505226135,165.41611824035644,282.20031946897507) " fill="#000000" font-size="16" font-family="Helvetica" xml:space="preserve">a</text>
  <text id="svg_11" transform="matrix(0.7027707695960999,0,0,0.6758957505226135,171.67077808976174,282.20031946897507) " fill="#000000" font-size="16" font-family="Helvetica" xml:space="preserve">n</text>
  <text id="svg_12" transform="matrix(0.7027707695960999,0,0,0.6758957505226135,177.925437939167,282.20031946897507) " fill="#000000" font-size="16" font-family="Helvetica" xml:space="preserve">t</text>
  <text id="svg_13" transform="matrix(0.7027707695960999,0,0,0.6758957505226135,181.01762932538986,282.20031946897507) " fill="#000000" font-size="16" font-family="Helvetica" xml:space="preserve"/>
  <text id="svg_14" transform="matrix(0.7027707695960999,0,0,0.6758957505226135,147.28463238477707,295.0423387289047) " fill="#000000" font-size="16" font-family="Helvetica" xml:space="preserve">(</text>
  <text id="svg_15" transform="matrix(0.7027707695960999,0,0,0.6758957505226135,151.0093174636364,295.0423387289047) " fill="#000000" font-size="16" font-family="Helvetica" xml:space="preserve">W</text>
  <text id="svg_16" transform="matrix(0.7027707695960999,0,0,0.6758957505226135,161.41032485365866,295.0423387289047) " fill="#000000" font-size="16" font-family="Helvetica" xml:space="preserve">e</text>
  <text id="svg_17" transform="matrix(0.7027707695960999,0,0,0.6758957505226135,167.66498470306396,295.0423387289047) " fill="#000000" font-size="16" font-family="Helvetica" xml:space="preserve">a</text>
  <text id="svg_18" transform="matrix(0.7027707695960999,0,0,0.6758957505226135,173.91964455246926,295.0423387289047) " fill="#000000" font-size="16" font-family="Helvetica" xml:space="preserve">v</text>
  <text id="svg_19" transform="matrix(0.7027707695960999,0,0,0.6758957505226135,179.54181070923806,295.0423387289047) " fill="#000000" font-size="16" font-family="Helvetica" xml:space="preserve">e</text>
  <text id="svg_20" transform="matrix(0.7027707695960999,0,0,0.6758957505226135,185.86674763560293,295.0423387289047) " fill="#000000" font-size="16" font-family="Helvetica" xml:space="preserve"/>
  <text id="svg_21" transform="matrix(0.7027707695960999,0,0,0.6758957505226135,188.95893902182578,295.0423387289047) " fill="#000000" font-size="16" font-family="Helvetica" xml:space="preserve">F</text>
  <text id="svg_22" transform="matrix(0.7027707695960999,0,0,0.6758957505226135,195.8460925638676,295.0423387289047) " fill="#000000" font-size="16" font-family="Helvetica" xml:space="preserve">l</text>
  <text id="svg_23" transform="matrix(0.7027707695960999,0,0,0.6758957505226135,198.30579025745394,295.0423387289047) " fill="#000000" font-size="16" font-family="Helvetica" xml:space="preserve">u</text>
  <text id="svg_24" transform="matrix(0.7027707695960999,0,0,0.6758957505226135,204.5604501068592,295.0423387289047) " fill="#000000" font-size="16" font-family="Helvetica" xml:space="preserve">x</text>
  <text id="svg_25" transform="matrix(0.7027707695960999,0,0,0.6758957505226135,210.182616263628,295.0423387289047) " fill="#000000" font-size="16" font-family="Helvetica" xml:space="preserve">)</text>
  <text id="svg_26" transform="matrix(0.7027707695960999,0,0,0.6758957505226135,143.77077853679657,65.23778355121613) " fill="#000000" font-size="16" font-family="Helvetica" xml:space="preserve">C</text>
  <text id="svg_27" transform="matrix(0.7027707695960999,0,0,0.6758957505226135,151.92291946411132,65.23778355121613) " fill="#000000" font-size="16" font-family="Helvetica" xml:space="preserve">o</text>
  <text id="svg_28" transform="matrix(0.7027707695960999,0,0,0.6758957505226135,158.17757931351662,65.23778355121613) " fill="#000000" font-size="16" font-family="Helvetica" xml:space="preserve">n</text>
  <text id="svg_29" transform="matrix(0.7027707695960999,0,0,0.6758957505226135,164.43223916292192,65.23778355121613) " fill="#000000" font-size="16" font-family="Helvetica" xml:space="preserve">t</text>
  <text id="svg_30" transform="matrix(0.7027707695960999,0,0,0.6758957505226135,167.52443054914474,65.23778355121613) " fill="#000000" font-size="16" font-family="Helvetica" xml:space="preserve">r</text>
  <text id="svg_31" transform="matrix(0.7027707695960999,0,0,0.6758957505226135,171.24911562800406,65.23778355121613) " fill="#000000" font-size="16" font-family="Helvetica" xml:space="preserve">o</text>
  <text id="svg_32" transform="matrix(0.7027707695960999,0,0,0.6758957505226135,177.50377547740936,65.23778355121613) " fill="#000000" font-size="16" font-family="Helvetica" xml:space="preserve">l</text>
  <text id="svg_33" transform="matrix(0.7027707695960999,0,0,0.6758957505226135,180.03375024795534,65.23778355121613) " fill="#000000" font-size="16" font-family="Helvetica" xml:space="preserve"/>
  <text id="svg_34" transform="matrix(0.7027707695960999,0,0,0.6758957505226135,183.12594163417816,65.23778355121613) " fill="#000000" font-size="16" font-family="Helvetica" xml:space="preserve">P</text>
  <text id="svg_35" transform="matrix(0.7027707695960999,0,0,0.6758957505226135,190.64558886885644,65.23778355121613) " fill="#000000" font-size="16" font-family="Helvetica" xml:space="preserve">l</text>
  <text id="svg_36" transform="matrix(0.7027707695960999,0,0,0.6758957505226135,193.17556363940238,65.23778355121613) " fill="#000000" font-size="16" font-family="Helvetica" xml:space="preserve">a</text>
  <text id="svg_37" transform="matrix(0.7027707695960999,0,0,0.6758957505226135,199.43022348880768,65.23778355121613) " fill="#000000" font-size="16" font-family="Helvetica" xml:space="preserve">n</text>
  <text id="svg_38" transform="matrix(0.7027707695960999,0,0,0.6758957505226135,205.68488333821298,65.23778355121613) " fill="#000000" font-size="16" font-family="Helvetica" xml:space="preserve">e</text>
  <g transform="matrix(0.7027707695960999,0,0,-0.6758957505226135,-0.29722923040390015,413.3240950703621) " id="svg_39">
   <clipPath id="clip-298">
    <path id="svg_40" d="m444.7,506.8l0,-59.6l-229.2,0l0,59.6l229.2,0zm0,0"/>
   </clipPath>
   <g id="svg_41" clip-path="url(#clip-298)">
    <path id="svg_42" fill="#FFFFFF" d="m226.5,504.6l207.2,0c4.9,0 8.9,-4 8.9,-8.9l0,-37.5c0,-4.9 -4,-8.9 -8.9,-8.9l-207.2,0c-4.9,0 -8.9,4 -8.9,8.9l0,37.5c0,4.9 4,8.9 8.9,8.9zm0,0"/>
    <path id="svg_43" stroke-linejoin="round" stroke-width="2.25" stroke="#9D6E80" fill="none" d="m226.5,504.6l207.2,0c4.9,0 8.9,-4 8.9,-8.9l0,-37.5c0,-4.9 -4,-8.9 -8.9,-8.9l-207.2,0c-4.9,0 -8.9,4 -8.9,8.9l0,37.5c0,4.9 4,8.9 8.9,8.9zm0,0"/>
   </g>
  </g>
  <g transform="matrix(0.7027707695960999,0,0,-0.6758957505226135,-0.29722923040390015,413.3240950703621) " id="svg_44">
   <clipPath id="clip-299">
    <path id="svg_45" d="m220.2,457.2l219.8,0l0,39.5l-219.8,0l0,-39.5zm0,0"/>
   </clipPath>
   <g id="svg_46" clip-path="url(#clip-299)">
    <text id="svg_47" transform="matrix(1,0,0,-1,224,479) " fill="#000000" font-size="14" font-family="Helvetica" xml:space="preserve">A</text>
    <text id="svg_48" transform="matrix(1,0,0,-1,233.3,479) " fill="#000000" font-size="14" font-family="Helvetica" xml:space="preserve">m</text>
    <text id="svg_49" transform="matrix(1,0,0,-1,245,479) " fill="#000000" font-size="14" font-family="Helvetica" xml:space="preserve">a</text>
    <text id="svg_50" transform="matrix(1,0,0,-1,252.8,479) " fill="#000000" font-size="14" font-family="Helvetica" xml:space="preserve">l</text>
    <text id="svg_51" transform="matrix(1,0,0,-1,255.9,479) " fill="#000000" font-size="14" font-family="Helvetica" xml:space="preserve">g</text>
    <text id="svg_52" transform="matrix(1,0,0,-1,263.7,479) " fill="#000000" font-size="14" font-family="Helvetica" xml:space="preserve">a</text>
    <text id="svg_53" transform="matrix(1,0,0,-1,271.5,479) " fill="#000000" font-size="14" font-family="Helvetica" xml:space="preserve">m</text>
    <text id="svg_54" transform="matrix(1,0,0,-1,283.1,479) " fill="#000000" font-size="14" font-family="Helvetica" xml:space="preserve">8</text>
    <text id="svg_55" transform="matrix(1,0,0,-1,290.9,479) " fill="#000000" font-size="14" font-family="Helvetica" xml:space="preserve"/>
    <text id="svg_56" transform="matrix(1,0,0,-1,224,464) " fill="#000000" font-size="14" font-family="Helvetica" xml:space="preserve">R</text>
    <text id="svg_57" transform="matrix(1,0,0,-1,234.1,464) " fill="#000000" font-size="14" font-family="Helvetica" xml:space="preserve">e</text>
    <text id="svg_58" transform="matrix(1,0,0,-1,241.9,464) " fill="#000000" font-size="14" font-family="Helvetica" xml:space="preserve">g</text>
    <text id="svg_59" transform="matrix(1,0,0,-1,249.7,464) " fill="#000000" font-size="14" font-family="Helvetica" xml:space="preserve">i</text>
    <text id="svg_60" transform="matrix(1,0,0,-1,252.8,464) " fill="#000000" font-size="14" font-family="Helvetica" xml:space="preserve">s</text>
    <text id="svg_61" transform="matrix(1,0,0,-1,259.8,464) " fill="#000000" font-size="14" font-family="Helvetica" xml:space="preserve">t</text>
    <text id="svg_62" transform="matrix(1,0,0,-1,263.7,464) " fill="#000000" font-size="14" font-family="Helvetica" xml:space="preserve">r</text>
    <text id="svg_63" transform="matrix(1,0,0,-1,268.4,464) " fill="#000000" font-size="14" font-family="Helvetica" xml:space="preserve">y</text>
   </g>
  </g>
  <g transform="matrix(0.7027707695960999,0,0,-0.6758957505226135,-0.29722923040390015,413.3240950703621) " id="svg_64">
   <clipPath id="clip-300">
    <path id="svg_65" d="m216.2,249.6l73,0l0,73.5l-73,0l0,-73.5zm0,0"/>
   </clipPath>
   <g id="svg_66" clip-path="url(#clip-300)">
    <path id="svg_67" fill="#FFFFFF" d="m217.6,262.7l0,47.3c0,6.5 5.2,11.7 11.7,11.7l46.8,0c6.4,0 11.7,-5.2 11.7,-11.7l0,-47.3c0,-6.5 -5.3,-11.7 -11.7,-11.7l-46.8,0c-6.5,0 -11.7,5.2 -11.7,11.7zm0,0"/>
    <path id="svg_68" stroke-linejoin="round" stroke-width="0.75" stroke="#442845" fill="none" d="m217.6,262.7l0,47.3c0,6.5 5.2,11.7 11.7,11.7l46.8,0c6.4,0 11.7,-5.2 11.7,-11.7l0,-47.3c0,-6.5 -5.3,-11.7 -11.7,-11.7l-46.8,0c-6.5,0 -11.7,5.2 -11.7,11.7zm0,0"/>
   </g>
  </g>
  <g transform="matrix(0.7027707695960999,0,0,-0.6758957505226135,-0.29722923040390015,413.3240950703621) " id="svg_69">
   <clipPath id="clip-301">
    <path id="svg_70" d="m219.6,269.4l66.2,0l0,34l-66.2,0l0,-34zm0,0"/>
   </clipPath>
   <g id="svg_71" clip-path="url(#clip-301)">
    <text id="svg_72" transform="matrix(1,0,0,-1,245,279) " fill="#000000" font-size="20" font-family="Helvetica" xml:space="preserve">C</text>
   </g>
  </g>
  <path id="svg_73" stroke-linejoin="round" stroke-width="2.25" stroke="#9D6E80" fill="none" d="m286.433245,105.453581l0,142.073287l0,0.743485"/>
  <path id="svg_74" fill="#9D6E80" d="m286.433245,252.393317l4.427456,-7.367264l0,0c0.281108,-0.473127 0.140554,-1.081433 -0.351385,-1.351792c-0.49194,-0.270358 -1.124433,-0.06759 -1.405542,0.337948l-2.670529,4.528502l-2.740806,-4.528502l0,0c-0.281108,-0.405537 -0.913602,-0.608306 -1.405542,-0.337948c-0.49194,0.270358 -0.632494,0.878664 -0.351385,1.351792c0,0 0,0 0,0l4.497733,7.367264zm0,0"/>
  <text id="svg_75" transform="matrix(0.7027707695960999,0,0,0.6758957505226135,289.24432784318924,140.93810760974884) " fill="#000000" font-size="14" font-family="Helvetica" xml:space="preserve">W</text>
  <text id="svg_76" transform="matrix(0.7027707695960999,0,0,0.6758957505226135,298.1695166170597,140.93810760974884) " fill="#000000" font-size="14" font-family="Helvetica" xml:space="preserve">a</text>
  <text id="svg_77" transform="matrix(0.7027707695960999,0,0,0.6758957505226135,303.6511286199093,140.93810760974884) " fill="#000000" font-size="14" font-family="Helvetica" xml:space="preserve">t</text>
  <text id="svg_78" transform="matrix(0.7027707695960999,0,0,0.6758957505226135,306.3919346213341,140.93810760974884) " fill="#000000" font-size="14" font-family="Helvetica" xml:space="preserve">c</text>
  <text id="svg_79" transform="matrix(0.7027707695960999,0,0,0.6758957505226135,311.3113300085068,140.93810760974884) " fill="#000000" font-size="14" font-family="Helvetica" xml:space="preserve">h</text>
  <text id="svg_80" transform="matrix(0.7027707695960999,0,0,0.6758957505226135,316.79294201135633,140.93810760974884) " fill="#000000" font-size="14" font-family="Helvetica" xml:space="preserve"/>
  <text id="svg_81" transform="matrix(0.7027707695960999,0,0,0.6758957505226135,289.24432784318924,152.42833536863327) " fill="#000000" font-size="14" font-family="Helvetica" xml:space="preserve">E</text>
  <text id="svg_82" transform="matrix(0.7027707695960999,0,0,0.6758957505226135,295.780096000433,152.42833536863327) " fill="#000000" font-size="14" font-family="Helvetica" xml:space="preserve">n</text>
  <text id="svg_83" transform="matrix(0.7027707695960999,0,0,0.6758957505226135,301.26170800328254,152.42833536863327) " fill="#000000" font-size="14" font-family="Helvetica" xml:space="preserve">d</text>
  <text id="svg_84" transform="matrix(0.7027707695960999,0,0,0.6758957505226135,306.74332000613214,152.42833536863327) " fill="#000000" font-size="14" font-family="Helvetica" xml:space="preserve">p</text>
  <text id="svg_85" transform="matrix(0.7027707695960999,0,0,0.6758957505226135,312.2249320089817,152.42833536863327) " fill="#000000" font-size="14" font-family="Helvetica" xml:space="preserve">o</text>
  <text id="svg_86" transform="matrix(0.7027707695960999,0,0,0.6758957505226135,317.7065440118313,152.42833536863327) " fill="#000000" font-size="14" font-family="Helvetica" xml:space="preserve">i</text>
  <text id="svg_87" transform="matrix(0.7027707695960999,0,0,0.6758957505226135,319.8851333975792,152.42833536863327) " fill="#000000" font-size="14" font-family="Helvetica" xml:space="preserve">n</text>
  <text id="svg_88" transform="matrix(0.7027707695960999,0,0,0.6758957505226135,325.3667454004288,152.42833536863327) " fill="#000000" font-size="14" font-family="Helvetica" xml:space="preserve">t</text>
  <text id="svg_89" transform="matrix(0.7027707695960999,0,0,0.6758957505226135,328.1075514018536,152.42833536863327) " fill="#000000" font-size="14" font-family="Helvetica" xml:space="preserve">s</text>
  <g transform="matrix(0.7027707695960999,0,0,-0.6758957505226135,-0.29722923040390015,413.3240950703621) " id="svg_90">
   <clipPath id="clip-302">
    <path id="svg_91" d="m369.2,171.6l76.3,0l0,66.1l-76.3,0l0,-66.1zm0,0"/>
   </clipPath>
   <g id="svg_92" clip-path="url(#clip-302)">
    <path id="svg_93" fill="#4E81BD" d="m370.2,183.3l0,42.7c0,5.9 4.8,10.7 10.7,10.7l52.9,0c5.9,0 10.7,-4.8 10.7,-10.7l0,-42.7c0,-5.9 -4.8,-10.7 -10.7,-10.7l-52.9,0c-5.9,0 -10.7,4.8 -10.7,10.7zm0,0"/>
   </g>
  </g>
  <g transform="matrix(0.7027707695960999,0,0,-0.6758957505226135,-0.29722923040390015,413.3240950703621) " id="svg_94">
   <clipPath id="clip-303">
    <path id="svg_95" d="m373.3,192.6l68.1,0l0,24.2l-68.1,0l0,-24.2zm0,0"/>
   </clipPath>
   <g id="svg_96" clip-path="url(#clip-303)">
    <text id="svg_97" transform="matrix(1,0,0,-1,393,199) " fill="#FFFFFF" font-size="14" font-family="Helvetica" xml:space="preserve">E</text>
    <text id="svg_98" transform="matrix(1,0,0,-1,402.3,199) " fill="#FFFFFF" font-size="14" font-family="Helvetica" xml:space="preserve">t</text>
    <text id="svg_99" transform="matrix(1,0,0,-1,406.2,199) " fill="#FFFFFF" font-size="14" font-family="Helvetica" xml:space="preserve">c</text>
    <text id="svg_100" transform="matrix(1,0,0,-1,413.2,199) " fill="#FFFFFF" font-size="14" font-family="Helvetica" xml:space="preserve">d</text>
   </g>
  </g>
  <g transform="matrix(0.7027707695960999,0,0,-0.6758957505226135,-0.29722923040390015,413.3240950703621) " id="svg_101">
   <clipPath id="clip-304">
    <path id="svg_102" d="m340.4,454.5l97.6,0l0,45.8l-97.6,0l0,-45.8zm0,0"/>
   </clipPath>
   <g id="svg_103" clip-path="url(#clip-304)">
    <path id="svg_104" fill="#4E81BD" d="m341.4,462.8l0,29.2c0,4.1 3.3,7.3 7.3,7.3l81,0c4,0 7.3,-3.2 7.3,-7.3l0,-29.2c0,-4.1 -3.3,-7.3 -7.3,-7.3l-81,0c-4,0 -7.3,3.2 -7.3,7.3zm0,0"/>
   </g>
  </g>
  <g transform="matrix(0.7027707695960999,0,0,-0.6758957505226135,-0.29722923040390015,413.3240950703621) " id="svg_105">
   <clipPath id="clip-305">
    <path id="svg_106" d="m343.6,456.8l91.3,0l0,41.2l-91.3,0l0,-41.2zm0,0"/>
   </clipPath>
   <g id="svg_107" clip-path="url(#clip-305)">
    <text id="svg_108" transform="matrix(1,0,0,-1,351,481) " fill="#FFFFFF" font-size="14" font-family="Helvetica" xml:space="preserve">F</text>
    <text id="svg_109" transform="matrix(1,0,0,-1,359.5,481) " fill="#FFFFFF" font-size="14" font-family="Helvetica" xml:space="preserve">l</text>
    <text id="svg_110" transform="matrix(1,0,0,-1,362.7,481) " fill="#FFFFFF" font-size="14" font-family="Helvetica" xml:space="preserve">u</text>
    <text id="svg_111" transform="matrix(1,0,0,-1,370.5,481) " fill="#FFFFFF" font-size="14" font-family="Helvetica" xml:space="preserve">x</text>
    <text id="svg_112" transform="matrix(1,0,0,-1,377.5,481) " fill="#FFFFFF" font-size="14" font-family="Helvetica" xml:space="preserve"/>
    <text id="svg_113" transform="matrix(1,0,0,-1,381.3,481) " fill="#FFFFFF" font-size="14" font-family="Helvetica" xml:space="preserve">r</text>
    <text id="svg_114" transform="matrix(1,0,0,-1,386,481) " fill="#FFFFFF" font-size="14" font-family="Helvetica" xml:space="preserve">e</text>
    <text id="svg_115" transform="matrix(1,0,0,-1,393.8,481) " fill="#FFFFFF" font-size="14" font-family="Helvetica" xml:space="preserve">g</text>
    <text id="svg_116" transform="matrix(1,0,0,-1,401.6,481) " fill="#FFFFFF" font-size="14" font-family="Helvetica" xml:space="preserve">i</text>
    <text id="svg_117" transform="matrix(1,0,0,-1,404.7,481) " fill="#FFFFFF" font-size="14" font-family="Helvetica" xml:space="preserve">s</text>
    <text id="svg_118" transform="matrix(1,0,0,-1,411.7,481) " fill="#FFFFFF" font-size="14" font-family="Helvetica" xml:space="preserve">t</text>
    <text id="svg_119" transform="matrix(1,0,0,-1,415.6,481) " fill="#FFFFFF" font-size="14" font-family="Helvetica" xml:space="preserve">r</text>
    <text id="svg_120" transform="matrix(1,0,0,-1,420.2,481) " fill="#FFFFFF" font-size="14" font-family="Helvetica" xml:space="preserve">y</text>
    <text id="svg_121" transform="matrix(1,0,0,-1,427.2,481) " fill="#FFFFFF" font-size="14" font-family="Helvetica" xml:space="preserve"/>
    <text id="svg_122" transform="matrix(1,0,0,-1,365,464) " fill="#FFFFFF" font-size="14" font-family="Helvetica" xml:space="preserve">a</text>
    <text id="svg_123" transform="matrix(1,0,0,-1,372.8,464) " fill="#FFFFFF" font-size="14" font-family="Helvetica" xml:space="preserve">d</text>
    <text id="svg_124" transform="matrix(1,0,0,-1,380.6,464) " fill="#FFFFFF" font-size="14" font-family="Helvetica" xml:space="preserve">a</text>
    <text id="svg_125" transform="matrix(1,0,0,-1,388.4,464) " fill="#FFFFFF" font-size="14" font-family="Helvetica" xml:space="preserve">p</text>
    <text id="svg_126" transform="matrix(1,0,0,-1,396.2,464) " fill="#FFFFFF" font-size="14" font-family="Helvetica" xml:space="preserve">t</text>
    <text id="svg_127" transform="matrix(1,0,0,-1,400,464) " fill="#FFFFFF" font-size="14" font-family="Helvetica" xml:space="preserve">e</text>
    <text id="svg_128" transform="matrix(1,0,0,-1,407.8,464) " fill="#FFFFFF" font-size="14" font-family="Helvetica" xml:space="preserve">r</text>
   </g>
  </g>
  <g transform="matrix(0.7027707695960999,0,0,-0.6758957505226135,-0.29722923040390015,413.3240950703621) " id="svg_129">
   <clipPath id="clip-306">
    <path id="svg_130" d="m383.8,343.6l0,-56.9l-65.9,0l0,56.9l65.9,0zm0,0"/>
   </clipPath>
   <g id="svg_131" clip-path="url(#clip-306)">
    <path id="svg_132" fill="#8DB3E2" d="m326.4,342.1l48.9,0c3.9,0 7,-3.1 7,-6.9l0,-40.1c0,-3.8 -3.1,-6.9 -7,-6.9l-48.9,0c-3.9,0 -7,3.1 -7,6.9l0,40.1c0,3.8 3.1,6.9 7,6.9zm0,0"/>
    <path id="svg_133" stroke-dasharray="4.0, 3.0" stroke-linejoin="round" stroke="#000000" fill="none" d="m326.4,342.1l48.9,0c3.9,0 7,-3.1 7,-7l0,-40c0,-3.8 -3.1,-6.9 -7,-6.9l-48.9,0c-3.9,0 -7,3.1 -7,6.9l0,40c0,3.9 3.1,7 7,7zm0,0"/>
   </g>
  </g>
  <g transform="matrix(0.7027707695960999,0,0,-0.6758957505226135,-0.29722923040390015,413.3240950703621) " id="svg_134">
   <clipPath id="clip-307">
    <path id="svg_135" d="m321.5,297.6l58.8,0l0,35.2l-58.8,0l0,-35.2zm0,0"/>
   </clipPath>
   <g id="svg_136" clip-path="url(#clip-307)">
    <text id="svg_137" transform="matrix(1,0,0,-1,336,318) " fill="#000000" font-size="12" font-family="Helvetica" xml:space="preserve">f</text>
    <text id="svg_138" transform="matrix(1,0,0,-1,339.3,318) " fill="#000000" font-size="12" font-family="Helvetica" xml:space="preserve">l</text>
    <text id="svg_139" transform="matrix(1,0,0,-1,342,318) " fill="#000000" font-size="12" font-family="Helvetica" xml:space="preserve">u</text>
    <text id="svg_140" transform="matrix(1,0,0,-1,348.7,318) " fill="#000000" font-size="12" font-family="Helvetica" xml:space="preserve">x</text>
    <text id="svg_141" transform="matrix(1,0,0,-1,354.7,318) " fill="#000000" font-size="12" font-family="Helvetica" xml:space="preserve">c</text>
    <text id="svg_142" transform="matrix(1,0,0,-1,360.7,318) " fill="#000000" font-size="12" font-family="Helvetica" xml:space="preserve">t</text>
    <text id="svg_143" transform="matrix(1,0,0,-1,364,318) " fill="#000000" font-size="12" font-family="Helvetica" xml:space="preserve">l</text>
    <text id="svg_144" transform="matrix(1,0,0,-1,328,304) " fill="#000000" font-size="12" font-family="Helvetica" xml:space="preserve">s</text>
    <text id="svg_145" transform="matrix(1,0,0,-1,334,304) " fill="#000000" font-size="12" font-family="Helvetica" xml:space="preserve">e</text>
    <text id="svg_146" transform="matrix(1,0,0,-1,340.7,304) " fill="#000000" font-size="12" font-family="Helvetica" xml:space="preserve">r</text>
    <text id="svg_147" transform="matrix(1,0,0,-1,344.7,304) " fill="#000000" font-size="12" font-family="Helvetica" xml:space="preserve">v</text>
    <text id="svg_148" transform="matrix(1,0,0,-1,350.7,304) " fill="#000000" font-size="12" font-family="Helvetica" xml:space="preserve">i</text>
    <text id="svg_149" transform="matrix(1,0,0,-1,353.3,304) " fill="#000000" font-size="12" font-family="Helvetica" xml:space="preserve">c</text>
    <text id="svg_150" transform="matrix(1,0,0,-1,359.3,304) " fill="#000000" font-size="12" font-family="Helvetica" xml:space="preserve">e</text>
    <text id="svg_151" transform="matrix(1,0,0,-1,366,304) " fill="#000000" font-size="12" font-family="Helvetica" xml:space="preserve">C</text>
   </g>
  </g>
  <path id="svg_152" stroke-dasharray="6.0, 4.5" stroke-linejoin="round" stroke-width="1.5" stroke="#000000" fill="none" d="m248.5539,222.113187l17.796967,27.978705l0.255809,0.402158"/>
  <path id="svg_153" fill="#000000" d="m268.372036,253.339571l-0.140554,-6.35342l0,0c0,-0.405537 -0.351385,-0.743485 -0.773048,-0.743485c-0.421662,0 -0.773048,0.337948 -0.773048,0.743485l0.140554,3.852606l-3.513854,-1.824919l0,0c-0.421662,-0.202769 -0.843325,-0.06759 -1.054156,0.270358c-0.210831,0.405537 -0.070277,0.811075 0.281108,1.013844c0,0 0,0 0,0l5.832997,3.041531zm0,0"/>
 </g>
</svg>