<svg width="542" height="422" xmlns="http://www.w3.org/2000/svg" clip-rule="evenodd">
 <desc>SVG generated by Keynote</desc>

 <g>
  <title>background</title>
  <rect fill="none" id="canvas_background" height="424" width="544" y="-1" x="-1"/>
 </g>
 <g>
  <title>Layer 1</title>
  <path id="svg_3" fill="#FFFFFF" d="m44.844955,366.323753l0,-208.239761c0,-7.829643 6.23282,-14.222654 13.936306,-14.222654l447.712574,0c7.633454,0 13.866274,6.393011 13.866274,14.222654l0,208.239761c0,7.901474 -6.23282,14.222654 -13.866274,14.222654l-447.712574,0c-7.703486,0 -13.936306,-6.321179 -13.936306,-14.222654zm0,0"/>
  <path id="svg_4" stroke-linejoin="round" stroke="#000000" fill="none" d="m44.844955,366.323753l0,-208.167929c0,-7.901474 6.23282,-14.294485 13.936306,-14.294485l447.712574,0c7.633454,0 13.866274,6.393011 13.866274,14.294485l0,208.167929c0,7.901474 -6.23282,14.294485 -13.866274,14.294485l-447.712574,0c-7.703486,0 -13.936306,-6.393011 -13.936306,-14.294485zm0,0"/>
  <path id="svg_5" fill="#FFFFFF" d="m45.965462,104.4258l0,-39.794697c0,-5.531032 4.341965,-9.98459 9.664373,-9.98459l456.116376,0c5.39244,0 9.734404,4.453558 9.734404,9.98459l0,39.794697c0,5.4592 -4.341965,9.98459 -9.734404,9.98459l-456.116376,0c-5.322408,0 -9.664373,-4.52539 -9.664373,-9.98459zm0,0"/>
  <path id="svg_6" stroke-linejoin="round" stroke="#000000" fill="none" d="m45.965462,104.4258l0,-39.794697c0,-5.531032 4.341965,-9.98459 9.734404,-9.98459l456.116376,0c5.322408,0 9.664373,4.453558 9.664373,9.98459l0,39.794697c0,5.4592 -4.341965,9.912759 -9.664373,9.912759l-456.116376,0c-5.39244,0 -9.734404,-4.453558 -9.734404,-9.912759zm0,0"/>
  <g transform="matrix(0.7003168684038634,0,0,-0.7183158348616381,-0.32548273423706675,439.304642067292) " id="svg_7">
   <clipPath transform="translate(0,-1.1368683772161603e-13) " id="clip-308">
    <path id="svg_8" d="m446.1,525.4l0,-57.9l-203.9,0l0,57.9l203.9,0zm0,0"/>
   </clipPath>
   <g id="svg_9" clip-path="url(#clip-308)">
    <path id="svg_10" fill="#FFFFFF" d="m255.9,523.2l176.5,0c6.4,0 11.6,-5.2 11.6,-11.6l0,-30.4c0,-6.4 -5.2,-11.6 -11.6,-11.6l-176.5,0c-6.4,0 -11.6,5.2 -11.6,11.6l0,30.4c0,6.4 5.2,11.6 11.6,11.6zm0,0"/>
    <path id="svg_11" stroke-linejoin="round" stroke-width="2.25" stroke="#9D6E80" fill="none" d="m255.9,523.2l176.5,0c6.4,0 11.6,-5.2 11.6,-11.6l0,-30.4c0,-6.4 -5.2,-11.6 -11.6,-11.6l-176.5,0c-6.4,0 -11.6,5.2 -11.6,11.6l0,30.4c0,6.4 5.2,11.6 11.6,11.6zm0,0"/>
   </g>
  </g>
  <g transform="matrix(0.7003168684038634,0,0,-0.7183158348616381,-0.32548273423706675,439.304642067292) " id="svg_12">
   <clipPath transform="translate(0,-1.1368683772161603e-13) " id="clip-309">
    <path id="svg_13" d="m246.8,480.9l194.7,0l0,31l-194.7,0l0,-31zm0,0"/>
   </clipPath>
   <g id="svg_14" clip-path="url(#clip-309)">
    <text x="0" y="0" id="svg_15" transform="matrix(1,0,0,-1,251,490) " fill="#000000" font-size="18" font-family="Helvetica" xml:space="preserve"/>
    <text x="0" y="0" id="svg_16" transform="matrix(1,0,0,-1,256,490) " fill="#000000" font-size="18" font-family="Helvetica" xml:space="preserve"/>
    <text x="0" y="0" id="svg_17" transform="matrix(1,0,0,-1,261,490) " fill="#000000" font-size="18" font-family="Helvetica" xml:space="preserve"/>
    <text x="0" y="0" id="svg_18" transform="matrix(1,0,0,-1,265,490) " fill="#000000" font-size="18" font-family="Helvetica" xml:space="preserve">A</text>
    <text x="0" y="0" id="svg_19" transform="matrix(1,0,0,-1,277,490) " fill="#000000" font-size="18" font-family="Helvetica" xml:space="preserve">m</text>
    <text x="0" y="0" id="svg_20" transform="matrix(1,0,0,-1,292,490) " fill="#000000" font-size="18" font-family="Helvetica" xml:space="preserve">a</text>
    <text x="0" y="0" id="svg_21" transform="matrix(1,0,0,-1,302,490) " fill="#000000" font-size="18" font-family="Helvetica" xml:space="preserve">l</text>
    <text x="0" y="0" id="svg_22" transform="matrix(1,0,0,-1,306,490) " fill="#000000" font-size="18" font-family="Helvetica" xml:space="preserve">g</text>
    <text x="0" y="0" id="svg_23" transform="matrix(1,0,0,-1,316,490) " fill="#000000" font-size="18" font-family="Helvetica" xml:space="preserve">a</text>
    <text x="0" y="0" id="svg_24" transform="matrix(1,0,0,-1,326.1,490) " fill="#000000" font-size="18" font-family="Helvetica" xml:space="preserve">m</text>
    <text x="0" y="0" id="svg_25" transform="matrix(1,0,0,-1,341,490) " fill="#000000" font-size="18" font-family="Helvetica" xml:space="preserve">8</text>
    <text x="0" y="0" id="svg_26" transform="matrix(1,0,0,-1,351.1,490) " fill="#000000" font-size="18" font-family="Helvetica" xml:space="preserve"/>
    <text x="0" y="0" id="svg_27" transform="matrix(1,0,0,-1,356.1,490) " fill="#000000" font-size="18" font-family="Helvetica" xml:space="preserve">C</text>
    <text x="0" y="0" id="svg_28" transform="matrix(1,0,0,-1,369.1,490) " fill="#000000" font-size="18" font-family="Helvetica" xml:space="preserve">o</text>
    <text x="0" y="0" id="svg_29" transform="matrix(1,0,0,-1,379.1,490) " fill="#000000" font-size="18" font-family="Helvetica" xml:space="preserve">n</text>
    <text x="0" y="0" id="svg_30" transform="matrix(1,0,0,-1,389.1,490) " fill="#000000" font-size="18" font-family="Helvetica" xml:space="preserve">t</text>
    <text x="0" y="0" id="svg_31" transform="matrix(1,0,0,-1,394.1,490) " fill="#000000" font-size="18" font-family="Helvetica" xml:space="preserve">r</text>
    <text x="0" y="0" id="svg_32" transform="matrix(1,0,0,-1,400.1,490) " fill="#000000" font-size="18" font-family="Helvetica" xml:space="preserve">o</text>
    <text x="0" y="0" id="svg_33" transform="matrix(1,0,0,-1,410.1,490) " fill="#000000" font-size="18" font-family="Helvetica" xml:space="preserve">l</text>
    <text x="0" y="0" id="svg_34" transform="matrix(1,0,0,-1,414.1,490) " fill="#000000" font-size="18" font-family="Helvetica" xml:space="preserve">l</text>
    <text x="0" y="0" id="svg_35" transform="matrix(1,0,0,-1,418.1,490) " fill="#000000" font-size="18" font-family="Helvetica" xml:space="preserve">e</text>
    <text x="0" y="0" id="svg_36" transform="matrix(1,0,0,-1,428.1,490) " fill="#000000" font-size="18" font-family="Helvetica" xml:space="preserve">r</text>
   </g>
  </g>
  <text x="0" y="0" id="svg_37" transform="matrix(0.7003168684038634,0,0,0.7183158348616381,59.20145108009132,167.06294065473116) " fill="#000000" font-size="20" font-family="Helvetica" xml:space="preserve">T</text>
  <text x="0" y="0" id="svg_38" transform="matrix(0.7003168684038634,0,0,0.7183158348616381,66.20461976412996,167.06294065473116) " fill="#000000" font-size="20" font-family="Helvetica" xml:space="preserve">e</text>
  <text x="0" y="0" id="svg_39" transform="matrix(0.7003168684038634,0,0,0.7183158348616381,73.97813700341284,167.06294065473116) " fill="#000000" font-size="20" font-family="Helvetica" xml:space="preserve">n</text>
  <text x="0" y="0" id="svg_40" transform="matrix(0.7003168684038634,0,0,0.7183158348616381,81.8216859295361,167.06294065473116) " fill="#000000" font-size="20" font-family="Helvetica" xml:space="preserve">a</text>
  <text x="0" y="0" id="svg_41" transform="matrix(0.7003168684038634,0,0,0.7183158348616381,89.595203168819,167.06294065473116) " fill="#000000" font-size="20" font-family="Helvetica" xml:space="preserve">n</text>
  <text x="0" y="0" id="svg_42" transform="matrix(0.7003168684038634,0,0,0.7183158348616381,97.36872040810188,167.06294065473116) " fill="#000000" font-size="20" font-family="Helvetica" xml:space="preserve">t</text>
  <text x="0" y="0" id="svg_43" transform="matrix(0.7003168684038634,0,0,0.7183158348616381,101.2904948711635,167.06294065473116) " fill="#000000" font-size="20" font-family="Helvetica" xml:space="preserve"/>
  <text x="0" y="0" id="svg_44" transform="matrix(0.7003168684038634,0,0,0.7183158348616381,105.14223764738476,167.06294065473116) " fill="#000000" font-size="20" font-family="Helvetica" xml:space="preserve">S</text>
  <text x="0" y="0" id="svg_45" transform="matrix(0.7003168684038634,0,0,0.7183158348616381,114.52648368399653,167.06294065473116) " fill="#000000" font-size="20" font-family="Helvetica" xml:space="preserve">p</text>
  <text x="0" y="0" id="svg_46" transform="matrix(0.7003168684038634,0,0,0.7183158348616381,122.30000092327941,167.06294065473116) " fill="#000000" font-size="20" font-family="Helvetica" xml:space="preserve">a</text>
  <text x="0" y="0" id="svg_47" transform="matrix(0.7003168684038634,0,0,0.7183158348616381,130.0735181625623,167.06294065473116) " fill="#000000" font-size="20" font-family="Helvetica" xml:space="preserve">c</text>
  <text x="0" y="0" id="svg_48" transform="matrix(0.7003168684038634,0,0,0.7183158348616381,137.07668684660095,167.06294065473116) " fill="#000000" font-size="20" font-family="Helvetica" xml:space="preserve">e</text>
  <text x="0" y="0" id="svg_49" transform="matrix(0.7003168684038634,0,0,0.7183158348616381,59.20145108009132,72.96356628785657) " fill="#000000" font-size="20" font-family="Helvetica" xml:space="preserve">C</text>
  <text x="0" y="0" id="svg_50" transform="matrix(0.7003168684038634,0,0,0.7183158348616381,69.28601398510696,72.96356628785657) " fill="#000000" font-size="20" font-family="Helvetica" xml:space="preserve">o</text>
  <text x="0" y="0" id="svg_51" transform="matrix(0.7003168684038634,0,0,0.7183158348616381,77.12956291123022,72.96356628785657) " fill="#000000" font-size="20" font-family="Helvetica" xml:space="preserve">n</text>
  <text x="0" y="0" id="svg_52" transform="matrix(0.7003168684038634,0,0,0.7183158348616381,84.9030801505131,72.96356628785657) " fill="#000000" font-size="20" font-family="Helvetica" xml:space="preserve">t</text>
  <text x="0" y="0" id="svg_53" transform="matrix(0.7003168684038634,0,0,0.7183158348616381,88.82485461357474,72.96356628785657) " fill="#000000" font-size="20" font-family="Helvetica" xml:space="preserve">r</text>
  <text x="0" y="0" id="svg_54" transform="matrix(0.7003168684038634,0,0,0.7183158348616381,93.44694594504024,72.96356628785657) " fill="#000000" font-size="20" font-family="Helvetica" xml:space="preserve">o</text>
  <text x="0" y="0" id="svg_55" transform="matrix(0.7003168684038634,0,0,0.7183158348616381,101.22046318432312,72.96356628785657) " fill="#000000" font-size="20" font-family="Helvetica" xml:space="preserve">l</text>
  <text x="0" y="0" id="svg_56" transform="matrix(0.7003168684038634,0,0,0.7183158348616381,104.3718890921405,72.96356628785657) " fill="#000000" font-size="20" font-family="Helvetica" xml:space="preserve"/>
  <text x="0" y="0" id="svg_57" transform="matrix(0.7003168684038634,0,0,0.7183158348616381,108.22363186836176,72.96356628785657) " fill="#000000" font-size="20" font-family="Helvetica" xml:space="preserve">P</text>
  <text x="0" y="0" id="svg_58" transform="matrix(0.7003168684038634,0,0,0.7183158348616381,117.60787790497353,72.96356628785657) " fill="#000000" font-size="20" font-family="Helvetica" xml:space="preserve">l</text>
  <text x="0" y="0" id="svg_59" transform="matrix(0.7003168684038634,0,0,0.7183158348616381,120.68927212595054,72.96356628785657) " fill="#000000" font-size="20" font-family="Helvetica" xml:space="preserve">a</text>
  <text x="0" y="0" id="svg_60" transform="matrix(0.7003168684038634,0,0,0.7183158348616381,128.5328210520738,72.96356628785657) " fill="#000000" font-size="20" font-family="Helvetica" xml:space="preserve">n</text>
  <text x="0" y="0" id="svg_61" transform="matrix(0.7003168684038634,0,0,0.7183158348616381,136.3063382913567,72.96356628785657) " fill="#000000" font-size="20" font-family="Helvetica" xml:space="preserve">e</text>
  <text x="0" y="0" id="svg_62" transform="matrix(0.7003168684038634,0,0,0.7183158348616381,66.90493663253382,288.458316746348) " fill="#000000" font-size="16" font-family="Helvetica" xml:space="preserve">R</text>
  <text x="0" y="0" id="svg_63" transform="matrix(0.7003168684038634,0,0,0.7183158348616381,75.02861230601863,288.458316746348) " fill="#000000" font-size="16" font-family="Helvetica" xml:space="preserve">e</text>
  <text x="0" y="0" id="svg_64" transform="matrix(0.7003168684038634,0,0,0.7183158348616381,81.26143243481302,288.458316746348) " fill="#000000" font-size="16" font-family="Helvetica" xml:space="preserve">q</text>
  <text x="0" y="0" id="svg_65" transform="matrix(0.7003168684038634,0,0,0.7183158348616381,87.4942525636074,288.458316746348) " fill="#000000" font-size="16" font-family="Helvetica" xml:space="preserve">u</text>
  <text x="0" y="0" id="svg_66" transform="matrix(0.7003168684038634,0,0,0.7183158348616381,93.72707269240179,288.458316746348) " fill="#000000" font-size="16" font-family="Helvetica" xml:space="preserve">e</text>
  <text x="0" y="0" id="svg_67" transform="matrix(0.7003168684038634,0,0,0.7183158348616381,99.95989282119616,288.458316746348) " fill="#000000" font-size="16" font-family="Helvetica" xml:space="preserve">s</text>
  <text x="0" y="0" id="svg_68" transform="matrix(0.7003168684038634,0,0,0.7183158348616381,105.56242776842707,288.458316746348) " fill="#000000" font-size="16" font-family="Helvetica" xml:space="preserve">t</text>
  <g transform="matrix(0.7003168684038634,0,0,-0.7183158348616381,-0.32548273423706675,439.304642067292) " id="svg_69">
   <clipPath transform="translate(0,-1.1368683772161603e-13) " id="clip-310">
    <path id="svg_70" d="m608.8,296.1l73,0l0,73.5l-73,0l0,-73.5zm0,0"/>
   </clipPath>
   <g id="svg_71" clip-path="url(#clip-310)">
    <path id="svg_72" fill="#FFFFFF" d="m610.2,309.2l0,47.3c0,6.5 5.3,11.7 11.7,11.7l46.8,0c6.5,0 11.7,-5.2 11.7,-11.7l0,-47.3c0,-6.5 -5.2,-11.7 -11.7,-11.7l-46.8,0c-6.4,0 -11.7,5.2 -11.7,11.7zm0,0"/>
    <path id="svg_73" stroke-linejoin="round" stroke-width="0.75" stroke="#442845" fill="none" d="m610.2,309.2l0,47.3c0,6.5 5.2,11.7 11.7,11.7l46.8,0c6.4,0 11.7,-5.2 11.7,-11.7l0,-47.3c0,-6.5 -5.3,-11.7 -11.7,-11.7l-46.8,0c-6.5,0 -11.7,5.2 -11.7,11.7zm0,0"/>
   </g>
  </g>
  <g transform="matrix(0.7003168684038634,0,0,-0.7183158348616381,-0.32548273423706675,439.304642067292) " id="svg_74">
   <clipPath transform="translate(0,-1.1368683772161603e-13) " id="clip-311">
    <path id="svg_75" d="m612.2,315.9l66.2,0l0,34l-66.2,0l0,-34zm0,0"/>
   </clipPath>
   <g id="svg_76" clip-path="url(#clip-311)">
    <text x="0" y="0" id="svg_77" transform="matrix(1,0,0,-1,639,325) " fill="#000000" font-size="20" font-family="Helvetica" xml:space="preserve">A</text>
   </g>
  </g>
  <g transform="matrix(0.7003168684038634,0,0,-0.7183158348616381,-0.32548273423706675,439.304642067292) " id="svg_78">
   <clipPath transform="translate(0,-1.1368683772161603e-13) " id="clip-312">
    <path id="svg_79" d="m596.8,308.1l73,0l0,73.5l-73,0l0,-73.5zm0,0"/>
   </clipPath>
   <g id="svg_80" clip-path="url(#clip-312)">
    <path id="svg_81" fill="#FFFFFF" d="m598.2,321.2l0,47.3c0,6.5 5.3,11.7 11.7,11.7l46.8,0c6.5,0 11.7,-5.2 11.7,-11.7l0,-47.3c0,-6.5 -5.2,-11.7 -11.7,-11.7l-46.8,0c-6.4,0 -11.7,5.2 -11.7,11.7zm0,0"/>
    <path id="svg_82" stroke-linejoin="round" stroke-width="0.75" stroke="#442845" fill="none" d="m598.2,321.2l0,47.3c0,6.5 5.2,11.7 11.7,11.7l46.8,0c6.4,0 11.7,-5.2 11.7,-11.7l0,-47.3c0,-6.5 -5.3,-11.7 -11.7,-11.7l-46.8,0c-6.5,0 -11.7,5.2 -11.7,11.7zm0,0"/>
   </g>
  </g>
  <g transform="matrix(0.7003168684038634,0,0,-0.7183158348616381,-0.32548273423706675,439.304642067292) " id="svg_83">
   <clipPath transform="translate(0,-1.1368683772161603e-13) " id="clip-313">
    <path id="svg_84" d="m600.2,327.9l66.2,0l0,34l-66.2,0l0,-34zm0,0"/>
   </clipPath>
   <g id="svg_85" clip-path="url(#clip-313)">
    <text x="0" y="0" id="svg_86" transform="matrix(1,0,0,-1,627,337) " fill="#000000" font-size="20" font-family="Helvetica" xml:space="preserve">A</text>
   </g>
  </g>
  <g transform="matrix(0.7003168684038634,0,0,-0.7183158348616381,-0.32548273423706675,439.304642067292) " id="svg_87">
   <clipPath transform="translate(0,-1.1368683772161603e-13) " id="clip-314">
    <path id="svg_88" d="m609.4,198.9l73,0l0,73.5l-73,0l0,-73.5zm0,0"/>
   </clipPath>
   <g id="svg_89" clip-path="url(#clip-314)">
    <path id="svg_90" fill="#FFFFFF" d="m610.8,212l0,47.3c0,6.5 5.3,11.7 11.7,11.7l46.8,0c6.5,0 11.7,-5.2 11.7,-11.7l0,-47.3c0,-6.5 -5.2,-11.7 -11.7,-11.7l-46.8,0c-6.4,0 -11.7,5.2 -11.7,11.7zm0,0"/>
    <path id="svg_91" stroke-linejoin="round" stroke-width="0.75" stroke="#442845" fill="none" d="m610.8,212l0,47.3c0,6.5 5.2,11.7 11.7,11.7l46.8,0c6.4,0 11.7,-5.2 11.7,-11.7l0,-47.3c0,-6.5 -5.3,-11.7 -11.7,-11.7l-46.8,0c-6.5,0 -11.7,5.2 -11.7,11.7zm0,0"/>
   </g>
  </g>
  <g transform="matrix(0.7003168684038634,0,0,-0.7183158348616381,-0.32548273423706675,439.304642067292) " id="svg_92">
   <clipPath transform="translate(0,-1.1368683772161603e-13) " id="clip-315">
    <path id="svg_93" d="m612.8,218.7l66.2,0l0,34l-66.2,0l0,-34zm0,0"/>
   </clipPath>
   <g id="svg_94" clip-path="url(#clip-315)">
    <text x="0" y="0" id="svg_95" transform="matrix(1,0,0,-1,638,228) " fill="#000000" font-size="20" font-family="Helvetica" xml:space="preserve">A</text>
    <text x="0" y="0" id="svg_96" transform="matrix(1,0,0,-1,649.9,228) " fill="#000000" font-size="20" font-family="Helvetica" xml:space="preserve">’</text>
   </g>
  </g>
  <g transform="matrix(0.7003168684038634,0,0,-0.7183158348616381,-0.32548273423706675,439.304642067292) " id="svg_97">
   <clipPath transform="translate(0,-1.1368683772161603e-13) " id="clip-316">
    <path id="svg_98" d="m597.4,210.9l73,0l0,73.5l-73,0l0,-73.5zm0,0"/>
   </clipPath>
   <g id="svg_99" clip-path="url(#clip-316)">
    <path id="svg_100" fill="#FFFFFF" d="m598.8,224l0,47.3c0,6.5 5.3,11.7 11.7,11.7l46.8,0c6.5,0 11.7,-5.2 11.7,-11.7l0,-47.3c0,-6.5 -5.2,-11.7 -11.7,-11.7l-46.8,0c-6.4,0 -11.7,5.2 -11.7,11.7zm0,0"/>
    <path id="svg_101" stroke-linejoin="round" stroke-width="0.75" stroke="#442845" fill="none" d="m598.8,224l0,47.3c0,6.5 5.2,11.7 11.7,11.7l46.8,0c6.4,0 11.7,-5.2 11.7,-11.7l0,-47.3c0,-6.5 -5.3,-11.7 -11.7,-11.7l-46.8,0c-6.5,0 -11.7,5.2 -11.7,11.7zm0,0"/>
   </g>
  </g>
  <g transform="matrix(0.7003168684038634,0,0,-0.7183158348616381,-0.32548273423706675,439.304642067292) " id="svg_102">
   <clipPath transform="translate(0,-1.1368683772161603e-13) " id="clip-317">
    <path id="svg_103" d="m600.8,230.7l66.2,0l0,34l-66.2,0l0,-34zm0,0"/>
   </clipPath>
   <g id="svg_104" clip-path="url(#clip-317)">
    <text x="0" y="0" id="svg_105" transform="matrix(1,0,0,-1,626,240) " fill="#000000" font-size="20" font-family="Helvetica" xml:space="preserve">A</text>
    <text x="0" y="0" id="svg_106" transform="matrix(1,0,0,-1,637.9,240) " fill="#000000" font-size="20" font-family="Helvetica" xml:space="preserve">’</text>
   </g>
  </g>
  <g transform="matrix(0.7003168684038634,0,0,-0.7183158348616381,-0.32548273423706675,439.304642067292) " id="svg_107">
   <clipPath transform="translate(0,-1.1368683772161603e-13) " id="clip-318">
    <path id="svg_108" d="m612.4,102l72.9,0l0,73.5l-72.9,0l0,-73.5zm0,0"/>
   </clipPath>
   <g id="svg_109" clip-path="url(#clip-318)">
    <path id="svg_110" fill="#FFFFFF" d="m613.8,115.1l0,47.3c0,6.5 5.2,11.7 11.7,11.7l46.7,0c6.5,0 11.7,-5.2 11.7,-11.7l0,-47.3c0,-6.5 -5.2,-11.7 -11.7,-11.7l-46.7,0c-6.5,0 -11.7,5.2 -11.7,11.7zm0,0"/>
    <path id="svg_111" stroke-linejoin="round" stroke-width="0.75" stroke="#442845" fill="none" d="m613.8,115.1l0,47.3c0,6.5 5.2,11.7 11.7,11.7l46.8,0c6.4,0 11.7,-5.2 11.7,-11.7l0,-47.3c0,-6.5 -5.3,-11.7 -11.7,-11.7l-46.8,0c-6.5,0 -11.7,5.2 -11.7,11.7zm0,0"/>
   </g>
  </g>
  <g transform="matrix(0.7003168684038634,0,0,-0.7183158348616381,-0.32548273423706675,439.304642067292) " id="svg_112">
   <clipPath transform="translate(0,-1.1368683772161603e-13) " id="clip-319">
    <path id="svg_113" d="m615.8,121.7l66.1,0l0,34l-66.1,0l0,-34zm0,0"/>
   </clipPath>
   <g id="svg_114" clip-path="url(#clip-319)">
    <text x="0" y="0" id="svg_115" transform="matrix(1,0,0,-1,641,131) " fill="#000000" font-size="20" font-family="Helvetica" xml:space="preserve">A</text>
    <text x="0" y="0" id="svg_116" transform="matrix(1,0,0,-1,652.9,131) " fill="#000000" font-size="20" font-family="Helvetica" xml:space="preserve">’</text>
   </g>
  </g>
  <g transform="matrix(0.7003168684038634,0,0,-0.7183158348616381,-0.32548273423706675,439.304642067292) " id="svg_117">
   <clipPath transform="translate(0,-1.1368683772161603e-13) " id="clip-320">
    <path id="svg_118" d="m600.4,114l72.9,0l0,73.5l-72.9,0l0,-73.5zm0,0"/>
   </clipPath>
   <g id="svg_119" clip-path="url(#clip-320)">
    <path id="svg_120" fill="#FFFFFF" d="m601.8,127.1l0,47.3c0,6.5 5.2,11.7 11.7,11.7l46.7,0c6.5,0 11.7,-5.2 11.7,-11.7l0,-47.3c0,-6.5 -5.2,-11.7 -11.7,-11.7l-46.7,0c-6.5,0 -11.7,5.2 -11.7,11.7zm0,0"/>
    <path id="svg_121" stroke-linejoin="round" stroke-width="0.75" stroke="#442845" fill="none" d="m601.8,127.1l0,47.3c0,6.5 5.2,11.7 11.7,11.7l46.8,0c6.4,0 11.7,-5.2 11.7,-11.7l0,-47.3c0,-6.5 -5.3,-11.7 -11.7,-11.7l-46.8,0c-6.5,0 -11.7,5.2 -11.7,11.7zm0,0"/>
   </g>
  </g>
  <g transform="matrix(0.7003168684038634,0,0,-0.7183158348616381,-0.32548273423706675,439.304642067292) " id="svg_122">
   <clipPath transform="translate(0,-1.1368683772161603e-13) " id="clip-321">
    <path id="svg_123" d="m603.8,133.7l66.1,0l0,34l-66.1,0l0,-34zm0,0"/>
   </clipPath>
   <g id="svg_124" clip-path="url(#clip-321)">
    <text x="0" y="0" id="svg_125" transform="matrix(1,0,0,-1,630,143) " fill="#000000" font-size="20" font-family="Helvetica" xml:space="preserve">B</text>
   </g>
  </g>
  <path id="svg_126" fill="#FFFFFF" d="m160.607334,171.803825l170.247031,0c6.302852,0 11.415165,5.243706 11.415165,11.708548l0,145.243462c0,6.393011 -5.112313,11.636717 -11.415165,11.636717l-170.247031,0c-6.302852,0 -11.415165,-5.243706 -11.415165,-11.636717l0,-145.243462c0,-6.464843 5.112313,-11.708548 11.415165,-11.708548zm0,0"/>
  <path id="svg_127" stroke-width="2" stroke="#442845" fill="none" d="m160.607334,171.803825l170.247031,0c6.302852,0 11.415165,5.243706 11.415165,11.708548l0,145.17163c0,6.464843 -5.112313,11.708548 -11.415165,11.708548l-170.247031,0c-6.302852,0 -11.345133,-5.243706 -11.345133,-11.708548l0,-145.17163c0,-6.464843 5.042281,-11.708548 11.345133,-11.708548zm0,0"/>
  <path id="svg_128" stroke-linejoin="round" stroke="#7F7F7F" fill="none" d="m327.492843,284.50758l83.402136,-73.164059l0.26612,-0.233453"/>
  <path id="svg_129" fill="#7F7F7F" d="m413.421723,209.946396l-4.97225,0.861979l0,0c-0.350158,0.071832 -0.560253,0.359158 -0.490222,0.718316c0.070032,0.287326 0.350158,0.502821 0.700317,0.502821l3.011363,-0.574653l-1.050475,2.945095l0,0c-0.070032,0.287326 0.070032,0.646484 0.350158,0.790147c0.350158,0.071832 0.630285,-0.071832 0.770349,-0.359158c0,0 0,0 0,0l1.68076,-4.884548zm0,0"/>
  <path id="svg_130" stroke-linejoin="round" stroke="#7F7F7F" fill="none" d="m327.492843,284.50758l84.91342,-21.549475l0.339654,-0.086198"/>
  <path id="svg_131" fill="#7F7F7F" d="m415.242547,262.239789l-4.832186,-1.508463l0,0c-0.350158,-0.071832 -0.630285,0.143663 -0.700317,0.43099c-0.140063,0.287326 0.070032,0.646484 0.350158,0.718316l2.941331,0.933811l-2.170982,2.154948l0,0c-0.280127,0.215495 -0.280127,0.574653 0,0.861979c0.210095,0.215495 0.560253,0.215495 0.770349,0c0,0 0,0 0,0l3.641648,-3.591579zm0,0"/>
  <path id="svg_132" stroke-linejoin="round" stroke="#7F7F7F" fill="none" d="m327.492843,284.50758l85.249572,32.557665l0.329149,0.125705"/>
  <path id="svg_133" fill="#7F7F7F" d="m415.242547,317.765603l-3.221458,-3.950737l0,0c-0.210095,-0.287326 -0.560253,-0.287326 -0.770349,-0.143663c-0.280127,0.215495 -0.350158,0.646484 -0.140063,0.861979l1.960887,2.442274l-3.011363,0.502821l0,0c-0.280127,0.071832 -0.490222,0.359158 -0.490222,0.718316c0.070032,0.359158 0.42019,0.574653 0.700317,0.502821c0,0 0,0 0,0l4.97225,-0.933811zm0,0"/>
  <g transform="matrix(0.7003168684038634,0,0,-0.7183158348616381,-0.32548273423706675,439.304642067292) " id="svg_134">
   <clipPath transform="translate(0,-1.1368683772161603e-13) " id="clip-322">
    <path id="svg_135" d="m332.5,184l137.6,0l0,63l-137.6,0l0,-63zm0,0"/>
   </clipPath>
   <g id="svg_136" clip-path="url(#clip-322)">
    <path id="svg_137" fill="#EDEDED" d="m334.5,195.8l0,39.3c0,5.5 4.4,9.9 9.8,9.9l113.9,0c5.5,0 9.9,-4.4 9.9,-9.9l0,-39.3c0,-5.4 -4.4,-9.8 -9.9,-9.8l-113.9,0c-5.4,0 -9.8,4.4 -9.8,9.8zm0,0"/>
    <path id="svg_138" stroke-linejoin="round" stroke-width="2" stroke="#442845" fill="none" d="m334.5,195.9l0,39.3c0,5.4 4.4,9.8 9.8,9.8l114,0c5.4,0 9.8,-4.4 9.8,-9.8l0,-39.3c0,-5.5 -4.4,-9.9 -9.8,-9.9l-114,0c-5.4,0 -9.8,4.4 -9.8,9.9zm0,0"/>
   </g>
  </g>
  <g transform="matrix(0.7003168684038634,0,0,-0.7183158348616381,-0.32548273423706675,439.304642067292) " id="svg_139">
   <clipPath transform="translate(0,-1.1368683772161603e-13) " id="clip-323">
    <path id="svg_140" d="m337.3,194.9l129.9,0l0,41.2l-129.9,0l0,-41.2zm0,0"/>
   </clipPath>
   <g id="svg_141" clip-path="url(#clip-323)">
    <text x="0" y="0" id="svg_142" transform="matrix(1,0,0,-1,346,219) " fill="#000000" font-size="14" font-family="Helvetica" xml:space="preserve">N</text>
    <text x="0" y="0" id="svg_143" transform="matrix(1,0,0,-1,356.1,219) " fill="#000000" font-size="14" font-family="Helvetica" xml:space="preserve">g</text>
    <text x="0" y="0" id="svg_144" transform="matrix(1,0,0,-1,363.9,219) " fill="#000000" font-size="14" font-family="Helvetica" xml:space="preserve">i</text>
    <text x="0" y="0" id="svg_145" transform="matrix(1,0,0,-1,367,219) " fill="#000000" font-size="14" font-family="Helvetica" xml:space="preserve">n</text>
    <text x="0" y="0" id="svg_146" transform="matrix(1,0,0,-1,374.8,219) " fill="#000000" font-size="14" font-family="Helvetica" xml:space="preserve">x</text>
    <text x="0" y="0" id="svg_147" transform="matrix(1,0,0,-1,381.8,219) " fill="#000000" font-size="14" font-family="Helvetica" xml:space="preserve">-</text>
    <text x="0" y="0" id="svg_148" transform="matrix(1,0,0,-1,386.5,219) " fill="#000000" font-size="14" font-family="Helvetica" xml:space="preserve">O</text>
    <text x="0" y="0" id="svg_149" transform="matrix(1,0,0,-1,397.4,219) " fill="#000000" font-size="14" font-family="Helvetica" xml:space="preserve">p</text>
    <text x="0" y="0" id="svg_150" transform="matrix(1,0,0,-1,405.1,219) " fill="#000000" font-size="14" font-family="Helvetica" xml:space="preserve">e</text>
    <text x="0" y="0" id="svg_151" transform="matrix(1,0,0,-1,412.9,219) " fill="#000000" font-size="14" font-family="Helvetica" xml:space="preserve">n</text>
    <text x="0" y="0" id="svg_152" transform="matrix(1,0,0,-1,420.7,219) " fill="#000000" font-size="14" font-family="Helvetica" xml:space="preserve">R</text>
    <text x="0" y="0" id="svg_153" transform="matrix(1,0,0,-1,430.8,219) " fill="#000000" font-size="14" font-family="Helvetica" xml:space="preserve">e</text>
    <text x="0" y="0" id="svg_154" transform="matrix(1,0,0,-1,438.6,219) " fill="#000000" font-size="14" font-family="Helvetica" xml:space="preserve">s</text>
    <text x="0" y="0" id="svg_155" transform="matrix(1,0,0,-1,445.6,219) " fill="#000000" font-size="14" font-family="Helvetica" xml:space="preserve">t</text>
    <text x="0" y="0" id="svg_156" transform="matrix(1,0,0,-1,449.5,219) " fill="#000000" font-size="14" font-family="Helvetica" xml:space="preserve">y</text>
    <text x="0" y="0" id="svg_157" transform="matrix(1,0,0,-1,383,202) " fill="#000000" font-size="14" font-family="Helvetica" xml:space="preserve">P</text>
    <text x="0" y="0" id="svg_158" transform="matrix(1,0,0,-1,392.3,202) " fill="#000000" font-size="14" font-family="Helvetica" xml:space="preserve">r</text>
    <text x="0" y="0" id="svg_159" transform="matrix(1,0,0,-1,397,202) " fill="#000000" font-size="14" font-family="Helvetica" xml:space="preserve">o</text>
    <text x="0" y="0" id="svg_160" transform="matrix(1,0,0,-1,404.8,202) " fill="#000000" font-size="14" font-family="Helvetica" xml:space="preserve">x</text>
    <text x="0" y="0" id="svg_161" transform="matrix(1,0,0,-1,411.8,202) " fill="#000000" font-size="14" font-family="Helvetica" xml:space="preserve">y</text>
   </g>
  </g>
  <path id="svg_162" fill="#EDEDED" d="m161.097555,213.035154l0,-25.141054c0,-3.447916 2.731236,-6.249348 6.162788,-6.249348l69.261338,0c3.361521,0 6.092757,2.801432 6.092757,6.249348l0,25.141054c0,3.519748 -2.731236,6.321179 -6.092757,6.321179l-69.261338,0c-3.431553,0 -6.162788,-2.801432 -6.162788,-6.321179zm0,0"/>
  <path id="svg_163" stroke-linejoin="round" stroke-width="2" stroke="#442845" fill="none" d="m161.097555,213.106986l0,-25.141054c0,-3.519748 2.731236,-6.321179 6.162788,-6.321179l69.191307,0c3.431553,0 6.162788,2.801432 6.162788,6.321179l0,25.141054c0,3.447916 -2.731236,6.249348 -6.162788,6.249348l-69.191307,0c-3.431553,0 -6.162788,-2.801432 -6.162788,-6.249348zm0,0"/>
  <text x="0" y="0" id="svg_164" transform="matrix(0.7003168684038634,0,0,0.7183158348616381,188.05975486640222,197.95052155378158) " fill="#000000" font-size="16" font-family="Helvetica" xml:space="preserve">R</text>
  <text x="0" y="0" id="svg_165" transform="matrix(0.7003168684038634,0,0,0.7183158348616381,196.18343053988704,197.95052155378158) " fill="#000000" font-size="16" font-family="Helvetica" xml:space="preserve">o</text>
  <text x="0" y="0" id="svg_166" transform="matrix(0.7003168684038634,0,0,0.7183158348616381,202.4162506686814,197.95052155378158) " fill="#000000" font-size="16" font-family="Helvetica" xml:space="preserve">u</text>
  <text x="0" y="0" id="svg_167" transform="matrix(0.7003168684038634,0,0,0.7183158348616381,208.6490707974758,197.95052155378158) " fill="#000000" font-size="16" font-family="Helvetica" xml:space="preserve">t</text>
  <text x="0" y="0" id="svg_168" transform="matrix(0.7003168684038634,0,0,0.7183158348616381,211.7304650184528,197.95052155378158) " fill="#000000" font-size="16" font-family="Helvetica" xml:space="preserve">e</text>
  <text x="0" y="0" id="svg_169" transform="matrix(0.7003168684038634,0,0,0.7183158348616381,217.96328514724718,197.95052155378158) " fill="#000000" font-size="16" font-family="Helvetica" xml:space="preserve"/>
  <text x="0" y="0" id="svg_170" transform="matrix(0.7003168684038634,0,0,0.7183158348616381,170.5518331563056,211.59852241615272) " fill="#000000" font-size="16" font-family="Helvetica" xml:space="preserve">M</text>
  <text x="0" y="0" id="svg_171" transform="matrix(0.7003168684038634,0,0,0.7183158348616381,179.86604750607702,211.59852241615272) " fill="#000000" font-size="16" font-family="Helvetica" xml:space="preserve">a</text>
  <text x="0" y="0" id="svg_172" transform="matrix(0.7003168684038634,0,0,0.7183158348616381,186.09886763487137,211.59852241615272) " fill="#000000" font-size="16" font-family="Helvetica" xml:space="preserve">n</text>
  <text x="0" y="0" id="svg_173" transform="matrix(0.7003168684038634,0,0,0.7183158348616381,192.3316877636658,211.59852241615272) " fill="#000000" font-size="16" font-family="Helvetica" xml:space="preserve">a</text>
  <text x="0" y="0" id="svg_174" transform="matrix(0.7003168684038634,0,0,0.7183158348616381,198.56450789246017,211.59852241615272) " fill="#000000" font-size="16" font-family="Helvetica" xml:space="preserve">g</text>
  <text x="0" y="0" id="svg_175" transform="matrix(0.7003168684038634,0,0,0.7183158348616381,204.79732802125451,211.59852241615272) " fill="#000000" font-size="16" font-family="Helvetica" xml:space="preserve">e</text>
  <text x="0" y="0" id="svg_176" transform="matrix(0.7003168684038634,0,0,0.7183158348616381,211.03014815004894,211.59852241615272) " fill="#000000" font-size="16" font-family="Helvetica" xml:space="preserve">m</text>
  <text x="0" y="0" id="svg_177" transform="matrix(0.7003168684038634,0,0,0.7183158348616381,220.4143941866607,211.59852241615272) " fill="#000000" font-size="16" font-family="Helvetica" xml:space="preserve">e</text>
  <text x="0" y="0" id="svg_178" transform="matrix(0.7003168684038634,0,0,0.7183158348616381,226.6472143154551,211.59852241615272) " fill="#000000" font-size="16" font-family="Helvetica" xml:space="preserve">n</text>
  <text x="0" y="0" id="svg_179" transform="matrix(0.7003168684038634,0,0,0.7183158348616381,232.88003444424947,211.59852241615272) " fill="#000000" font-size="16" font-family="Helvetica" xml:space="preserve">t</text>
  <path id="svg_180" stroke-linejoin="round" stroke-width="2" stroke="#000000" fill="none" d="m116.347308,284.435748l112.891079,0l0.700317,0"/>
  <path id="svg_181" fill="#000000" d="m233.93051,284.50758l-7.003169,-4.166232l0,0c-0.490222,-0.287326 -1.050475,-0.143663 -1.330602,0.359158c-0.210095,0.43099 -0.070032,1.005642 0.350158,1.292969l4.271933,2.514105l-4.271933,2.514105l0,0c-0.42019,0.287326 -0.560253,0.861979 -0.350158,1.3648c0.280127,0.43099 0.84038,0.574653 1.330602,0.287326c0,0 0,0 0,0l7.003169,-4.166232zm0,0"/>
  <text x="0" y="0" id="svg_182" transform="matrix(0.7003168684038634,0,0,0.7183158348616381,182.4572199191713,330.83895100318466) " fill="#000000" font-size="18" font-family="Helvetica" xml:space="preserve">A</text>
  <text x="0" y="0" id="svg_183" transform="matrix(0.7003168684038634,0,0,0.7183158348616381,190.86102234001766,330.83895100318466) " fill="#000000" font-size="18" font-family="Helvetica" xml:space="preserve">m</text>
  <text x="0" y="0" id="svg_184" transform="matrix(0.7003168684038634,0,0,0.7183158348616381,201.3657753660756,330.83895100318466) " fill="#000000" font-size="18" font-family="Helvetica" xml:space="preserve">a</text>
  <text x="0" y="0" id="svg_185" transform="matrix(0.7003168684038634,0,0,0.7183158348616381,208.36894405011424,330.83895100318466) " fill="#000000" font-size="18" font-family="Helvetica" xml:space="preserve">l</text>
  <text x="0" y="0" id="svg_186" transform="matrix(0.7003168684038634,0,0,0.7183158348616381,211.1702115237297,330.83895100318466) " fill="#000000" font-size="18" font-family="Helvetica" xml:space="preserve">g</text>
  <text x="0" y="0" id="svg_187" transform="matrix(0.7003168684038634,0,0,0.7183158348616381,218.17338020776833,330.83895100318466) " fill="#000000" font-size="18" font-family="Helvetica" xml:space="preserve">a</text>
  <text x="0" y="0" id="svg_188" transform="matrix(0.7003168684038634,0,0,0.7183158348616381,225.17654889180696,330.83895100318466) " fill="#000000" font-size="18" font-family="Helvetica" xml:space="preserve">m</text>
  <text x="0" y="0" id="svg_189" transform="matrix(0.7003168684038634,0,0,0.7183158348616381,235.68130191786491,330.83895100318466) " fill="#000000" font-size="18" font-family="Helvetica" xml:space="preserve">8</text>
  <text x="0" y="0" id="svg_190" transform="matrix(0.7003168684038634,0,0,0.7183158348616381,242.75450228874396,330.83895100318466) " fill="#000000" font-size="18" font-family="Helvetica" xml:space="preserve"/>
  <text x="0" y="0" id="svg_191" transform="matrix(0.7003168684038634,0,0,0.7183158348616381,246.25608663076326,330.83895100318466) " fill="#000000" font-size="18" font-family="Helvetica" xml:space="preserve">S</text>
  <text x="0" y="0" id="svg_192" transform="matrix(0.7003168684038634,0,0,0.7183158348616381,254.65988905160964,330.83895100318466) " fill="#000000" font-size="18" font-family="Helvetica" xml:space="preserve">i</text>
  <text x="0" y="0" id="svg_193" transform="matrix(0.7003168684038634,0,0,0.7183158348616381,257.4611565252251,330.83895100318466) " fill="#000000" font-size="18" font-family="Helvetica" xml:space="preserve">d</text>
  <text x="0" y="0" id="svg_194" transform="matrix(0.7003168684038634,0,0,0.7183158348616381,264.4643252092637,330.83895100318466) " fill="#000000" font-size="18" font-family="Helvetica" xml:space="preserve">e</text>
  <text x="0" y="0" id="svg_195" transform="matrix(0.7003168684038634,0,0,0.7183158348616381,271.46749389330233,330.83895100318466) " fill="#000000" font-size="18" font-family="Helvetica" xml:space="preserve">c</text>
  <text x="0" y="0" id="svg_196" transform="matrix(0.7003168684038634,0,0,0.7183158348616381,277.7703457089371,330.83895100318466) " fill="#000000" font-size="18" font-family="Helvetica" xml:space="preserve">a</text>
  <text x="0" y="0" id="svg_197" transform="matrix(0.7003168684038634,0,0,0.7183158348616381,284.77351439297576,330.83895100318466) " fill="#000000" font-size="18" font-family="Helvetica" xml:space="preserve">r</text>
  <g transform="matrix(0.7003168684038634,0,0,-0.7183158348616381,-0.32548273423706675,439.304642067292) " id="svg_198">
   <clipPath transform="translate(0,-1.1368683772161603e-13) " id="clip-324">
    <path id="svg_199" d="m467.6,289.5l0,-41.1l-102.5,0l0,41.1l102.5,0zm0,0"/>
   </clipPath>
   <g id="svg_200" clip-path="url(#clip-324)">
    <path id="svg_201" fill="#EDEDED" d="m373.2,288l86.3,0c3.6,0 6.6,-3 6.6,-6.6l0,-25c0,-3.6 -3,-6.5 -6.6,-6.5l-86.3,0c-3.6,0 -6.6,2.9 -6.6,6.5l0,25c0,3.6 3,6.6 6.6,6.6zm0,0"/>
    <path id="svg_202" stroke-dasharray="4.0, 3.0" stroke-linejoin="round" stroke="#442845" fill="none" d="m373.2,288l86.3,0c3.7,0 6.6,-2.9 6.6,-6.6l0,-24.9c0,-3.7 -2.9,-6.6 -6.6,-6.6l-86.3,0c-3.6,0 -6.5,2.9 -6.5,6.6l0,24.9c0,3.7 2.9,6.6 6.5,6.6zm0,0"/>
   </g>
  </g>
  <g transform="matrix(0.7003168684038634,0,0,-0.7183158348616381,-0.32548273423706675,439.304642067292) " id="svg_203">
   <clipPath transform="translate(0,-1.1368683772161603e-13) " id="clip-325">
    <path id="svg_204" d="m368.6,256.8l95.5,0l0,24.2l-95.5,0l0,-24.2zm0,0"/>
   </clipPath>
   <g id="svg_205" clip-path="url(#clip-325)">
    <text x="0" y="0" id="svg_206" transform="matrix(1,0,0,-1,379,264) " fill="#000000" font-size="14" font-family="Helvetica" xml:space="preserve">C</text>
    <text x="0" y="0" id="svg_207" transform="matrix(1,0,0,-1,389.1,264) " fill="#000000" font-size="14" font-family="Helvetica" xml:space="preserve">o</text>
    <text x="0" y="0" id="svg_208" transform="matrix(1,0,0,-1,396.9,264) " fill="#000000" font-size="14" font-family="Helvetica" xml:space="preserve">n</text>
    <text x="0" y="0" id="svg_209" transform="matrix(1,0,0,-1,404.7,264) " fill="#000000" font-size="14" font-family="Helvetica" xml:space="preserve">f</text>
    <text x="0" y="0" id="svg_210" transform="matrix(1,0,0,-1,408.6,264) " fill="#000000" font-size="14" font-family="Helvetica" xml:space="preserve">i</text>
    <text x="0" y="0" id="svg_211" transform="matrix(1,0,0,-1,411.7,264) " fill="#000000" font-size="14" font-family="Helvetica" xml:space="preserve">g</text>
    <text x="0" y="0" id="svg_212" transform="matrix(1,0,0,-1,419.5,264) " fill="#000000" font-size="14" font-family="Helvetica" xml:space="preserve"/>
    <text x="0" y="0" id="svg_213" transform="matrix(1,0,0,-1,423.4,264) " fill="#000000" font-size="14" font-family="Helvetica" xml:space="preserve">/</text>
    <text x="0" y="0" id="svg_214" transform="matrix(1,0,0,-1,427.3,264) " fill="#000000" font-size="14" font-family="Helvetica" xml:space="preserve"/>
    <text x="0" y="0" id="svg_215" transform="matrix(1,0,0,-1,431.2,264) " fill="#000000" font-size="14" font-family="Helvetica" xml:space="preserve">L</text>
    <text x="0" y="0" id="svg_216" transform="matrix(1,0,0,-1,439,264) " fill="#000000" font-size="14" font-family="Helvetica" xml:space="preserve">u</text>
    <text x="0" y="0" id="svg_217" transform="matrix(1,0,0,-1,446.7,264) " fill="#000000" font-size="14" font-family="Helvetica" xml:space="preserve">a</text>
   </g>
  </g>
  <path id="svg_218" stroke-linejoin="round" stroke-width="1.5" stroke="#595959" fill="none" d="m202.206156,101.983526l0,75.782321l0,0.502821"/>
  <path id="svg_219" fill="#595959" d="m201.855997,181.644752l3.361521,-5.818358l0,0c0.210095,-0.359158 0.070032,-0.861979 -0.280127,-1.077474c-0.350158,-0.215495 -0.84038,-0.071832 -1.050475,0.287326l-2.030919,3.519748l-1.960887,-3.591579l0,0c-0.210095,-0.359158 -0.700317,-0.43099 -1.050475,-0.215495c-0.350158,0.143663 -0.490222,0.646484 -0.280127,1.005642c0,0 0,0 0,0l3.291489,5.89019zm0,0"/>
  <path id="svg_220" stroke-linejoin="round" stroke-width="1.5" stroke="#595959" fill="none" d="m242.194249,200.464627l49.022181,0l0,27.726991l0,0.574653"/>
  <path id="svg_221" fill="#595959" d="m291.21643,232.070524l3.291489,-5.818358l0,0c0.210095,-0.359158 0.140063,-0.861979 -0.280127,-1.077474c-0.350158,-0.215495 -0.770349,-0.071832 -0.980444,0.287326l-2.030919,3.519748l-2.030919,-3.519748l0,0c-0.210095,-0.359158 -0.630285,-0.502821 -0.980444,-0.287326c-0.42019,0.215495 -0.490222,0.718316 -0.280127,1.077474c0,0 0,0 0,0l3.291489,5.818358zm0,0"/>
 </g>
</svg>