<svg width="502" height="242" xmlns="http://www.w3.org/2000/svg" clip-rule="evenodd">
 <desc>SVG generated by Keynote</desc>

 <g>
  <title>background</title>
  <rect x="-1" y="-1" width="504" height="244" id="canvas_background" fill="none"/>
 </g>
 <g>
  <title>Layer 1</title>
  <path d="m28.52897,63.27101l0,-40.23322c0,-5.58029 4.9874,-10.05831 11.03274,-10.05831l80.17632,0c6.12091,0 11.10832,4.47802 11.10832,10.05831l0,40.23322c0,5.5803 -4.98741,10.05831 -11.10831,10.05831l-80.17633,0c-6.04534,0 -11.03274,-4.47801 -11.03274,-10.05831zm0,0" fill="#FFFFFF" id="svg_219"/>
  <path d="m28.52897,63.27101l0,-40.23322c0,-5.58029 4.91183,-10.05831 11.03274,-10.05831l80.17632,0c6.12091,0 11.03275,4.47802 11.03275,10.05831l0,40.23322c0,5.5803 -4.91184,10.05831 -11.03275,10.05831l-80.17632,0c-6.12091,0 -11.03274,-4.47801 -11.03274,-10.05831zm0,0" fill="none" stroke="#000000" stroke-width="2" stroke-linejoin="round" id="svg_220"/>
  <path d="m27.3199,175.91027l0,-47.8803c0,-6.61368 5.8942,-11.9184 13.14861,-11.9184l76.02015,0c7.25441,0 13.14862,5.30472 13.14862,11.9184l0,47.8803c0,6.54478 -5.89421,11.9184 -13.14862,11.9184l-76.02015,0c-7.2544,0 -13.14861,-5.37362 -13.14861,-11.9184zm0,0" fill="#EDEDED" id="svg_322"/>
  <path d="m399.63728,218.8303l0,-192.55456c0,-7.3715 6.57431,-13.29626 14.65995,-13.29626l58.33753,0c8.08564,0 14.58438,5.92476 14.58438,13.29626l0,192.55456c0,7.3026 -6.49874,13.29625 -14.58438,13.29625l-58.33753,0c-8.08564,0 -14.65995,-5.99365 -14.65995,-13.29625zm0,0" fill="#FFFFFF" id="svg_337"/>
  <path d="m217.14358,204.84512l-202.21663,0l0,-161.69072l8.53904,0l0.75567,0" fill="none" stroke="#9D6E80" stroke-width="2" stroke-linejoin="round" id="svg_397"/>
  <text xml:space="preserve" font-family="Helvetica" font-size="16" fill="#000000" transform="matrix(0.755667507648468,0,0,0.6889250874519348,234.99496263861658,140.91856801509857) " id="svg_188" y="0" x="0"/>
  <g id="svg_3" transform="matrix(0.755667507648468,0,0,-0.6889250874519348,-0.24433249235153198,421.31107860803604) ">
   <clipPath id="clip-188">
    <path d="m62.54333,159.09408l139.4,0l0,91.6l-139.4,0l0,-91.6zm0,0" id="svg_4"/>
   </clipPath>
   <g clip-path="url(#clip-188)" id="svg_5">
    <path d="m64.54333,175.69408l0,58.4c0,8.1 6.6,14.6 14.6,14.6l106.1,0c8.1,0 14.7,-6.5 14.7,-14.6l0,-58.4c0,-8.1 -6.6,-14.6 -14.7,-14.6l-106.1,0c-8,0 -14.6,6.5 -14.6,14.6zm0,0" fill="#FFFFFF" id="svg_6"/>
    <path d="m64.54333,175.69408l0,58.4c0,8.1 6.5,14.6 14.6,14.6l106.1,0c8.1,0 14.6,-6.5 14.6,-14.6l0,-58.4c0,-8.1 -6.5,-14.6 -14.6,-14.6l-106.1,0c-8.1,0 -14.6,6.5 -14.6,14.6zm0,0" fill="none" stroke="#000000" stroke-width="2" stroke-linejoin="round" id="svg_7"/>
   </g>
  </g>
  <g id="svg_8" transform="matrix(0.755667507648468,0,0,-0.6889250874519348,-0.24433249235153198,421.31107860803604) ">
   <clipPath id="clip-189">
    <path d="m67.94333,178.39408l128.6,0l0,53l-128.6,0l0,-53zm0,0" id="svg_9"/>
   </clipPath>
   <g clip-path="url(#clip-189)" id="svg_10">
    <text xml:space="preserve" font-family="Helvetica" font-size="18" fill="#000000" transform="matrix(1,0,0,-1,159,404) " id="svg_11" y="194.505917" x="-54.256668">T</text>
    <text xml:space="preserve" font-family="Helvetica" font-size="18" fill="#000000" transform="matrix(1,0,0,-1,168,404) " id="svg_12" y="194.505917" x="-54.256668">e</text>
    <text xml:space="preserve" font-family="Helvetica" font-size="18" fill="#000000" transform="matrix(1,0,0,-1,178,404) " id="svg_13" y="194.505917" x="-54.256668">n</text>
    <text xml:space="preserve" font-family="Helvetica" font-size="18" fill="#000000" transform="matrix(1,0,0,-1,188,404) " id="svg_14" y="194.505917" x="-54.256668">a</text>
    <text xml:space="preserve" font-family="Helvetica" font-size="18" fill="#000000" transform="matrix(1,0,0,-1,198,404) " id="svg_15" y="194.505917" x="-54.256668">n</text>
    <text xml:space="preserve" font-family="Helvetica" font-size="18" fill="#000000" transform="matrix(1,0,0,-1,208,404) " id="svg_16" y="194.505917" x="-54.256668">t</text>
    <text xml:space="preserve" font-family="Helvetica" font-size="18" fill="#000000" transform="matrix(1,0,0,-1,142,382) " id="svg_17" y="194.505917" x="-54.256668">A</text>
    <text xml:space="preserve" font-family="Helvetica" font-size="18" fill="#000000" transform="matrix(1,0,0,-1,154,382) " id="svg_18" y="194.505917" x="-54.256668">p</text>
    <text xml:space="preserve" font-family="Helvetica" font-size="18" fill="#000000" transform="matrix(1,0,0,-1,164,382) " id="svg_19" y="194.505917" x="-54.256668">p</text>
    <text xml:space="preserve" font-family="Helvetica" font-size="18" fill="#000000" transform="matrix(1,0,0,-1,174,382) " id="svg_20" y="194.505917" x="-54.256668">l</text>
    <text xml:space="preserve" font-family="Helvetica" font-size="18" fill="#000000" transform="matrix(1,0,0,-1,178,382) " id="svg_21" y="194.505917" x="-54.256668">i</text>
    <text xml:space="preserve" font-family="Helvetica" font-size="18" fill="#000000" transform="matrix(1,0,0,-1,182,382) " id="svg_22" y="194.505917" x="-54.256668">c</text>
    <text xml:space="preserve" font-family="Helvetica" font-size="18" fill="#000000" transform="matrix(1,0,0,-1,191,382) " id="svg_23" y="194.505917" x="-54.256668">a</text>
    <text xml:space="preserve" font-family="Helvetica" font-size="18" fill="#000000" transform="matrix(1,0,0,-1,201.1,382) " id="svg_24" y="194.505917" x="-54.256668">t</text>
    <text xml:space="preserve" font-family="Helvetica" font-size="18" fill="#000000" transform="matrix(1,0,0,-1,206.1,382) " id="svg_25" y="194.505917" x="-54.256668">i</text>
    <text xml:space="preserve" font-family="Helvetica" font-size="18" fill="#000000" transform="matrix(1,0,0,-1,210.1,382) " id="svg_26" y="194.505917" x="-54.256668">o</text>
    <text xml:space="preserve" font-family="Helvetica" font-size="18" fill="#000000" transform="matrix(1,0,0,-1,220.1,382) " id="svg_27" y="194.505917" x="-54.256668">n</text>
   </g>
  </g>
  <g id="svg_28" transform="matrix(0.755667507648468,0,0,-0.6889250874519348,-0.24433249235153198,421.31107860803604) ">
   <clipPath id="clip-190">
    <path d="m316.64333,159.09408l139.4,0l0,91.6l-139.4,0l0,-91.6zm0,0" id="svg_29"/>
   </clipPath>
   <g clip-path="url(#clip-190)" id="svg_30">
    <path d="m318.64333,175.69408l0,58.4c0,8.1 6.6,14.6 14.6,14.6l106.2,0c8,0 14.6,-6.5 14.6,-14.6l0,-58.4c0,-8.1 -6.6,-14.6 -14.6,-14.6l-106.2,0c-8,0 -14.6,6.5 -14.6,14.6zm0,0" fill="#EDEDED" id="svg_31"/>
    <path d="m318.64333,175.69408l0,58.4c0,8.1 6.5,14.6 14.6,14.6l106.1,0c8.1,0 14.6,-6.5 14.6,-14.6l0,-58.4c0,-8.1 -6.5,-14.6 -14.6,-14.6l-106.1,0c-8.1,0 -14.6,6.5 -14.6,14.6zm0,0" fill="none" stroke="#442845" stroke-width="2" stroke-linejoin="round" id="svg_32"/>
   </g>
  </g>
  <g id="svg_33" transform="matrix(0.755667507648468,0,0,-0.6889250874519348,-0.24433249235153198,421.31107860803604) ">
   <clipPath id="clip-191">
    <path d="m322.04333,178.39408l128.6,0l0,53l-128.6,0l0,-53zm0,0" id="svg_34"/>
   </clipPath>
   <g clip-path="url(#clip-191)" id="svg_35">
    <text xml:space="preserve" font-family="Helvetica" font-size="18" fill="#000000" transform="matrix(1,0,0,-1,411,404) " id="svg_36" y="194.505917" x="-54.256668">S</text>
    <text xml:space="preserve" font-family="Helvetica" font-size="18" fill="#000000" transform="matrix(1,0,0,-1,423,404) " id="svg_37" y="194.505917" x="-54.256668">e</text>
    <text xml:space="preserve" font-family="Helvetica" font-size="18" fill="#000000" transform="matrix(1,0,0,-1,433,404) " id="svg_38" y="194.505917" x="-54.256668">r</text>
    <text xml:space="preserve" font-family="Helvetica" font-size="18" fill="#000000" transform="matrix(1,0,0,-1,439,404) " id="svg_39" y="194.505917" x="-54.256668">v</text>
    <text xml:space="preserve" font-family="Helvetica" font-size="18" fill="#000000" transform="matrix(1,0,0,-1,448,404) " id="svg_40" y="194.505917" x="-54.256668">i</text>
    <text xml:space="preserve" font-family="Helvetica" font-size="18" fill="#000000" transform="matrix(1,0,0,-1,452,404) " id="svg_41" y="194.505917" x="-54.256668">c</text>
    <text xml:space="preserve" font-family="Helvetica" font-size="18" fill="#000000" transform="matrix(1,0,0,-1,461,404) " id="svg_42" y="194.505917" x="-54.256668">e</text>
    <text xml:space="preserve" font-family="Helvetica" font-size="18" fill="#000000" transform="matrix(1,0,0,-1,471,404) " id="svg_43" y="194.505917" x="-54.256668"/>
    <text xml:space="preserve" font-family="Helvetica" font-size="18" fill="#000000" transform="matrix(1,0,0,-1,393,382) " id="svg_44" y="194.505917" x="-54.256668">R</text>
    <text xml:space="preserve" font-family="Helvetica" font-size="18" fill="#000000" transform="matrix(1,0,0,-1,406,382) " id="svg_45" y="194.505917" x="-54.256668">e</text>
    <text xml:space="preserve" font-family="Helvetica" font-size="18" fill="#000000" transform="matrix(1,0,0,-1,416,382) " id="svg_46" y="194.505917" x="-54.256668">g</text>
    <text xml:space="preserve" font-family="Helvetica" font-size="18" fill="#000000" transform="matrix(1,0,0,-1,426,382) " id="svg_47" y="194.505917" x="-54.256668">i</text>
    <text xml:space="preserve" font-family="Helvetica" font-size="18" fill="#000000" transform="matrix(1,0,0,-1,430,382) " id="svg_48" y="194.505917" x="-54.256668">s</text>
    <text xml:space="preserve" font-family="Helvetica" font-size="18" fill="#000000" transform="matrix(1,0,0,-1,439,382) " id="svg_49" y="194.505917" x="-54.256668">t</text>
    <text xml:space="preserve" font-family="Helvetica" font-size="18" fill="#000000" transform="matrix(1,0,0,-1,444,382) " id="svg_50" y="194.505917" x="-54.256668">r</text>
    <text xml:space="preserve" font-family="Helvetica" font-size="18" fill="#000000" transform="matrix(1,0,0,-1,450,382) " id="svg_51" y="194.505917" x="-54.256668">a</text>
    <text xml:space="preserve" font-family="Helvetica" font-size="18" fill="#000000" transform="matrix(1,0,0,-1,460,382) " id="svg_52" y="194.505917" x="-54.256668">t</text>
    <text xml:space="preserve" font-family="Helvetica" font-size="18" fill="#000000" transform="matrix(1,0,0,-1,465,382) " id="svg_53" y="194.505917" x="-54.256668">i</text>
    <text xml:space="preserve" font-family="Helvetica" font-size="18" fill="#000000" transform="matrix(1,0,0,-1,469,382) " id="svg_54" y="194.505917" x="-54.256668">o</text>
    <text xml:space="preserve" font-family="Helvetica" font-size="18" fill="#000000" transform="matrix(1,0,0,-1,479.1,382) " id="svg_55" y="194.505917" x="-54.256668">n</text>
   </g>
  </g>
  <g id="svg_56" transform="matrix(0.755667507648468,0,0,-0.6889250874519348,-0.24433249235153198,421.31107860803604) ">
   <clipPath id="clip-192">
    <path d="m314.84333,38.69408l139.3,0l0,93.5l-139.3,0l0,-93.5zm0,0" id="svg_57"/>
   </clipPath>
   <g clip-path="url(#clip-192)" id="svg_58">
    <path d="m316.84333,55.59408l0,59.7c0,8.2 6.6,14.9 14.9,14.9l105.5,0c8.2,0 14.9,-6.7 14.9,-14.9l0,-59.7c0,-8.2 -6.7,-14.9 -14.9,-14.9l-105.5,0c-8.3,0 -14.9,6.7 -14.9,14.9zm0,0" fill="#EDEDED" id="svg_59"/>
    <path d="m316.84333,55.59408l0,59.7c0,8.2 6.7,14.9 14.9,14.9l105.5,0c8.3,0 14.9,-6.7 14.9,-14.9l0,-59.7c0,-8.2 -6.6,-14.9 -14.9,-14.9l-105.5,0c-8.2,0 -14.9,6.7 -14.9,14.9zm0,0" fill="none" stroke="#442845" stroke-width="2" stroke-linejoin="round" id="svg_60"/>
   </g>
  </g>
  <g id="svg_61" transform="matrix(0.755667507648468,0,0,-0.6889250874519348,-0.24433249235153198,421.31107860803604) ">
   <clipPath id="clip-193">
    <path d="m320.24333,58.99408l128.4,0l0,53l-128.4,0l0,-53zm0,0" id="svg_62"/>
   </clipPath>
   <g clip-path="url(#clip-193)" id="svg_63">
    <text xml:space="preserve" font-family="Helvetica" font-size="18" fill="#000000" transform="matrix(1,0,0,-1,415,284) " id="svg_64" y="194.505917" x="-54.256668">R</text>
    <text xml:space="preserve" font-family="Helvetica" font-size="18" fill="#000000" transform="matrix(1,0,0,-1,428,284) " id="svg_65" y="194.505917" x="-54.256668">o</text>
    <text xml:space="preserve" font-family="Helvetica" font-size="18" fill="#000000" transform="matrix(1,0,0,-1,438,284) " id="svg_66" y="194.505917" x="-54.256668">u</text>
    <text xml:space="preserve" font-family="Helvetica" font-size="18" fill="#000000" transform="matrix(1,0,0,-1,448,284) " id="svg_67" y="194.505917" x="-54.256668">t</text>
    <text xml:space="preserve" font-family="Helvetica" font-size="18" fill="#000000" transform="matrix(1,0,0,-1,453,284) " id="svg_68" y="194.505917" x="-54.256668">e</text>
    <text xml:space="preserve" font-family="Helvetica" font-size="18" fill="#000000" transform="matrix(1,0,0,-1,463.1,284) " id="svg_69" y="194.505917" x="-54.256668"/>
    <text xml:space="preserve" font-family="Helvetica" font-size="18" fill="#000000" transform="matrix(1,0,0,-1,386,262) " id="svg_70" y="194.505917" x="-54.256668">M</text>
    <text xml:space="preserve" font-family="Helvetica" font-size="18" fill="#000000" transform="matrix(1,0,0,-1,401,262) " id="svg_71" y="194.505917" x="-54.256668">a</text>
    <text xml:space="preserve" font-family="Helvetica" font-size="18" fill="#000000" transform="matrix(1,0,0,-1,411,262) " id="svg_72" y="194.505917" x="-54.256668">n</text>
    <text xml:space="preserve" font-family="Helvetica" font-size="18" fill="#000000" transform="matrix(1,0,0,-1,421,262) " id="svg_73" y="194.505917" x="-54.256668">a</text>
    <text xml:space="preserve" font-family="Helvetica" font-size="18" fill="#000000" transform="matrix(1,0,0,-1,431,262) " id="svg_74" y="194.505917" x="-54.256668">g</text>
    <text xml:space="preserve" font-family="Helvetica" font-size="18" fill="#000000" transform="matrix(1,0,0,-1,441.1,262) " id="svg_75" y="194.505917" x="-54.256668">e</text>
    <text xml:space="preserve" font-family="Helvetica" font-size="18" fill="#000000" transform="matrix(1,0,0,-1,451.1,262) " id="svg_76" y="194.505917" x="-54.256668">m</text>
    <text xml:space="preserve" font-family="Helvetica" font-size="18" fill="#000000" transform="matrix(1,0,0,-1,466.1,262) " id="svg_77" y="194.505917" x="-54.256668">e</text>
    <text xml:space="preserve" font-family="Helvetica" font-size="18" fill="#000000" transform="matrix(1,0,0,-1,476.1,262) " id="svg_78" y="194.505917" x="-54.256668">n</text>
    <text xml:space="preserve" font-family="Helvetica" font-size="18" fill="#000000" transform="matrix(1,0,0,-1,486.1,262) " id="svg_79" y="194.505917" x="-54.256668">t</text>
   </g>
  </g>
  <g id="svg_80" transform="matrix(0.755667507648468,0,0,-0.6889250874519348,-0.24433249235153198,421.31107860803604) ">
   <clipPath id="clip-194">
    <path d="m314.84333,-71.40592l139.3,0l0,83.2l-139.3,0l0,-83.2zm0,0" id="svg_81"/>
   </clipPath>
   <g clip-path="url(#clip-194)" id="svg_82">
    <path d="m316.84333,-56.20592l0,52.8c0,7.3 5.9,13.2 13.2,13.2l108.9,0c7.3,0 13.2,-5.9 13.2,-13.2l0,-52.8c0,-7.3 -5.9,-13.2 -13.2,-13.2l-108.9,0c-7.3,0 -13.2,5.9 -13.2,13.2zm0,0" fill="#EDEDED" id="svg_83"/>
    <path d="m316.84333,-56.20592l0,52.8c0,7.3 5.9,13.2 13.2,13.2l108.9,0c7.3,0 13.2,-5.9 13.2,-13.2l0,-52.8c0,-7.3 -5.9,-13.2 -13.2,-13.2l-108.9,0c-7.3,0 -13.2,5.9 -13.2,13.2zm0,0" fill="none" stroke="#442845" stroke-width="2" stroke-linejoin="round" id="svg_84"/>
   </g>
  </g>
  <g id="svg_85" transform="matrix(0.755667507648468,0,0,-0.6889250874519348,-0.24433249235153198,421.31107860803604) ">
   <clipPath id="clip-195">
    <path d="m293.276662,298.708267l129.4,0l0,31l-129.4,0l0,-31zm0,0" id="svg_86"/>
   </clipPath>
   <g clip-path="url(#clip-195)" id="svg_87">
    <text xml:space="preserve" font-family="Helvetica" font-size="18" fill="#000000" transform="matrix(1,0,0,-1,396,158) " id="svg_88" y="194.505917" x="-54.256668">S</text>
    <text xml:space="preserve" font-family="Helvetica" font-size="18" fill="#000000" transform="matrix(1,0,0,-1,408,158) " id="svg_89" y="194.505917" x="-54.256668">u</text>
    <text xml:space="preserve" font-family="Helvetica" font-size="18" fill="#000000" transform="matrix(1,0,0,-1,418,158) " id="svg_90" y="194.505917" x="-54.256668">p</text>
    <text xml:space="preserve" font-family="Helvetica" font-size="18" fill="#000000" transform="matrix(1,0,0,-1,428,158) " id="svg_91" y="194.505917" x="-54.256668">e</text>
    <text xml:space="preserve" font-family="Helvetica" font-size="18" fill="#000000" transform="matrix(1,0,0,-1,438,158) " id="svg_92" y="194.505917" x="-54.256668">r</text>
    <text xml:space="preserve" font-family="Helvetica" font-size="18" fill="#000000" transform="matrix(1,0,0,-1,444,158) " id="svg_93" y="194.505917" x="-54.256668">v</text>
    <text xml:space="preserve" font-family="Helvetica" font-size="18" fill="#000000" transform="matrix(1,0,0,-1,453,158) " id="svg_94" y="194.505917" x="-54.256668">i</text>
    <text xml:space="preserve" font-family="Helvetica" font-size="18" fill="#000000" transform="matrix(1,0,0,-1,457,158) " id="svg_95" y="194.505917" x="-54.256668">s</text>
    <text xml:space="preserve" font-family="Helvetica" font-size="18" fill="#000000" transform="matrix(1,0,0,-1,466,158) " id="svg_96" y="194.505917" x="-54.256668">o</text>
    <text xml:space="preserve" font-family="Helvetica" font-size="18" fill="#000000" transform="matrix(1,0,0,-1,476.1,158) " id="svg_97" y="194.505917" x="-54.256668">r</text>
   </g>
  </g>
  <g id="svg_98" transform="matrix(0.755667507648468,0,0,-0.6889250874519348,-0.24433249235153198,421.31107860803604) ">
   <clipPath id="clip-196">
    <path d="m60.94333,-7.10592l139.4,0l0,108.1l-139.4,0l0,-108.1zm0,0" id="svg_99"/>
   </clipPath>
   <g clip-path="url(#clip-196)" id="svg_100">
    <path d="m62.94333,12.19408l0,69.5c0,9.6 7.8,17.3 17.4,17.3l100.6,0c9.6,0 17.4,-7.7 17.4,-17.3l0,-69.5c0,-9.5 -7.8,-17.3 -17.4,-17.3l-100.6,0c-9.6,0 -17.4,7.8 -17.4,17.3zm0,0" fill="#EDEDED" id="svg_101"/>
    <path d="m62.94333,12.19408l0,69.4c0,9.6 7.8,17.4 17.4,17.4l100.6,0c9.6,0 17.3,-7.8 17.3,-17.4l0,-69.4c0,-9.6 -7.7,-17.3 -17.3,-17.3l-100.6,0c-9.6,0 -17.4,7.7 -17.4,17.3zm0,0" fill="none" stroke="#442845" stroke-width="2" stroke-linejoin="round" id="svg_102"/>
   </g>
  </g>
  <g id="svg_103" transform="matrix(0.755667507648468,0,0,-0.6889250874519348,-0.24433249235153198,421.31107860803604) ">
   <clipPath id="clip-197">
    <path d="m67.14333,31.49408l127,0l0,31l-127,0l0,-31zm0,0" id="svg_104"/>
   </clipPath>
   <g clip-path="url(#clip-197)" id="svg_105">
    <text xml:space="preserve" font-family="Helvetica" font-size="18" fill="#000000" transform="matrix(1,0,0,-1,162,235) " id="svg_106" y="194.505917" x="-54.256668">P</text>
    <text xml:space="preserve" font-family="Helvetica" font-size="18" fill="#000000" transform="matrix(1,0,0,-1,174,235) " id="svg_107" y="194.505917" x="-54.256668">r</text>
    <text xml:space="preserve" font-family="Helvetica" font-size="18" fill="#000000" transform="matrix(1,0,0,-1,180,235) " id="svg_108" y="194.505917" x="-54.256668">o</text>
    <text xml:space="preserve" font-family="Helvetica" font-size="18" fill="#000000" transform="matrix(1,0,0,-1,190,235) " id="svg_109" y="194.505917" x="-54.256668">x</text>
    <text xml:space="preserve" font-family="Helvetica" font-size="18" fill="#000000" transform="matrix(1,0,0,-1,199,235) " id="svg_110" y="194.505917" x="-54.256668">y</text>
   </g>
  </g>
  <g id="svg_111" transform="matrix(0.755667507648468,0,0,-0.6889250874519348,-0.24433249235153198,421.31107860803604) ">
   <clipPath id="clip-198">
    <path d="m553.64333,-71.40592l119.9,0l0,322.1l-119.9,0l0,-322.1zm0,0" id="svg_112"/>
   </clipPath>
   <g clip-path="url(#clip-198)" id="svg_113">
    <path d="m555.64333,-50.10592l0,279.5c0,10.7 8.7,19.3 19.4,19.3l77.2,0c10.7,0 19.3,-8.6 19.3,-19.3l0,-279.5c0,-10.6 -8.6,-19.3 -19.3,-19.3l-77.2,0c-10.7,0 -19.4,8.7 -19.4,19.3zm0,0" fill="#FFFFFF" id="svg_114"/>
    <path d="m555.64333,-50.10592l0,279.5c0,10.7 8.6,19.3 19.3,19.3l77.3,0c10.7,0 19.3,-8.6 19.3,-19.3l0,-279.5c0,-10.6 -8.6,-19.3 -19.3,-19.3l-77.3,0c-10.7,0 -19.3,8.7 -19.3,19.3zm0,0" fill="none" stroke="#000000" stroke-width="2" stroke-linejoin="round" id="svg_115"/>
   </g>
  </g>
  <g id="svg_116" transform="matrix(0.755667507648468,0,0,-0.6889250874519348,-0.24433249235153198,421.31107860803604) ">
   <clipPath id="clip-199">
    <path d="m560.44333,30.19408l112.9,0l0,119l-112.9,0l0,-119zm0,0" id="svg_117"/>
   </clipPath>
   <g clip-path="url(#clip-199)" id="svg_118">
    <text xml:space="preserve" font-family="Helvetica" font-size="18" fill="#000000" transform="matrix(1,0,0,-1,625,321) " id="svg_119" y="194.505917" x="-54.256668">A</text>
    <text xml:space="preserve" font-family="Helvetica" font-size="18" fill="#000000" transform="matrix(1,0,0,-1,637,321) " id="svg_120" y="194.505917" x="-54.256668">m</text>
    <text xml:space="preserve" font-family="Helvetica" font-size="18" fill="#000000" transform="matrix(1,0,0,-1,652,321) " id="svg_121" y="194.505917" x="-54.256668">a</text>
    <text xml:space="preserve" font-family="Helvetica" font-size="18" fill="#000000" transform="matrix(1,0,0,-1,662,321) " id="svg_122" y="194.505917" x="-54.256668">l</text>
    <text xml:space="preserve" font-family="Helvetica" font-size="18" fill="#000000" transform="matrix(1,0,0,-1,666,321) " id="svg_123" y="194.505917" x="-54.256668">g</text>
    <text xml:space="preserve" font-family="Helvetica" font-size="18" fill="#000000" transform="matrix(1,0,0,-1,676,321) " id="svg_124" y="194.505917" x="-54.256668">a</text>
    <text xml:space="preserve" font-family="Helvetica" font-size="18" fill="#000000" transform="matrix(1,0,0,-1,686,321) " id="svg_125" y="194.505917" x="-54.256668">m</text>
    <text xml:space="preserve" font-family="Helvetica" font-size="18" fill="#000000" transform="matrix(1,0,0,-1,701,321) " id="svg_126" y="194.505917" x="-54.256668">8</text>
    <text xml:space="preserve" font-family="Helvetica" font-size="18" fill="#000000" transform="matrix(1,0,0,-1,711.1,321) " id="svg_127" y="194.505917" x="-54.256668"/>
    <text xml:space="preserve" font-family="Helvetica" font-size="18" fill="#000000" transform="matrix(1,0,0,-1,639,299) " id="svg_128" y="194.505917" x="-54.256668">C</text>
    <text xml:space="preserve" font-family="Helvetica" font-size="18" fill="#000000" transform="matrix(1,0,0,-1,652,299) " id="svg_129" y="194.505917" x="-54.256668">o</text>
    <text xml:space="preserve" font-family="Helvetica" font-size="18" fill="#000000" transform="matrix(1,0,0,-1,662,299) " id="svg_130" y="194.505917" x="-54.256668">n</text>
    <text xml:space="preserve" font-family="Helvetica" font-size="18" fill="#000000" transform="matrix(1,0,0,-1,672,299) " id="svg_131" y="194.505917" x="-54.256668">t</text>
    <text xml:space="preserve" font-family="Helvetica" font-size="18" fill="#000000" transform="matrix(1,0,0,-1,677,299) " id="svg_132" y="194.505917" x="-54.256668">r</text>
    <text xml:space="preserve" font-family="Helvetica" font-size="18" fill="#000000" transform="matrix(1,0,0,-1,683,299) " id="svg_133" y="194.505917" x="-54.256668">o</text>
    <text xml:space="preserve" font-family="Helvetica" font-size="18" fill="#000000" transform="matrix(1,0,0,-1,693,299) " id="svg_134" y="194.505917" x="-54.256668">l</text>
    <text xml:space="preserve" font-family="Helvetica" font-size="18" fill="#000000" transform="matrix(1,0,0,-1,697,299) " id="svg_135" y="194.505917" x="-54.256668"/>
    <text xml:space="preserve" font-family="Helvetica" font-size="18" fill="#000000" transform="matrix(1,0,0,-1,645,277) " id="svg_136" y="194.505917" x="-54.256668">P</text>
    <text xml:space="preserve" font-family="Helvetica" font-size="18" fill="#000000" transform="matrix(1,0,0,-1,657,277) " id="svg_137" y="194.505917" x="-54.256668">l</text>
    <text xml:space="preserve" font-family="Helvetica" font-size="18" fill="#000000" transform="matrix(1,0,0,-1,661,277) " id="svg_138" y="194.505917" x="-54.256668">a</text>
    <text xml:space="preserve" font-family="Helvetica" font-size="18" fill="#000000" transform="matrix(1,0,0,-1,671,277) " id="svg_139" y="194.505917" x="-54.256668">n</text>
    <text xml:space="preserve" font-family="Helvetica" font-size="18" fill="#000000" transform="matrix(1,0,0,-1,681,277) " id="svg_140" y="194.505917" x="-54.256668">e</text>
    <text xml:space="preserve" font-family="Helvetica" font-size="18" fill="#000000" transform="matrix(1,0,0,-1,630,255) " id="svg_141" y="194.505917" x="-54.256668">(</text>
    <text xml:space="preserve" font-family="Helvetica" font-size="18" fill="#000000" transform="matrix(1,0,0,-1,636,255) " id="svg_142" y="194.505917" x="-54.256668">R</text>
    <text xml:space="preserve" font-family="Helvetica" font-size="18" fill="#000000" transform="matrix(1,0,0,-1,649,255) " id="svg_143" y="194.505917" x="-54.256668">e</text>
    <text xml:space="preserve" font-family="Helvetica" font-size="18" fill="#000000" transform="matrix(1,0,0,-1,659,255) " id="svg_144" y="194.505917" x="-54.256668">g</text>
    <text xml:space="preserve" font-family="Helvetica" font-size="18" fill="#000000" transform="matrix(1,0,0,-1,669,255) " id="svg_145" y="194.505917" x="-54.256668">i</text>
    <text xml:space="preserve" font-family="Helvetica" font-size="18" fill="#000000" transform="matrix(1,0,0,-1,673,255) " id="svg_146" y="194.505917" x="-54.256668">s</text>
    <text xml:space="preserve" font-family="Helvetica" font-size="18" fill="#000000" transform="matrix(1,0,0,-1,682,255) " id="svg_147" y="194.505917" x="-54.256668">t</text>
    <text xml:space="preserve" font-family="Helvetica" font-size="18" fill="#000000" transform="matrix(1,0,0,-1,687,255) " id="svg_148" y="194.505917" x="-54.256668">r</text>
    <text xml:space="preserve" font-family="Helvetica" font-size="18" fill="#000000" transform="matrix(1,0,0,-1,693,255) " id="svg_149" y="194.505917" x="-54.256668">y</text>
    <text xml:space="preserve" font-family="Helvetica" font-size="18" fill="#000000" transform="matrix(1,0,0,-1,700.7,255) " id="svg_150" y="194.505917" x="-54.256668">,</text>
    <text xml:space="preserve" font-family="Helvetica" font-size="18" fill="#000000" transform="matrix(1,0,0,-1,626,233) " id="svg_151" y="194.505917" x="-54.256668">C</text>
    <text xml:space="preserve" font-family="Helvetica" font-size="18" fill="#000000" transform="matrix(1,0,0,-1,639,233) " id="svg_152" y="194.505917" x="-54.256668">o</text>
    <text xml:space="preserve" font-family="Helvetica" font-size="18" fill="#000000" transform="matrix(1,0,0,-1,649,233) " id="svg_153" y="194.505917" x="-54.256668">n</text>
    <text xml:space="preserve" font-family="Helvetica" font-size="18" fill="#000000" transform="matrix(1,0,0,-1,659,233) " id="svg_154" y="194.505917" x="-54.256668">t</text>
    <text xml:space="preserve" font-family="Helvetica" font-size="18" fill="#000000" transform="matrix(1,0,0,-1,664,233) " id="svg_155" y="194.505917" x="-54.256668">r</text>
    <text xml:space="preserve" font-family="Helvetica" font-size="18" fill="#000000" transform="matrix(1,0,0,-1,670,233) " id="svg_156" y="194.505917" x="-54.256668">o</text>
    <text xml:space="preserve" font-family="Helvetica" font-size="18" fill="#000000" transform="matrix(1,0,0,-1,680,233) " id="svg_157" y="194.505917" x="-54.256668">l</text>
    <text xml:space="preserve" font-family="Helvetica" font-size="18" fill="#000000" transform="matrix(1,0,0,-1,684,233) " id="svg_158" y="194.505917" x="-54.256668">l</text>
    <text xml:space="preserve" font-family="Helvetica" font-size="18" fill="#000000" transform="matrix(1,0,0,-1,688,233) " id="svg_159" y="194.505917" x="-54.256668">e</text>
    <text xml:space="preserve" font-family="Helvetica" font-size="18" fill="#000000" transform="matrix(1,0,0,-1,698.1,233) " id="svg_160" y="194.505917" x="-54.256668">r</text>
    <text xml:space="preserve" font-family="Helvetica" font-size="18" fill="#000000" transform="matrix(1,0,0,-1,704.1,233) " id="svg_161" y="194.505917" x="-54.256668">)</text>
   </g>
  </g>
  <path d="m239.86398,280.1544c-27.733,0 -55.54156,0 -83.27456,0l-0.75567,0" fill="none" stroke="#9D6E80" stroke-width="2" stroke-linejoin="round" id="svg_162"/>
  <path d="m151.60201,280.1544l7.55668,3.99577l0,0c0.4534,0.27557 1.05793,0.13778 1.3602,-0.34447c0.30227,-0.41335 0.07557,-0.96449 -0.37783,-1.24006l-4.53401,-2.41124l4.53401,-2.41124l0,0c0.4534,-0.27557 0.6801,-0.82671 0.37783,-1.24006c-0.30227,-0.48225 -0.9068,-0.62004 -1.3602,-0.34447c0,0 0,0 0,0l-7.55668,3.99577zm0,0" fill="#9D6E80" id="svg_163"/>
  <path d="m342.86146,280.1544l71.78842,0l0.75566,0" fill="none" stroke="#9D6E80" stroke-width="2" stroke-linejoin="round" id="svg_164"/>
  <path d="m419.63728,280.1544l-7.55668,-3.99577l0,0c-0.4534,-0.27557 -1.05793,-0.13778 -1.3602,0.34447c-0.30226,0.41335 -0.07556,0.96449 0.37784,1.24006l4.534,2.41124l-4.534,2.41124l0,0c-0.4534,0.27557 -0.6801,0.82671 -0.37784,1.24006c0.30227,0.48225 0.9068,0.62004 1.3602,0.34447c0,0 0,0 0,0l7.55668,-3.99577zm0,0" fill="#9D6E80" id="svg_165"/>
  <path d="m345.65743,362.41205l0.75567,0l68.23678,0l0.75566,0" fill="none" stroke="#9D6E80" stroke-width="2" stroke-linejoin="round" id="svg_166"/>
  <path d="m419.63728,362.41205l-7.55668,-3.99576l0,0c-0.4534,-0.27557 -1.05793,-0.06889 -1.3602,0.34446c-0.30226,0.41336 -0.07556,1.03339 0.37784,1.24007l4.534,2.41123l-4.534,2.48013l0,0c-0.4534,0.20668 -0.6801,0.75782 -0.37784,1.24007c0.30227,0.41335 0.9068,0.55114 1.3602,0.34446c0,0 0,0 0,0l7.55668,-4.06466zm0,0" fill="#9D6E80" id="svg_167"/>
  <path d="m341.42569,362.41205l7.55668,4.06466l0,0c0.4534,0.20668 1.05793,0.0689 1.3602,-0.34446c0.30227,-0.48225 0.15113,-1.03339 -0.37783,-1.24007l-4.53401,-2.48013l4.53401,-2.41123l0,0c0.52896,-0.20668 0.6801,-0.82671 0.37783,-1.24007c-0.30227,-0.41335 -0.9068,-0.62003 -1.3602,-0.34446c0,0 0,0 0,0l-7.55668,3.99576zm0,0" fill="#9D6E80" id="svg_168"/>
  <path d="m239.18388,365.99446l-44.81108,0l0,23.0101l-39.74811,0l-0.75567,0" fill="none" stroke="#9D6E80" stroke-width="2" stroke-linejoin="round" id="svg_169"/>
  <path d="m149.63728,388.93567l7.48111,-3.99577l0,0c0.52897,-0.20667 1.1335,-0.06889 1.43577,0.34447c0.2267,0.41335 0.07556,1.03339 -0.37784,1.24006l-4.534,2.41124l4.534,2.48013l0,0c0.4534,0.20668 0.60454,0.75782 0.37784,1.24007c-0.30227,0.41335 -0.9068,0.55114 -1.43577,0.34446c0,0 0,0 0,0l-7.48111,-4.06466zm0,0" fill="#9D6E80" id="svg_170"/>
  <path d="m237.14358,441.84512l-202.21663,0l0,-161.69072l8.53904,0l0.75567,0" fill="none" stroke="#9D6E80" stroke-width="2" stroke-linejoin="round" id="svg_171"/>
  <path d="m48.52897,280.1544l-7.55668,-3.99577l0,0c-0.4534,-0.27557 -1.05793,-0.13778 -1.3602,0.34447c-0.30227,0.41335 -0.15113,0.96449 0.37783,1.24006l4.53401,2.41124l-4.53401,2.41124l0,0c-0.52896,0.27557 -0.6801,0.82671 -0.37783,1.24006c0.30227,0.48225 0.9068,0.62004 1.3602,0.34447c0,0 0,0 0,0l7.55668,-3.99577zm0,0" fill="#9D6E80" id="svg_172"/>
  <text xml:space="preserve" font-family="Helvetica" font-size="16" fill="#000000" transform="matrix(0.755667507648468,0,0,0.6889250874519348,389.68010145425797,140.91856801509857) " id="svg_173" y="194.505908" x="-54.256667">h</text>
  <text xml:space="preserve" font-family="Helvetica" font-size="16" fill="#000000" transform="matrix(0.755667507648468,0,0,0.6889250874519348,396.4055422723293,140.91856801509857) " id="svg_174" y="194.505908" x="-54.256667">e</text>
  <text xml:space="preserve" font-family="Helvetica" font-size="16" fill="#000000" transform="matrix(0.755667507648468,0,0,0.6889250874519348,403.13098309040066,140.91856801509857) " id="svg_175" y="194.505908" x="-54.256667">a</text>
  <text xml:space="preserve" font-family="Helvetica" font-size="16" fill="#000000" transform="matrix(0.755667507648468,0,0,0.6889250874519348,409.8564239084721,140.91856801509857) " id="svg_176" y="194.505908" x="-54.256667">r</text>
  <text xml:space="preserve" font-family="Helvetica" font-size="16" fill="#000000" transform="matrix(0.755667507648468,0,0,0.6889250874519348,413.86146169900894,140.91856801509857) " id="svg_177" y="194.505908" x="-54.256667">t</text>
  <text xml:space="preserve" font-family="Helvetica" font-size="16" fill="#000000" transform="matrix(0.755667507648468,0,0,0.6889250874519348,417.26196548342705,140.91856801509857) " id="svg_178" y="194.505908" x="-54.256667">b</text>
  <text xml:space="preserve" font-family="Helvetica" font-size="16" fill="#000000" transform="matrix(0.755667507648468,0,0,0.6889250874519348,423.98740630149837,140.91856801509857) " id="svg_179" y="194.505908" x="-54.256667">e</text>
  <text xml:space="preserve" font-family="Helvetica" font-size="16" fill="#000000" transform="matrix(0.755667507648468,0,0,0.6889250874519348,430.71284711956974,140.91856801509857) " id="svg_180" y="194.505908" x="-54.256667">a</text>
  <text xml:space="preserve" font-family="Helvetica" font-size="16" fill="#000000" transform="matrix(0.755667507648468,0,0,0.6889250874519348,437.4382879376412,140.91856801509857) " id="svg_181" y="194.505908" x="-54.256667">t</text>
  <text xml:space="preserve" font-family="Helvetica" font-size="16" fill="#000000" transform="matrix(0.755667507648468,0,0,0.6889250874519348,200.0075570344925,140.91856801509857) " id="svg_182" y="194.505908" x="-54.256667">H</text>
  <text xml:space="preserve" font-family="Helvetica" font-size="16" fill="#000000" transform="matrix(0.755667507648468,0,0,0.6889250874519348,208.77330012321474,140.91856801509857) " id="svg_183" y="194.505908" x="-54.256667">e</text>
  <text xml:space="preserve" font-family="Helvetica" font-size="16" fill="#000000" transform="matrix(0.755667507648468,0,0,0.6889250874519348,215.4987409412861,140.91856801509857) " id="svg_184" y="194.505908" x="-54.256667">a</text>
  <text xml:space="preserve" font-family="Helvetica" font-size="16" fill="#000000" transform="matrix(0.755667507648468,0,0,0.6889250874519348,222.22418175935744,140.91856801509857) " id="svg_185" y="194.505908" x="-54.256667">l</text>
  <text xml:space="preserve" font-family="Helvetica" font-size="16" fill="#000000" transform="matrix(0.755667507648468,0,0,0.6889250874519348,224.86901803612707,140.91856801509857) " id="svg_186" y="194.505908" x="-54.256667">t</text>
  <text xml:space="preserve" font-family="Helvetica" font-size="16" fill="#000000" transform="matrix(0.755667507648468,0,0,0.6889250874519348,228.26952182054518,140.91856801509857) " id="svg_187" y="194.505908" x="-54.256667">h</text>
  <text xml:space="preserve" font-family="Helvetica" font-size="16" fill="#000000" transform="matrix(0.755667507648468,0,0,0.6889250874519348,238.3198996722698,140.91856801509857) " id="svg_189" y="194.505908" x="-54.256667">c</text>
  <text xml:space="preserve" font-family="Helvetica" font-size="16" fill="#000000" transform="matrix(0.755667507648468,0,0,0.6889250874519348,244.36523973345754,140.91856801509857) " id="svg_190" y="194.505908" x="-54.256667">h</text>
  <text xml:space="preserve" font-family="Helvetica" font-size="16" fill="#000000" transform="matrix(0.755667507648468,0,0,0.6889250874519348,251.09068055152895,140.91856801509857) " id="svg_191" y="194.505908" x="-54.256667">e</text>
  <text xml:space="preserve" font-family="Helvetica" font-size="16" fill="#000000" transform="matrix(0.755667507648468,0,0,0.6889250874519348,257.8161213696003,140.91856801509857) " id="svg_192" y="194.505908" x="-54.256667">c</text>
  <text xml:space="preserve" font-family="Helvetica" font-size="16" fill="#000000" transform="matrix(0.755667507648468,0,0,0.6889250874519348,263.86146143078804,140.91856801509857) " id="svg_193" y="194.505908" x="-54.256667">k</text>
  <text xml:space="preserve" font-family="Helvetica" font-size="16" fill="#000000" transform="matrix(0.755667507648468,0,0,0.6889250874519348,395.7254415154457,220.833878159523) " id="svg_194" y="194.505908" x="-54.256667">c</text>
  <text xml:space="preserve" font-family="Helvetica" font-size="16" fill="#000000" transform="matrix(0.755667507648468,0,0,0.6889250874519348,401.77078157663345,220.833878159523) " id="svg_195" y="194.505908" x="-54.256667">h</text>
  <text xml:space="preserve" font-family="Helvetica" font-size="16" fill="#000000" transform="matrix(0.755667507648468,0,0,0.6889250874519348,408.4962223947048,220.833878159523) " id="svg_196" y="194.505908" x="-54.256667">a</text>
  <text xml:space="preserve" font-family="Helvetica" font-size="16" fill="#000000" transform="matrix(0.755667507648468,0,0,0.6889250874519348,415.22166321277615,220.833878159523) " id="svg_197" y="194.505908" x="-54.256667">n</text>
  <text xml:space="preserve" font-family="Helvetica" font-size="16" fill="#000000" transform="matrix(0.755667507648468,0,0,0.6889250874519348,421.9471040308476,220.833878159523) " id="svg_198" y="194.505908" x="-54.256667">g</text>
  <text xml:space="preserve" font-family="Helvetica" font-size="16" fill="#000000" transform="matrix(0.755667507648468,0,0,0.6889250874519348,428.67254484891896,220.833878159523) " id="svg_199" y="194.505908" x="-54.256667">e</text>
  <text xml:space="preserve" font-family="Helvetica" font-size="16" fill="#000000" transform="matrix(0.755667507648468,0,0,0.6889250874519348,435.3979856669903,220.833878159523) " id="svg_200" y="194.505908" x="-54.256667">s</text>
  <text xml:space="preserve" font-family="Helvetica" font-size="16" fill="#000000" transform="matrix(0.755667507648468,0,0,0.6889250874519348,223.433249771595,222.21172833442688) " id="svg_201" y="194.505908" x="-54.256667">n</text>
  <text xml:space="preserve" font-family="Helvetica" font-size="16" fill="#000000" transform="matrix(0.755667507648468,0,0,0.6889250874519348,230.15869058966635,222.21172833442688) " id="svg_202" y="194.505908" x="-54.256667">o</text>
  <text xml:space="preserve" font-family="Helvetica" font-size="16" fill="#000000" transform="matrix(0.755667507648468,0,0,0.6889250874519348,236.88413140773775,222.21172833442688) " id="svg_203" y="194.505908" x="-54.256667">t</text>
  <text xml:space="preserve" font-family="Helvetica" font-size="16" fill="#000000" transform="matrix(0.755667507648468,0,0,0.6889250874519348,240.28463519215586,222.21172833442688) " id="svg_204" y="194.505908" x="-54.256667">i</text>
  <text xml:space="preserve" font-family="Helvetica" font-size="16" fill="#000000" transform="matrix(0.755667507648468,0,0,0.6889250874519348,242.9294714689255,222.21172833442688) " id="svg_205" y="194.505908" x="-54.256667">f</text>
  <text xml:space="preserve" font-family="Helvetica" font-size="16" fill="#000000" transform="matrix(0.755667507648468,0,0,0.6889250874519348,246.3299752533436,222.21172833442688) " id="svg_206" y="194.505908" x="-54.256667">y</text>
  <text xml:space="preserve" font-family="Helvetica" font-size="16" fill="#000000" transform="matrix(0.755667507648468,0,0,0.6889250874519348,216.6322422027588,299.3713381290436) " id="svg_207" y="194.505908" x="-54.256667">m</text>
  <text xml:space="preserve" font-family="Helvetica" font-size="16" fill="#000000" transform="matrix(0.755667507648468,0,0,0.6889250874519348,226.68262005448344,299.3713381290436) " id="svg_208" y="194.505908" x="-54.256667">o</text>
  <text xml:space="preserve" font-family="Helvetica" font-size="16" fill="#000000" transform="matrix(0.755667507648468,0,0,0.6889250874519348,233.40806087255476,299.3713381290436) " id="svg_209" y="194.505908" x="-54.256667">n</text>
  <text xml:space="preserve" font-family="Helvetica" font-size="16" fill="#000000" transform="matrix(0.755667507648468,0,0,0.6889250874519348,240.13350169062616,299.3713381290436) " id="svg_210" y="194.505908" x="-54.256667">i</text>
  <text xml:space="preserve" font-family="Helvetica" font-size="16" fill="#000000" transform="matrix(0.755667507648468,0,0,0.6889250874519348,242.8539047181606,299.3713381290436) " id="svg_211" y="194.505908" x="-54.256667">t</text>
  <text xml:space="preserve" font-family="Helvetica" font-size="16" fill="#000000" transform="matrix(0.755667507648468,0,0,0.6889250874519348,246.1788417518139,299.3713381290436) " id="svg_212" y="194.505908" x="-54.256667">o</text>
  <text xml:space="preserve" font-family="Helvetica" font-size="16" fill="#000000" transform="matrix(0.755667507648468,0,0,0.6889250874519348,252.90428256988525,299.3713381290436) " id="svg_213" y="194.505908" x="-54.256667">r</text>
  <path d="m100.14106,440.94951l0,-11.57394l0,-0.68892" fill="none" stroke="#9D6E80" stroke-width="2" stroke-linejoin="round" id="svg_214"/>
  <path d="m100.14106,424.82867l-4.45844,6.88925l0,0c-0.2267,0.48225 -0.07557,1.03339 0.37783,1.24006c0.52897,0.27557 1.13351,0.13779 1.43577,-0.27557l2.64484,-4.20244l2.64483,4.20244l0,0c0.30227,0.41336 0.90681,0.55114 1.36021,0.27557c0.4534,-0.20667 0.6801,-0.75781 0.37783,-1.24006c0,0 0,0 0,0l-4.38287,-6.88925zm0,0" fill="#9D6E80" id="svg_215"/>
  <clipPath id="svg_218">
   <path d="m36.07666,503.10827l139.4,0l0,91.6l-139.4,0l0,-91.6zm0,0" id="svg_217"/>
  </clipPath>
  <clipPath id="svg_245">
   <path d="m290.17667,503.10827l139.4,0l0,91.6l-139.4,0l0,-91.6zm0,0" id="svg_244"/>
  </clipPath>
  <path d="m220.54408,63.27101l0,-40.23322c0,-5.58029 4.98741,-10.05831 11.03275,-10.05831l80.25188,0c6.04534,0 11.03275,4.47802 11.03275,10.05831l0,40.23322c0,5.5803 -4.98741,10.05831 -11.03275,10.05831l-80.25188,0c-6.04534,0 -11.03275,-4.47801 -11.03275,-10.05831zm0,0" fill="#EDEDED" id="svg_246"/>
  <clipPath id="svg_251">
   <path d="m295.57666,522.40827l128.6,0l0,53l-128.6,0l0,-53zm0,0" id="svg_250"/>
  </clipPath>
  <clipPath id="svg_275">
   <path d="m288.37667,382.70827l139.3,0l0,93.5l-139.3,0l0,-93.5zm0,0" id="svg_274"/>
  </clipPath>
  <path d="m219.18388,146.01092l0,-41.12883c0,-5.64919 4.9874,-10.26499 11.25944,-10.26499l79.72293,0c6.19647,0 11.25944,4.6158 11.25944,10.26499l0,41.12883c0,5.64918 -5.06297,10.26498 -11.25944,10.26498l-79.72293,0c-6.27204,0 -11.25944,-4.6158 -11.25944,-10.26498zm0,0" fill="#EDEDED" id="svg_276"/>
  <clipPath id="svg_281">
   <path d="m293.77666,403.00827l128.4,0l0,53l-128.4,0l0,-53zm0,0" id="svg_280"/>
  </clipPath>
  <clipPath id="svg_301">
   <path d="m288.37667,272.60827l139.3,0l0,83.2l-139.3,0l0,-83.2zm0,0" id="svg_300"/>
  </clipPath>
  <path d="m219.18388,223.03274l0,-36.37524c0,-5.02916 4.45844,-9.09382 9.97481,-9.09382l82.29219,0c5.51637,0 9.97481,4.06466 9.97481,9.09382l0,36.37524c0,5.02915 -4.45844,9.09381 -9.97481,9.09381l-82.29219,0c-5.51637,0 -9.97481,-4.06466 -9.97481,-9.09381zm0,0" fill="#EDEDED" id="svg_302"/>
  <clipPath id="svg_307">
   <path d="m293.27666,298.70827l129.4,0l0,31l-129.4,0l0,-31zm0,0" id="svg_306"/>
  </clipPath>
  <clipPath id="svg_321">
   <path d="m34.47666,336.90827l139.40001,0l0,108.1l-139.40001,0l0,-108.1zm0,0" id="svg_320"/>
  </clipPath>
  <clipPath id="svg_327">
   <path d="m40.67666,375.50827l127.00001,0l0,31l-127,0l0,-31l-0.00001,0zm0,0" id="svg_326"/>
  </clipPath>
  <clipPath id="svg_336">
   <path d="m527.17666,272.60827l119.9,0l0,322.1l-119.9,0l0,-322.1zm0,0" id="svg_335"/>
  </clipPath>
  <path d="m399.63728,218.8303l0,-192.55456c0,-7.3715 6.49874,-13.29626 14.58438,-13.29626l58.4131,0c8.08564,0 14.58438,5.92476 14.58438,13.29626l0,192.55456c0,7.3026 -6.49874,13.29625 -14.58438,13.29625l-58.4131,0c-8.08564,0 -14.58438,-5.99365 -14.58438,-13.29625zm0,0" fill="none" stroke="#000000" stroke-width="2" stroke-linejoin="round" id="svg_338"/>
  <clipPath id="svg_342">
   <path d="m533.97667,374.20827l112.9,0l0,119l-112.9,0l0,-119zm0,0" id="svg_341"/>
  </clipPath>
  <path d="m219.86398,43.1544c-27.733,0 -55.54156,0 -83.27456,0l-0.75567,0" fill="none" stroke="#9D6E80" stroke-width="2" stroke-linejoin="round" id="svg_388"/>
  <path d="m131.60201,43.1544l7.55668,3.99576l0,0c0.4534,0.27557 1.05793,0.13779 1.3602,-0.34446c0.30227,-0.41335 0.07557,-0.96449 -0.37783,-1.24006l-4.53401,-2.41124l4.53401,-2.41124l0,0c0.4534,-0.27557 0.6801,-0.82671 0.37783,-1.24006c-0.30227,-0.48225 -0.9068,-0.62004 -1.3602,-0.34447c0,0 0,0 0,0l-7.55668,3.99577zm0,0" fill="#9D6E80" id="svg_389"/>
  <path d="m322.86146,43.1544l71.78842,0l0.75566,0" fill="none" stroke="#9D6E80" stroke-width="2" stroke-linejoin="round" id="svg_390"/>
  <path d="m399.63728,43.1544l-7.55668,-3.99577l0,0c-0.45339,-0.27557 -1.05793,-0.13778 -1.3602,0.34447c-0.30226,0.41335 -0.07556,0.96449 0.37784,1.24006l4.534,2.41124l-4.534,2.41124l0,0c-0.4534,0.27557 -0.6801,0.82671 -0.37784,1.24006c0.30227,0.48225 0.9068,0.62003 1.3602,0.34446c0,0 0,0 0,0l7.55668,-3.99576zm0,0" fill="#9D6E80" id="svg_391"/>
  <path d="m325.65743,125.41205l0.75567,0l68.23678,0l0.75566,0" fill="none" stroke="#9D6E80" stroke-width="2" stroke-linejoin="round" id="svg_392"/>
  <path d="m399.63728,125.41205l-7.55668,-3.99576l0,0c-0.45339,-0.27557 -1.05793,-0.06889 -1.3602,0.34446c-0.30226,0.41336 -0.07556,1.03339 0.37784,1.24007l4.534,2.41123l-4.534,2.48013l0,0c-0.4534,0.20668 -0.6801,0.75782 -0.37784,1.24007c0.30227,0.41335 0.9068,0.55114 1.3602,0.34446c0,0 0,0 0,0l7.55668,-4.06466zm0,0" fill="#9D6E80" id="svg_393"/>
  <path d="m321.42569,125.41205l7.55668,4.06466l0,0c0.4534,0.20668 1.05793,0.06889 1.3602,-0.34446c0.30227,-0.48225 0.15113,-1.03339 -0.37783,-1.24007l-4.53401,-2.48013l4.53401,-2.41123l0,0c0.52896,-0.20668 0.6801,-0.82671 0.37783,-1.24007c-0.30227,-0.41335 -0.9068,-0.62003 -1.3602,-0.34446c0,0 0,0 0,0l-7.55668,3.99576zm0,0" fill="#9D6E80" id="svg_394"/>
  <path d="m219.18388,128.99446l-44.81108,0l0,23.0101l-39.74812,0l-0.75566,0" fill="none" stroke="#9D6E80" stroke-width="2" stroke-linejoin="round" id="svg_395"/>
  <path d="m129.63728,151.93567l7.48111,-3.99577l0,0c0.52897,-0.20667 1.1335,-0.06889 1.43577,0.34447c0.2267,0.41335 0.07556,1.03338 -0.37784,1.24006l-4.534,2.41124l4.534,2.48013l0,0c0.4534,0.20668 0.60454,0.75782 0.37784,1.24006c-0.30227,0.41336 -0.9068,0.55115 -1.43577,0.34447c0,0 0,0 0,0l-7.48111,-4.06466zm0,0" fill="#9D6E80" id="svg_396"/>
  <path d="m28.52897,43.1544l-7.55668,-3.99577l0,0c-0.4534,-0.27557 -1.05793,-0.13778 -1.3602,0.34447c-0.30227,0.41335 -0.15113,0.96449 0.37784,1.24006l4.534,2.41124l-4.534,2.41124l0,0c-0.52897,0.27557 -0.68011,0.82671 -0.37784,1.24006c0.30227,0.48225 0.9068,0.62003 1.3602,0.34446c0,0 0,0 0,0l7.55668,-3.99576zm0,0" fill="#9D6E80" id="svg_398"/>
  <text xml:space="preserve" font-family="Helvetica" font-size="16" fill="#000000" transform="matrix(0.755667507648468,0,0,0.6889250874519348,389.68010145425797,140.91856801509857) " id="svg_399" y="-149.508273" x="-80.723333">h</text>
  <text xml:space="preserve" font-family="Helvetica" font-size="16" fill="#000000" transform="matrix(0.755667507648468,0,0,0.6889250874519348,396.4055422723293,140.91856801509857) " id="svg_400" y="-149.508273" x="-80.723333">e</text>
  <text xml:space="preserve" font-family="Helvetica" font-size="16" fill="#000000" transform="matrix(0.755667507648468,0,0,0.6889250874519348,403.13098309040066,140.91856801509857) " id="svg_401" y="-149.508273" x="-80.723333">a</text>
  <text xml:space="preserve" font-family="Helvetica" font-size="16" fill="#000000" transform="matrix(0.755667507648468,0,0,0.6889250874519348,409.8564239084721,140.91856801509857) " id="svg_402" y="-149.508273" x="-80.723333">r</text>
  <text xml:space="preserve" font-family="Helvetica" font-size="16" fill="#000000" transform="matrix(0.755667507648468,0,0,0.6889250874519348,413.86146169900894,140.91856801509857) " id="svg_403" y="-149.508273" x="-80.723333">t</text>
  <text xml:space="preserve" font-family="Helvetica" font-size="16" fill="#000000" transform="matrix(0.755667507648468,0,0,0.6889250874519348,417.26196548342705,140.91856801509857) " id="svg_404" y="-149.508273" x="-80.723333">b</text>
  <text xml:space="preserve" font-family="Helvetica" font-size="16" fill="#000000" transform="matrix(0.755667507648468,0,0,0.6889250874519348,423.98740630149837,140.91856801509857) " id="svg_405" y="-149.508273" x="-80.723333">e</text>
  <text xml:space="preserve" font-family="Helvetica" font-size="16" fill="#000000" transform="matrix(0.755667507648468,0,0,0.6889250874519348,430.71284711956974,140.91856801509857) " id="svg_406" y="-149.508273" x="-80.723333">a</text>
  <text xml:space="preserve" font-family="Helvetica" font-size="16" fill="#000000" transform="matrix(0.755667507648468,0,0,0.6889250874519348,437.4382879376412,140.91856801509857) " id="svg_407" y="-149.508273" x="-80.723333">t</text>
  <text xml:space="preserve" font-family="Helvetica" font-size="16" fill="#000000" transform="matrix(0.755667507648468,0,0,0.6889250874519348,200.0075570344925,140.91856801509857) " id="svg_408" y="-149.508273" x="-80.723333">H</text>
  <text xml:space="preserve" font-family="Helvetica" font-size="16" fill="#000000" transform="matrix(0.755667507648468,0,0,0.6889250874519348,208.77330012321474,140.91856801509857) " id="svg_409" y="-149.508273" x="-80.723333">e</text>
  <text xml:space="preserve" font-family="Helvetica" font-size="16" fill="#000000" transform="matrix(0.755667507648468,0,0,0.6889250874519348,215.4987409412861,140.91856801509857) " id="svg_410" y="-149.508273" x="-80.723333">a</text>
  <text xml:space="preserve" font-family="Helvetica" font-size="16" fill="#000000" transform="matrix(0.755667507648468,0,0,0.6889250874519348,222.22418175935744,140.91856801509857) " id="svg_411" y="-149.508273" x="-80.723333">l</text>
  <text xml:space="preserve" font-family="Helvetica" font-size="16" fill="#000000" transform="matrix(0.755667507648468,0,0,0.6889250874519348,224.86901803612707,140.91856801509857) " id="svg_412" y="-149.508273" x="-80.723333">t</text>
  <text xml:space="preserve" font-family="Helvetica" font-size="16" fill="#000000" transform="matrix(0.755667507648468,0,0,0.6889250874519348,228.26952182054518,140.91856801509857) " id="svg_413" y="-149.508273" x="-80.723333">h</text>
  <text xml:space="preserve" font-family="Helvetica" font-size="16" fill="#000000" transform="matrix(0.755667507648468,0,0,0.6889250874519348,238.3198996722698,140.91856801509857) " id="svg_414" y="-149.508273" x="-80.723333">c</text>
  <text xml:space="preserve" font-family="Helvetica" font-size="16" fill="#000000" transform="matrix(0.755667507648468,0,0,0.6889250874519348,244.36523973345754,140.91856801509857) " id="svg_415" y="-149.508273" x="-80.723333">h</text>
  <text xml:space="preserve" font-family="Helvetica" font-size="16" fill="#000000" transform="matrix(0.755667507648468,0,0,0.6889250874519348,251.09068055152895,140.91856801509857) " id="svg_416" y="-149.508273" x="-80.723333">e</text>
  <text xml:space="preserve" font-family="Helvetica" font-size="16" fill="#000000" transform="matrix(0.755667507648468,0,0,0.6889250874519348,257.8161213696003,140.91856801509857) " id="svg_417" y="-149.508273" x="-80.723333">c</text>
  <text xml:space="preserve" font-family="Helvetica" font-size="16" fill="#000000" transform="matrix(0.755667507648468,0,0,0.6889250874519348,263.86146143078804,140.91856801509857) " id="svg_418" y="-149.508273" x="-80.723333">k</text>
  <text xml:space="preserve" font-family="Helvetica" font-size="16" fill="#000000" transform="matrix(0.755667507648468,0,0,0.6889250874519348,395.7254415154457,220.833878159523) " id="svg_419" y="-149.508273" x="-80.723333">c</text>
  <text xml:space="preserve" font-family="Helvetica" font-size="16" fill="#000000" transform="matrix(0.755667507648468,0,0,0.6889250874519348,401.77078157663345,220.833878159523) " id="svg_420" y="-149.508273" x="-80.723333">h</text>
  <text xml:space="preserve" font-family="Helvetica" font-size="16" fill="#000000" transform="matrix(0.755667507648468,0,0,0.6889250874519348,408.4962223947048,220.833878159523) " id="svg_421" y="-149.508273" x="-80.723333">a</text>
  <text xml:space="preserve" font-family="Helvetica" font-size="16" fill="#000000" transform="matrix(0.755667507648468,0,0,0.6889250874519348,415.22166321277615,220.833878159523) " id="svg_422" y="-149.508273" x="-80.723333">n</text>
  <text xml:space="preserve" font-family="Helvetica" font-size="16" fill="#000000" transform="matrix(0.755667507648468,0,0,0.6889250874519348,421.9471040308476,220.833878159523) " id="svg_423" y="-149.508273" x="-80.723333">g</text>
  <text xml:space="preserve" font-family="Helvetica" font-size="16" fill="#000000" transform="matrix(0.755667507648468,0,0,0.6889250874519348,428.67254484891896,220.833878159523) " id="svg_424" y="-149.508273" x="-80.723333">e</text>
  <text xml:space="preserve" font-family="Helvetica" font-size="16" fill="#000000" transform="matrix(0.755667507648468,0,0,0.6889250874519348,435.3979856669903,220.833878159523) " id="svg_425" y="-149.508273" x="-80.723333">s</text>
  <text xml:space="preserve" font-family="Helvetica" font-size="16" fill="#000000" transform="matrix(0.755667507648468,0,0,0.6889250874519348,223.433249771595,222.21172833442688) " id="svg_426" y="-149.508273" x="-80.723333">n</text>
  <text xml:space="preserve" font-family="Helvetica" font-size="16" fill="#000000" transform="matrix(0.755667507648468,0,0,0.6889250874519348,230.15869058966635,222.21172833442688) " id="svg_427" y="-149.508273" x="-80.723333">o</text>
  <text xml:space="preserve" font-family="Helvetica" font-size="16" fill="#000000" transform="matrix(0.755667507648468,0,0,0.6889250874519348,236.88413140773775,222.21172833442688) " id="svg_428" y="-149.508273" x="-80.723333">t</text>
  <text xml:space="preserve" font-family="Helvetica" font-size="16" fill="#000000" transform="matrix(0.755667507648468,0,0,0.6889250874519348,240.28463519215586,222.21172833442688) " id="svg_429" y="-149.508273" x="-80.723333">i</text>
  <text xml:space="preserve" font-family="Helvetica" font-size="16" fill="#000000" transform="matrix(0.755667507648468,0,0,0.6889250874519348,242.9294714689255,222.21172833442688) " id="svg_430" y="-149.508273" x="-80.723333">f</text>
  <text xml:space="preserve" font-family="Helvetica" font-size="16" fill="#000000" transform="matrix(0.755667507648468,0,0,0.6889250874519348,246.3299752533436,222.21172833442688) " id="svg_431" y="-149.508273" x="-80.723333">y</text>
  <text xml:space="preserve" font-family="Helvetica" font-size="16" fill="#000000" transform="matrix(0.755667507648468,0,0,0.6889250874519348,216.6322422027588,299.3713381290436) " id="svg_432" y="-149.508273" x="-80.723333">m</text>
  <text xml:space="preserve" font-family="Helvetica" font-size="16" fill="#000000" transform="matrix(0.755667507648468,0,0,0.6889250874519348,226.68262005448344,299.3713381290436) " id="svg_433" y="-149.508273" x="-80.723333">o</text>
  <text xml:space="preserve" font-family="Helvetica" font-size="16" fill="#000000" transform="matrix(0.755667507648468,0,0,0.6889250874519348,233.40806087255476,299.3713381290436) " id="svg_434" y="-149.508273" x="-80.723333">n</text>
  <text xml:space="preserve" font-family="Helvetica" font-size="16" fill="#000000" transform="matrix(0.755667507648468,0,0,0.6889250874519348,240.13350169062616,299.3713381290436) " id="svg_435" y="-149.508273" x="-80.723333">i</text>
  <text xml:space="preserve" font-family="Helvetica" font-size="16" fill="#000000" transform="matrix(0.755667507648468,0,0,0.6889250874519348,242.8539047181606,299.3713381290436) " id="svg_436" y="-149.508273" x="-80.723333">t</text>
  <text xml:space="preserve" font-family="Helvetica" font-size="16" fill="#000000" transform="matrix(0.755667507648468,0,0,0.6889250874519348,246.1788417518139,299.3713381290436) " id="svg_437" y="-149.508273" x="-80.723333">o</text>
  <text xml:space="preserve" font-family="Helvetica" font-size="16" fill="#000000" transform="matrix(0.755667507648468,0,0,0.6889250874519348,252.90428256988525,299.3713381290436) " id="svg_438" y="-149.508273" x="-80.723333">r</text>
  <path d="m80.14106,203.94951l0,-11.57394l0,-0.68892" fill="none" stroke="#9D6E80" stroke-width="2" stroke-linejoin="round" id="svg_439"/>
  <path d="m80.14106,187.82867l-4.45844,6.88925l0,0c-0.2267,0.48224 -0.07557,1.03339 0.37783,1.24006c0.52897,0.27557 1.13351,0.13779 1.43577,-0.27557l2.64484,-4.20244l2.64483,4.20244l0,0c0.30227,0.41336 0.90681,0.55114 1.36021,0.27557c0.4534,-0.20667 0.6801,-0.75782 0.37783,-1.24006c0,0 0,0 0,0l-4.38287,-6.88925zm0,0" fill="#9D6E80" id="svg_440"/>
  <path d="m220.54408,63.27101l0,-40.23322c0,-5.58029 4.91184,-10.05831 11.03275,-10.05831l80.17632,0c6.12091,0 11.03274,4.47802 11.03274,10.05831l0,40.23322c0,5.5803 -4.91183,10.05831 -11.03274,10.05831l-80.17632,0c-6.12091,0 -11.03275,-4.47801 -11.03275,-10.05831zm0,0" fill="none" stroke="#442845" stroke-width="2" stroke-linejoin="round" id="svg_247"/>
  <path d="m219.18388,146.01092l0,-41.12883c0,-5.64919 5.06297,-10.26499 11.25944,-10.26499l79.72293,0c6.27204,0 11.25944,4.6158 11.25944,10.26499l0,41.12883c0,5.64918 -4.9874,10.26498 -11.25944,10.26498l-79.72293,0c-6.19647,0 -11.25944,-4.6158 -11.25944,-10.26498zm0,0" fill="none" stroke="#442845" stroke-width="2" stroke-linejoin="round" id="svg_277"/>
  <path d="m219.18388,223.03274l0,-36.37524c0,-5.02916 4.45844,-9.09382 9.97481,-9.09382l82.29219,0c5.51637,0 9.97481,4.06466 9.97481,9.09382l0,36.37524c0,5.02915 -4.45844,9.09381 -9.97481,9.09381l-82.29219,0c-5.51637,0 -9.97481,-4.06466 -9.97481,-9.09381zm0,0" fill="none" stroke="#442845" stroke-width="2" stroke-linejoin="round" id="svg_303"/>
  <path d="m27.3199,175.91027l0,-47.81141c0,-6.61368 5.8942,-11.98729 13.14861,-11.98729l76.02015,0c7.25441,0 13.07305,5.37361 13.07305,11.98729l0,47.8114c0,6.61369 -5.81864,11.91841 -13.07305,11.91841l-76.02015,0c-7.2544,0 -13.14861,-5.30472 -13.14861,-11.91841l0,0.00001zm0,0" fill="none" stroke="#442845" stroke-width="2" stroke-linejoin="round" id="svg_323"/>
  <text xml:space="preserve" font-family="Helvetica" font-size="18" fill="#000000" transform="matrix(0.755667507648468,0,0,0.6889250874519348,122.17380374670029,259.41368305683136) " id="svg_328" y="-149.50827" x="-80.723335">P</text>
  <text xml:space="preserve" font-family="Helvetica" font-size="18" fill="#000000" transform="matrix(0.755667507648468,0,0,0.6889250874519348,131.2418138384819,259.41368305683136) " id="svg_329" y="-149.50827" x="-80.723335">r</text>
  <text xml:space="preserve" font-family="Helvetica" font-size="18" fill="#000000" transform="matrix(0.755667507648468,0,0,0.6889250874519348,135.7758188843727,259.41368305683136) " id="svg_330" y="-149.50827" x="-80.723335">o</text>
  <text xml:space="preserve" font-family="Helvetica" font-size="18" fill="#000000" transform="matrix(0.755667507648468,0,0,0.6889250874519348,143.3324939608574,259.41368305683136) " id="svg_331" y="-149.50827" x="-80.723335">x</text>
  <text xml:space="preserve" font-family="Helvetica" font-size="18" fill="#000000" transform="matrix(0.755667507648468,0,0,0.6889250874519348,150.1335015296936,259.41368305683136) " id="svg_332" y="-149.50827" x="-80.723335">y</text>
  <text xml:space="preserve" font-family="Helvetica" font-size="18" fill="#000000" transform="matrix(0.755667507648468,0,0,0.6889250874519348,472.047859787941,200.16612553596497) " id="svg_343" y="-149.50827" x="-80.723335">A</text>
  <text xml:space="preserve" font-family="Helvetica" font-size="18" fill="#000000" transform="matrix(0.755667507648468,0,0,0.6889250874519348,481.1158698797226,200.16612553596497) " id="svg_344" y="-149.50827" x="-80.723335">m</text>
  <text xml:space="preserve" font-family="Helvetica" font-size="18" fill="#000000" transform="matrix(0.755667507648468,0,0,0.6889250874519348,492.4508824944496,200.16612553596497) " id="svg_345" y="-149.50827" x="-80.723335">a</text>
  <text xml:space="preserve" font-family="Helvetica" font-size="18" fill="#000000" transform="matrix(0.755667507648468,0,0,0.6889250874519348,500.0075575709343,200.16612553596497) " id="svg_346" y="-149.50827" x="-80.723335">l</text>
  <text xml:space="preserve" font-family="Helvetica" font-size="18" fill="#000000" transform="matrix(0.755667507648468,0,0,0.6889250874519348,503.03022760152817,200.16612553596497) " id="svg_347" y="-149.50827" x="-80.723335">g</text>
  <text xml:space="preserve" font-family="Helvetica" font-size="18" fill="#000000" transform="matrix(0.755667507648468,0,0,0.6889250874519348,510.58690267801285,200.16612553596497) " id="svg_348" y="-149.50827" x="-80.723335">a</text>
  <text xml:space="preserve" font-family="Helvetica" font-size="18" fill="#000000" transform="matrix(0.755667507648468,0,0,0.6889250874519348,518.1435777544975,200.16612553596497) " id="svg_349" y="-149.50827" x="-80.723335">m</text>
  <text xml:space="preserve" font-family="Helvetica" font-size="18" fill="#000000" transform="matrix(0.755667507648468,0,0,0.6889250874519348,529.4785903692245,200.16612553596497) " id="svg_350" y="-149.50827" x="-80.723335">8</text>
  <text xml:space="preserve" font-family="Helvetica" font-size="18" fill="#000000" transform="matrix(0.755667507648468,0,0,0.6889250874519348,537.1108321964741,200.16612553596497) " id="svg_351" y="-149.50827" x="-80.723335"/>
  <text xml:space="preserve" font-family="Helvetica" font-size="18" fill="#000000" transform="matrix(0.755667507648468,0,0,0.6889250874519348,482.62720489501953,215.32247745990753) " id="svg_352" y="-149.50827" x="-80.723335">C</text>
  <text xml:space="preserve" font-family="Helvetica" font-size="18" fill="#000000" transform="matrix(0.755667507648468,0,0,0.6889250874519348,492.4508824944496,215.32247745990753) " id="svg_353" y="-149.50827" x="-80.723335">o</text>
  <text xml:space="preserve" font-family="Helvetica" font-size="18" fill="#000000" transform="matrix(0.755667507648468,0,0,0.6889250874519348,500.0075575709343,215.32247745990753) " id="svg_354" y="-149.50827" x="-80.723335">n</text>
  <text xml:space="preserve" font-family="Helvetica" font-size="18" fill="#000000" transform="matrix(0.755667507648468,0,0,0.6889250874519348,507.564232647419,215.32247745990753) " id="svg_355" y="-149.50827" x="-80.723335">t</text>
  <text xml:space="preserve" font-family="Helvetica" font-size="18" fill="#000000" transform="matrix(0.755667507648468,0,0,0.6889250874519348,511.3425701856613,215.32247745990753) " id="svg_356" y="-149.50827" x="-80.723335">r</text>
  <text xml:space="preserve" font-family="Helvetica" font-size="18" fill="#000000" transform="matrix(0.755667507648468,0,0,0.6889250874519348,515.8765752315521,215.32247745990753) " id="svg_357" y="-149.50827" x="-80.723335">o</text>
  <text xml:space="preserve" font-family="Helvetica" font-size="18" fill="#000000" transform="matrix(0.755667507648468,0,0,0.6889250874519348,523.4332503080368,215.32247745990753) " id="svg_358" y="-149.50827" x="-80.723335">l</text>
  <text xml:space="preserve" font-family="Helvetica" font-size="18" fill="#000000" transform="matrix(0.755667507648468,0,0,0.6889250874519348,526.4559203386307,215.32247745990753) " id="svg_359" y="-149.50827" x="-80.723335"/>
  <text xml:space="preserve" font-family="Helvetica" font-size="18" fill="#000000" transform="matrix(0.755667507648468,0,0,0.6889250874519348,487.16120994091034,230.4788293838501) " id="svg_360" y="-149.50827" x="-80.723335">P</text>
  <text xml:space="preserve" font-family="Helvetica" font-size="18" fill="#000000" transform="matrix(0.755667507648468,0,0,0.6889250874519348,496.22922003269196,230.4788293838501) " id="svg_361" y="-149.50827" x="-80.723335">l</text>
  <text xml:space="preserve" font-family="Helvetica" font-size="18" fill="#000000" transform="matrix(0.755667507648468,0,0,0.6889250874519348,499.2518900632858,230.4788293838501) " id="svg_362" y="-149.50827" x="-80.723335">a</text>
  <text xml:space="preserve" font-family="Helvetica" font-size="18" fill="#000000" transform="matrix(0.755667507648468,0,0,0.6889250874519348,506.8085651397705,230.4788293838501) " id="svg_363" y="-149.50827" x="-80.723335">n</text>
  <text xml:space="preserve" font-family="Helvetica" font-size="18" fill="#000000" transform="matrix(0.755667507648468,0,0,0.6889250874519348,514.3652402162552,230.4788293838501) " id="svg_364" y="-149.50827" x="-80.723335">e</text>
  <text xml:space="preserve" font-family="Helvetica" font-size="18" fill="#000000" transform="matrix(0.755667507648468,0,0,0.6889250874519348,475.8261973261833,245.63518130779266) " id="svg_365" y="-149.50827" x="-80.723335">(</text>
  <text xml:space="preserve" font-family="Helvetica" font-size="18" fill="#000000" transform="matrix(0.755667507648468,0,0,0.6889250874519348,480.3602023720741,245.63518130779266) " id="svg_366" y="-149.50827" x="-80.723335">R</text>
  <text xml:space="preserve" font-family="Helvetica" font-size="18" fill="#000000" transform="matrix(0.755667507648468,0,0,0.6889250874519348,490.1838799715042,245.63518130779266) " id="svg_367" y="-149.50827" x="-80.723335">e</text>
  <text xml:space="preserve" font-family="Helvetica" font-size="18" fill="#000000" transform="matrix(0.755667507648468,0,0,0.6889250874519348,497.7405550479889,245.63518130779266) " id="svg_368" y="-149.50827" x="-80.723335">g</text>
  <text xml:space="preserve" font-family="Helvetica" font-size="18" fill="#000000" transform="matrix(0.755667507648468,0,0,0.6889250874519348,505.2972301244736,245.63518130779266) " id="svg_369" y="-149.50827" x="-80.723335">i</text>
  <text xml:space="preserve" font-family="Helvetica" font-size="18" fill="#000000" transform="matrix(0.755667507648468,0,0,0.6889250874519348,508.31990015506744,245.63518130779266) " id="svg_370" y="-149.50827" x="-80.723335">s</text>
  <text xml:space="preserve" font-family="Helvetica" font-size="18" fill="#000000" transform="matrix(0.755667507648468,0,0,0.6889250874519348,515.1209077239037,245.63518130779266) " id="svg_371" y="-149.50827" x="-80.723335">t</text>
  <text xml:space="preserve" font-family="Helvetica" font-size="18" fill="#000000" transform="matrix(0.755667507648468,0,0,0.6889250874519348,518.899245262146,245.63518130779266) " id="svg_372" y="-149.50827" x="-80.723335">r</text>
  <text xml:space="preserve" font-family="Helvetica" font-size="18" fill="#000000" transform="matrix(0.755667507648468,0,0,0.6889250874519348,523.4332503080368,245.63518130779266) " id="svg_373" y="-149.50827" x="-80.723335">y</text>
  <text xml:space="preserve" font-family="Helvetica" font-size="18" fill="#000000" transform="matrix(0.755667507648468,0,0,0.6889250874519348,529.2518901169301,245.63518130779266) " id="svg_374" y="-149.50827" x="-80.723335">,</text>
  <text xml:space="preserve" font-family="Helvetica" font-size="18" fill="#000000" transform="matrix(0.755667507648468,0,0,0.6889250874519348,472.80352729558945,260.79153323173523) " id="svg_375" y="-149.50827" x="-80.723335">C</text>
  <text xml:space="preserve" font-family="Helvetica" font-size="18" fill="#000000" transform="matrix(0.755667507648468,0,0,0.6889250874519348,482.62720489501953,260.79153323173523) " id="svg_376" y="-149.50827" x="-80.723335">o</text>
  <text xml:space="preserve" font-family="Helvetica" font-size="18" fill="#000000" transform="matrix(0.755667507648468,0,0,0.6889250874519348,490.1838799715042,260.79153323173523) " id="svg_377" y="-149.50827" x="-80.723335">n</text>
  <text xml:space="preserve" font-family="Helvetica" font-size="18" fill="#000000" transform="matrix(0.755667507648468,0,0,0.6889250874519348,497.7405550479889,260.79153323173523) " id="svg_378" y="-149.50827" x="-80.723335">t</text>
  <text xml:space="preserve" font-family="Helvetica" font-size="18" fill="#000000" transform="matrix(0.755667507648468,0,0,0.6889250874519348,501.51889258623123,260.79153323173523) " id="svg_379" y="-149.50827" x="-80.723335">r</text>
  <text xml:space="preserve" font-family="Helvetica" font-size="18" fill="#000000" transform="matrix(0.755667507648468,0,0,0.6889250874519348,506.05289763212204,260.79153323173523) " id="svg_380" y="-149.50827" x="-80.723335">o</text>
  <text xml:space="preserve" font-family="Helvetica" font-size="18" fill="#000000" transform="matrix(0.755667507648468,0,0,0.6889250874519348,513.6095727086067,260.79153323173523) " id="svg_381" y="-149.50827" x="-80.723335">l</text>
  <text xml:space="preserve" font-family="Helvetica" font-size="18" fill="#000000" transform="matrix(0.755667507648468,0,0,0.6889250874519348,516.6322427392006,260.79153323173523) " id="svg_382" y="-149.50827" x="-80.723335">l</text>
  <text xml:space="preserve" font-family="Helvetica" font-size="18" fill="#000000" transform="matrix(0.755667507648468,0,0,0.6889250874519348,519.6549127697945,260.79153323173523) " id="svg_383" y="-149.50827" x="-80.723335">e</text>
  <text xml:space="preserve" font-family="Helvetica" font-size="18" fill="#000000" transform="matrix(0.755667507648468,0,0,0.6889250874519348,527.287154597044,260.79153323173523) " id="svg_384" y="-149.50827" x="-80.723335">r</text>
  <text xml:space="preserve" font-family="Helvetica" font-size="18" fill="#000000" transform="matrix(0.755667507648468,0,0,0.6889250874519348,531.8211596429348,260.79153323173523) " id="svg_385" y="-149.50827" x="-80.723335">)</text>
  <text xml:space="preserve" font-family="Helvetica" font-size="18" fill="#000000" transform="matrix(0.755667507648468,0,0,0.6889250874519348,310.3350131511688,142.98534327745438) " id="svg_252" y="-149.50827" x="-80.723335">S</text>
  <text xml:space="preserve" font-family="Helvetica" font-size="18" fill="#000000" transform="matrix(0.755667507648468,0,0,0.6889250874519348,319.40302324295044,142.98534327745438) " id="svg_253" y="-149.50827" x="-80.723335">e</text>
  <text xml:space="preserve" font-family="Helvetica" font-size="18" fill="#000000" transform="matrix(0.755667507648468,0,0,0.6889250874519348,326.9596983194351,142.98534327745438) " id="svg_254" y="-149.50827" x="-80.723335">r</text>
  <text xml:space="preserve" font-family="Helvetica" font-size="18" fill="#000000" transform="matrix(0.755667507648468,0,0,0.6889250874519348,331.4937033653259,142.98534327745438) " id="svg_255" y="-149.50827" x="-80.723335">v</text>
  <text xml:space="preserve" font-family="Helvetica" font-size="18" fill="#000000" transform="matrix(0.755667507648468,0,0,0.6889250874519348,338.29471093416214,142.98534327745438) " id="svg_256" y="-149.50827" x="-80.723335">i</text>
  <text xml:space="preserve" font-family="Helvetica" font-size="18" fill="#000000" transform="matrix(0.755667507648468,0,0,0.6889250874519348,341.317380964756,142.98534327745438) " id="svg_257" y="-149.50827" x="-80.723335">c</text>
  <text xml:space="preserve" font-family="Helvetica" font-size="18" fill="#000000" transform="matrix(0.755667507648468,0,0,0.6889250874519348,348.1183885335922,142.98534327745438) " id="svg_258" y="-149.50827" x="-80.723335">e</text>
  <text xml:space="preserve" font-family="Helvetica" font-size="18" fill="#000000" transform="matrix(0.755667507648468,0,0,0.6889250874519348,355.6750636100769,142.98534327745438) " id="svg_259" y="-149.50827" x="-80.723335"/>
  <text xml:space="preserve" font-family="Helvetica" font-size="18" fill="#000000" transform="matrix(0.755667507648468,0,0,0.6889250874519348,296.7329980134964,158.14169520139694) " id="svg_260" y="-149.50827" x="-80.723335">R</text>
  <text xml:space="preserve" font-family="Helvetica" font-size="18" fill="#000000" transform="matrix(0.755667507648468,0,0,0.6889250874519348,306.5566756129265,158.14169520139694) " id="svg_261" y="-149.50827" x="-80.723335">e</text>
  <text xml:space="preserve" font-family="Helvetica" font-size="18" fill="#000000" transform="matrix(0.755667507648468,0,0,0.6889250874519348,314.11335068941116,158.14169520139694) " id="svg_262" y="-149.50827" x="-80.723335">g</text>
  <text xml:space="preserve" font-family="Helvetica" font-size="18" fill="#000000" transform="matrix(0.755667507648468,0,0,0.6889250874519348,321.67002576589584,158.14169520139694) " id="svg_263" y="-149.50827" x="-80.723335">i</text>
  <text xml:space="preserve" font-family="Helvetica" font-size="18" fill="#000000" transform="matrix(0.755667507648468,0,0,0.6889250874519348,324.6926957964897,158.14169520139694) " id="svg_264" y="-149.50827" x="-80.723335">s</text>
  <text xml:space="preserve" font-family="Helvetica" font-size="18" fill="#000000" transform="matrix(0.755667507648468,0,0,0.6889250874519348,331.4937033653259,158.14169520139694) " id="svg_265" y="-149.50827" x="-80.723335">t</text>
  <text xml:space="preserve" font-family="Helvetica" font-size="18" fill="#000000" transform="matrix(0.755667507648468,0,0,0.6889250874519348,335.27204090356827,158.14169520139694) " id="svg_266" y="-149.50827" x="-80.723335">r</text>
  <text xml:space="preserve" font-family="Helvetica" font-size="18" fill="#000000" transform="matrix(0.755667507648468,0,0,0.6889250874519348,339.8060459494591,158.14169520139694) " id="svg_267" y="-149.50827" x="-80.723335">a</text>
  <text xml:space="preserve" font-family="Helvetica" font-size="18" fill="#000000" transform="matrix(0.755667507648468,0,0,0.6889250874519348,347.36272102594376,158.14169520139694) " id="svg_268" y="-149.50827" x="-80.723335">t</text>
  <text xml:space="preserve" font-family="Helvetica" font-size="18" fill="#000000" transform="matrix(0.755667507648468,0,0,0.6889250874519348,351.1410585641861,158.14169520139694) " id="svg_269" y="-149.50827" x="-80.723335">i</text>
  <text xml:space="preserve" font-family="Helvetica" font-size="18" fill="#000000" transform="matrix(0.755667507648468,0,0,0.6889250874519348,354.16372859477997,158.14169520139694) " id="svg_270" y="-149.50827" x="-80.723335">o</text>
  <text xml:space="preserve" font-family="Helvetica" font-size="18" fill="#000000" transform="matrix(0.755667507648468,0,0,0.6889250874519348,361.79597042202954,158.14169520139694) " id="svg_271" y="-149.50827" x="-80.723335">n</text>
  <text xml:space="preserve" font-family="Helvetica" font-size="18" fill="#000000" transform="matrix(0.755667507648468,0,0,0.6889250874519348,313.3576831817627,225.65635377168655) " id="svg_282" y="-149.50827" x="-80.723335">R</text>
  <text xml:space="preserve" font-family="Helvetica" font-size="18" fill="#000000" transform="matrix(0.755667507648468,0,0,0.6889250874519348,323.1813607811928,225.65635377168655) " id="svg_283" y="-149.50827" x="-80.723335">o</text>
  <text xml:space="preserve" font-family="Helvetica" font-size="18" fill="#000000" transform="matrix(0.755667507648468,0,0,0.6889250874519348,330.73803585767746,225.65635377168655) " id="svg_284" y="-149.50827" x="-80.723335">u</text>
  <text xml:space="preserve" font-family="Helvetica" font-size="18" fill="#000000" transform="matrix(0.755667507648468,0,0,0.6889250874519348,338.29471093416214,225.65635377168655) " id="svg_285" y="-149.50827" x="-80.723335">t</text>
  <text xml:space="preserve" font-family="Helvetica" font-size="18" fill="#000000" transform="matrix(0.755667507648468,0,0,0.6889250874519348,342.0730484724045,225.65635377168655) " id="svg_286" y="-149.50827" x="-80.723335">e</text>
  <text xml:space="preserve" font-family="Helvetica" font-size="18" fill="#000000" transform="matrix(0.755667507648468,0,0,0.6889250874519348,349.70529029965405,225.65635377168655) " id="svg_287" y="-149.50827" x="-80.723335"/>
  <text xml:space="preserve" font-family="Helvetica" font-size="18" fill="#000000" transform="matrix(0.755667507648468,0,0,0.6889250874519348,291.4433254599571,240.81270569562912) " id="svg_288" y="-149.50827" x="-80.723335">M</text>
  <text xml:space="preserve" font-family="Helvetica" font-size="18" fill="#000000" transform="matrix(0.755667507648468,0,0,0.6889250874519348,302.77833807468414,240.81270569562912) " id="svg_289" y="-149.50827" x="-80.723335">a</text>
  <text xml:space="preserve" font-family="Helvetica" font-size="18" fill="#000000" transform="matrix(0.755667507648468,0,0,0.6889250874519348,310.3350131511688,240.81270569562912) " id="svg_290" y="-149.50827" x="-80.723335">n</text>
  <text xml:space="preserve" font-family="Helvetica" font-size="18" fill="#000000" transform="matrix(0.755667507648468,0,0,0.6889250874519348,317.8916882276535,240.81270569562912) " id="svg_291" y="-149.50827" x="-80.723335">a</text>
  <text xml:space="preserve" font-family="Helvetica" font-size="18" fill="#000000" transform="matrix(0.755667507648468,0,0,0.6889250874519348,325.4483633041382,240.81270569562912) " id="svg_292" y="-149.50827" x="-80.723335">g</text>
  <text xml:space="preserve" font-family="Helvetica" font-size="18" fill="#000000" transform="matrix(0.755667507648468,0,0,0.6889250874519348,333.08060513138776,240.81270569562912) " id="svg_293" y="-149.50827" x="-80.723335">e</text>
  <text xml:space="preserve" font-family="Helvetica" font-size="18" fill="#000000" transform="matrix(0.755667507648468,0,0,0.6889250874519348,340.63728020787244,240.81270569562912) " id="svg_294" y="-149.50827" x="-80.723335">m</text>
  <text xml:space="preserve" font-family="Helvetica" font-size="18" fill="#000000" transform="matrix(0.755667507648468,0,0,0.6889250874519348,351.97229282259946,240.81270569562912) " id="svg_295" y="-149.50827" x="-80.723335">e</text>
  <text xml:space="preserve" font-family="Helvetica" font-size="18" fill="#000000" transform="matrix(0.755667507648468,0,0,0.6889250874519348,359.52896789908414,240.81270569562912) " id="svg_296" y="-149.50827" x="-80.723335">n</text>
  <text xml:space="preserve" font-family="Helvetica" font-size="18" fill="#000000" transform="matrix(0.755667507648468,0,0,0.6889250874519348,367.0856429755688,240.81270569562912) " id="svg_297" y="-149.50827" x="-80.723335">t</text>
  <text xml:space="preserve" font-family="Helvetica" font-size="18" fill="#000000" id="svg_317" y="-4.148895" x="-0.004585">r</text>
  <clipPath id="svg_224">
   <path d="m41.47666,522.40827l128.6,0l0,53l-128.6,0l0,-53zm0,0" id="svg_223"/>
  </clipPath>
  <text xml:space="preserve" font-family="Helvetica" font-size="18" fill="#000000" transform="matrix(0.755667507648468,0,0,0.6889250874519348,119.90680122375488,142.98534327745438) " id="svg_225" y="-149.50827" x="-80.723335">T</text>
  <text xml:space="preserve" font-family="Helvetica" font-size="18" fill="#000000" transform="matrix(0.755667507648468,0,0,0.6889250874519348,126.7078087925911,142.98534327745438) " id="svg_226" y="-149.50827" x="-80.723335">e</text>
  <text xml:space="preserve" font-family="Helvetica" font-size="18" fill="#000000" transform="matrix(0.755667507648468,0,0,0.6889250874519348,134.26448386907578,142.98534327745438) " id="svg_227" y="-149.50827" x="-80.723335">n</text>
  <text xml:space="preserve" font-family="Helvetica" font-size="18" fill="#000000" transform="matrix(0.755667507648468,0,0,0.6889250874519348,141.82115894556046,142.98534327745438) " id="svg_228" y="-149.50827" x="-80.723335">a</text>
  <text xml:space="preserve" font-family="Helvetica" font-size="18" fill="#000000" transform="matrix(0.755667507648468,0,0,0.6889250874519348,149.37783402204514,142.98534327745438) " id="svg_229" y="-149.50827" x="-80.723335">n</text>
  <text xml:space="preserve" font-family="Helvetica" font-size="18" fill="#000000" transform="matrix(0.755667507648468,0,0,0.6889250874519348,156.93450909852982,142.98534327745438) " id="svg_230" y="-149.50827" x="-80.723335">t</text>
  <text xml:space="preserve" font-family="Helvetica" font-size="18" fill="#000000" transform="matrix(0.755667507648468,0,0,0.6889250874519348,107.06045359373093,158.14169520139694) " id="svg_231" y="-149.50827" x="-80.723335">A</text>
  <text xml:space="preserve" font-family="Helvetica" font-size="18" fill="#000000" transform="matrix(0.755667507648468,0,0,0.6889250874519348,116.12846368551254,158.14169520139694) " id="svg_232" y="-149.50827" x="-80.723335">p</text>
  <text xml:space="preserve" font-family="Helvetica" font-size="18" fill="#000000" transform="matrix(0.755667507648468,0,0,0.6889250874519348,123.68513876199722,158.14169520139694) " id="svg_233" y="-149.50827" x="-80.723335">p</text>
  <text xml:space="preserve" font-family="Helvetica" font-size="18" fill="#000000" transform="matrix(0.755667507648468,0,0,0.6889250874519348,131.2418138384819,158.14169520139694) " id="svg_234" y="-149.50827" x="-80.723335">l</text>
  <text xml:space="preserve" font-family="Helvetica" font-size="18" fill="#000000" transform="matrix(0.755667507648468,0,0,0.6889250874519348,134.26448386907578,158.14169520139694) " id="svg_235" y="-149.50827" x="-80.723335">i</text>
  <text xml:space="preserve" font-family="Helvetica" font-size="18" fill="#000000" transform="matrix(0.755667507648468,0,0,0.6889250874519348,137.28715389966965,158.14169520139694) " id="svg_236" y="-149.50827" x="-80.723335">c</text>
  <text xml:space="preserve" font-family="Helvetica" font-size="18" fill="#000000" transform="matrix(0.755667507648468,0,0,0.6889250874519348,144.08816146850586,158.14169520139694) " id="svg_237" y="-149.50827" x="-80.723335">a</text>
  <text xml:space="preserve" font-family="Helvetica" font-size="18" fill="#000000" transform="matrix(0.755667507648468,0,0,0.6889250874519348,151.72040329575537,158.14169520139694) " id="svg_238" y="-149.50827" x="-80.723335">t</text>
  <text xml:space="preserve" font-family="Helvetica" font-size="18" fill="#000000" transform="matrix(0.755667507648468,0,0,0.6889250874519348,155.49874083399772,158.14169520139694) " id="svg_239" y="-149.50827" x="-80.723335">i</text>
  <text xml:space="preserve" font-family="Helvetica" font-size="18" fill="#000000" transform="matrix(0.755667507648468,0,0,0.6889250874519348,158.5214108645916,158.14169520139694) " id="svg_240" y="-149.50827" x="-80.723335">o</text>
  <text xml:space="preserve" font-family="Helvetica" font-size="18" fill="#000000" transform="matrix(0.755667507648468,0,0,0.6889250874519348,166.07808594107627,158.14169520139694) " id="svg_241" y="-149.50827" x="-80.723335">n</text>
  <g id="svg_298" transform="matrix(0.755667507648468,0,0,-0.6889250874519348,-0.24433249235153198,421.31107860803604) ">
   <clipPath transform="translate(0,1.4515366554260254) translate(0,1.4515366554260254) translate(0,1.4515366554260254) translate(0,1.4515366554260254) translate(0,1.4515366554260254) translate(0,1.4515366554260254) translate(0,1.4515366554260254) translate(0,1.4515366554260254) translate(0,1.4515366554260254) translate(0,1.4515366554260254) translate(0,1.4515366554260254) translate(0,1.4515366554260254) translate(0,1.4515366554260254) translate(0,1.4515366554260254) translate(0,1.4515366554260254) translate(0,1.4515366554260254) translate(0,1.4515366554260254) translate(0,-1.4515366554260254) translate(0,-1.4515366554260254) translate(0,-1.4515366554260254) translate(0,-1.4515366554260254) translate(0,-1.4515366554260254) translate(0,-1.4515366554260254) translate(0,-1.4515366554260254) translate(0,-1.4515366554260254) translate(0,-1.4515366554260254) translate(0,-1.4515366554260254) translate(0,-1.4515366554260254) translate(0,-1.4515366554260254) translate(0,-1.4515366554260254) translate(0,-1.4515366554260254) translate(0,-1.4515366554260254) translate(0,-1.4515366554260254) translate(0,-1.4515366554260254) translate(0,-1.4515366554260254) translate(0,1.4515366554260254) translate(0,1.4515366554260254) translate(0,-1.4515366554260254) translate(1.3233333826065063,-1.1368683772161603e-13) translate(-1.3233333826065063,-1.1368683772161603e-13) translate(-1.3233333826065063,-1.1368683772161603e-13) translate(-1.3233333826065063,-1.1368683772161603e-13) translate(-1.3233333826065063,-1.1368683772161603e-13) translate(-1.3233333826065063,-1.1368683772161603e-13) translate(-1.3233333826065063,-1.1368683772161603e-13) translate(-1.3233333826065063,-1.1368683772161603e-13) translate(-1.3233333826065063,-1.1368683772161603e-13) translate(-1.3233333826065063,-1.1368683772161603e-13) translate(-1.3233333826065063,-1.1368683772161603e-13) translate(-1.3233333826065063,-1.1368683772161603e-13) translate(-1.3233333826065063,-1.1368683772161603e-13) translate(-1.3233333826065063,-1.1368683772161603e-13) translate(-1.3233333826065063,-1.1368683772161603e-13) translate(-1.3233333826065063,-1.1368683772161603e-13) translate(-1.3233333826065063,-1.1368683772161603e-13) translate(-1.3233333826065063,-1.1368683772161603e-13) translate(-1.3233333826065063,-1.1368683772161603e-13) translate(-1.3233333826065063,-1.1368683772161603e-13) translate(-1.3233333826065063,-1.1368683772161603e-13) translate(-1.3233333826065063,-1.1368683772161603e-13) translate(0,1.4515366554260254) translate(0,1.4515366554260254) translate(0,1.4515366554260254) translate(0,1.4515366554260254) translate(0,1.4515366554260254) translate(0,1.4515366554260254) translate(0,1.4515366554260254) translate(0,1.4515366554260254) translate(0,1.4515366554260254) translate(0,1.4515366554260254) translate(0,1.4515366554260254) translate(0,1.4515366554260254) translate(0,1.4515366554260254) translate(0,1.4515366554260254) translate(0,1.4515366554260254) translate(0,1.4515366554260254) translate(0,1.4515366554260254) translate(0,1.4515366554260254) translate(0,1.4515366554260254) translate(0,1.4515366554260254) translate(0,1.4515366554260254) translate(0,1.4515366554260254) translate(0,1.4515366554260254) translate(0,1.4515366554260254) translate(0,1.4515366554260254) translate(0,1.4515366554260254) translate(0,1.4515366554260254) translate(0,1.4515366554260254) translate(0,1.4515366554260254) translate(0,1.4515366554260254) translate(0,1.4515366554260254) translate(0,1.4515366554260254) translate(0,1.4515366554260254) translate(0,1.4515366554260254) translate(0,1.4515366554260254) translate(0,1.4515366554260254) translate(0,1.4515366554260254) translate(0,1.4515366554260254) translate(0,1.4515366554260254) translate(0,1.4515366554260254) translate(0,1.4515366554260254) translate(0,1.4515366554260254) translate(0,1.4515366554260254) translate(0,1.4515366554260254) translate(0,1.4515366554260254) translate(0,1.4515366554260254) translate(0,1.4515366554260254) translate(0,1.4515366554260254) translate(0,1.4515366554260254) translate(0,1.4515366554260254) translate(0,1.4515366554260254) translate(0,1.4515366554260254) translate(0,1.4515366554260254) translate(0,1.4515366554260254) translate(0,1.4515366554260254) translate(0,1.4515366554260254) translate(0,1.4515366554260254) translate(0,1.4515366554260254) translate(0,1.4515366554260254) translate(0,1.4515366554260254) translate(0,1.4515366554260254) translate(0,1.4515366554260254) translate(0,1.4515366554260254) translate(0,1.4515366554260254) translate(0,1.4515366554260254) translate(0,1.4515366554260254) translate(0,1.4515366554260254) translate(0,1.4515366554260254) translate(0,1.4515366554260254) translate(0,1.4515366554260254) translate(0,1.4515366554260254) translate(0,1.4515366554260254) translate(0,1.4515366554260254) translate(0,1.4515366554260254) translate(0,1.4515366554260254) translate(0,1.4515366554260254) translate(0,1.4515366554260254) translate(0,1.4515366554260254) translate(0,1.4515366554260254) translate(0,1.4515366554260254) translate(0,1.4515366554260254) translate(0,1.4515366554260254) translate(0,1.4515366554260254) translate(0,1.4515366554260254) translate(0,1.4515366554260254) translate(0,1.4515366554260254) translate(0,1.4515366554260254) translate(0,1.4515366554260254) translate(0,1.4515366554260254) translate(0,1.4515366554260254) translate(0,1.4515366554260254) translate(0,1.4515366554260254) translate(0,1.4515366554260254) translate(0,1.4515366554260254) translate(0,1.4515366554260254) translate(0,1.4515366554260254) translate(0,1.4515366554260254) translate(0,1.4515366554260254) translate(0,1.4515366554260254) translate(0,1.4515366554260254) translate(0,1.4515366554260254) translate(0,1.4515366554260254) translate(0,1.4515366554260254) translate(0,1.4515366554260254) translate(0,1.4515366554260254) translate(0,1.4515366554260254) translate(0,1.4515366554260254) translate(0,1.4515366554260254) translate(0,1.4515366554260254) translate(0,1.4515366554260254) translate(0,1.4515366554260254) translate(0,1.4515366554260254) translate(0,1.4515366554260254) translate(0,1.4515366554260254) translate(0,1.4515366554260254) translate(0,1.4515366554260254) translate(0,1.4515366554260254) translate(0,1.4515366554260254) translate(0,1.4515366554260254) translate(0,1.4515366554260254) translate(0,1.4515366554260254) translate(0,1.4515366554260254) translate(0,1.4515366554260254) translate(0,1.4515366554260254) translate(0,1.4515366554260254) translate(0,1.4515366554260254) translate(0,1.4515366554260254) translate(0,1.4515366554260254) translate(0,1.4515366554260254) translate(0,1.4515366554260254) translate(0,1.4515366554260254) translate(0,1.4515366554260254) translate(0,1.4515366554260254) translate(0,1.4515366554260254) translate(0,1.4515366554260254) translate(0,1.4515366554260254) translate(0,1.4515366554260254) translate(0,1.4515366554260254) translate(0,1.4515366554260254) translate(0,1.4515366554260254) translate(0,1.4515366554260254) translate(0,1.4515366554260254) translate(0,1.4515366554260254) translate(0,1.4515366554260254) translate(0,1.4515366554260254) translate(0,1.4515366554260254) translate(0,1.4515366554260254) translate(0,1.4515366554260254) translate(0,1.4515366554260254) translate(0,1.4515366554260254) translate(0,1.4515366554260254) translate(0,1.4515366554260254) translate(0,1.4515366554260254) translate(0,1.4515366554260254) translate(0,1.4515366554260254) translate(0,1.4515366554260254) translate(0,1.4515366554260254) translate(0,1.4515366554260254) translate(0,1.4515366554260254) translate(0,1.4515366554260254) translate(0,1.4515366554260254) translate(0,1.4515366554260254) translate(0,1.4515366554260254) translate(0,1.4515366554260254) translate(0,1.4515366554260254) translate(0,1.4515366554260254) translate(0,1.4515366554260254) translate(0,1.4515366554260254) translate(0,1.4515366554260254) translate(0,1.4515366554260254) translate(0,1.4515366554260254) translate(0,1.4515366554260254) translate(0,1.4515366554260254) translate(0,1.4515366554260254) translate(0,1.4515366554260254) translate(0,1.4515366554260254) translate(0,1.4515366554260254) translate(0,1.4515366554260254) translate(0,1.4515366554260254) translate(0,1.4515366554260254) translate(0,1.4515366554260254) translate(0,1.4515366554260254) translate(0,1.4515366554260254) translate(0,1.4515366554260254) translate(0,1.4515366554260254) translate(0,1.4515366554260254) translate(0,1.4515366554260254) translate(0,1.4515366554260254) translate(0,1.4515366554260254) translate(0,1.4515366554260254) translate(0,1.4515366554260254) translate(0,1.4515366554260254) translate(0,1.4515366554260254) translate(0,1.4515366554260254) translate(0,1.4515366554260254) translate(0,1.4515366554260254) translate(0,1.4515366554260254) translate(0,1.4515366554260254) translate(0,1.4515366554260254) translate(0,1.4515366554260254) translate(0,1.4515366554260254) translate(0,1.4515366554260254) translate(0,1.4515366554260254) translate(0,1.4515366554260254) translate(0,1.4515366554260254) translate(0,1.4515366554260254) translate(0,1.4515366554260254) translate(0,1.4515366554260254) translate(0,1.4515366554260254) translate(0,1.4515366554260254) translate(0,1.4515366554260254) translate(0,1.4515366554260254) translate(0,1.4515366554260254) translate(0,1.4515366554260254) translate(0,1.4515366554260254) translate(0,1.4515366554260254) translate(0,1.4515366554260254) translate(0,1.4515366554260254) translate(0,1.4515366554260254) translate(0,1.4515366554260254) translate(0,1.4515366554260254) translate(0,1.4515366554260254) translate(0,1.4515366554260254) translate(0,1.4515366554260254) translate(0,1.4515366554260254) translate(0,1.4515366554260254) translate(0,1.4515366554260254) translate(0,1.4515366554260254) translate(0,1.4515366554260254) translate(0,1.4515366554260254) translate(0,1.4515366554260254) translate(0,1.4515366554260254) translate(0,1.4515366554260254) translate(0,1.4515366554260254) translate(0,1.4515366554260254) translate(0,1.4515366554260254) translate(0,1.4515366554260254) " id="svg_2">
    <path d="m319.74333,-45.30592l129.4,0l0,31l-129.4,0l0,-31zm0,0" id="svg_1"/>
   </clipPath>
   <g clip-path="url(#clip-195)" id="svg_279">
    <text xml:space="preserve" font-family="Helvetica" font-size="18" fill="#000000" transform="matrix(1,0,0,-1,396,158) " id="svg_216" y="-149.50827" x="-80.723336">S</text>
    <text xml:space="preserve" font-family="Helvetica" font-size="18" fill="#000000" transform="matrix(1,0,0,-1,408,158) " id="svg_221" y="-149.50827" x="-80.723336">u</text>
    <text xml:space="preserve" font-family="Helvetica" font-size="18" fill="#000000" transform="matrix(1,0,0,-1,418,158) " id="svg_222" y="-149.50827" x="-80.723336">p</text>
    <text xml:space="preserve" font-family="Helvetica" font-size="18" fill="#000000" transform="matrix(1,0,0,-1,428,158) " id="svg_242" y="-149.50827" x="-80.723336">e</text>
    <text xml:space="preserve" font-family="Helvetica" font-size="18" fill="#000000" transform="matrix(1,0,0,-1,438,158) " id="svg_243" y="-149.50827" x="-80.723336">r</text>
    <text xml:space="preserve" font-family="Helvetica" font-size="18" fill="#000000" transform="matrix(1,0,0,-1,444,158) " id="svg_248" y="-149.50827" x="-80.723336">v</text>
    <text xml:space="preserve" font-family="Helvetica" font-size="18" fill="#000000" transform="matrix(1,0,0,-1,453,158) " id="svg_249" y="-149.50827" x="-80.723336">i</text>
    <text xml:space="preserve" font-family="Helvetica" font-size="18" fill="#000000" transform="matrix(1,0,0,-1,457,158) " id="svg_272" y="-149.50827" x="-80.723336">s</text>
    <text xml:space="preserve" font-family="Helvetica" font-size="18" fill="#000000" transform="matrix(1,0,0,-1,466,158) " id="svg_273" y="-149.50827" x="-80.723336">o</text>
    <text xml:space="preserve" font-family="Helvetica" font-size="18" fill="#000000" transform="matrix(1,0,0,-1,476.1,158) " id="svg_278" y="-149.50827" x="-80.723336">r</text>
   </g>
  </g>
 </g>
</svg>