<?xml version="1.0" encoding="UTF-8" standalone="no"?><!DOCTYPE svg PUBLIC "-//W3C//DTD SVG 1.1//EN" "http://www.w3.org/Graphics/SVG/1.1/DTD/svg11.dtd"><svg width="100%" height="100%" viewBox="0 0 569 531" version="1.1" xmlns="http://www.w3.org/2000/svg" xmlns:xlink="http://www.w3.org/1999/xlink" xml:space="preserve" style="fill-rule:evenodd;clip-rule:evenodd;stroke-linecap:round;stroke-linejoin:round;stroke-miterlimit:1.41421;"><path id="Container" d="M134.489,316.124c0,-3.806 -3.09,-6.896 -6.896,-6.896l-120.264,0c-3.806,0 -6.896,3.09 -6.896,6.896l0,58.275c0,3.806 3.09,6.895 6.896,6.895l120.264,0c3.806,0 6.896,-3.089 6.896,-6.895l0,-58.275Z" style="fill:#fff;stroke-width:0.5px;stroke:#000;"/><path id="App" d="M64.724,325.336c0,-2.948 -2.394,-5.341 -5.342,-5.341l-44.479,0c-2.948,0 -5.341,2.393 -5.341,5.341l0,40.754c0,2.948 2.393,5.342 5.341,5.342l44.479,0c2.948,0 5.342,-2.394 5.342,-5.342l0,-40.754Z" style="fill:none;stroke-width:1px;stroke:#000;"/><path id="Sidecar" d="M123.291,323.302c0,-0.602 -0.488,-1.09 -1.09,-1.09l-8.557,0c-0.602,0 -1.09,0.488 -1.09,1.09l0,46.166c0,0.601 0.488,1.09 1.09,1.09l8.557,0c0.602,0 1.09,-0.489 1.09,-1.09l0,-46.166Z" style="fill:#ccc;stroke-width:0.5px;stroke:#000;"/><text id="App-Name" x="25.256px" y="357.194px" style="font-family:'Helvetica';font-size:36px;fill:#000;">A</text><g transform="matrix(1,0,0,1,-386.206,-98.8264)"><text x="855.912px" y="375.608px" style="font-family:'Helvetica-Oblique', 'Helvetica';font-style:italic;font-size:16px;fill:#000;">1. Service</text><text x="871.912px" y="391.608px" style="font-family:'Helvetica-Oblique', 'Helvetica';font-style:italic;font-size:16px;fill:#000;">registration</text></g><text x="313.882px" y="26.117px" style="font-family:'Helvetica-Oblique', 'Helvetica';font-style:italic;font-size:16px;fill:#000;">2. Request routing rules</text><g transform="matrix(1,0,0,1,-366.109,-92.4263)"><text x="711.665px" y="328.62px" style="font-family:'Helvetica-Oblique', 'Helvetica';font-style:italic;font-size:16px;fill:#000;">3. Setup routes</text><text x="727.685px" y="344.62px" style="font-family:'Helvetica-Oblique', 'Helvetica';font-style:italic;font-size:16px;fill:#000;">in sidecars</text></g><g transform="matrix(1,0,0,1,-350.454,-86.2701)"><text x="351.281px" y="484.45px" style="font-family:'Helvetica-Oblique', 'Helvetica';font-style:italic;font-size:16px;fill:#000;">4. API call to B</text><text x="351.281px" y="500.45px" style="font-family:'Helvetica-Oblique', 'Helvetica';font-style:italic;font-size:16px;fill:#000;">via sidecar</text></g><g transform="matrix(1,0,0,1,-385.774,-57.0722)"><text x="539.301px" y="420.461px" style="font-family:'Helvetica-Oblique', 'Helvetica';font-style:italic;font-size:16px;fill:#000;">5. Route</text><text x="542.859px" y="436.461px" style="font-family:'Helvetica-Oblique', 'Helvetica';font-style:italic;font-size:16px;fill:#000;">request</text></g><path id="App1" d="M537.48,340.879c0,-2.948 -2.393,-5.342 -5.341,-5.342l-44.479,0c-2.948,0 -5.342,2.394 -5.342,5.342l0,40.754c0,2.948 2.394,5.341 5.342,5.341l44.479,0c2.948,0 5.341,-2.393 5.341,-5.341l0,-40.754Z" style="fill:none;stroke-width:1px;stroke:#000;"/><path id="Sidecar1" d="M559.02,338.132c0,-0.602 -0.488,-1.09 -1.09,-1.09l-8.557,0c-0.601,0 -1.09,0.488 -1.09,1.09l0,46.165c0,0.602 0.489,1.09 1.09,1.09l8.557,0c0.602,0 1.09,-0.488 1.09,-1.09l0,-46.165Z" style="fill:#ccc;stroke-width:0.5px;stroke:#000;"/><text id="App-Name1" x="497.02px" y="372.737px" style="font-family:'Helvetica';font-size:36px;fill:#000;">C</text><path id="Container1" d="M567.904,331.666c0,-3.806 -3.09,-6.895 -6.896,-6.895l-80.923,0c-3.805,0 -6.895,3.089 -6.895,6.895l0,58.275c0,3.806 3.09,6.896 6.895,6.896l80.923,0c3.806,0 6.896,-3.09 6.896,-6.896l0,-58.275Z" style="fill:#fff;fill-opacity:0.752941;stroke-width:0.5px;stroke:#000;"/><path id="Container2" d="M548.625,316.799c0,-3.806 -3.09,-6.896 -6.896,-6.896l-80.923,0c-3.805,0 -6.895,3.09 -6.895,6.896l0,58.275c0,3.806 3.09,6.896 6.895,6.896l80.923,0c3.806,0 6.896,-3.09 6.896,-6.896l0,-58.275Z" style="fill:#fff;stroke-width:0.5px;stroke:#000;"/><path id="App2" d="M518.201,326.012c0,-2.948 -2.393,-5.342 -5.341,-5.342l-44.479,0c-2.948,0 -5.342,2.394 -5.342,5.342l0,40.754c0,2.948 2.394,5.341 5.342,5.341l44.479,0c2.948,0 5.341,-2.393 5.341,-5.341l0,-40.754Z" style="fill:none;stroke-width:1px;stroke:#000;"/><path id="Sidecar2" d="M539.741,323.264c0,-0.601 -0.488,-1.089 -1.09,-1.089l-8.557,0c-0.601,0 -1.09,0.488 -1.09,1.089l0,46.166c0,0.602 0.489,1.09 1.09,1.09l8.557,0c0.602,0 1.09,-0.488 1.09,-1.09l0,-46.166Z" style="fill:#ccc;stroke-width:0.5px;stroke:#000;"/><text id="App-Name2" x="477.741px" y="357.87px" style="font-family:'Helvetica';font-size:36px;fill:#000;">C</text><path id="App3" d="M318.158,337.138c0,-2.947 -2.393,-5.341 -5.341,-5.341l-44.48,0c-2.948,0 -5.341,2.394 -5.341,5.341l0,40.755c0,2.948 2.393,5.341 5.341,5.341l44.48,0c2.948,0 5.341,-2.393 5.341,-5.341l0,-40.755Z" style="fill:none;stroke-width:1px;stroke:#000;"/><path id="Sidecar3" d="M376.725,335.104c0,-0.601 -0.488,-1.09 -1.09,-1.09l-8.556,0c-0.602,0 -1.09,0.489 -1.09,1.09l0,46.166c0,0.601 0.488,1.09 1.09,1.09l8.556,0c0.602,0 1.09,-0.489 1.09,-1.09l0,-46.166Z" style="fill:#ccc;stroke-width:0.5px;stroke:#000;"/><text id="App-Name3" x="278.691px" y="368.997px" style="font-family:'Helvetica';font-size:36px;fill:#000;">B</text><path id="Container3" d="M387.924,327.926c0,-3.806 -3.09,-6.896 -6.896,-6.896l-120.265,0c-3.806,0 -6.895,3.09 -6.895,6.896l0,58.275c0,3.806 3.089,6.896 6.895,6.896l120.265,0c3.806,0 6.896,-3.09 6.896,-6.896l0,-58.275Z" style="fill:#fff;fill-opacity:0.752941;stroke-width:0.5px;stroke:#000;"/><path id="App4" d="M320.544,474.221c0,-2.948 -2.393,-5.341 -5.341,-5.341l-44.48,0c-2.948,0 -5.341,2.393 -5.341,5.341l0,40.754c0,2.948 2.393,5.341 5.341,5.341l44.48,0c2.948,0 5.341,-2.393 5.341,-5.341l0,-40.754Z" style="fill:none;stroke-width:1px;stroke:#000;"/><path id="Sidecar4" d="M379.111,472.187c0,-0.602 -0.488,-1.09 -1.09,-1.09l-8.557,0c-0.601,0 -1.089,0.488 -1.089,1.09l0,46.165c0,0.602 0.488,1.09 1.089,1.09l8.557,0c0.602,0 1.09,-0.488 1.09,-1.09l0,-46.165Z" style="fill:#ccc;stroke-width:0.5px;stroke:#000;"/><text id="App-Name4" x="281.077px" y="506.079px" style="font-family:'Helvetica';font-size:36px;fill:#000;">B</text><path id="Container4" d="M390.31,465.009c0,-3.806 -3.09,-6.896 -6.896,-6.896l-120.265,0c-3.806,0 -6.896,3.09 -6.896,6.896l0,58.274c0,3.806 3.09,6.896 6.896,6.896l120.265,0c3.806,0 6.896,-3.09 6.896,-6.896l0,-58.274Z" style="fill:#fff;fill-opacity:0.752941;stroke-width:0.5px;stroke:#000;"/><path id="Container5" d="M369.853,316.799c0,-3.806 -3.09,-6.896 -6.896,-6.896l-120.265,0c-3.806,0 -6.895,3.09 -6.895,6.896l0,58.275c0,3.806 3.089,6.896 6.895,6.896l120.265,0c3.806,0 6.896,-3.09 6.896,-6.896l0,-58.275Z" style="fill:#fff;stroke-width:0.5px;stroke:#000;"/><path id="App5" d="M300.087,326.012c0,-2.948 -2.393,-5.342 -5.341,-5.342l-44.48,0c-2.947,0 -5.341,2.394 -5.341,5.342l0,40.754c0,2.948 2.394,5.341 5.341,5.341l44.48,0c2.948,0 5.341,-2.393 5.341,-5.341l0,-40.754Z" style="fill:none;stroke-width:1px;stroke:#000;"/><path id="Sidecar5" d="M358.654,323.977c0,-0.601 -0.488,-1.09 -1.09,-1.09l-8.556,0c-0.602,0 -1.09,0.489 -1.09,1.09l0,46.166c0,0.602 0.488,1.09 1.09,1.09l8.556,0c0.602,0 1.09,-0.488 1.09,-1.09l0,-46.166Z" style="fill:#ccc;stroke-width:0.5px;stroke:#000;"/><text x="279.991px" y="368.27px" style="font-family:'Helvetica-Oblique', 'Helvetica';font-style:italic;font-size:18px;fill:#000;">v1</text><text id="App-Name5" x="260.62px" y="357.87px" style="font-family:'Helvetica';font-size:36px;fill:#000;">B</text><path id="Container6" d="M371.777,449.013c0,-3.806 -3.09,-6.895 -6.896,-6.895l-120.264,0c-3.806,0 -6.896,3.089 -6.896,6.895l0,58.275c0,3.806 3.09,6.896 6.896,6.896l120.264,0c3.806,0 6.896,-3.09 6.896,-6.896l0,-58.275Z" style="fill:#fff;stroke-width:0.5px;stroke:#000;"/><path id="App6" d="M302.012,458.226c0,-2.948 -2.394,-5.342 -5.342,-5.342l-44.479,0c-2.948,0 -5.341,2.394 -5.341,5.342l0,40.754c0,2.948 2.393,5.341 5.341,5.341l44.479,0c2.948,0 5.342,-2.393 5.342,-5.341l0,-40.754Z" style="fill:none;stroke-width:1px;stroke:#000;"/><path id="Sidecar6" d="M360.579,456.191c0,-0.601 -0.488,-1.09 -1.09,-1.09l-8.557,0c-0.601,0 -1.09,0.489 -1.09,1.09l0,46.166c0,0.602 0.489,1.09 1.09,1.09l8.557,0c0.602,0 1.09,-0.488 1.09,-1.09l0,-46.166Z" style="fill:#ccc;stroke-width:0.5px;stroke:#000;"/><text x="279.991px" y="499.27px" style="font-family:'Helvetica-Oblique', 'Helvetica';font-style:italic;font-size:18px;fill:#000;">v2</text><text id="App-Name6" x="262.544px" y="490.084px" style="font-family:'Helvetica';font-size:36px;fill:#000;">B</text><g><path d="M498.288,157.474c0,-3.42 -2.777,-6.197 -6.197,-6.197l-431.981,0c-3.42,0 -6.197,2.777 -6.197,6.197l0,47.272c0,3.42 2.777,6.197 6.197,6.197l431.981,0c3.42,0 6.197,-2.777 6.197,-6.197l0,-47.272Z" style="fill:#edeeed;"/><text x="142.7px" y="174.492px" style="font-family:'Helvetica-Oblique', 'Helvetica';font-style:italic;font-size:24px;fill:#000;">Amalgam8 Control Plane</text><text x="144.563px" y="197.492px" style="font-family:'Helvetica-Oblique', 'Helvetica';font-style:italic;font-size:18px;fill:#000;">(service registry, route controller)</text></g><g><path d="M477.015,89.321c0,-2.784 -2.26,-5.044 -5.044,-5.044l-391.741,0c-2.784,0 -5.044,2.26 -5.044,5.044l0,39.122c0,2.784 2.26,5.045 5.044,5.045l391.741,0c2.784,0 5.044,-2.261 5.044,-5.045l0,-39.122Z" style="fill:#edeeed;"/><text x="160.729px" y="114.73px" style="font-family:'Helvetica';font-size:24px;fill:#000;">Amalgam8 REST API</text></g><path d="M518.315,81.067c0,-8.153 -6.619,-14.772 -14.772,-14.772l-454.885,0c-8.153,0 -14.772,6.619 -14.772,14.772l0,121.475c0,8.153 6.619,14.772 14.772,14.772l454.885,0c8.153,0 14.772,-6.619 14.772,-14.772l0,-121.475Z" style="fill:none;stroke-width:1px;stroke:#808080;"/><path d="M117.923,322.175l87.334,-111.232" style="fill:none;stroke-width:1.5px;stroke-linecap:butt;stroke-linejoin:bevel;stroke-dasharray:1.5,1.5;stroke:#000;"/><path d="M353.286,321.578l-148.029,-110.635" style="fill:none;stroke-width:1.5px;stroke-linecap:butt;stroke-linejoin:miter;stroke-dasharray:1.5,1.5;stroke:#000;"/><path d="M534.373,321.578l-329.116,-110.635" style="fill:none;stroke-width:1.5px;stroke-linecap:butt;stroke-linejoin:miter;stroke-dasharray:1.5,1.5;stroke:#000;"/><path d="M292.497,0.891l5.269,-0.025l0.23,47.716l4.897,-4.944l2.997,2.968l-10.487,10.589l-10.589,-10.487l2.969,-2.997l4.944,4.896l-0.23,-47.716Z" style="fill:#fff;fill-opacity:0.752941;stroke-width:1px;stroke:#000;"/><path d="M67.461,347.896l0,-5.269l34.44,0l-4.92,-4.921l2.983,-2.983l10.538,10.538l-10.538,10.538l-2.983,-2.983l4.92,-4.92l-34.44,0Z" style="fill:#fff;fill-opacity:0.752941;stroke-width:1px;stroke:#000;"/><path d="M304.749,480.785l0,-5.269l36.492,0l-4.92,-4.92l2.983,-2.984l10.538,10.539l-10.538,10.538l-2.983,-2.983l4.92,-4.921l-36.492,0Z" style="fill:#fff;fill-opacity:0.752941;stroke-width:1px;stroke:#000;"/><path d="M300.735,348.571l0,-5.269l36.492,0l-4.92,-4.92l2.983,-2.984l10.538,10.539l-10.538,10.538l-2.983,-2.983l4.92,-4.921l-36.492,0Z" style="fill:#fff;fill-opacity:0.752941;stroke-width:1px;stroke:#000;"/><path d="M353.286,321.578l-22.053,-110.635l-213.31,111.232" style="fill:none;stroke-width:2px;stroke-linecap:butt;stroke-linejoin:bevel;stroke-dasharray:0,0.1,2,0;stroke:#9d6e80;"/><path d="M449.577,350.726l-0.78,11.723l-10.235,-7.636l11.015,-4.087Z" style="fill:#9d6e80;fill-opacity:0.752941;"/><path d="M448.797,362.449l-10.235,-7.636l11.015,-4.087l-0.78,11.723ZM440.633,355.111l7.289,5.437l0.555,-8.347l-7.844,2.91Z" style="fill:#9d6e80;"/><path d="M442.842,359.063l-82.263,109.704" style="fill:none;stroke-width:2px;stroke-linejoin:bevel;stroke:#9d6e80;"/><path d="M448.563,338.837l-9.863,6.385l0,-12.77l9.863,6.385Z" style="fill:#9d6e80;fill-opacity:0.752941;"/><path d="M448.563,338.837l-9.863,6.385l0,-12.77l9.863,6.385ZM439.7,343.383l7.022,-4.546l-7.022,-4.547l0,9.093Z" style="fill:#9d6e80;"/><path d="M438.7,338.837l-68.848,0" style="fill:none;stroke-width:2px;stroke-linejoin:bevel;stroke:#9d6e80;"/><path d="M234.296,457.643l-11.45,-2.635l9.167,-8.89l2.283,11.525Z" style="fill:#9d6e80;fill-opacity:0.752941;"/><path d="M234.296,457.643l-11.45,-2.635l9.167,-8.89l2.283,11.525ZM224.862,454.446l8.153,1.876l-1.626,-8.207l-6.527,6.331Z" style="fill:#9d6e80;"/><path d="M225.885,449.99l-102.316,-100.928" style="fill:none;stroke-width:2px;stroke-linejoin:bevel;stroke:#9d6e80;"/><path d="M235.797,345.636l-9.814,6.46l-0.098,-12.77l9.912,6.31Z" style="fill:#9d6e80;fill-opacity:0.752941;"/><path d="M235.797,345.636l-9.814,6.46l-0.098,-12.77l9.912,6.31ZM226.969,350.25l6.987,-4.6l-7.057,-4.493l0.07,9.093Z" style="fill:#9d6e80;"/><path d="M225.885,345.455l-102.316,0.783" style="fill:none;stroke-width:2px;stroke-linejoin:bevel;stroke:#9d6e80;"/><path id="svg_88" d="M268.637,19.193l5.78,0c3.764,0 6.86,3.096 6.86,6.86l0,4.75c0,0.8 -0.659,1.46 -1.46,1.46l-16.59,0c-0.801,0 -1.46,-0.66 -1.46,-1.46l0,-4.75c0,0 0,0 0,0c0,-3.764 3.097,-6.86 6.86,-6.86l0.01,0Z" style="fill:#9d6e80;fill-rule:nonzero;"/><circle id="svg_89" cx="271.517" cy="12.343" r="5.96" style="fill:#9d6e80;"/></svg>