<svg width="452" height="392" xmlns="http://www.w3.org/2000/svg" clip-rule="evenodd">
 <desc>SVG generated by Keynote</desc>

 <g>
  <title>background</title>
  <rect fill="none" id="canvas_background" height="394" width="454" y="-1" x="-1"/>
 </g>
 <g>
  <title>Layer 1</title>
  <path id="svg_3" fill="#FFFFFF" d="m148.528768,324.059911l0,-105.841444c0,-14.665713 12.070705,-26.537957 26.902682,-26.537957l167.333102,0c14.831977,0 26.902682,11.872244 26.902682,26.537957l0,105.841444c0,14.588117 -12.070705,26.460361 -26.902682,26.460361l-167.333102,0c-14.831977,0 -26.902682,-11.872244 -26.902682,-26.460361zm0,0"/>
  <path id="svg_4" stroke-linejoin="round" stroke="#000000" fill="none" d="m148.528768,323.982314l0,-105.841444c0,-14.588117 12.070705,-26.460361 26.902682,-26.460361l167.333102,0c14.831977,0 26.902682,11.872244 26.902682,26.460361l0,105.841444c0,14.588117 -12.070705,26.460361 -26.902682,26.460361l-167.333102,0c-14.831977,0 -26.902682,-11.872244 -26.902682,-26.460361zm0,0"/>
  <path id="svg_5" fill="#FFFFFF" d="m148.528768,123.706093l0,-53.231107c0,-7.294058 6.074799,-13.268979 13.490788,-13.268979l194.077997,0c7.494882,0 13.569681,5.97492 13.569681,13.268979l0,53.231107c0,7.371655 -6.074799,13.346575 -13.569681,13.346575l-194.077997,0c-7.415988,0 -13.490788,-5.97492 -13.490788,-13.346575zm0,0"/>
  <path id="svg_6" stroke-linejoin="round" stroke="#000000" fill="none" d="m148.528768,123.706093l0,-53.231107c0,-7.294058 6.074799,-13.268979 13.490788,-13.268979l194.077997,0c7.494882,0 13.569681,5.97492 13.569681,13.268979l0,53.231107c0,7.371655 -6.074799,13.346575 -13.569681,13.346575l-194.077997,0c-7.415988,0 -13.490788,-5.97492 -13.490788,-13.346575zm0,0"/>
  <text x="0" y="0" id="svg_7" transform="matrix(0.7889349460601807,0,0,0.7759636640548706,165.25418888892267,323.9047180180055) " fill="#000000" font-size="16" font-family="Helvetica" xml:space="preserve">T</text>
  <text x="0" y="0" id="svg_8" transform="matrix(0.7889349460601807,0,0,0.7759636640548706,171.56566845740412,323.9047180180055) " fill="#000000" font-size="16" font-family="Helvetica" xml:space="preserve">e</text>
  <text x="0" y="0" id="svg_9" transform="matrix(0.7889349460601807,0,0,0.7759636640548706,178.58718947733973,323.9047180180055) " fill="#000000" font-size="16" font-family="Helvetica" xml:space="preserve">n</text>
  <text x="0" y="0" id="svg_10" transform="matrix(0.7889349460601807,0,0,0.7759636640548706,185.60871049727535,323.9047180180055) " fill="#000000" font-size="16" font-family="Helvetica" xml:space="preserve">a</text>
  <text x="0" y="0" id="svg_11" transform="matrix(0.7889349460601807,0,0,0.7759636640548706,192.63023151721092,323.9047180180055) " fill="#000000" font-size="16" font-family="Helvetica" xml:space="preserve">n</text>
  <text x="0" y="0" id="svg_12" transform="matrix(0.7889349460601807,0,0,0.7759636640548706,199.65175253714654,323.9047180180055) " fill="#000000" font-size="16" font-family="Helvetica" xml:space="preserve">t</text>
  <text x="0" y="0" id="svg_13" transform="matrix(0.7889349460601807,0,0,0.7759636640548706,203.12306629981134,323.9047180180055) " fill="#000000" font-size="16" font-family="Helvetica" xml:space="preserve"/>
  <text x="0" y="0" id="svg_14" transform="matrix(0.7889349460601807,0,0,0.7759636640548706,165.25418888892267,338.64802763504804) " fill="#000000" font-size="16" font-family="Helvetica" xml:space="preserve">(</text>
  <text x="0" y="0" id="svg_15" transform="matrix(0.7889349460601807,0,0,0.7759636640548706,169.43554410304165,338.64802763504804) " fill="#000000" font-size="16" font-family="Helvetica" xml:space="preserve">K</text>
  <text x="0" y="0" id="svg_16" transform="matrix(0.7889349460601807,0,0,0.7759636640548706,177.87714802588556,338.64802763504804) " fill="#000000" font-size="16" font-family="Helvetica" xml:space="preserve">u</text>
  <text x="0" y="0" id="svg_17" transform="matrix(0.7889349460601807,0,0,0.7759636640548706,184.89866904582118,338.64802763504804) " fill="#000000" font-size="16" font-family="Helvetica" xml:space="preserve">b</text>
  <text x="0" y="0" id="svg_18" transform="matrix(0.7889349460601807,0,0,0.7759636640548706,191.9201900657568,338.64802763504804) " fill="#000000" font-size="16" font-family="Helvetica" xml:space="preserve">e</text>
  <text x="0" y="0" id="svg_19" transform="matrix(0.7889349460601807,0,0,0.7759636640548706,198.94171108569236,338.64802763504804) " fill="#000000" font-size="16" font-family="Helvetica" xml:space="preserve">r</text>
  <text x="0" y="0" id="svg_20" transform="matrix(0.7889349460601807,0,0,0.7759636640548706,203.12306629981134,338.64802763504804) " fill="#000000" font-size="16" font-family="Helvetica" xml:space="preserve">n</text>
  <text x="0" y="0" id="svg_21" transform="matrix(0.7889349460601807,0,0,0.7759636640548706,210.14458731974693,338.64802763504804) " fill="#000000" font-size="16" font-family="Helvetica" xml:space="preserve">e</text>
  <text x="0" y="0" id="svg_22" transform="matrix(0.7889349460601807,0,0,0.7759636640548706,217.16610833968258,338.64802763504804) " fill="#000000" font-size="16" font-family="Helvetica" xml:space="preserve">t</text>
  <text x="0" y="0" id="svg_23" transform="matrix(0.7889349460601807,0,0,0.7759636640548706,220.7163155969534,338.64802763504804) " fill="#000000" font-size="16" font-family="Helvetica" xml:space="preserve">e</text>
  <text x="0" y="0" id="svg_24" transform="matrix(0.7889349460601807,0,0,0.7759636640548706,227.73783661688896,338.64802763504804) " fill="#000000" font-size="16" font-family="Helvetica" xml:space="preserve">s</text>
  <text x="0" y="0" id="svg_25" transform="matrix(0.7889349460601807,0,0,0.7759636640548706,234.0493161853704,338.64802763504804) " fill="#000000" font-size="16" font-family="Helvetica" xml:space="preserve">)</text>
  <text x="0" y="0" id="svg_26" transform="matrix(0.7889349460601807,0,0,0.7759636640548706,161.30951415862177,74.82038185639203) " fill="#000000" font-size="16" font-family="Helvetica" xml:space="preserve">C</text>
  <text x="0" y="0" id="svg_27" transform="matrix(0.7889349460601807,0,0,0.7759636640548706,170.46115953291985,74.82038185639203) " fill="#000000" font-size="16" font-family="Helvetica" xml:space="preserve">o</text>
  <text x="0" y="0" id="svg_28" transform="matrix(0.7889349460601807,0,0,0.7759636640548706,177.48268055285547,74.82038185639203) " fill="#000000" font-size="16" font-family="Helvetica" xml:space="preserve">n</text>
  <text x="0" y="0" id="svg_29" transform="matrix(0.7889349460601807,0,0,0.7759636640548706,184.5042015727911,74.82038185639203) " fill="#000000" font-size="16" font-family="Helvetica" xml:space="preserve">t</text>
  <text x="0" y="0" id="svg_30" transform="matrix(0.7889349460601807,0,0,0.7759636640548706,187.9755153354559,74.82038185639203) " fill="#000000" font-size="16" font-family="Helvetica" xml:space="preserve">r</text>
  <text x="0" y="0" id="svg_31" transform="matrix(0.7889349460601807,0,0,0.7759636640548706,192.15687054957482,74.82038185639203) " fill="#000000" font-size="16" font-family="Helvetica" xml:space="preserve">o</text>
  <text x="0" y="0" id="svg_32" transform="matrix(0.7889349460601807,0,0,0.7759636640548706,199.17839156951044,74.82038185639203) " fill="#000000" font-size="16" font-family="Helvetica" xml:space="preserve">l</text>
  <text x="0" y="0" id="svg_33" transform="matrix(0.7889349460601807,0,0,0.7759636640548706,202.0185573753271,74.82038185639203) " fill="#000000" font-size="16" font-family="Helvetica" xml:space="preserve"/>
  <text x="0" y="0" id="svg_34" transform="matrix(0.7889349460601807,0,0,0.7759636640548706,205.48987113799188,74.82038185639203) " fill="#000000" font-size="16" font-family="Helvetica" xml:space="preserve">P</text>
  <text x="0" y="0" id="svg_35" transform="matrix(0.7889349460601807,0,0,0.7759636640548706,213.9314750608358,74.82038185639203) " fill="#000000" font-size="16" font-family="Helvetica" xml:space="preserve">l</text>
  <text x="0" y="0" id="svg_36" transform="matrix(0.7889349460601807,0,0,0.7759636640548706,216.7716408666525,74.82038185639203) " fill="#000000" font-size="16" font-family="Helvetica" xml:space="preserve">a</text>
  <text x="0" y="0" id="svg_37" transform="matrix(0.7889349460601807,0,0,0.7759636640548706,223.79316188658805,74.82038185639203) " fill="#000000" font-size="16" font-family="Helvetica" xml:space="preserve">n</text>
  <text x="0" y="0" id="svg_38" transform="matrix(0.7889349460601807,0,0,0.7759636640548706,230.8146829065237,74.82038185639203) " fill="#000000" font-size="16" font-family="Helvetica" xml:space="preserve">e</text>
  <g transform="matrix(0.7889349460601807,0,0,-0.7759636640548706,-0.4221497837152697,474.4416688446504) " id="svg_39">
   <clipPath transform="translate(-1.2675176858901978,0) translate(1.2675176858901978,0) translate(1.2675176858901978,0) translate(1.2675176858901978,0) translate(1.2675176858901978,0) translate(-1.2675176858901978,0) translate(-1.2675176858901978,0) translate(-1.2675176858901978,0) translate(1.2675176858901978,0) translate(1.2675176858901978,0) translate(1.2675176858901978,0) translate(-1.2675176858901978,0) translate(-1.2675176858901978,0) translate(-1.2675176858901978,0) " id="clip-268">
    <path id="svg_40" d="m444.7,506.8l0,-59.6l-229.2,0l0,59.6l229.2,0zm0,0"/>
   </clipPath>
   <g id="svg_41" clip-path="url(#clip-268)">
    <path id="svg_42" fill="#FFFFFF" d="m228,504.6l204.2,0c5.7,0 10.4,-4.6 10.4,-10.4l0,-34.5c0,-5.7 -4.7,-10.4 -10.4,-10.4l-204.2,0c-5.7,0 -10.4,4.7 -10.4,10.4l0,34.5c0,5.8 4.7,10.4 10.4,10.4zm0,0"/>
    <path id="svg_43" stroke-linejoin="round" stroke-width="2.25" stroke="#9D6E80" fill="none" d="m228,504.6l204.2,0c5.8,0 10.4,-4.6 10.4,-10.4l0,-34.5c0,-5.8 -4.6,-10.4 -10.4,-10.4l-204.2,0c-5.7,0 -10.4,4.6 -10.4,10.4l0,34.5c0,5.8 4.7,10.4 10.4,10.4zm0,0"/>
   </g>
  </g>
  <g transform="matrix(0.7889349460601807,0,0,-0.7759636640548706,-0.4221497837152697,474.4416688446504) " id="svg_44">
   <clipPath transform="translate(-1.2675176858901978,0) translate(1.2675176858901978,0) translate(1.2675176858901978,0) translate(1.2675176858901978,0) translate(1.2675176858901978,0) translate(-1.2675176858901978,0) translate(-1.2675176858901978,0) translate(-1.2675176858901978,0) translate(1.2675176858901978,0) translate(1.2675176858901978,0) translate(1.2675176858901978,0) translate(-1.2675176858901978,0) translate(-1.2675176858901978,0) translate(-1.2675176858901978,0) " id="clip-269">
    <path id="svg_45" d="m220.6,456.4l218.9,0l0,41.2l-218.9,0l0,-41.2zm0,0"/>
   </clipPath>
   <g id="svg_46" clip-path="url(#clip-269)">
    <text x="0" y="0" id="svg_47" transform="matrix(1,0,0,-1,224,480) " fill="#000000" font-size="14" font-family="Helvetica" xml:space="preserve">A</text>
    <text x="0" y="0" id="svg_48" transform="matrix(1,0,0,-1,233.3,480) " fill="#000000" font-size="14" font-family="Helvetica" xml:space="preserve">m</text>
    <text x="0" y="0" id="svg_49" transform="matrix(1,0,0,-1,245,480) " fill="#000000" font-size="14" font-family="Helvetica" xml:space="preserve">a</text>
    <text x="0" y="0" id="svg_50" transform="matrix(1,0,0,-1,252.8,480) " fill="#000000" font-size="14" font-family="Helvetica" xml:space="preserve">l</text>
    <text x="0" y="0" id="svg_51" transform="matrix(1,0,0,-1,255.9,480) " fill="#000000" font-size="14" font-family="Helvetica" xml:space="preserve">g</text>
    <text x="0" y="0" id="svg_52" transform="matrix(1,0,0,-1,263.7,480) " fill="#000000" font-size="14" font-family="Helvetica" xml:space="preserve">a</text>
    <text x="0" y="0" id="svg_53" transform="matrix(1,0,0,-1,271.5,480) " fill="#000000" font-size="14" font-family="Helvetica" xml:space="preserve">m</text>
    <text x="0" y="0" id="svg_54" transform="matrix(1,0,0,-1,283.1,480) " fill="#000000" font-size="14" font-family="Helvetica" xml:space="preserve">8</text>
    <text x="0" y="0" id="svg_55" transform="matrix(1,0,0,-1,290.9,480) " fill="#000000" font-size="14" font-family="Helvetica" xml:space="preserve"/>
    <text x="0" y="0" id="svg_56" transform="matrix(1,0,0,-1,224,463) " fill="#000000" font-size="14" font-family="Helvetica" xml:space="preserve">R</text>
    <text x="0" y="0" id="svg_57" transform="matrix(1,0,0,-1,234.1,463) " fill="#000000" font-size="14" font-family="Helvetica" xml:space="preserve">e</text>
    <text x="0" y="0" id="svg_58" transform="matrix(1,0,0,-1,241.9,463) " fill="#000000" font-size="14" font-family="Helvetica" xml:space="preserve">g</text>
    <text x="0" y="0" id="svg_59" transform="matrix(1,0,0,-1,249.7,463) " fill="#000000" font-size="14" font-family="Helvetica" xml:space="preserve">i</text>
    <text x="0" y="0" id="svg_60" transform="matrix(1,0,0,-1,252.8,463) " fill="#000000" font-size="14" font-family="Helvetica" xml:space="preserve">s</text>
    <text x="0" y="0" id="svg_61" transform="matrix(1,0,0,-1,259.8,463) " fill="#000000" font-size="14" font-family="Helvetica" xml:space="preserve">t</text>
    <text x="0" y="0" id="svg_62" transform="matrix(1,0,0,-1,263.7,463) " fill="#000000" font-size="14" font-family="Helvetica" xml:space="preserve">r</text>
    <text x="0" y="0" id="svg_63" transform="matrix(1,0,0,-1,268.4,463) " fill="#000000" font-size="14" font-family="Helvetica" xml:space="preserve">y</text>
   </g>
  </g>
  <g transform="matrix(0.7889349460601807,0,0,-0.7759636640548706,-0.4221497837152697,474.4416688446504) " id="svg_64">
   <clipPath transform="translate(-1.2675176858901978,0) translate(1.2675176858901978,0) translate(1.2675176858901978,0) translate(1.2675176858901978,0) translate(1.2675176858901978,0) translate(-1.2675176858901978,0) translate(-1.2675176858901978,0) translate(-1.2675176858901978,0) translate(1.2675176858901978,0) translate(1.2675176858901978,0) translate(1.2675176858901978,0) translate(-1.2675176858901978,0) translate(-1.2675176858901978,0) translate(-1.2675176858901978,0) " id="clip-270">
    <path id="svg_65" d="m216.2,249.6l73,0l0,73.5l-73,0l0,-73.5zm0,0"/>
   </clipPath>
   <g id="svg_66" clip-path="url(#clip-270)">
    <path id="svg_67" fill="#FFFFFF" d="m217.6,262.7l0,47.3c0,6.5 5.2,11.7 11.7,11.7l46.8,0c6.4,0 11.7,-5.2 11.7,-11.7l0,-47.3c0,-6.5 -5.3,-11.7 -11.7,-11.7l-46.8,0c-6.5,0 -11.7,5.2 -11.7,11.7zm0,0"/>
    <path id="svg_68" stroke-linejoin="round" stroke-width="0.75" stroke="#442845" fill="none" d="m217.6,262.7l0,47.3c0,6.5 5.2,11.7 11.7,11.7l46.8,0c6.4,0 11.7,-5.2 11.7,-11.7l0,-47.3c0,-6.5 -5.3,-11.7 -11.7,-11.7l-46.8,0c-6.5,0 -11.7,5.2 -11.7,11.7zm0,0"/>
   </g>
  </g>
  <g transform="matrix(0.7889349460601807,0,0,-0.7759636640548706,-0.4221497837152697,474.4416688446504) " id="svg_69">
   <clipPath transform="translate(-1.2675176858901978,0) translate(1.2675176858901978,0) translate(1.2675176858901978,0) translate(1.2675176858901978,0) translate(1.2675176858901978,0) translate(-1.2675176858901978,0) translate(-1.2675176858901978,0) translate(-1.2675176858901978,0) translate(1.2675176858901978,0) translate(1.2675176858901978,0) translate(1.2675176858901978,0) translate(-1.2675176858901978,0) translate(-1.2675176858901978,0) translate(-1.2675176858901978,0) " id="clip-271">
    <path id="svg_70" d="m219.6,269.4l66.2,0l0,34l-66.2,0l0,-34zm0,0"/>
   </clipPath>
   <g id="svg_71" clip-path="url(#clip-271)">
    <text x="0" y="0" id="svg_72" transform="matrix(1,0,0,-1,246,279) " fill="#000000" font-size="20" font-family="Helvetica" xml:space="preserve">B</text>
   </g>
  </g>
  <path id="svg_73" stroke-linejoin="round" stroke-width="2.25" stroke="#9D6E80" fill="none" d="m321.463308,120.99022l0,163.107562l0,0.85356"/>
  <path id="svg_74" fill="#9D6E80" d="m321.463308,289.68472l4.97029,-8.458004l0,0c0.315574,-0.543175 0.157787,-1.241542 -0.394467,-1.551927c-0.552254,-0.310385 -1.262296,-0.077596 -1.57787,0.387982l-2.997953,5.198957l-3.076846,-5.198957l0,0c-0.315574,-0.465578 -1.025615,-0.698367 -1.57787,-0.387982c-0.552254,0.310385 -0.710041,1.008753 -0.394467,1.551927c0,0 0,0 0,0l5.049184,8.458004zm0,0"/>
  <text x="0" y="0" id="svg_75" transform="matrix(0.7889349460601807,0,0,0.7759636640548706,324.61904799307916,161.72831223053754) " fill="#000000" font-size="14" font-family="Helvetica" xml:space="preserve">W</text>
  <text x="0" y="0" id="svg_76" transform="matrix(0.7889349460601807,0,0,0.7759636640548706,334.63852180804344,161.72831223053754) " fill="#000000" font-size="14" font-family="Helvetica" xml:space="preserve">a</text>
  <text x="0" y="0" id="svg_77" transform="matrix(0.7889349460601807,0,0,0.7759636640548706,340.79221438731287,161.72831223053754) " fill="#000000" font-size="14" font-family="Helvetica" xml:space="preserve">t</text>
  <text x="0" y="0" id="svg_78" transform="matrix(0.7889349460601807,0,0,0.7759636640548706,343.8690606769475,161.72831223053754) " fill="#000000" font-size="14" font-family="Helvetica" xml:space="preserve">c</text>
  <text x="0" y="0" id="svg_79" transform="matrix(0.7889349460601807,0,0,0.7759636640548706,349.3916052993688,161.72831223053754) " fill="#000000" font-size="14" font-family="Helvetica" xml:space="preserve">h</text>
  <text x="0" y="0" id="svg_80" transform="matrix(0.7889349460601807,0,0,0.7759636640548706,355.5452978786382,161.72831223053754) " fill="#000000" font-size="14" font-family="Helvetica" xml:space="preserve"/>
  <text x="0" y="0" id="svg_81" transform="matrix(0.7889349460601807,0,0,0.7759636640548706,324.61904799307916,174.91969451947034) " fill="#000000" font-size="14" font-family="Helvetica" xml:space="preserve">E</text>
  <text x="0" y="0" id="svg_82" transform="matrix(0.7889349460601807,0,0,0.7759636640548706,331.95614299143887,174.91969451947034) " fill="#000000" font-size="14" font-family="Helvetica" xml:space="preserve">n</text>
  <text x="0" y="0" id="svg_83" transform="matrix(0.7889349460601807,0,0,0.7759636640548706,338.1098355707083,174.91969451947034) " fill="#000000" font-size="14" font-family="Helvetica" xml:space="preserve">d</text>
  <text x="0" y="0" id="svg_84" transform="matrix(0.7889349460601807,0,0,0.7759636640548706,344.2635281499776,174.91969451947034) " fill="#000000" font-size="14" font-family="Helvetica" xml:space="preserve">p</text>
  <text x="0" y="0" id="svg_85" transform="matrix(0.7889349460601807,0,0,0.7759636640548706,350.41722072924705,174.91969451947034) " fill="#000000" font-size="14" font-family="Helvetica" xml:space="preserve">o</text>
  <text x="0" y="0" id="svg_86" transform="matrix(0.7889349460601807,0,0,0.7759636640548706,356.5709133085165,174.91969451947034) " fill="#000000" font-size="14" font-family="Helvetica" xml:space="preserve">i</text>
  <text x="0" y="0" id="svg_87" transform="matrix(0.7889349460601807,0,0,0.7759636640548706,359.0166116413031,174.91969451947034) " fill="#000000" font-size="14" font-family="Helvetica" xml:space="preserve">n</text>
  <text x="0" y="0" id="svg_88" transform="matrix(0.7889349460601807,0,0,0.7759636640548706,365.1703042205724,174.91969451947034) " fill="#000000" font-size="14" font-family="Helvetica" xml:space="preserve">t</text>
  <text x="0" y="0" id="svg_89" transform="matrix(0.7889349460601807,0,0,0.7759636640548706,368.2471505102072,174.91969451947034) " fill="#000000" font-size="14" font-family="Helvetica" xml:space="preserve">s</text>
  <g transform="matrix(0.7889349460601807,0,0,-0.7759636640548706,-0.4221497837152697,474.4416688446504) " id="svg_90">
   <clipPath transform="translate(-1.2675176858901978,0) translate(1.2675176858901978,0) translate(1.2675176858901978,0) translate(1.2675176858901978,0) translate(1.2675176858901978,0) translate(-1.2675176858901978,0) translate(-1.2675176858901978,0) translate(-1.2675176858901978,0) translate(1.2675176858901978,0) translate(1.2675176858901978,0) translate(1.2675176858901978,0) translate(-1.2675176858901978,0) translate(-1.2675176858901978,0) translate(-1.2675176858901978,0) " id="clip-272">
    <path id="svg_91" d="m369.2,171.6l76.3,0l0,66.1l-76.3,0l0,-66.1zm0,0"/>
   </clipPath>
   <g id="svg_92" clip-path="url(#clip-272)">
    <path id="svg_93" fill="#4E81BD" d="m370.2,183.3l0,42.7c0,5.9 4.8,10.7 10.7,10.7l52.9,0c5.9,0 10.7,-4.8 10.7,-10.7l0,-42.7c0,-5.9 -4.8,-10.7 -10.7,-10.7l-52.9,0c-5.9,0 -10.7,4.8 -10.7,10.7zm0,0"/>
   </g>
  </g>
  <g transform="matrix(0.7889349460601807,0,0,-0.7759636640548706,-0.4221497837152697,474.4416688446504) " id="svg_94">
   <clipPath transform="translate(-1.2675176858901978,0) translate(1.2675176858901978,0) translate(1.2675176858901978,0) translate(1.2675176858901978,0) translate(1.2675176858901978,0) translate(-1.2675176858901978,0) translate(-1.2675176858901978,0) translate(-1.2675176858901978,0) translate(1.2675176858901978,0) translate(1.2675176858901978,0) translate(1.2675176858901978,0) translate(-1.2675176858901978,0) translate(-1.2675176858901978,0) translate(-1.2675176858901978,0) " id="clip-273">
    <path id="svg_95" d="m373.3,184.1l68.1,0l0,41.2l-68.1,0l0,-41.2zm0,0"/>
   </clipPath>
   <g id="svg_96" clip-path="url(#clip-273)">
    <text x="0" y="0" id="svg_97" transform="matrix(1,0,0,-1,395,208) " fill="#FFFFFF" font-size="14" font-family="Helvetica" xml:space="preserve">K</text>
    <text x="0" y="0" id="svg_98" transform="matrix(1,0,0,-1,404.3,208) " fill="#FFFFFF" font-size="14" font-family="Helvetica" xml:space="preserve">8</text>
    <text x="0" y="0" id="svg_99" transform="matrix(1,0,0,-1,412.1,208) " fill="#FFFFFF" font-size="14" font-family="Helvetica" xml:space="preserve">s</text>
    <text x="0" y="0" id="svg_100" transform="matrix(1,0,0,-1,419.1,208) " fill="#FFFFFF" font-size="14" font-family="Helvetica" xml:space="preserve"/>
    <text x="0" y="0" id="svg_101" transform="matrix(1,0,0,-1,382,191) " fill="#FFFFFF" font-size="14" font-family="Helvetica" xml:space="preserve">R</text>
    <text x="0" y="0" id="svg_102" transform="matrix(1,0,0,-1,392.1,191) " fill="#FFFFFF" font-size="14" font-family="Helvetica" xml:space="preserve">e</text>
    <text x="0" y="0" id="svg_103" transform="matrix(1,0,0,-1,399.9,191) " fill="#FFFFFF" font-size="14" font-family="Helvetica" xml:space="preserve">g</text>
    <text x="0" y="0" id="svg_104" transform="matrix(1,0,0,-1,407.7,191) " fill="#FFFFFF" font-size="14" font-family="Helvetica" xml:space="preserve">i</text>
    <text x="0" y="0" id="svg_105" transform="matrix(1,0,0,-1,410.8,191) " fill="#FFFFFF" font-size="14" font-family="Helvetica" xml:space="preserve">s</text>
    <text x="0" y="0" id="svg_106" transform="matrix(1,0,0,-1,417.8,191) " fill="#FFFFFF" font-size="14" font-family="Helvetica" xml:space="preserve">t</text>
    <text x="0" y="0" id="svg_107" transform="matrix(1,0,0,-1,421.7,191) " fill="#FFFFFF" font-size="14" font-family="Helvetica" xml:space="preserve">r</text>
    <text x="0" y="0" id="svg_108" transform="matrix(1,0,0,-1,426.4,191) " fill="#FFFFFF" font-size="14" font-family="Helvetica" xml:space="preserve">y</text>
   </g>
  </g>
  <g transform="matrix(0.7889349460601807,0,0,-0.7759636640548706,-0.4221497837152697,474.4416688446504) " id="svg_109">
   <clipPath transform="translate(-1.2675176858901978,0) translate(1.2675176858901978,0) translate(1.2675176858901978,0) translate(1.2675176858901978,0) translate(1.2675176858901978,0) translate(-1.2675176858901978,0) translate(-1.2675176858901978,0) translate(-1.2675176858901978,0) translate(1.2675176858901978,0) translate(1.2675176858901978,0) translate(1.2675176858901978,0) translate(-1.2675176858901978,0) translate(-1.2675176858901978,0) translate(-1.2675176858901978,0) " id="clip-274">
    <path id="svg_110" d="m340.4,454.5l97.6,0l0,42.9l-97.6,0l0,-42.9zm0,0"/>
   </clipPath>
   <g id="svg_111" clip-path="url(#clip-274)">
    <path id="svg_112" fill="#4E81BD" d="m341.4,462.3l0,27.3c0,3.7 3.1,6.8 6.8,6.8l82,0c3.8,0 6.8,-3.1 6.8,-6.8l0,-27.3c0,-3.8 -3,-6.8 -6.8,-6.8l-82,0c-3.7,0 -6.8,3 -6.8,6.8zm0,0"/>
   </g>
  </g>
  <g transform="matrix(0.7889349460601807,0,0,-0.7759636640548706,-0.4221497837152697,474.4416688446504) " id="svg_113">
   <clipPath transform="translate(-1.2675176858901978,0) translate(1.2675176858901978,0) translate(1.2675176858901978,0) translate(1.2675176858901978,0) translate(1.2675176858901978,0) translate(-1.2675176858901978,0) translate(-1.2675176858901978,0) translate(-1.2675176858901978,0) translate(1.2675176858901978,0) translate(1.2675176858901978,0) translate(1.2675176858901978,0) translate(-1.2675176858901978,0) translate(-1.2675176858901978,0) translate(-1.2675176858901978,0) " id="clip-275">
    <path id="svg_114" d="m343.4,455.3l91.6,0l0,41.2l-91.6,0l0,-41.2zm0,0"/>
   </clipPath>
   <g id="svg_115" clip-path="url(#clip-275)">
    <text x="0" y="0" id="svg_116" transform="matrix(1,0,0,-1,352,479) " fill="#FFFFFF" font-size="14" font-family="Helvetica" xml:space="preserve">K</text>
    <text x="0" y="0" id="svg_117" transform="matrix(1,0,0,-1,361.3,479) " fill="#FFFFFF" font-size="14" font-family="Helvetica" xml:space="preserve">8</text>
    <text x="0" y="0" id="svg_118" transform="matrix(1,0,0,-1,369.1,479) " fill="#FFFFFF" font-size="14" font-family="Helvetica" xml:space="preserve">s</text>
    <text x="0" y="0" id="svg_119" transform="matrix(1,0,0,-1,376.1,479) " fill="#FFFFFF" font-size="14" font-family="Helvetica" xml:space="preserve"/>
    <text x="0" y="0" id="svg_120" transform="matrix(1,0,0,-1,380,479) " fill="#FFFFFF" font-size="14" font-family="Helvetica" xml:space="preserve">r</text>
    <text x="0" y="0" id="svg_121" transform="matrix(1,0,0,-1,384.7,479) " fill="#FFFFFF" font-size="14" font-family="Helvetica" xml:space="preserve">e</text>
    <text x="0" y="0" id="svg_122" transform="matrix(1,0,0,-1,392.5,479) " fill="#FFFFFF" font-size="14" font-family="Helvetica" xml:space="preserve">g</text>
    <text x="0" y="0" id="svg_123" transform="matrix(1,0,0,-1,400.3,479) " fill="#FFFFFF" font-size="14" font-family="Helvetica" xml:space="preserve">i</text>
    <text x="0" y="0" id="svg_124" transform="matrix(1,0,0,-1,403.4,479) " fill="#FFFFFF" font-size="14" font-family="Helvetica" xml:space="preserve">s</text>
    <text x="0" y="0" id="svg_125" transform="matrix(1,0,0,-1,410.4,479) " fill="#FFFFFF" font-size="14" font-family="Helvetica" xml:space="preserve">t</text>
    <text x="0" y="0" id="svg_126" transform="matrix(1,0,0,-1,414.3,479) " fill="#FFFFFF" font-size="14" font-family="Helvetica" xml:space="preserve">r</text>
    <text x="0" y="0" id="svg_127" transform="matrix(1,0,0,-1,418.9,479) " fill="#FFFFFF" font-size="14" font-family="Helvetica" xml:space="preserve">y</text>
    <text x="0" y="0" id="svg_128" transform="matrix(1,0,0,-1,425.9,479) " fill="#FFFFFF" font-size="14" font-family="Helvetica" xml:space="preserve"/>
    <text x="0" y="0" id="svg_129" transform="matrix(1,0,0,-1,365,462) " fill="#FFFFFF" font-size="14" font-family="Helvetica" xml:space="preserve">a</text>
    <text x="0" y="0" id="svg_130" transform="matrix(1,0,0,-1,372.8,462) " fill="#FFFFFF" font-size="14" font-family="Helvetica" xml:space="preserve">d</text>
    <text x="0" y="0" id="svg_131" transform="matrix(1,0,0,-1,380.6,462) " fill="#FFFFFF" font-size="14" font-family="Helvetica" xml:space="preserve">a</text>
    <text x="0" y="0" id="svg_132" transform="matrix(1,0,0,-1,388.4,462) " fill="#FFFFFF" font-size="14" font-family="Helvetica" xml:space="preserve">p</text>
    <text x="0" y="0" id="svg_133" transform="matrix(1,0,0,-1,396.2,462) " fill="#FFFFFF" font-size="14" font-family="Helvetica" xml:space="preserve">t</text>
    <text x="0" y="0" id="svg_134" transform="matrix(1,0,0,-1,400,462) " fill="#FFFFFF" font-size="14" font-family="Helvetica" xml:space="preserve">e</text>
    <text x="0" y="0" id="svg_135" transform="matrix(1,0,0,-1,407.8,462) " fill="#FFFFFF" font-size="14" font-family="Helvetica" xml:space="preserve">r</text>
   </g>
  </g>
  <g transform="matrix(0.7889349460601807,0,0,-0.7759636640548706,-0.4221497837152697,474.4416688446504) " id="svg_136">
   <clipPath transform="translate(-1.2675176858901978,0) translate(1.2675176858901978,0) translate(1.2675176858901978,0) translate(1.2675176858901978,0) translate(1.2675176858901978,0) translate(-1.2675176858901978,0) translate(-1.2675176858901978,0) translate(-1.2675176858901978,0) translate(1.2675176858901978,0) translate(1.2675176858901978,0) translate(1.2675176858901978,0) translate(-1.2675176858901978,0) translate(-1.2675176858901978,0) translate(-1.2675176858901978,0) " id="clip-276">
    <path id="svg_137" d="m383.8,343.6l0,-56.9l-65.9,0l0,56.9l65.9,0zm0,0"/>
   </clipPath>
   <g id="svg_138" clip-path="url(#clip-276)">
    <path id="svg_139" fill="#8DB3E2" d="m328.7,342.1l44.3,0c5.1,0 9.3,-4.1 9.3,-9.3l0,-35.3c0,-5.2 -4.2,-9.3 -9.3,-9.3l-44.3,0c-5.1,0 -9.3,4.1 -9.3,9.3l0,35.3c0,5.2 4.2,9.3 9.3,9.3zm0,0"/>
    <path id="svg_140" stroke-dasharray="4.0, 3.0" stroke-linejoin="round" stroke="#000000" fill="none" d="m328.7,342.1l44.3,0c5.1,0 9.3,-4.2 9.3,-9.3l0,-35.4c0,-5.1 -4.2,-9.2 -9.3,-9.2l-44.3,0c-5.1,0 -9.3,4.1 -9.3,9.2l0,35.4c0,5.1 4.2,9.3 9.3,9.3zm0,0"/>
   </g>
  </g>
  <g transform="matrix(0.7889349460601807,0,0,-0.7759636640548706,-0.4221497837152697,474.4416688446504) " id="svg_141">
   <clipPath transform="translate(-1.2675176858901978,0) translate(1.2675176858901978,0) translate(1.2675176858901978,0) translate(1.2675176858901978,0) translate(1.2675176858901978,0) translate(-1.2675176858901978,0) translate(-1.2675176858901978,0) translate(-1.2675176858901978,0) translate(1.2675176858901978,0) translate(1.2675176858901978,0) translate(1.2675176858901978,0) translate(-1.2675176858901978,0) translate(-1.2675176858901978,0) translate(-1.2675176858901978,0) " id="clip-277">
    <path id="svg_142" d="m322.1,297.6l61.9,0l0,35.2l-61.9,0l0,-35.2zm0,0"/>
   </clipPath>
   <g id="svg_143" clip-path="url(#clip-277)">
    <text x="0" y="0" id="svg_144" transform="matrix(1,0,0,-1,328,318) " fill="#000000" font-size="12" font-family="Helvetica" xml:space="preserve">s</text>
    <text x="0" y="0" id="svg_145" transform="matrix(1,0,0,-1,334,318) " fill="#000000" font-size="12" font-family="Helvetica" xml:space="preserve">e</text>
    <text x="0" y="0" id="svg_146" transform="matrix(1,0,0,-1,340.7,318) " fill="#000000" font-size="12" font-family="Helvetica" xml:space="preserve">r</text>
    <text x="0" y="0" id="svg_147" transform="matrix(1,0,0,-1,344.7,318) " fill="#000000" font-size="12" font-family="Helvetica" xml:space="preserve">v</text>
    <text x="0" y="0" id="svg_148" transform="matrix(1,0,0,-1,350.7,318) " fill="#000000" font-size="12" font-family="Helvetica" xml:space="preserve">i</text>
    <text x="0" y="0" id="svg_149" transform="matrix(1,0,0,-1,353.3,318) " fill="#000000" font-size="12" font-family="Helvetica" xml:space="preserve">c</text>
    <text x="0" y="0" id="svg_150" transform="matrix(1,0,0,-1,359.3,318) " fill="#000000" font-size="12" font-family="Helvetica" xml:space="preserve">e</text>
    <text x="0" y="0" id="svg_151" transform="matrix(1,0,0,-1,366,318) " fill="#000000" font-size="12" font-family="Helvetica" xml:space="preserve">B</text>
    <text x="0" y="0" id="svg_152" transform="matrix(1,0,0,-1,338,304) " fill="#000000" font-size="12" font-family="Helvetica" xml:space="preserve">y</text>
    <text x="0" y="0" id="svg_153" transform="matrix(1,0,0,-1,344,304) " fill="#000000" font-size="12" font-family="Helvetica" xml:space="preserve">a</text>
    <text x="0" y="0" id="svg_154" transform="matrix(1,0,0,-1,350.7,304) " fill="#000000" font-size="12" font-family="Helvetica" xml:space="preserve">m</text>
    <text x="0" y="0" id="svg_155" transform="matrix(1,0,0,-1,360.7,304) " fill="#000000" font-size="12" font-family="Helvetica" xml:space="preserve">l</text>
   </g>
  </g>
  <path id="svg_156" stroke-dasharray="6.0, 4.5" stroke-linejoin="round" stroke-width="1.5" stroke="#000000" fill="none" d="m278.939715,254.921548l19.978989,32.121016l0.287172,0.461698"/>
  <path id="svg_157" fill="#000000" d="m301.18768,290.77107l-0.157787,-7.294058l0,0c0,-0.465578 -0.394467,-0.85356 -0.867828,-0.85356c-0.473361,0 -0.867828,0.387982 -0.867828,0.85356l0.157787,4.422993l-3.944675,-2.095102l0,0c-0.473361,-0.232789 -0.946722,-0.077596 -1.183402,0.310385c-0.23668,0.465578 -0.078893,0.931156 0.315574,1.163945c0,0 0,0 0,0l6.54816,3.491836zm0,0"/>
 </g>
</svg>